<?xml version="1.0" standalone="no"?>
<!DOCTYPE svg PUBLIC "-//W3C//DTD SVG 1.1//EN" "http://www.w3.org/Graphics/SVG/1.1/DTD/svg11.dtd" >
<svg xmlns="http://www.w3.org/2000/svg" xmlns:xlink="http://www.w3.org/1999/xlink" version="1.1">
<metadata>
Created by FontForge 20170731 at Thu Mar 21 19:53:10 2019
 By Aleksey,,,
Copyright (c) 2019 Monotype Imaging Inc. All rights reserved.
</metadata>
<defs>
<font id="HelveticaNowText-Regular" horiz-adv-x="640" >
  <font-face 
    font-family="Helvetica Now Text"
    font-weight="400"
    font-stretch="normal"
    units-per-em="1000"
    panose-1="2 11 5 4 3 2 2 2 2 4"
    ascent="875"
    descent="-125"
    x-height="516"
    cap-height="712"
    bbox="-326 -345 1597 1109"
    underline-thickness="50"
    underline-position="-150"
    unicode-range="U+000D-FEFF"
  />
<missing-glyph horiz-adv-x="733" 
d="M85 712h563v-712h-563v712zM555 81v550h-377v-550h377z" />
    <glyph glyph-name="fi" unicode="fi" horiz-adv-x="610" 
d="M241 629q-14 -6 -20 -20t-6 -39v-58l118 4v-71l-118 4v-449h-92v449l-83 -4v71l83 -3v44q0 81 37 118t118 37h55v-77h-53q-25 0 -39 -6zM438 712h92v-99h-92v99zM438 516h92v-516h-92v516z" />
    <glyph glyph-name="fl" unicode="fl" horiz-adv-x="610" 
d="M241 629q-14 -6 -20 -20t-6 -39v-58l118 4v-71l-118 4v-449h-92v449l-83 -4v71l83 -3v44q0 81 37 118t118 37h55v-77h-53q-25 0 -39 -6zM438 712h92v-712h-92v712z" />
    <glyph glyph-name=".notdef" horiz-adv-x="733" 
d="M85 712h563v-712h-563v712zM555 81v550h-377v-550h377z" />
    <glyph glyph-name=".null" horiz-adv-x="0" 
 />
    <glyph glyph-name="nonmarkingreturn" horiz-adv-x="333" 
 />
    <glyph glyph-name="NULL" horiz-adv-x="0" 
 />
    <glyph glyph-name="NULL" horiz-adv-x="0" 
 />
    <glyph glyph-name="CR" unicode="&#xd;" horiz-adv-x="270" 
 />
    <glyph glyph-name="space" unicode=" " horiz-adv-x="270" 
 />
    <glyph glyph-name="exclam" unicode="!" horiz-adv-x="273" 
d="M90 507v205h93v-205l-27 -339h-39zM85 101h103v-101h-103v101z" />
    <glyph glyph-name="quotedbl" unicode="&#x22;" horiz-adv-x="440" 
d="M80 712h82v-276h-82v276zM279 712h81v-276h-81v276z" />
    <glyph glyph-name="numbersign" unicode="#" horiz-adv-x="673" 
d="M510 454l-28 -196l110 3v-75l-119 3l-27 -189h-75l27 190h-169l-27 -190h-75l27 189l-111 -3v75l120 -3l28 196l-110 -3v76l120 -3l26 188h75l-27 -189h169l27 189h75l-26 -188l110 3v-76zM407 257l28 198h-169l-28 -198h169z" />
    <glyph glyph-name="dollar" unicode="$" 
d="M547.5 107.5q-25.5 -44.5 -72 -71.5t-109.5 -34v-146h-79v146q-95 8 -150 63.5t-69 155.5h88q9 -72 48.5 -108t122.5 -36q79 0 117.5 33.5t38.5 88.5q0 49 -30.5 75t-94.5 41l-80 19q-95 22 -140.5 68.5t-45.5 120.5q0 80 50 129.5t145 57.5v137h79v-137q88 -9 134.5 -59
t55.5 -131h-88q-9 59 -44.5 87t-103.5 28q-70 0 -104 -27t-34 -82q0 -26 9.5 -46.5t36.5 -37.5t76 -28l81 -19q101 -24 144.5 -69.5t43.5 -115.5q0 -58 -25.5 -102.5z" />
    <glyph glyph-name="percent" unicode="%" horiz-adv-x="1217" 
d="M132 363q-47 58 -47 168t47 168t137 58q91 0 138 -58t47 -168t-47 -168t-138 -58q-90 0 -137 58zM775 727h91l-446 -742h-93zM346 412.5q25 36.5 25 118.5t-25 118.5t-77 36.5t-76.5 -36.5t-24.5 -118.5q0 -83 24.5 -119t76.5 -36t77 36.5zM810 42q-47 58 -47 168t47 168
t137 58q91 0 138 -58t47 -168t-47 -168t-138 -58q-90 0 -137 58zM1024 91.5q25 36.5 25 118.5t-25 118.5t-77 36.5t-76.5 -36.5t-24.5 -118.5q0 -83 24.5 -119t76.5 -36t77 36.5z" />
    <glyph glyph-name="ampersand" unicode="&#x26;" horiz-adv-x="783" 
d="M636 -1l-75 76q-47 -46 -102.5 -68.5t-123.5 -22.5q-75 0 -133 26t-90 74t-32 112q0 148 161 206q-43 47 -59 84.5t-16 74.5q0 50 24 88t67 59t99 21q55 0 98.5 -20.5t68 -58t24.5 -87.5q0 -65 -41 -111t-118 -77l171 -173q24 53 32 121l88 -1q-6 -51 -21 -94.5
t-42 -84.5l142 -144h-122zM305 641q-23 -10 -36.5 -30.5t-13.5 -48.5q0 -53 52 -105l25 -26q65 23 95.5 53.5t30.5 74.5q0 28 -14 49t-37.5 32t-51.5 11q-27 0 -50 -10zM427 76q43 15 79 55l-211 215q-128 -44 -128 -147q0 -40 20 -71t58.5 -49t92.5 -18q46 0 89 15z" />
    <glyph glyph-name="quotesingle" unicode="'" horiz-adv-x="241" 
d="M80 712h81v-276h-81v276z" />
    <glyph glyph-name="parenleft" unicode="(" horiz-adv-x="339" 
d="M101.5 15.5q-37.5 114.5 -37.5 251.5q0 138 37.5 256.5t115.5 223.5h79q-70 -106 -105 -225t-35 -255q0 -134 35 -249t105 -222h-79q-78 105 -115.5 219.5z" />
    <glyph glyph-name="parenright" unicode=")" horiz-adv-x="339" 
d="M148 18q35 115 35 249q0 136 -35 255t-105 225h79q78 -105 115.5 -223.5t37.5 -256.5q0 -137 -37.5 -251.5t-115.5 -219.5h-79q70 107 105 222z" />
    <glyph glyph-name="asterisk" unicode="*" horiz-adv-x="543" 
d="M125 397l97 118l-142 45l26 65l135 -56l-5 143h71l-5 -143l135 56l26 -65l-142 -45l94 -118l-59 -41l-84 125l-84 -125z" />
    <glyph glyph-name="plus" unicode="+" 
d="M595 270h-235v-234h-80v234h-234v80h234v235h80v-235h235v-80z" />
    <glyph glyph-name="comma" unicode="," horiz-adv-x="300" 
d="M96 -93h10q47 0 47 47v51l-58 -5v100h110v-135q0 -108 -99 -108h-10v50z" />
    <glyph glyph-name="hyphen" unicode="-" horiz-adv-x="380" 
d="M50 291h280v-83h-280v83z" />
    <glyph glyph-name="period" unicode="." horiz-adv-x="283" 
d="M85 101h113v-101h-113v101z" />
    <glyph glyph-name="slash" unicode="/" horiz-adv-x="468" 
d="M336 712h92l-296 -712h-92z" />
    <glyph glyph-name="zero" unicode="0" 
d="M135 78.5q-61 90.5 -61 277.5q0 188 61.5 278t185.5 90q123 0 184 -89.5t61 -278.5q0 -186 -62 -277t-185 -91t-184 90.5zM407 98.5q33 29.5 48.5 92.5t15.5 165t-15.5 165t-49 92.5t-86.5 29.5t-86.5 -29.5t-49 -92.5t-15.5 -165t16 -165t49.5 -92.5t86.5 -29.5t86 29.5
z" />
    <glyph glyph-name="one" unicode="1" horiz-adv-x="449" 
d="M228 516h-185v70h27q40 0 69 7t49 22q39 30 55 86l3 11h75v-712h-93v516z" />
    <glyph glyph-name="two" unicode="2" 
d="M103 112.5q17 49.5 51.5 90.5t90.5 76l124 77q50 31 73.5 66t23.5 82q0 63 -37 98t-100 35q-67 0 -103.5 -40t-36.5 -118v-11h-93v15q0 72 29 125.5t82.5 82.5t123.5 29q66 0 117.5 -25.5t81 -73.5t29.5 -113q0 -67 -33.5 -121t-101.5 -97l-89 -56q-53 -34 -81.5 -57
t-41.5 -44t-16 -49h359v-84h-473q4 63 21 112.5z" />
    <glyph glyph-name="three" unicode="3" 
d="M181.5 14.5q-59.5 28.5 -92.5 82.5t-36 129h93q4 -78 48.5 -117.5t128.5 -39.5t126.5 37t42.5 101q0 60 -37.5 93t-112.5 33h-76v81h51q67 0 101 28.5t34 81.5q0 57 -36 85.5t-104 28.5q-70 0 -103.5 -33t-37.5 -107h-93q4 108 66.5 165.5t171.5 57.5q69 0 121.5 -23.5
t81 -66.5t28.5 -99q0 -106 -105 -150v-3q71 -14 108 -58.5t37 -113.5q0 -66 -33.5 -116t-93.5 -77.5t-139 -27.5q-80 0 -139.5 28.5z" />
    <glyph glyph-name="four" unicode="4" 
d="M586 249v-81h-115v-168h-93v168h-324v87l346 457h71v-463h115zM378 548h-2l-227 -299h229v299z" />
    <glyph glyph-name="five" unicode="5" 
d="M196 8.5q-51 24.5 -82 70.5t-38 110h90q9 -64 49.5 -96t101.5 -32q72 0 111.5 44t39.5 123q0 52 -18 89.5t-52 57t-80 19.5q-83 0 -131 -62h-93l71 380h360v-84h-295l-38 -203l2 -2q33 23 66 35.5t77 12.5q70 0 121.5 -32t78 -87t26.5 -122q0 -70 -29 -126t-85 -88
t-135 -32q-67 0 -118 24.5z" />
    <glyph glyph-name="six" unicode="6" 
d="M457.5 435q50.5 -29 78.5 -82t28 -121q0 -73 -29.5 -128.5t-84 -86t-127.5 -30.5q-115 0 -179 81q-35 45 -52 112.5t-17 159.5q0 121 29 207.5t87 133t142 46.5q60 0 107 -22.5t75 -64.5t31 -99h-88q-7 51 -40.5 80t-86.5 29q-80 0 -121.5 -68t-45.5 -206q29 43 74 65.5
t102 22.5q67 0 117.5 -29zM402 83.5q33 19.5 51 56.5t18 87q0 49 -17.5 85t-50.5 55.5t-77 19.5t-77.5 -19.5t-52.5 -55t-19 -82.5q0 -38 10.5 -69t30.5 -53q20 -21 47 -32.5t60 -11.5q44 0 77 19.5z" />
    <glyph glyph-name="seven" unicode="7" 
d="M262.5 362q70.5 151 195.5 264h-389v86h501v-72q-134 -110 -208 -265t-93 -375h-99q22 211 92.5 362z" />
    <glyph glyph-name="eight" unicode="8" 
d="M182.5 9q-61.5 25 -97 74t-35.5 117q0 69 37 116.5t100 66.5v1q-48 22 -75 62.5t-27 95.5q0 56 29.5 97t82.5 63t123 22t123 -22t82.5 -63t29.5 -97q0 -55 -27 -95.5t-75 -62.5v-1q63 -19 100 -66.5t37 -116.5q0 -68 -35.5 -117t-97 -74t-137.5 -25t-137.5 25zM429 449.5
q38 30.5 38 86.5q0 55 -38 83t-109 28t-109 -28t-38 -83q0 -56 38.5 -86.5t108.5 -30.5q71 0 109 30.5zM413.5 78q39.5 17 60.5 49t21 76q0 43 -21 74.5t-60.5 48t-93.5 16.5t-93.5 -16.5t-60.5 -48t-21 -74.5q0 -44 21 -76t60.5 -49t93.5 -17t93.5 17z" />
    <glyph glyph-name="nine" unicode="9" 
d="M548 533.5q17 -67.5 17 -159.5q0 -121 -29 -207.5t-87 -133t-142 -46.5q-60 0 -107 22.5t-75 64.5t-31 99h88q7 -51 40.5 -80t86.5 -29q80 0 121.5 68t45.5 206q-29 -43 -74 -65.5t-102 -22.5q-67 0 -117.5 29t-78.5 82t-28 121q0 73 29.5 128.5t84 86t127.5 30.5
q115 0 179 -81q35 -45 52 -112.5zM391.5 346.5q33.5 19.5 52.5 55t19 82.5q0 38 -10.5 69t-30.5 53q-20 21 -47 32.5t-60 11.5q-44 0 -77 -19.5t-51 -56.5t-18 -87q0 -49 17.5 -85t50.5 -55.5t77 -19.5t77.5 19.5z" />
    <glyph glyph-name="colon" unicode=":" horiz-adv-x="283" 
d="M85 516h113v-101h-113v101zM85 101h113v-101h-113v101z" />
    <glyph glyph-name="semicolon" unicode=";" horiz-adv-x="303" 
d="M95 516h113v-101h-113v101zM99 -93h10q47 0 47 47v51l-58 -5v100h110v-135q0 -108 -99 -108h-10v50z" />
    <glyph glyph-name="less" unicode="&#x3c;" 
d="M594 470l-456 -167l456 -166v-90l-547 207v98l547 208v-90z" />
    <glyph glyph-name="equal" unicode="=" 
d="M56 459h529v-80h-529v80zM56 240h529v-80h-529v80z" />
    <glyph glyph-name="greater" unicode="&#x3e;" 
d="M594 352v-98l-547 -207v90l456 166l-456 167v90z" />
    <glyph glyph-name="question" unicode="?" horiz-adv-x="609" 
d="M243 207q0 46 11.5 78t38 58.5t73.5 54.5q52 30 72.5 62t20.5 69q0 61 -43 91.5t-114 30.5q-82 0 -121 -40t-42 -116h-88q6 108 68.5 169t182.5 61q72 0 127 -23t85.5 -67.5t30.5 -107.5q0 -55 -24.5 -98.5t-78.5 -77.5l-48 -31q-27 -18 -40.5 -34t-18.5 -39t-5 -63v-8
h-87v31zM236 101h103v-101h-103v101z" />
    <glyph glyph-name="at" unicode="@" horiz-adv-x="1080" 
d="M788 676q101 -53 154 -144t53 -203q0 -79 -26 -143t-73 -101t-110 -37q-94 0 -122 77q-22 -37 -59 -57t-82 -20q-60 0 -103 28.5t-65.5 80t-22.5 120.5t24 120t67.5 78t99.5 27q41 0 76 -17t59 -49l4 53h74v-317q0 -26 14 -41.5t41 -15.5q33 0 61 22t45.5 67.5
t17.5 113.5q0 97 -43.5 172.5t-127 118.5t-198.5 43q-117 0 -200.5 -45t-127 -129.5t-43.5 -200.5q0 -117 43.5 -201t126.5 -128t201 -44q101 0 190 33v-79q-84 -29 -187 -29q-141 0 -246 53.5t-161.5 154.5t-56.5 240q0 136 57 238t162 158t245 56q138 0 239 -53z
M613.5 144.5q30.5 32.5 40.5 86.5v95q-11 52 -42 81.5t-78 29.5q-58 0 -88 -42t-30 -118t30.5 -120.5t87.5 -44.5q49 0 79.5 32.5z" />
    <glyph glyph-name="A" unicode="A" horiz-adv-x="716" 
d="M508 209h-302l-77 -209h-99l276 712h105l275 -712h-103zM479 290l-97 270l-23 74l-24 -74l-99 -270h243z" />
    <glyph glyph-name="B" unicode="B" horiz-adv-x="723" 
d="M614.5 318.5q33.5 -43.5 33.5 -111.5q0 -64 -28 -110.5t-81 -71.5t-126 -25h-328v712h321q65 0 112 -20.5t72 -59.5t25 -94t-26.5 -95t-76.5 -60q69 -21 102.5 -64.5zM178 631v-221h208q65 0 99.5 30t34.5 85q0 53 -32 79.5t-93 26.5h-217zM516 113q37 32 37 94
q0 61 -37.5 93t-109.5 32h-228v-251h228q73 0 110 32z" />
    <glyph glyph-name="C" unicode="C" horiz-adv-x="732" 
d="M215 31q-73 48 -112 132.5t-39 192.5t39.5 192t112 130.5t169.5 46.5q74 0 137 -28t104 -79.5t52 -120.5h-95q-16 70 -67.5 107.5t-126.5 37.5q-71 0 -123 -34.5t-79.5 -99t-27.5 -152.5q0 -89 27.5 -154t79 -100.5t123.5 -35.5q85 0 139 49t67 144h92
q-12 -85 -51.5 -147.5t-103 -95.5t-146.5 -33q-98 0 -171 48z" />
    <glyph glyph-name="D" unicode="D" horiz-adv-x="713" 
d="M515 669q70 -43 105 -122.5t35 -190.5q0 -109 -36.5 -189t-111 -123.5t-185.5 -43.5h-237v712h257q103 0 173 -43zM501 149q59 68 59 207q0 140 -59 207.5t-178 67.5h-145v-550h140q124 0 183 68z" />
    <glyph glyph-name="E" unicode="E" horiz-adv-x="663" 
d="M598 81v-81h-513v712h504v-81h-411v-224h379v-81h-379v-245h420z" />
    <glyph glyph-name="F" unicode="F" horiz-adv-x="597" 
d="M178 631v-224h326v-81h-326v-326h-93v712h487v-81h-394z" />
    <glyph glyph-name="G" unicode="G" horiz-adv-x="807" 
d="M722 381v-381h-68l-21 96q-37 -54 -96 -83t-136 -29q-98 0 -174.5 45t-119.5 130t-43 199q0 111 41 194.5t118.5 129.5t183.5 46q81 0 145 -27t105 -77t52 -118l-90 -6q-15 73 -71 109t-136 36q-81 0 -137.5 -35t-86 -100t-29.5 -155q0 -86 29 -151t84 -101t131 -36
q91 0 149.5 51.5t77.5 142.5v39h-216v81h308z" />
    <glyph glyph-name="H" unicode="H" horiz-adv-x="733" 
d="M648 712v-712h-93v338h-377v-338h-93v712h93v-293h377v293h93z" />
    <glyph glyph-name="I" unicode="I" horiz-adv-x="263" 
d="M85 712h93v-712h-93v712z" />
    <glyph glyph-name="J" unicode="J" horiz-adv-x="547" 
d="M146 12q-47 24 -71.5 69.5t-24.5 108.5v53h93v-48q0 -124 117 -124q109 0 109 124v517h93v-520q0 -100 -52 -152t-151 -52q-66 0 -113 24z" />
    <glyph glyph-name="K" unicode="K" horiz-adv-x="714" 
d="M298 366l-120 -117v-249h-93v712h93v-349l362 349h124l-301 -287l321 -425h-116z" />
    <glyph glyph-name="L" unicode="L" horiz-adv-x="594" 
d="M549 81v-81h-464v712h93v-631h371z" />
    <glyph glyph-name="M" unicode="M" horiz-adv-x="875" 
d="M790 712v-712h-85v472l2 128l-51 -127l-170 -473h-88l-184 489l-47 112l3 -129v-472h-85v712h131l202 -544l24 -71l24 71l195 544h129z" />
    <glyph glyph-name="N" unicode="N" horiz-adv-x="736" 
d="M651 712v-712h-106l-372 578v-578h-88v712h103l375 -581v581h88z" />
    <glyph glyph-name="O" unicode="O" horiz-adv-x="801" 
d="M225.5 30.5q-76.5 47.5 -119 132.5t-42.5 193q0 107 42.5 191t119 131t174.5 47q99 0 175.5 -47t119 -131t42.5 -191q0 -109 -42.5 -193.5t-119 -132t-175.5 -47.5q-98 0 -174.5 47.5zM526.5 101.5q54.5 35.5 85 101t30.5 153.5q0 86 -30.5 151t-85.5 100t-125 35
q-71 0 -126 -35t-85.5 -100t-30.5 -151q0 -87 30.5 -153t85.5 -101.5t126 -35.5t125.5 35.5z" />
    <glyph glyph-name="P" unicode="P" horiz-adv-x="650" 
d="M499.5 689q51.5 -23 79.5 -68.5t28 -112.5q0 -69 -28.5 -116.5t-80.5 -71t-122 -23.5h-198v-297h-93v712h293q70 0 121.5 -23zM478 411.5q36 33.5 36 95.5t-36.5 93t-104.5 31h-195v-253h200q64 0 100 33.5z" />
    <glyph glyph-name="Q" unicode="Q" horiz-adv-x="800" 
d="M710.5 200.5q-26.5 -71.5 -75.5 -121.5l101 -74l-47 -62l-111 89q-79 -49 -178 -49q-98 0 -174.5 47.5t-119 132.5t-42.5 193q0 107 42.5 191t119 131t174.5 47q99 0 175.5 -47t119 -131t42.5 -191q0 -84 -26.5 -155.5zM189.5 203q30.5 -66 85.5 -101.5t126 -35.5
q54 0 102 23l-74 51l48 63l87 -70q37 39 57.5 96t20.5 127q0 86 -30.5 151t-85.5 100t-125 35q-71 0 -126 -35t-85.5 -100t-30.5 -151q0 -87 30.5 -153z" />
    <glyph glyph-name="R" unicode="R" horiz-adv-x="716" 
d="M641 0h-94l-21 190q-5 42 -19 67.5t-40.5 37.5t-68.5 12h-220v-307h-93v712h330q67 0 116.5 -23t75.5 -65.5t26 -99.5q0 -68 -34.5 -115t-92.5 -63q47 -9 75.5 -39.5t33.5 -79.5zM497 421.5q41 33.5 41 93.5q0 56 -36 86t-103 30h-221v-243h205q73 0 114 33.5z" />
    <glyph glyph-name="S" unicode="S" horiz-adv-x="668" 
d="M134 46.5q-74 61.5 -83 184.5h89q7 -88 59 -129t146 -41q90 0 136 34.5t46 96.5q0 34 -15 58t-47.5 40.5t-88.5 28.5l-100 21q-96 20 -148 63t-52 123q0 60 29.5 106t86.5 71t137 25q79 0 136.5 -25t91 -73t38.5 -117h-89q-6 68 -52 103.5t-128 35.5q-77 0 -119.5 -31
t-42.5 -87q0 -43 29 -68.5t95 -39.5l125 -27q101 -21 152.5 -70.5t51.5 -131.5q0 -60 -28.5 -107.5t-90.5 -76t-156 -28.5q-134 0 -208 61.5z" />
    <glyph glyph-name="T" unicode="T" horiz-adv-x="639" 
d="M604 631h-238v-631h-93v631h-238v81h569v-81z" />
    <glyph glyph-name="U" unicode="U" horiz-adv-x="720" 
d="M212 12q-62 28 -94.5 82t-32.5 131v487h93v-490q0 -74 45.5 -114.5t136.5 -40.5t136.5 40.5t45.5 114.5v490h93v-487q0 -77 -32.5 -131t-94.5 -82t-148 -28t-148 28z" />
    <glyph glyph-name="V" unicode="V" horiz-adv-x="679" 
d="M649 712l-255 -712h-107l-257 712h103l174 -506l35 -108l35 108l173 506h99z" />
    <glyph glyph-name="W" unicode="W" horiz-adv-x="955" 
d="M925 712l-198 -712h-89l-165 616l-164 -616h-89l-190 712h95l106 -425l35 -160l39 160l116 425h105l115 -425l38 -161l38 161l113 425h95z" />
    <glyph glyph-name="X" unicode="X" horiz-adv-x="682" 
d="M652 0h-117l-166 262l-25 42l-28 -43l-174 -261h-112l265 373l-242 339h117l151 -231l23 -37l23 36l155 232h112l-241 -339z" />
    <glyph glyph-name="Y" unicode="Y" horiz-adv-x="684" 
d="M663 712l-270 -420v-292h-93v292l-279 420h112l183 -292l31 -53l31 53l179 292h106z" />
    <glyph glyph-name="Z" unicode="Z" horiz-adv-x="675" 
d="M615 83v-83h-556v90l422 539h-395v83h514v-74l-433 -555h448z" />
    <glyph glyph-name="bracketleft" unicode="[" horiz-adv-x="315" 
d="M85 747h187v-79h-100v-793h100v-79h-187v951z" />
    <glyph glyph-name="backslash" unicode="\" horiz-adv-x="468" 
d="M40 712h92l296 -712h-92z" />
    <glyph glyph-name="bracketright" unicode="]" horiz-adv-x="315" 
d="M43 -125h100v793h-100v79h187v-951h-187v79z" />
    <glyph glyph-name="asciicircum" unicode="^" 
d="M559 196h-99l-103 298q-21 57 -43 137q-21 -77 -42 -137l-98 -298h-93l189 516h91z" />
    <glyph glyph-name="underscore" unicode="_" horiz-adv-x="500" 
d="M0 -75h500v-79h-500v79z" />
    <glyph glyph-name="grave" unicode="`" horiz-adv-x="500" 
d="M143 736h126l88 -155h-81z" />
    <glyph glyph-name="a" unicode="a" horiz-adv-x="570" 
d="M550 68v-68h-49q-83 0 -89 76q-26 -40 -75 -64.5t-112 -24.5q-52 0 -91.5 18t-60.5 51.5t-21 80.5q0 66 42.5 107.5t133.5 53.5l132 17q19 2 28 11.5t9 27.5v22q0 41 -28 60.5t-88 19.5q-57 0 -85 -20.5t-32 -71.5h-91q7 85 61 126.5t154 41.5q98 0 150 -41t52 -124v-254
q0 -25 10 -35t35 -10h15zM318.5 75q35.5 17 57 45.5t21.5 60.5v72l-154 -23q-52 -8 -76 -30.5t-24 -58.5q0 -39 26.5 -61t72.5 -22q41 0 76.5 17z" />
    <glyph glyph-name="b" unicode="b" horiz-adv-x="601" 
d="M444.5 495q50.5 -32 78.5 -90t28 -135q0 -80 -27.5 -144t-79 -100.5t-119.5 -36.5q-54 0 -98 25t-67 67v-81h-80v712h92v-259q25 35 66 54.5t91 19.5q65 0 115.5 -32zM392 93.5q32 25.5 49.5 71t17.5 105.5q0 87 -37.5 132.5t-105.5 45.5q-44 0 -77.5 -21t-52.5 -62.5
t-19 -100.5q0 -60 19 -104.5t53 -68t77 -23.5q44 0 76 25.5z" />
    <glyph glyph-name="c" unicode="c" horiz-adv-x="557" 
d="M163 17.5q-54 30.5 -83.5 91t-29.5 145.5q0 86 30 148t85 94.5t129 32.5q90 0 147.5 -47t70.5 -135h-87q-21 105 -130 105q-77 0 -115 -50.5t-38 -143.5q0 -92 39.5 -143t112.5 -51q56 0 88.5 30t43.5 86h86q-14 -92 -70.5 -142.5t-152.5 -50.5q-72 0 -126 30.5z" />
    <glyph glyph-name="d" unicode="d" horiz-adv-x="601" 
d="M521 712v-712h-80v82q-24 -42 -67.5 -67.5t-98.5 -25.5q-69 0 -120 35.5t-78 98.5t-27 143q0 77 28.5 136.5t79 92t115.5 32.5q50 0 90.5 -19.5t65.5 -53.5v258h92zM361 91.5q34 23.5 53.5 68t19.5 104.5q0 59 -19 100.5t-52 62.5t-77 21q-68 0 -106 -47t-38 -135
q0 -60 17 -104.5t49 -69t76 -24.5q43 0 77 23.5z" />
    <glyph glyph-name="e" unicode="e" horiz-adv-x="579" 
d="M529 236h-387q2 -85 43.5 -129t112.5 -44q55 0 90 26.5t53 76.5l84 -10q-24 -80 -84.5 -124t-145.5 -44q-76 0 -131 34.5t-84.5 96t-29.5 141.5q0 79 29 139.5t83.5 94.5t130.5 34q72 0 125.5 -31t82 -89t28.5 -138v-34zM190.5 414.5q-40.5 -38.5 -47.5 -112.5h300
q-9 73 -47.5 112t-101.5 39t-103.5 -38.5z" />
    <glyph glyph-name="f" unicode="f" horiz-adv-x="358" 
d="M241 629q-14 -6 -20 -20t-6 -39v-58l118 4v-71l-118 4v-449h-92v449l-83 -4v71l83 -3v44q0 81 37 118t118 37h55v-77h-53q-25 0 -39 -6z" />
    <glyph glyph-name="g" unicode="g" horiz-adv-x="606" 
d="M526 516v-499q0 -120 -63.5 -176.5t-178.5 -56.5q-93 0 -150.5 37.5t-67.5 113.5h90q10 -42 42 -60t89 -18q54 0 86.5 15.5t48 48.5t15.5 87v67q-25 -39 -67.5 -62.5t-94.5 -23.5q-69 0 -120 35.5t-78 98.5t-27 143q0 77 28.5 136.5t79 92t115.5 32.5q56 0 99.5 -24.5
t67.5 -66.5v80h86zM361 91.5q34 23.5 53.5 68t19.5 104.5q0 59 -19 100.5t-52 62.5t-77 21q-68 0 -106 -47t-38 -135q0 -60 17 -104.5t49 -69t76 -24.5q43 0 77 23.5z" />
    <glyph glyph-name="h" unicode="h" horiz-adv-x="594" 
d="M432.5 509q39.5 -20 60.5 -58.5t21 -92.5v-358h-92v340q0 109 -103 109q-39 0 -72 -15.5t-54 -52t-21 -94.5v-287h-92v712h92v-261q27 38 70 58t97 20t93.5 -20z" />
    <glyph glyph-name="i" unicode="i" horiz-adv-x="252" 
d="M80 712h92v-99h-92v99zM80 516h92v-516h-92v516z" />
    <glyph glyph-name="j" unicode="j" horiz-adv-x="252" 
d="M80 712h92v-99h-92v99zM-8 -127h23q25 0 39 6t20 20t6 39v578h92v-565q0 -81 -37 -118t-118 -37h-25v77z" />
    <glyph glyph-name="k" unicode="k" horiz-adv-x="563" 
d="M247 269l-75 -68v-201h-92v712h92v-416l228 220h116l-206 -190l221 -326h-108z" />
    <glyph glyph-name="l" unicode="l" horiz-adv-x="252" 
d="M80 712h92v-712h-92v712z" />
    <glyph glyph-name="m" unicode="m" horiz-adv-x="866" 
d="M745.5 486q40.5 -43 40.5 -132v-354h-92v353q0 45 -23 70.5t-66 25.5q-53 0 -89.5 -39t-36.5 -130v-280h-92v353q0 45 -23 70.5t-66 25.5q-33 0 -61.5 -16.5t-46.5 -55.5t-18 -102v-275h-92v516h88l-4 -76q53 89 157 89q53 0 89.5 -23t53.5 -67q51 90 164 90
q77 0 117.5 -43z" />
    <glyph glyph-name="n" unicode="n" horiz-adv-x="594" 
d="M432.5 509q39.5 -20 60.5 -58.5t21 -92.5v-358h-92v340q0 109 -103 109q-39 0 -72 -15.5t-54 -52t-21 -94.5v-287h-92v516h86v-73q26 41 71 63.5t102 22.5q54 0 93.5 -20z" />
    <glyph glyph-name="o" unicode="o" horiz-adv-x="597" 
d="M168.5 21q-56.5 34 -87.5 95.5t-31 141.5q0 82 31.5 143.5t88.5 94.5t131 33q72 0 127.5 -32.5t87 -93t31.5 -141.5q0 -80 -32 -142.5t-88.5 -97.5t-128.5 -35q-73 0 -129.5 34zM382.5 89q35.5 25 54 69.5t18.5 103.5q0 58 -18.5 101t-54 66t-84.5 23q-48 0 -83.5 -24
t-54 -68t-18.5 -102t19 -102t54 -68t83 -24q49 0 84.5 25z" />
    <glyph glyph-name="p" unicode="p" horiz-adv-x="601" 
d="M444.5 495q50.5 -32 78.5 -90t28 -135q0 -80 -27.5 -144t-79 -100.5t-119.5 -36.5q-48 0 -87.5 20t-65.5 54v-267h-92v720h80v-83q23 43 68 68.5t101 25.5q65 0 115.5 -32zM392 93.5q32 25.5 49.5 71t17.5 105.5q0 87 -37.5 132.5t-105.5 45.5q-44 0 -77.5 -21
t-52.5 -62.5t-19 -100.5q0 -60 19 -104.5t53 -68t77 -23.5q44 0 76 25.5z" />
    <glyph glyph-name="q" unicode="q" horiz-adv-x="601" 
d="M521 516v-720h-92v268q-25 -35 -65.5 -55t-88.5 -20q-69 0 -120 35.5t-78 98.5t-27 143q0 77 28.5 136.5t79 92t115.5 32.5q56 0 100.5 -25t67.5 -68v82h80zM361 91.5q34 23.5 53.5 68t19.5 104.5q0 59 -19 100.5t-52 62.5t-77 21q-68 0 -106 -47t-38 -135
q0 -60 17 -104.5t49 -69t76 -24.5q43 0 77 23.5z" />
    <glyph glyph-name="r" unicode="r" horiz-adv-x="368" 
d="M353 529v-90q-11 1 -33 1q-35 0 -68.5 -18t-55.5 -54t-24 -86v-282h-92v516h86v-104q26 56 67.5 87t100.5 31q13 0 19 -1z" />
    <glyph glyph-name="s" unicode="s" horiz-adv-x="505" 
d="M40 163h88q7 -53 39 -77.5t92 -24.5q61 0 92 21.5t31 59.5q0 30 -20 48.5t-61 26.5l-104 22q-74 16 -108.5 50.5t-34.5 89.5q0 45 21.5 78.5t65 52t105.5 18.5q90 0 145 -40.5t65 -121.5h-91q-8 45 -37.5 67t-84.5 22q-50 0 -77 -17t-27 -51q0 -26 18 -43t62 -26l100 -22
q79 -18 115 -53.5t36 -92.5q0 -50 -25.5 -87t-74 -56.5t-115.5 -19.5q-197 0 -215 176z" />
    <glyph glyph-name="t" unicode="t" horiz-adv-x="357" 
d="M209 127q0 -28 11 -39t39 -11h67v-77h-94q-60 0 -87.5 27.5t-27.5 87.5v334l-77 -4v71l77 -3v161h92v-162l118 4v-71l-118 4v-322z" />
    <glyph glyph-name="u" unicode="u" horiz-adv-x="594" 
d="M514 516v-516h-86v73q-26 -41 -71 -63.5t-102 -22.5q-54 0 -93.5 20t-60.5 58.5t-21 92.5v358h92v-340q0 -109 103 -109q39 0 72 15.5t54 52t21 94.5v287h92z" />
    <glyph glyph-name="v" unicode="v" horiz-adv-x="528" 
d="M503 516l-189 -516h-91l-198 516h99l103 -298l43 -139l42 139l98 298h93z" />
    <glyph glyph-name="w" unicode="w" horiz-adv-x="772" 
d="M747 516l-168 -516h-92l-73 308l-26 130l-28 -130l-78 -308h-94l-163 516h100l81 -298l31 -123l27 123l74 298h100l74 -298l25 -123l30 123l85 298h95z" />
    <glyph glyph-name="x" unicode="x" horiz-adv-x="564" 
d="M427 0l-144 211l-146 -211h-112l212 274l-187 242h112l121 -177l119 177h112l-185 -242l210 -274h-112z" />
    <glyph glyph-name="y" unicode="y" horiz-adv-x="539" 
d="M514 516l-240 -617q-16 -40 -34.5 -62t-44 -31.5t-63.5 -9.5h-57v77h48q24 0 39 6t25.5 20.5t21.5 42.5l24 63l-208 511h100l134 -356l11 -62l149 418h95z" />
    <glyph glyph-name="z" unicode="z" horiz-adv-x="531" 
d="M481 74v-74h-431v65l299 377h-286v74h401v-56l-306 -386h323z" />
    <glyph glyph-name="braceleft" unicode="{" horiz-adv-x="373" 
d="M177 -179q-26 26 -26 83v219q0 57 -26 83t-83 26v79q57 0 83 26t26 83v218q0 57 26 83t83 26h70v-79h-42q-28 0 -39 -10.5t-11 -38.5v-197q0 -61 -29 -100t-82 -50v-1q53 -11 82 -50t29 -100v-198q0 -28 11 -38.5t39 -10.5h42v-79h-70q-57 0 -83 26z" />
    <glyph glyph-name="bar" unicode="|" horiz-adv-x="262" 
d="M85 747h92v-951h-92v951z" />
    <glyph glyph-name="braceright" unicode="}" horiz-adv-x="373" 
d="M42 -126h42q28 0 39 10.5t11 38.5v198q0 61 29 100t82 50v1q-53 11 -82 50t-29 100v197q0 28 -11 38.5t-39 10.5h-42v79h70q57 0 83 -26t26 -83v-218q0 -57 26 -83t83 -26v-79q-57 0 -83 -26t-26 -83v-219q0 -57 -26 -83t-83 -26h-70v79z" />
    <glyph glyph-name="asciitilde" unicode="~" 
d="M80.5 344.5q18.5 39.5 50 58.5t72.5 19q28 0 53 -8t44.5 -19t46.5 -29q31 -20 51 -30t40 -10q28 0 44 23t16 73h80q0 -58 -18 -97.5t-50 -59t-73 -19.5q-39 0 -70.5 14.5t-70.5 41.5q-32 21 -52.5 31t-41.5 10q-60 0 -60 -97h-80q0 59 18.5 98.5z" />
    <glyph glyph-name="uni00A0" unicode="&#xa0;" horiz-adv-x="270" 
 />
    <glyph glyph-name="exclamdown" unicode="&#xa1;" horiz-adv-x="273" 
d="M85 516h103v-101h-103v101zM90 9l27 339h39l27 -339v-205h-93v205z" />
    <glyph glyph-name="cent" unicode="&#xa2;" 
d="M421.5 94q32.5 30 43.5 86h86q-12 -81 -58 -130.5t-123 -59.5v-134h-79v133q-62 8 -107.5 40.5t-70 89.5t-24.5 135t24.5 136t69.5 92.5t108 43.5v140h79v-139q75 -9 122 -55t59 -125h-87q-21 105 -130 105q-77 0 -115 -50.5t-38 -143.5q0 -92 39.5 -143t112.5 -51
q56 0 88.5 30z" />
    <glyph glyph-name="sterling" unicode="&#xa3;" 
d="M587 80v-80h-534v80h10q51 0 92.5 19.5t65.5 52.5t24 73q0 38 -22 76l-170 -4v76l118 -3q-29 38 -44.5 74t-15.5 78q0 55 26.5 101.5t78.5 74t126 27.5q72 0 123.5 -27t80 -74t34.5 -106h-91q-7 64 -47 95t-100 31q-45 0 -76 -16.5t-47 -46t-16 -68.5q0 -32 14 -64
t52 -80l229 4v-76l-183 4q16 -35 16 -70q0 -45 -24 -84t-68 -67h348z" />
    <glyph glyph-name="currency" unicode="&#xa4;" 
d="M555 277.5q-12 -38.5 -35 -69.5l93 -89l-53 -53l-89 93q-30 -23 -68.5 -35.5t-82.5 -12.5t-82.5 12.5t-68.5 35.5l-89 -93l-53 53l93 89q-23 31 -35 69.5t-12 81.5t12 81.5t35 69.5l-93 89l53 53l89 -93q30 23 68.5 35.5t82.5 12.5t82.5 -12.5t68.5 -35.5l89 93l53 -53
l-93 -89q23 -31 35 -69.5t12 -81.5t-12 -81.5zM406.5 209q37.5 21 58 60t20.5 90t-20.5 90t-58 60t-86.5 21t-86.5 -21t-58 -60t-20.5 -90t20.5 -90t58 -60t86.5 -21t86.5 21z" />
    <glyph glyph-name="yen" unicode="&#xa5;" 
d="M421 370h167v-80h-217v-87h217v-80h-217v-123h-93v123h-217v80h217v87h-217v80h165l-227 342h112l183 -292l30 -50h3l29 50l179 292h106z" />
    <glyph glyph-name="brokenbar" unicode="&#xa6;" horiz-adv-x="262" 
d="M85 747h92v-336h-92v336zM85 132h92v-336h-92v336z" />
    <glyph glyph-name="section" unicode="&#xa7;" horiz-adv-x="629" 
d="M540.5 200q-24.5 -37 -70.5 -59q29 -40 29 -93q0 -49 -24 -85t-68.5 -55.5t-102.5 -19.5q-88 0 -140 44t-60 124h86q12 -93 117 -93q52 0 79 21.5t27 61.5q0 36 -22.5 59t-69.5 38l-112 36q-145 46 -145 164q0 49 24.5 86t70.5 59q-29 40 -29 93q0 49 24.5 85t69 55.5
t101.5 19.5q88 0 140 -43.5t60 -123.5h-87q-11 92 -114 92q-52 0 -80 -21.5t-28 -61.5q0 -35 22.5 -58.5t69.5 -38.5l112 -36q145 -46 145 -164q0 -49 -24.5 -86zM464 223.5q18 22.5 18 54.5q0 70 -92 100l-129 42q-21 6 -45 19q-33 -11 -51 -33.5t-18 -54.5q0 -70 92 -100
l129 -42q21 -6 45 -19q33 11 51 33.5z" />
    <glyph glyph-name="dieresis" unicode="&#xa8;" horiz-adv-x="500" 
d="M97 712h92v-99h-92v99zM311 712h92v-99h-92v99z" />
    <glyph glyph-name="copyright" unicode="&#xa9;" horiz-adv-x="881" 
d="M246.5 31q-85.5 48 -134 133t-48.5 192t48.5 192t134 133t193.5 48t194 -48t134.5 -133t48.5 -192t-48.5 -192t-134.5 -133t-194 -48t-193.5 48zM599 85q70 40 109 110.5t39 160.5q0 89 -39 160t-109 111t-159 40q-88 0 -158 -40t-109.5 -111t-39.5 -160t39.5 -160
t109.5 -111t158 -40q89 0 159 40zM355.5 193.5q-36.5 21.5 -57 63.5t-20.5 100t20.5 100t57 63.5t85.5 21.5q61 0 99 -27.5t50 -81.5l-64 -11q-18 58 -85 58q-44 0 -70 -29.5t-26 -93.5q0 -63 26 -92.5t70 -29.5q35 0 56 14.5t30 45.5l63 -11q-13 -55 -51 -83.5t-98 -28.5
q-49 0 -85.5 21.5z" />
    <glyph glyph-name="ordfeminine" unicode="&#xaa;" horiz-adv-x="488" 
d="M370.5 692.5q37.5 -32.5 37.5 -96.5v-224h-62l-8 44q-25 -25 -59.5 -38.5t-76.5 -13.5q-40 0 -67.5 14t-41 37.5t-13.5 53.5q0 46 30 73t85 32l137 13v16q0 31 -20 45t-64 14q-69 0 -89 -36l-68 24q17 37 53.5 56t101.5 19q87 0 124.5 -32.5zM278 439.5q26 11.5 40 26.5
t14 23v43l-106 -10q-39 -3 -53.5 -16.5t-14.5 -34.5t15 -32t45 -11q34 0 60 11.5z" />
    <glyph glyph-name="guillemotleft" unicode="&#xab;" horiz-adv-x="690" 
d="M80 208v98l250 218v-102l-191 -165l191 -165v-102zM360 208v98l250 218v-102l-191 -165l191 -165v-102z" />
    <glyph glyph-name="logicalnot" unicode="&#xac;" 
d="M492 316h-423v80h503v-279h-80v199z" />
    <glyph glyph-name="uni00AD" unicode="&#xad;" horiz-adv-x="380" 
d="M50 291h280v-83h-280v83z" />
    <glyph glyph-name="registered" unicode="&#xae;" horiz-adv-x="617" 
d="M432 695.5q56 -31.5 88.5 -86t32.5 -119.5t-32.5 -119.5t-88.5 -86t-123 -31.5q-68 0 -124 31.5t-88.5 86t-32.5 119.5t32.5 119.5t88.5 86t124 31.5q67 0 123 -31.5zM407.5 325q44.5 25 70 68.5t25.5 96.5t-25.5 96.5t-70 69t-98.5 25.5q-55 0 -99.5 -25.5t-70 -69
t-25.5 -96.5t25.5 -96.5t70 -68.5t99.5 -25q54 0 98.5 25zM407 405q1 -13 3.5 -21t8.5 -18h-45q-5 6 -7 15.5t-3 23.5l-2 26q-2 21 -9 29t-26 8h-69v-102h-44v254h108q41 0 65 -18.5t24 -52.5q0 -43 -37 -60q27 -11 30 -47zM355.5 517.5q10.5 9.5 10.5 26.5q0 36 -44 36h-64
v-72h68q19 0 29.5 9.5z" />
    <glyph glyph-name="macron" unicode="&#xaf;" horiz-adv-x="500" 
d="M90 683h320v-71h-320v71z" />
    <glyph glyph-name="degree" unicode="&#xb0;" horiz-adv-x="446" 
d="M134.5 401.5q-39.5 22.5 -62 62t-22.5 88.5t22.5 88.5t62 62t88.5 22.5t88.5 -22.5t62 -62t22.5 -88.5t-22.5 -88.5t-62 -62t-88.5 -22.5t-88.5 22.5zM276 461.5q23 13.5 36 37t13 53.5t-13 53.5t-36 37t-53 13.5t-53 -13.5t-36 -37t-13 -53.5t13 -53.5t36 -37t53 -13.5
t53 13.5z" />
    <glyph glyph-name="plusminus" unicode="&#xb1;" 
d="M595 410v-80h-235v-164h-80v164h-234v80h234v165h80v-165h235zM56 80h529v-80h-529v80z" />
    <glyph glyph-name="twosuperior" unicode="&#xb2;" horiz-adv-x="431" 
d="M76 487q26 45 79 71l85 41q30 15 45.5 32.5t15.5 43.5q0 30 -20.5 47.5t-61.5 17.5q-46 0 -63 -20.5t-19 -61.5h-80q2 69 42.5 109.5t119.5 40.5q48 0 84.5 -15.5t57 -45.5t20.5 -72q0 -45 -25.5 -77t-80.5 -58l-52 -25q-39 -19 -57 -34t-22 -40h236v-69h-330
q0 70 26 115z" />
    <glyph glyph-name="threesuperior" unicode="&#xb3;" horiz-adv-x="445" 
d="M96.5 393q-46.5 37 -46.5 105h80q2 -39 24 -58t70 -19q91 0 91 67q0 32 -23 48.5t-67 16.5h-39v69h39q37 0 56 15t19 44q0 30 -21.5 46t-61.5 16q-41 0 -62.5 -16.5t-23.5 -50.5h-80q0 41 20 71t57.5 45.5t87.5 15.5q51 0 88 -15t56.5 -42t19.5 -63q0 -35 -18 -60
t-50 -34v-2q38 -11 60.5 -38.5t22.5 -67.5q0 -38 -21 -67.5t-59.5 -46t-91.5 -16.5q-80 0 -126.5 37z" />
    <glyph glyph-name="acute" unicode="&#xb4;" horiz-adv-x="500" 
d="M231 736h126l-133 -155h-81z" />
    <glyph glyph-name="mu" unicode="&#xb5;" horiz-adv-x="594" 
d="M80 516h92v-340q0 -53 25.5 -81t77.5 -28q39 0 72 15.5t54 52t21 94.5v287h92v-516h-88l4 76q-26 -43 -69 -66t-98 -23q-70 0 -110 40l-2 -2l21 -135v-94h-92v720z" />
    <glyph glyph-name="paragraph" unicode="&#xb6;" horiz-adv-x="593" 
d="M239 360q-94 0 -145 46t-51 130t51 130t145 46h269v-815h-80v735h-109v-735h-80v463z" />
    <glyph glyph-name="periodcentered" unicode="&#xb7;" horiz-adv-x="359" 
d="M128 403h103v-101h-103v101z" />
    <glyph glyph-name="cedilla" unicode="&#xb8;" horiz-adv-x="500" 
d="M173 -192h25q39 0 55.5 10.5t16.5 29.5q0 16 -10 23.5t-32 7.5h-42l-27 47l47 74h55l-40 -62h21q47 0 73 -22.5t26 -64.5q0 -45 -36 -71t-100 -26h-32v54z" />
    <glyph glyph-name="onesuperior" unicode="&#xb9;" horiz-adv-x="300" 
d="M143 669h-103v59h35q34 0 54 14.5t24 38.5l3 18h64v-427h-77v297z" />
    <glyph glyph-name="ordmasculine" unicode="&#xba;" horiz-adv-x="461" 
d="M137 387q-41 23 -64 64t-23 93q0 53 22.5 94t64 64t94.5 23t94 -23t63.5 -64t22.5 -94q0 -52 -22.5 -93t-63.5 -64t-94 -23t-94 23zM306 457q27 29 27 87q0 59 -26.5 88t-75.5 29t-76.5 -29t-27.5 -88q0 -58 27.5 -87t76.5 -29q48 0 75 29z" />
    <glyph glyph-name="guillemotright" unicode="&#xbb;" horiz-adv-x="690" 
d="M80 92l191 165l-191 165v102l250 -218v-98l-250 -218v102zM360 92l191 165l-191 165v102l250 -218v-98l-250 -218v102z" />
    <glyph glyph-name="onequarter" unicode="&#xbc;" horiz-adv-x="1051" 
d="M188 618h-103v59h35q34 0 54 14.5t24 38.5l3 18h64v-427h-77v297zM658 727h91l-446 -742h-93zM813 98l-207 -2v67l202 264h82v-271l76 2v-62l-76 2v-98h-77v98zM813 156v181h-4l-135 -179z" />
    <glyph glyph-name="onehalf" unicode="&#xbd;" horiz-adv-x="1061" 
d="M188 618h-103v59h35q34 0 54 14.5t24 38.5l3 18h64v-427h-77v297zM658 727h91l-446 -742h-93zM671 115q26 45 79 71l85 41q30 15 45.5 32.5t15.5 43.5q0 30 -20.5 47.5t-61.5 17.5q-46 0 -63 -20.5t-19 -61.5h-80q2 69 42.5 109.5t119.5 40.5q48 0 84.5 -15.5t57 -45.5
t20.5 -72q0 -45 -25.5 -77t-80.5 -58l-52 -25q-39 -19 -57 -34t-22 -40h236v-69h-330q0 70 26 115z" />
    <glyph glyph-name="threequarters" unicode="&#xbe;" horiz-adv-x="1146" 
d="M126.5 342q-46.5 37 -46.5 105h80q2 -39 24 -58t70 -19q91 0 91 67q0 32 -23 48.5t-67 16.5h-39v69h39q37 0 56 15t19 44q0 30 -21.5 46t-61.5 16q-41 0 -62.5 -16.5t-23.5 -50.5h-80q0 41 20 71t57.5 45.5t87.5 15.5q51 0 88 -15t56.5 -42t19.5 -63q0 -35 -18 -60
t-50 -34v-2q38 -11 60.5 -38.5t22.5 -67.5q0 -38 -21 -67.5t-59.5 -46t-91.5 -16.5q-80 0 -126.5 37zM758 727h91l-446 -742h-93zM913 98l-207 -2v67l202 264h82v-271l76 2v-62l-76 2v-98h-77v98zM913 156v181h-4l-135 -179z" />
    <glyph glyph-name="questiondown" unicode="&#xbf;" horiz-adv-x="609" 
d="M270 516h103v-101h-103v101zM180 -186q-55 23 -85.5 67.5t-30.5 107.5q0 55 24.5 98.5t78.5 77.5l48 31q27 18 40.5 34t18.5 39t5 63v8h87v-31q0 -46 -11.5 -78t-38 -58.5t-73.5 -54.5q-52 -30 -72.5 -62t-20.5 -69q0 -61 43 -91.5t114 -30.5q78 0 116 38t45 118h90
q-6 -108 -68.5 -169t-182.5 -61q-72 0 -127 23z" />
    <glyph glyph-name="Agrave" unicode="&#xc0;" horiz-adv-x="716" 
d="M508 209h-302l-77 -209h-99l276 712h105l275 -712h-103zM479 290l-97 270l-23 74l-24 -74l-99 -270h243zM200 932h126l88 -155h-81z" />
    <glyph glyph-name="Aacute" unicode="&#xc1;" horiz-adv-x="716" 
d="M508 209h-302l-77 -209h-99l276 712h105l275 -712h-103zM479 290l-97 270l-23 74l-24 -74l-99 -270h243zM382 932h126l-133 -155h-81z" />
    <glyph glyph-name="Acircumflex" unicode="&#xc2;" horiz-adv-x="716" 
d="M508 209h-302l-77 -209h-99l276 712h105l275 -712h-103zM479 290l-97 270l-23 74l-24 -74l-99 -270h243zM310 932h96l118 -155h-96l-70 100l-70 -100h-96z" />
    <glyph glyph-name="Atilde" unicode="&#xc3;" horiz-adv-x="716" 
d="M508 209h-302l-77 -209h-99l276 712h105l275 -712h-103zM479 290l-97 270l-23 74l-24 -74l-99 -270h243zM197 907.5q31 37.5 83 37.5q24 0 42.5 -7t30.5 -17t27 -26q17 -17 28.5 -25t26.5 -8q23 0 33 19.5t12 63.5h70q0 -78 -31 -115.5t-83 -37.5q-24 0 -41.5 7
t-29.5 16.5t-27 25.5q-17 18 -28.5 26t-28.5 8q-23 0 -33 -19.5t-12 -63.5h-70q0 78 31 115.5z" />
    <glyph glyph-name="Adieresis" unicode="&#xc4;" horiz-adv-x="716" 
d="M508 209h-302l-77 -209h-99l276 712h105l275 -712h-103zM479 290l-97 270l-23 74l-24 -74l-99 -270h243zM205 899h92v-99h-92v99zM419 899h92v-99h-92v99z" />
    <glyph glyph-name="Aring" unicode="&#xc5;" horiz-adv-x="716" 
d="M508 209h-302l-77 -209h-99l259 667q-32 18 -50.5 49.5t-18.5 70.5t18 70.5t49.5 49.5t70.5 18t70.5 -18t49.5 -49.5t18 -70.5t-18 -71t-50 -49l258 -667h-103zM304.5 842.5q-20.5 -20.5 -20.5 -55.5q0 -34 20.5 -54.5t53.5 -20.5t53.5 20.5t20.5 54.5q0 35 -20.5 55.5
t-53.5 20.5t-53.5 -20.5zM479 290l-97 270l-23 74l-24 -74l-99 -270h243z" />
    <glyph glyph-name="AE" unicode="&#xc6;" horiz-adv-x="1137" 
d="M1072 81v-81h-513v188h-319l-113 -188h-97l429 712h604v-81h-411v-224h379v-81h-379v-245h420zM559 264v372h-50l-223 -372h273z" />
    <glyph glyph-name="Ccedilla" unicode="&#xc7;" horiz-adv-x="732" 
d="M636.5 113.5q-38.5 -61.5 -100 -95t-141.5 -35.5l-34 -53h21q47 0 73 -22.5t26 -64.5q0 -45 -36 -71t-100 -26h-32v54h25q39 0 55.5 10.5t16.5 29.5q0 16 -10 23.5t-32 7.5h-42l-27 47l43 68q-86 10 -148.5 60t-96 130t-33.5 180q0 108 39.5 192t112 130.5t169.5 46.5
q74 0 137 -28t104 -79.5t52 -120.5h-95q-16 70 -67.5 107.5t-126.5 37.5q-71 0 -123 -34.5t-79.5 -99t-27.5 -152.5q0 -89 27.5 -154t79 -100.5t123.5 -35.5q85 0 139 49t67 144h92q-12 -84 -50.5 -145.5z" />
    <glyph glyph-name="Egrave" unicode="&#xc8;" horiz-adv-x="663" 
d="M598 81v-81h-513v712h504v-81h-411v-224h379v-81h-379v-245h420zM188 932h126l88 -155h-81z" />
    <glyph glyph-name="Eacute" unicode="&#xc9;" horiz-adv-x="663" 
d="M598 81v-81h-513v712h504v-81h-411v-224h379v-81h-379v-245h420zM370 932h126l-133 -155h-81z" />
    <glyph glyph-name="Ecircumflex" unicode="&#xca;" horiz-adv-x="663" 
d="M598 81v-81h-513v712h504v-81h-411v-224h379v-81h-379v-245h420zM298 932h96l118 -155h-96l-70 100l-70 -100h-96z" />
    <glyph glyph-name="Edieresis" unicode="&#xcb;" horiz-adv-x="663" 
d="M598 81v-81h-513v712h504v-81h-411v-224h379v-81h-379v-245h420zM193 899h92v-99h-92v99zM407 899h92v-99h-92v99z" />
    <glyph glyph-name="Igrave" unicode="&#xcc;" horiz-adv-x="263" 
d="M85 712h93v-712h-93v712zM-26 932h126l88 -155h-81z" />
    <glyph glyph-name="Iacute" unicode="&#xcd;" horiz-adv-x="263" 
d="M85 712h93v-712h-93v712zM156 932h126l-133 -155h-81z" />
    <glyph glyph-name="Icircumflex" unicode="&#xce;" horiz-adv-x="263" 
d="M85 712h93v-712h-93v712zM84 932h96l118 -155h-96l-70 100l-70 -100h-96z" />
    <glyph glyph-name="Idieresis" unicode="&#xcf;" horiz-adv-x="263" 
d="M-21 899h92v-99h-92v99zM193 899h92v-99h-92v99zM85 712h93v-712h-93v712z" />
    <glyph glyph-name="Eth" unicode="&#xd0;" horiz-adv-x="803" 
d="M605 669q70 -43 105 -122.5t35 -190.5q0 -109 -36.5 -189t-111 -123.5t-185.5 -43.5h-237v324l-135 -5v81l135 -5v317h257q103 0 173 -43zM591 149q59 68 59 207q0 140 -59 207.5t-178 67.5h-145v-237l192 6v-81l-192 6v-244h140q124 0 183 68z" />
    <glyph glyph-name="Ntilde" unicode="&#xd1;" horiz-adv-x="736" 
d="M651 712v-712h-106l-372 578v-578h-88v712h103l375 -581v581h88zM207 907.5q31 37.5 83 37.5q24 0 42.5 -7t30.5 -17t27 -26q17 -17 28.5 -25t26.5 -8q23 0 33 19.5t12 63.5h70q0 -78 -31 -115.5t-83 -37.5q-24 0 -41.5 7t-29.5 16.5t-27 25.5q-17 18 -28.5 26t-28.5 8
q-23 0 -33 -19.5t-12 -63.5h-70q0 78 31 115.5z" />
    <glyph glyph-name="Ograve" unicode="&#xd2;" horiz-adv-x="801" 
d="M225.5 30.5q-76.5 47.5 -119 132.5t-42.5 193q0 107 42.5 191t119 131t174.5 47q99 0 175.5 -47t119 -131t42.5 -191q0 -109 -42.5 -193.5t-119 -132t-175.5 -47.5q-98 0 -174.5 47.5zM526.5 101.5q54.5 35.5 85 101t30.5 153.5q0 86 -30.5 151t-85.5 100t-125 35
q-71 0 -126 -35t-85.5 -100t-30.5 -151q0 -87 30.5 -153t85.5 -101.5t126 -35.5t125.5 35.5zM242 932h126l88 -155h-81z" />
    <glyph glyph-name="Oacute" unicode="&#xd3;" horiz-adv-x="801" 
d="M225.5 30.5q-76.5 47.5 -119 132.5t-42.5 193q0 107 42.5 191t119 131t174.5 47q99 0 175.5 -47t119 -131t42.5 -191q0 -109 -42.5 -193.5t-119 -132t-175.5 -47.5q-98 0 -174.5 47.5zM526.5 101.5q54.5 35.5 85 101t30.5 153.5q0 86 -30.5 151t-85.5 100t-125 35
q-71 0 -126 -35t-85.5 -100t-30.5 -151q0 -87 30.5 -153t85.5 -101.5t126 -35.5t125.5 35.5zM424 932h126l-133 -155h-81z" />
    <glyph glyph-name="Ocircumflex" unicode="&#xd4;" horiz-adv-x="801" 
d="M225.5 30.5q-76.5 47.5 -119 132.5t-42.5 193q0 107 42.5 191t119 131t174.5 47q99 0 175.5 -47t119 -131t42.5 -191q0 -109 -42.5 -193.5t-119 -132t-175.5 -47.5q-98 0 -174.5 47.5zM526.5 101.5q54.5 35.5 85 101t30.5 153.5q0 86 -30.5 151t-85.5 100t-125 35
q-71 0 -126 -35t-85.5 -100t-30.5 -151q0 -87 30.5 -153t85.5 -101.5t126 -35.5t125.5 35.5zM352 932h96l118 -155h-96l-70 100l-70 -100h-96z" />
    <glyph glyph-name="Otilde" unicode="&#xd5;" horiz-adv-x="801" 
d="M225.5 30.5q-76.5 47.5 -119 132.5t-42.5 193q0 107 42.5 191t119 131t174.5 47q99 0 175.5 -47t119 -131t42.5 -191q0 -109 -42.5 -193.5t-119 -132t-175.5 -47.5q-98 0 -174.5 47.5zM526.5 101.5q54.5 35.5 85 101t30.5 153.5q0 86 -30.5 151t-85.5 100t-125 35
q-71 0 -126 -35t-85.5 -100t-30.5 -151q0 -87 30.5 -153t85.5 -101.5t126 -35.5t125.5 35.5zM239 907.5q31 37.5 83 37.5q24 0 42.5 -7t30.5 -17t27 -26q17 -17 28.5 -25t26.5 -8q23 0 33 19.5t12 63.5h70q0 -78 -31 -115.5t-83 -37.5q-24 0 -41.5 7t-29.5 16.5t-27 25.5
q-17 18 -28.5 26t-28.5 8q-23 0 -33 -19.5t-12 -63.5h-70q0 78 31 115.5z" />
    <glyph glyph-name="Odieresis" unicode="&#xd6;" horiz-adv-x="801" 
d="M225.5 30.5q-76.5 47.5 -119 132.5t-42.5 193q0 107 42.5 191t119 131t174.5 47q99 0 175.5 -47t119 -131t42.5 -191q0 -109 -42.5 -193.5t-119 -132t-175.5 -47.5q-98 0 -174.5 47.5zM526.5 101.5q54.5 35.5 85 101t30.5 153.5q0 86 -30.5 151t-85.5 100t-125 35
q-71 0 -126 -35t-85.5 -100t-30.5 -151q0 -87 30.5 -153t85.5 -101.5t126 -35.5t125.5 35.5zM247 899h92v-99h-92v99zM461 899h92v-99h-92v99z" />
    <glyph glyph-name="multiply" unicode="&#xd7;" 
d="M64 106l204 204l-204 203l52 53l204 -204l204 204l53 -52l-204 -204l204 -205l-53 -52l-204 204l-204 -204z" />
    <glyph glyph-name="Oslash" unicode="&#xd8;" horiz-adv-x="801" 
d="M664 597q35 -48 54 -109.5t19 -131.5q0 -109 -42.5 -193.5t-119 -132t-175.5 -47.5q-60 0 -112 18t-94 52l-59 -68l-50 43l62 72q-40 49 -61.5 114.5t-21.5 141.5q0 107 42.5 191t119 131t174.5 47q64 0 120 -20.5t99 -58.5l68 79l50 -43zM171.5 254q12.5 -47 36.5 -84
l353 409q-32 31 -72.5 47t-87.5 16q-71 0 -126 -35t-85.5 -100t-30.5 -151q0 -55 12.5 -102zM602 525l-351 -405q30 -26 68.5 -40t81.5 -14q71 0 125.5 35.5t85 101t30.5 153.5q0 100 -40 169z" />
    <glyph glyph-name="Ugrave" unicode="&#xd9;" horiz-adv-x="720" 
d="M212 12q-62 28 -94.5 82t-32.5 131v487h93v-490q0 -74 45.5 -114.5t136.5 -40.5t136.5 40.5t45.5 114.5v490h93v-487q0 -77 -32.5 -131t-94.5 -82t-148 -28t-148 28zM202 932h126l88 -155h-81z" />
    <glyph glyph-name="Uacute" unicode="&#xda;" horiz-adv-x="720" 
d="M212 12q-62 28 -94.5 82t-32.5 131v487h93v-490q0 -74 45.5 -114.5t136.5 -40.5t136.5 40.5t45.5 114.5v490h93v-487q0 -77 -32.5 -131t-94.5 -82t-148 -28t-148 28zM384 932h126l-133 -155h-81z" />
    <glyph glyph-name="Ucircumflex" unicode="&#xdb;" horiz-adv-x="720" 
d="M212 12q-62 28 -94.5 82t-32.5 131v487h93v-490q0 -74 45.5 -114.5t136.5 -40.5t136.5 40.5t45.5 114.5v490h93v-487q0 -77 -32.5 -131t-94.5 -82t-148 -28t-148 28zM312 932h96l118 -155h-96l-70 100l-70 -100h-96z" />
    <glyph glyph-name="Udieresis" unicode="&#xdc;" horiz-adv-x="720" 
d="M212 12q-62 28 -94.5 82t-32.5 131v487h93v-490q0 -74 45.5 -114.5t136.5 -40.5t136.5 40.5t45.5 114.5v490h93v-487q0 -77 -32.5 -131t-94.5 -82t-148 -28t-148 28zM207 899h92v-99h-92v99zM421 899h92v-99h-92v99z" />
    <glyph glyph-name="Yacute" unicode="&#xdd;" horiz-adv-x="684" 
d="M663 712l-270 -420v-292h-93v292l-279 420h112l183 -292l31 -53l31 53l179 292h106zM366 932h126l-133 -155h-81z" />
    <glyph glyph-name="Thorn" unicode="&#xde;" horiz-adv-x="650" 
d="M547 527q60 -53 60 -151q0 -65 -27 -112.5t-79 -73t-125 -25.5h-198v-165h-93v712h93v-132h200q109 0 169 -53zM479 280q35 34 35 95q0 58 -34 91t-107 33h-195v-253h200q66 0 101 34z" />
    <glyph glyph-name="germandbls" unicode="&#xdf;" horiz-adv-x="605" 
d="M80 512q0 107 55.5 160t163.5 53q74 0 123 -24t72 -64t23 -89q0 -51 -25 -91t-76 -61v-2q68 -21 103.5 -66.5t35.5 -116.5q0 -67 -30.5 -114.5t-87 -72t-133.5 -24.5h-53v77h62q74 0 112 35.5t38 99.5q0 67 -40 101t-114 34h-58v77h45q59 0 93.5 30.5t34.5 83.5
q0 50 -32 80t-96 30q-61 0 -92.5 -29t-31.5 -87v-532h-92v512z" />
    <glyph glyph-name="agrave" unicode="&#xe0;" horiz-adv-x="570" 
d="M550 68v-68h-49q-83 0 -89 76q-26 -40 -75 -64.5t-112 -24.5q-52 0 -91.5 18t-60.5 51.5t-21 80.5q0 66 42.5 107.5t133.5 53.5l132 17q19 2 28 11.5t9 27.5v22q0 41 -28 60.5t-88 19.5q-57 0 -85 -20.5t-32 -71.5h-91q7 85 61 126.5t154 41.5q98 0 150 -41t52 -124v-254
q0 -25 10 -35t35 -10h15zM318.5 75q35.5 17 57 45.5t21.5 60.5v72l-154 -23q-52 -8 -76 -30.5t-24 -58.5q0 -39 26.5 -61t72.5 -22q41 0 76.5 17zM130 736h126l88 -155h-81z" />
    <glyph glyph-name="aacute" unicode="&#xe1;" horiz-adv-x="570" 
d="M550 68v-68h-49q-83 0 -89 76q-26 -40 -75 -64.5t-112 -24.5q-52 0 -91.5 18t-60.5 51.5t-21 80.5q0 66 42.5 107.5t133.5 53.5l132 17q19 2 28 11.5t9 27.5v22q0 41 -28 60.5t-88 19.5q-57 0 -85 -20.5t-32 -71.5h-91q7 85 61 126.5t154 41.5q98 0 150 -41t52 -124v-254
q0 -25 10 -35t35 -10h15zM318.5 75q35.5 17 57 45.5t21.5 60.5v72l-154 -23q-52 -8 -76 -30.5t-24 -58.5q0 -39 26.5 -61t72.5 -22q41 0 76.5 17zM312 736h126l-133 -155h-81z" />
    <glyph glyph-name="acircumflex" unicode="&#xe2;" horiz-adv-x="570" 
d="M550 68v-68h-49q-83 0 -89 76q-26 -40 -75 -64.5t-112 -24.5q-52 0 -91.5 18t-60.5 51.5t-21 80.5q0 66 42.5 107.5t133.5 53.5l132 17q19 2 28 11.5t9 27.5v22q0 41 -28 60.5t-88 19.5q-57 0 -85 -20.5t-32 -71.5h-91q7 85 61 126.5t154 41.5q98 0 150 -41t52 -124v-254
q0 -25 10 -35t35 -10h15zM318.5 75q35.5 17 57 45.5t21.5 60.5v72l-154 -23q-52 -8 -76 -30.5t-24 -58.5q0 -39 26.5 -61t72.5 -22q41 0 76.5 17zM240 736h96l118 -155h-96l-70 100l-70 -100h-96z" />
    <glyph glyph-name="atilde" unicode="&#xe3;" horiz-adv-x="570" 
d="M550 68v-68h-49q-83 0 -89 76q-26 -40 -75 -64.5t-112 -24.5q-52 0 -91.5 18t-60.5 51.5t-21 80.5q0 66 42.5 107.5t133.5 53.5l132 17q19 2 28 11.5t9 27.5v22q0 41 -28 60.5t-88 19.5q-57 0 -85 -20.5t-32 -71.5h-91q7 85 61 126.5t154 41.5q98 0 150 -41t52 -124v-254
q0 -25 10 -35t35 -10h15zM318.5 75q35.5 17 57 45.5t21.5 60.5v72l-154 -23q-52 -8 -76 -30.5t-24 -58.5q0 -39 26.5 -61t72.5 -22q41 0 76.5 17zM127 711.5q31 37.5 83 37.5q24 0 42.5 -7t30.5 -17t27 -26q17 -17 28.5 -25t26.5 -8q23 0 33 19.5t12 63.5h70
q0 -78 -31 -115.5t-83 -37.5q-24 0 -41.5 7t-29.5 16.5t-27 25.5q-17 18 -28.5 26t-28.5 8q-23 0 -33 -19.5t-12 -63.5h-70q0 78 31 115.5z" />
    <glyph glyph-name="adieresis" unicode="&#xe4;" horiz-adv-x="570" 
d="M550 68v-68h-49q-83 0 -89 76q-26 -40 -75 -64.5t-112 -24.5q-52 0 -91.5 18t-60.5 51.5t-21 80.5q0 66 42.5 107.5t133.5 53.5l132 17q19 2 28 11.5t9 27.5v22q0 41 -28 60.5t-88 19.5q-57 0 -85 -20.5t-32 -71.5h-91q7 85 61 126.5t154 41.5q98 0 150 -41t52 -124v-254
q0 -25 10 -35t35 -10h15zM318.5 75q35.5 17 57 45.5t21.5 60.5v72l-154 -23q-52 -8 -76 -30.5t-24 -58.5q0 -39 26.5 -61t72.5 -22q41 0 76.5 17zM135 712h92v-99h-92v99zM349 712h92v-99h-92v99z" />
    <glyph glyph-name="aring" unicode="&#xe5;" horiz-adv-x="570" 
d="M550 68v-68h-49q-83 0 -89 76q-26 -40 -75 -64.5t-112 -24.5q-52 0 -91.5 18t-60.5 51.5t-21 80.5q0 66 42.5 107.5t133.5 53.5l132 17q19 2 28 11.5t9 27.5v22q0 41 -28 60.5t-88 19.5q-57 0 -85 -20.5t-32 -71.5h-91q7 85 61 126.5t154 41.5q98 0 150 -41t52 -124v-254
q0 -25 10 -35t35 -10h15zM318.5 75q35.5 17 57 45.5t21.5 60.5v72l-154 -23q-52 -8 -76 -30.5t-24 -58.5q0 -39 26.5 -61t72.5 -22q41 0 76.5 17zM217.5 603.5q-31.5 17.5 -49.5 49t-18 70.5t18 70.5t49.5 49.5t70.5 18t70.5 -18t49.5 -49.5t18 -70.5t-18 -70.5t-49.5 -49
t-70.5 -17.5t-70.5 17.5zM341.5 668.5q20.5 20.5 20.5 54.5q0 35 -20.5 55.5t-53.5 20.5t-53.5 -20.5t-20.5 -55.5q0 -34 20.5 -54.5t53.5 -20.5t53.5 20.5z" />
    <glyph glyph-name="ae" unicode="&#xe6;" horiz-adv-x="919" 
d="M869 236h-387q2 -85 43.5 -129t112.5 -44q55 0 90 26.5t53 76.5l84 -10q-24 -80 -84.5 -124t-145.5 -44q-68 0 -118 28t-79 80q-32 -55 -83.5 -82t-118.5 -27q-55 0 -96.5 19t-64.5 54.5t-23 83.5q0 44 19.5 79.5t63.5 57t113 21.5h148v59q0 44 -28.5 69.5t-90.5 25.5
q-53 0 -81 -21t-33 -71h-90q7 84 61.5 125.5t149.5 41.5q131 0 173 -80q30 37 74 57t102 20q72 0 125.5 -31t82 -89t28.5 -138v-34zM530.5 414.5q-40.5 -38.5 -47.5 -112.5h300q-9 73 -47.5 112t-101.5 39t-103.5 -38.5zM320 76.5q35 17.5 55.5 50t20.5 73.5v35l-154 -6
q-52 -2 -76 -25t-24 -60q0 -39 28 -62t74 -23q41 0 76 17.5z" />
    <glyph glyph-name="ccedilla" unicode="&#xe7;" horiz-adv-x="557" 
d="M382.5 94q32.5 30 43.5 86h86q-13 -86 -63.5 -136t-135.5 -56l-36 -56h21q47 0 73 -22.5t26 -64.5q0 -45 -36 -71t-100 -26h-32v54h25q39 0 55.5 10.5t16.5 29.5q0 16 -10 23.5t-32 7.5h-42l-27 47l43 68q-64 7 -110.5 39.5t-72 90t-25.5 136.5q0 86 30 148t85 94.5
t129 32.5q90 0 147.5 -47t70.5 -135h-87q-21 105 -130 105q-77 0 -115 -50.5t-38 -143.5q0 -92 39.5 -143t112.5 -51q56 0 88.5 30z" />
    <glyph glyph-name="egrave" unicode="&#xe8;" horiz-adv-x="579" 
d="M529 236h-387q2 -85 43.5 -129t112.5 -44q55 0 90 26.5t53 76.5l84 -10q-24 -80 -84.5 -124t-145.5 -44q-76 0 -131 34.5t-84.5 96t-29.5 141.5q0 79 29 139.5t83.5 94.5t130.5 34q72 0 125.5 -31t82 -89t28.5 -138v-34zM190.5 414.5q-40.5 -38.5 -47.5 -112.5h300
q-9 73 -47.5 112t-101.5 39t-103.5 -38.5zM135 736h126l88 -155h-81z" />
    <glyph glyph-name="eacute" unicode="&#xe9;" horiz-adv-x="579" 
d="M529 236h-387q2 -85 43.5 -129t112.5 -44q55 0 90 26.5t53 76.5l84 -10q-24 -80 -84.5 -124t-145.5 -44q-76 0 -131 34.5t-84.5 96t-29.5 141.5q0 79 29 139.5t83.5 94.5t130.5 34q72 0 125.5 -31t82 -89t28.5 -138v-34zM190.5 414.5q-40.5 -38.5 -47.5 -112.5h300
q-9 73 -47.5 112t-101.5 39t-103.5 -38.5zM317 736h126l-133 -155h-81z" />
    <glyph glyph-name="ecircumflex" unicode="&#xea;" horiz-adv-x="579" 
d="M529 236h-387q2 -85 43.5 -129t112.5 -44q55 0 90 26.5t53 76.5l84 -10q-24 -80 -84.5 -124t-145.5 -44q-76 0 -131 34.5t-84.5 96t-29.5 141.5q0 79 29 139.5t83.5 94.5t130.5 34q72 0 125.5 -31t82 -89t28.5 -138v-34zM190.5 414.5q-40.5 -38.5 -47.5 -112.5h300
q-9 73 -47.5 112t-101.5 39t-103.5 -38.5zM245 736h96l118 -155h-96l-70 100l-70 -100h-96z" />
    <glyph glyph-name="edieresis" unicode="&#xeb;" horiz-adv-x="579" 
d="M529 236h-387q2 -85 43.5 -129t112.5 -44q55 0 90 26.5t53 76.5l84 -10q-24 -80 -84.5 -124t-145.5 -44q-76 0 -131 34.5t-84.5 96t-29.5 141.5q0 79 29 139.5t83.5 94.5t130.5 34q72 0 125.5 -31t82 -89t28.5 -138v-34zM190.5 414.5q-40.5 -38.5 -47.5 -112.5h300
q-9 73 -47.5 112t-101.5 39t-103.5 -38.5zM140 712h92v-99h-92v99zM354 712h92v-99h-92v99z" />
    <glyph glyph-name="igrave" unicode="&#xec;" horiz-adv-x="252" 
d="M80 516h92v-516h-92v516zM-32 736h126l88 -155h-81z" />
    <glyph glyph-name="iacute" unicode="&#xed;" horiz-adv-x="252" 
d="M80 516h92v-516h-92v516zM150 736h126l-133 -155h-81z" />
    <glyph glyph-name="icircumflex" unicode="&#xee;" horiz-adv-x="252" 
d="M80 516h92v-516h-92v516zM78 736h96l118 -155h-96l-70 100l-70 -100h-96z" />
    <glyph glyph-name="idieresis" unicode="&#xef;" horiz-adv-x="252" 
d="M-12 712h92v-99h-92v99zM172 712h92v-99h-92v99zM80 516h92v-516h-92v516z" />
    <glyph glyph-name="eth" unicode="&#xf0;" horiz-adv-x="574" 
d="M479.5 449.5q44.5 -93.5 44.5 -194.5q0 -84 -28.5 -145t-82 -93.5t-128.5 -32.5q-72 0 -125 30.5t-81.5 83.5t-28.5 121q0 65 27 119t77 85.5t117 31.5q44 0 82 -14.5t65 -45.5q-32 100 -131 182l-85 -70l-44 50l81 57q-34 24 -94 57l36 54q67 -33 115 -68l126 102
l48 -59l-126 -81q91 -76 135.5 -169.5zM434 267q-11 53 -52.5 82t-97.5 29q-48 0 -80 -21t-47 -56.5t-15 -77.5q0 -43 16.5 -80t49 -59.5t79.5 -22.5q44 0 77 20.5t51.5 63.5t18.5 107v15z" />
    <glyph glyph-name="ntilde" unicode="&#xf1;" horiz-adv-x="594" 
d="M432.5 509q39.5 -20 60.5 -58.5t21 -92.5v-358h-92v340q0 109 -103 109q-39 0 -72 -15.5t-54 -52t-21 -94.5v-287h-92v516h86v-73q26 41 71 63.5t102 22.5q54 0 93.5 -20zM142 711.5q31 37.5 83 37.5q24 0 42.5 -7t30.5 -17t27 -26q17 -17 28.5 -25t26.5 -8q23 0 33 19.5
t12 63.5h70q0 -78 -31 -115.5t-83 -37.5q-24 0 -41.5 7t-29.5 16.5t-27 25.5q-17 18 -28.5 26t-28.5 8q-23 0 -33 -19.5t-12 -63.5h-70q0 78 31 115.5z" />
    <glyph glyph-name="ograve" unicode="&#xf2;" horiz-adv-x="597" 
d="M168.5 21q-56.5 34 -87.5 95.5t-31 141.5q0 82 31.5 143.5t88.5 94.5t131 33q72 0 127.5 -32.5t87 -93t31.5 -141.5q0 -80 -32 -142.5t-88.5 -97.5t-128.5 -35q-73 0 -129.5 34zM382.5 89q35.5 25 54 69.5t18.5 103.5q0 58 -18.5 101t-54 66t-84.5 23q-48 0 -83.5 -24
t-54 -68t-18.5 -102t19 -102t54 -68t83 -24q49 0 84.5 25zM143 736h126l88 -155h-81z" />
    <glyph glyph-name="oacute" unicode="&#xf3;" horiz-adv-x="597" 
d="M168.5 21q-56.5 34 -87.5 95.5t-31 141.5q0 82 31.5 143.5t88.5 94.5t131 33q72 0 127.5 -32.5t87 -93t31.5 -141.5q0 -80 -32 -142.5t-88.5 -97.5t-128.5 -35q-73 0 -129.5 34zM382.5 89q35.5 25 54 69.5t18.5 103.5q0 58 -18.5 101t-54 66t-84.5 23q-48 0 -83.5 -24
t-54 -68t-18.5 -102t19 -102t54 -68t83 -24q49 0 84.5 25zM325 736h126l-133 -155h-81z" />
    <glyph glyph-name="ocircumflex" unicode="&#xf4;" horiz-adv-x="597" 
d="M168.5 21q-56.5 34 -87.5 95.5t-31 141.5q0 82 31.5 143.5t88.5 94.5t131 33q72 0 127.5 -32.5t87 -93t31.5 -141.5q0 -80 -32 -142.5t-88.5 -97.5t-128.5 -35q-73 0 -129.5 34zM382.5 89q35.5 25 54 69.5t18.5 103.5q0 58 -18.5 101t-54 66t-84.5 23q-48 0 -83.5 -24
t-54 -68t-18.5 -102t19 -102t54 -68t83 -24q49 0 84.5 25zM253 736h96l118 -155h-96l-70 100l-70 -100h-96z" />
    <glyph glyph-name="otilde" unicode="&#xf5;" horiz-adv-x="597" 
d="M168.5 21q-56.5 34 -87.5 95.5t-31 141.5q0 82 31.5 143.5t88.5 94.5t131 33q72 0 127.5 -32.5t87 -93t31.5 -141.5q0 -80 -32 -142.5t-88.5 -97.5t-128.5 -35q-73 0 -129.5 34zM382.5 89q35.5 25 54 69.5t18.5 103.5q0 58 -18.5 101t-54 66t-84.5 23q-48 0 -83.5 -24
t-54 -68t-18.5 -102t19 -102t54 -68t83 -24q49 0 84.5 25zM140 711.5q31 37.5 83 37.5q24 0 42.5 -7t30.5 -17t27 -26q17 -17 28.5 -25t26.5 -8q23 0 33 19.5t12 63.5h70q0 -78 -31 -115.5t-83 -37.5q-24 0 -41.5 7t-29.5 16.5t-27 25.5q-17 18 -28.5 26t-28.5 8
q-23 0 -33 -19.5t-12 -63.5h-70q0 78 31 115.5z" />
    <glyph glyph-name="odieresis" unicode="&#xf6;" horiz-adv-x="597" 
d="M168.5 21q-56.5 34 -87.5 95.5t-31 141.5q0 82 31.5 143.5t88.5 94.5t131 33q72 0 127.5 -32.5t87 -93t31.5 -141.5q0 -80 -32 -142.5t-88.5 -97.5t-128.5 -35q-73 0 -129.5 34zM382.5 89q35.5 25 54 69.5t18.5 103.5q0 58 -18.5 101t-54 66t-84.5 23q-48 0 -83.5 -24
t-54 -68t-18.5 -102t19 -102t54 -68t83 -24q49 0 84.5 25zM148 712h92v-99h-92v99zM362 712h92v-99h-92v99z" />
    <glyph glyph-name="divide" unicode="&#xf7;" 
d="M267 558h108v-109h-108v109zM36 354h569v-90h-569v90zM267 169h108v-109h-108v109z" />
    <glyph glyph-name="oslash" unicode="&#xf8;" horiz-adv-x="597" 
d="M533.5 359.5q13.5 -44.5 13.5 -97.5q0 -80 -32 -142.5t-88.5 -97.5t-128.5 -35q-87 0 -152 49l-43 -49l-50 39l49 56q-25 35 -38.5 79.5t-13.5 96.5q0 82 31.5 143.5t88.5 94.5t131 33q87 0 149 -47l40 47l50 -39l-46 -53q26 -33 39.5 -77.5zM163 152l232 268
q-38 32 -97 32q-48 0 -83.5 -24t-54 -68t-18.5 -102q0 -62 21 -106zM382.5 89q35.5 25 54 69.5t18.5 103.5q0 62 -21 106l-234 -269q41 -35 98 -35q49 0 84.5 25z" />
    <glyph glyph-name="ugrave" unicode="&#xf9;" horiz-adv-x="594" 
d="M514 516v-516h-86v73q-26 -41 -71 -63.5t-102 -22.5q-54 0 -93.5 20t-60.5 58.5t-21 92.5v358h92v-340q0 -109 103 -109q39 0 72 15.5t54 52t21 94.5v287h92zM139 736h126l88 -155h-81z" />
    <glyph glyph-name="uacute" unicode="&#xfa;" horiz-adv-x="594" 
d="M514 516v-516h-86v73q-26 -41 -71 -63.5t-102 -22.5q-54 0 -93.5 20t-60.5 58.5t-21 92.5v358h92v-340q0 -109 103 -109q39 0 72 15.5t54 52t21 94.5v287h92zM321 736h126l-133 -155h-81z" />
    <glyph glyph-name="ucircumflex" unicode="&#xfb;" horiz-adv-x="594" 
d="M514 516v-516h-86v73q-26 -41 -71 -63.5t-102 -22.5q-54 0 -93.5 20t-60.5 58.5t-21 92.5v358h92v-340q0 -109 103 -109q39 0 72 15.5t54 52t21 94.5v287h92zM249 736h96l118 -155h-96l-70 100l-70 -100h-96z" />
    <glyph glyph-name="udieresis" unicode="&#xfc;" horiz-adv-x="594" 
d="M514 516v-516h-86v73q-26 -41 -71 -63.5t-102 -22.5q-54 0 -93.5 20t-60.5 58.5t-21 92.5v358h92v-340q0 -109 103 -109q39 0 72 15.5t54 52t21 94.5v287h92zM144 712h92v-99h-92v99zM358 712h92v-99h-92v99z" />
    <glyph glyph-name="yacute" unicode="&#xfd;" horiz-adv-x="539" 
d="M514 516l-240 -617q-16 -40 -34.5 -62t-44 -31.5t-63.5 -9.5h-57v77h48q24 0 39 6t25.5 20.5t21.5 42.5l24 63l-208 511h100l134 -356l11 -62l149 418h95zM294 736h126l-133 -155h-81z" />
    <glyph glyph-name="thorn" unicode="&#xfe;" horiz-adv-x="601" 
d="M444.5 495q50.5 -32 78.5 -90t28 -135q0 -80 -27.5 -144t-79 -100.5t-119.5 -36.5q-48 0 -87.5 20t-65.5 54v-267h-92v916h92v-259q25 35 66 54.5t91 19.5q65 0 115.5 -32zM392 93.5q32 25.5 49.5 71t17.5 105.5q0 87 -37.5 132.5t-105.5 45.5q-44 0 -77.5 -21
t-52.5 -62.5t-19 -100.5q0 -60 19 -104.5t53 -68t77 -23.5q44 0 76 25.5z" />
    <glyph glyph-name="ydieresis" unicode="&#xff;" horiz-adv-x="539" 
d="M514 516l-240 -617q-16 -40 -34.5 -62t-44 -31.5t-63.5 -9.5h-57v77h48q24 0 39 6t25.5 20.5t21.5 42.5l24 63l-208 511h100l134 -356l11 -62l149 418h95zM117 712h92v-99h-92v99zM331 712h92v-99h-92v99z" />
    <glyph glyph-name="Amacron" unicode="&#x100;" horiz-adv-x="716" 
d="M508 209h-302l-77 -209h-99l276 712h105l275 -712h-103zM479 290l-97 270l-23 74l-24 -74l-99 -270h243zM198 879h320v-71h-320v71z" />
    <glyph glyph-name="amacron" unicode="&#x101;" horiz-adv-x="570" 
d="M550 68v-68h-49q-83 0 -89 76q-26 -40 -75 -64.5t-112 -24.5q-52 0 -91.5 18t-60.5 51.5t-21 80.5q0 66 42.5 107.5t133.5 53.5l132 17q19 2 28 11.5t9 27.5v22q0 41 -28 60.5t-88 19.5q-57 0 -85 -20.5t-32 -71.5h-91q7 85 61 126.5t154 41.5q98 0 150 -41t52 -124v-254
q0 -25 10 -35t35 -10h15zM318.5 75q35.5 17 57 45.5t21.5 60.5v72l-154 -23q-52 -8 -76 -30.5t-24 -58.5q0 -39 26.5 -61t72.5 -22q41 0 76.5 17zM128 683h320v-71h-320v71z" />
    <glyph glyph-name="Abreve" unicode="&#x102;" horiz-adv-x="716" 
d="M508 209h-302l-77 -209h-99l276 712h105l275 -712h-103zM479 290l-97 270l-23 74l-24 -74l-99 -270h243zM198 916h61q1 -38 27 -57.5t72 -19.5t72 19.5t27 57.5h61q-3 -65 -42 -101t-119 -36q-152 0 -159 137z" />
    <glyph glyph-name="abreve" unicode="&#x103;" horiz-adv-x="570" 
d="M550 68v-68h-49q-83 0 -89 76q-26 -40 -75 -64.5t-112 -24.5q-52 0 -91.5 18t-60.5 51.5t-21 80.5q0 66 42.5 107.5t133.5 53.5l132 17q19 2 28 11.5t9 27.5v22q0 41 -28 60.5t-88 19.5q-57 0 -85 -20.5t-32 -71.5h-91q7 85 61 126.5t154 41.5q98 0 150 -41t52 -124v-254
q0 -25 10 -35t35 -10h15zM318.5 75q35.5 17 57 45.5t21.5 60.5v72l-154 -23q-52 -8 -76 -30.5t-24 -58.5q0 -39 26.5 -61t72.5 -22q41 0 76.5 17zM128 720h61q1 -38 27 -57.5t72 -19.5t72 19.5t27 57.5h61q-3 -65 -42 -101t-119 -36q-152 0 -159 137z" />
    <glyph glyph-name="Aogonek" unicode="&#x104;" horiz-adv-x="716" 
d="M594.5 -125.5q13.5 -10.5 46.5 -10.5h32v-65h-55q-62 0 -91.5 23.5t-29.5 64.5q0 29 17 53t58 46l26 14h-15l-75 209h-302l-77 -209h-99l276 712h105l275 -712l-66 -44q-22 -15 -30.5 -26.5t-8.5 -25.5q0 -19 13.5 -29.5zM479 290l-97 270l-23 74l-24 -74l-99 -270h243z
" />
    <glyph glyph-name="aogonek" unicode="&#x105;" horiz-adv-x="570" 
d="M453.5 -70.5q-8.5 -11.5 -8.5 -25.5q0 -19 13.5 -29.5t46.5 -10.5h32v-65h-55q-62 0 -91.5 23.5t-29.5 64.5q0 29 17 53t58 46l32 18q-25 6 -39.5 24.5t-16.5 47.5q-26 -40 -75 -64.5t-112 -24.5q-52 0 -91.5 18t-60.5 51.5t-21 80.5q0 66 42.5 107.5t133.5 53.5l132 17
q19 2 28 11.5t9 27.5v23q0 41 -28 60t-88 19q-57 0 -85 -20.5t-32 -70.5h-91q7 85 60.5 126t154.5 41q98 0 150 -40.5t52 -123.5v-255q0 -25 10 -35t35 -10h15v-68l-66 -44q-22 -15 -30.5 -26.5zM318.5 75q35.5 17 57 45.5t21.5 60.5v72l-154 -23q-52 -8 -76 -30.5
t-24 -58.5q0 -39 26.5 -61t72.5 -22q41 0 76.5 17z" />
    <glyph glyph-name="Cacute" unicode="&#x106;" horiz-adv-x="732" 
d="M215 31q-73 48 -112 132.5t-39 192.5t39.5 192t112 130.5t169.5 46.5q74 0 137 -28t104 -79.5t52 -120.5h-95q-16 70 -67.5 107.5t-126.5 37.5q-71 0 -123 -34.5t-79.5 -99t-27.5 -152.5q0 -89 27.5 -154t79 -100.5t123.5 -35.5q85 0 139 49t67 144h92
q-12 -85 -51.5 -147.5t-103 -95.5t-146.5 -33q-98 0 -171 48zM409 932h126l-133 -155h-81z" />
    <glyph glyph-name="cacute" unicode="&#x107;" horiz-adv-x="557" 
d="M163 17.5q-54 30.5 -83.5 91t-29.5 145.5q0 86 30 148t85 94.5t129 32.5q90 0 147.5 -47t70.5 -135h-87q-21 105 -130 105q-77 0 -115 -50.5t-38 -143.5q0 -92 39.5 -143t112.5 -51q56 0 88.5 30t43.5 86h86q-14 -92 -70.5 -142.5t-152.5 -50.5q-72 0 -126 30.5zM318 736
h126l-133 -155h-81z" />
    <glyph glyph-name="Ccircumflex" unicode="&#x108;" horiz-adv-x="732" 
d="M215 31q-73 48 -112 132.5t-39 192.5t39.5 192t112 130.5t169.5 46.5q74 0 137 -28t104 -79.5t52 -120.5h-95q-16 70 -67.5 107.5t-126.5 37.5q-71 0 -123 -34.5t-79.5 -99t-27.5 -152.5q0 -89 27.5 -154t79 -100.5t123.5 -35.5q85 0 139 49t67 144h92
q-12 -85 -51.5 -147.5t-103 -95.5t-146.5 -33q-98 0 -171 48zM337 932h96l118 -155h-96l-70 100l-70 -100h-96z" />
    <glyph glyph-name="ccircumflex" unicode="&#x109;" horiz-adv-x="557" 
d="M163 17.5q-54 30.5 -83.5 91t-29.5 145.5q0 86 30 148t85 94.5t129 32.5q90 0 147.5 -47t70.5 -135h-87q-21 105 -130 105q-77 0 -115 -50.5t-38 -143.5q0 -92 39.5 -143t112.5 -51q56 0 88.5 30t43.5 86h86q-14 -92 -70.5 -142.5t-152.5 -50.5q-72 0 -126 30.5zM246 736
h96l118 -155h-96l-70 100l-70 -100h-96z" />
    <glyph glyph-name="Cdotaccent" unicode="&#x10a;" horiz-adv-x="732" 
d="M215 31q-73 48 -112 132.5t-39 192.5t39.5 192t112 130.5t169.5 46.5q74 0 137 -28t104 -79.5t52 -120.5h-95q-16 70 -67.5 107.5t-126.5 37.5q-71 0 -123 -34.5t-79.5 -99t-27.5 -152.5q0 -89 27.5 -154t79 -100.5t123.5 -35.5q85 0 139 49t67 144h92
q-12 -85 -51.5 -147.5t-103 -95.5t-146.5 -33q-98 0 -171 48zM339 899h92v-99h-92v99z" />
    <glyph glyph-name="cdotaccent" unicode="&#x10b;" horiz-adv-x="557" 
d="M163 17.5q-54 30.5 -83.5 91t-29.5 145.5q0 86 30 148t85 94.5t129 32.5q90 0 147.5 -47t70.5 -135h-87q-21 105 -130 105q-77 0 -115 -50.5t-38 -143.5q0 -92 39.5 -143t112.5 -51q56 0 88.5 30t43.5 86h86q-14 -92 -70.5 -142.5t-152.5 -50.5q-72 0 -126 30.5zM248 712
h92v-99h-92v99z" />
    <glyph glyph-name="Ccaron" unicode="&#x10c;" horiz-adv-x="732" 
d="M215 31q-73 48 -112 132.5t-39 192.5t39.5 192t112 130.5t169.5 46.5q74 0 137 -28t104 -79.5t52 -120.5h-95q-16 70 -67.5 107.5t-126.5 37.5q-71 0 -123 -34.5t-79.5 -99t-27.5 -152.5q0 -89 27.5 -154t79 -100.5t123.5 -35.5q85 0 139 49t67 144h92
q-12 -85 -51.5 -147.5t-103 -95.5t-146.5 -33q-98 0 -171 48zM219 945h96l70 -100l70 100h96l-118 -155h-96z" />
    <glyph glyph-name="ccaron" unicode="&#x10d;" horiz-adv-x="557" 
d="M163 17.5q-54 30.5 -83.5 91t-29.5 145.5q0 86 30 148t85 94.5t129 32.5q90 0 147.5 -47t70.5 -135h-87q-21 105 -130 105q-77 0 -115 -50.5t-38 -143.5q0 -92 39.5 -143t112.5 -51q56 0 88.5 30t43.5 86h86q-14 -92 -70.5 -142.5t-152.5 -50.5q-72 0 -126 30.5zM128 736
h96l70 -100l70 100h96l-118 -155h-96z" />
    <glyph glyph-name="Dcaron" unicode="&#x10e;" horiz-adv-x="713" 
d="M515 669q70 -43 105 -122.5t35 -190.5q0 -109 -36.5 -189t-111 -123.5t-185.5 -43.5h-237v712h257q103 0 173 -43zM501 149q59 68 59 207q0 140 -59 207.5t-178 67.5h-145v-550h140q124 0 183 68zM181 945h96l70 -100l70 100h96l-118 -155h-96z" />
    <glyph glyph-name="dcaron" unicode="&#x10f;" horiz-adv-x="776" 
d="M429 712h92v-712h-80v82q-24 -42 -67.5 -67.5t-98.5 -25.5q-69 0 -120 35.5t-78 98.5t-27 143q0 77 28.5 136.5t79 92t115.5 32.5q50 0 90.5 -19.5t65.5 -53.5v258zM776 712l-89 -198h-69l48 198h110zM361 91.5q34 23.5 53.5 68t19.5 104.5q0 59 -19 100.5t-52 62.5
t-77 21q-68 0 -106 -47t-38 -135q0 -60 17 -104.5t49 -69t76 -24.5q43 0 77 23.5z" />
    <glyph glyph-name="Dcroat" unicode="&#x110;" horiz-adv-x="803" 
d="M605 669q70 -43 105 -122.5t35 -190.5q0 -109 -36.5 -189t-111 -123.5t-185.5 -43.5h-237v324l-135 -5v81l135 -5v317h257q103 0 173 -43zM591 149q59 68 59 207q0 140 -59 207.5t-178 67.5h-145v-237l192 6v-81l-192 6v-244h140q124 0 183 68z" />
    <glyph glyph-name="dcroat" unicode="&#x111;" horiz-adv-x="639" 
d="M629 593l-108 4v-597h-80v82q-24 -42 -67.5 -67.5t-98.5 -25.5q-69 0 -120 35.5t-78 98.5t-27 143q0 77 28.5 136.5t79 92t115.5 32.5q50 0 90.5 -19.5t65.5 -53.5v143l-156 -4v71l156 -4v52h92v-52l108 4v-71zM361 91.5q34 23.5 53.5 68t19.5 104.5q0 59 -19 100.5
t-52 62.5t-77 21q-68 0 -106 -47t-38 -135q0 -60 17 -104.5t49 -69t76 -24.5q43 0 77 23.5z" />
    <glyph glyph-name="Emacron" unicode="&#x112;" horiz-adv-x="663" 
d="M598 81v-81h-513v712h504v-81h-411v-224h379v-81h-379v-245h420zM186 879h320v-71h-320v71z" />
    <glyph glyph-name="emacron" unicode="&#x113;" horiz-adv-x="579" 
d="M529 236h-387q2 -85 43.5 -129t112.5 -44q55 0 90 26.5t53 76.5l84 -10q-24 -80 -84.5 -124t-145.5 -44q-76 0 -131 34.5t-84.5 96t-29.5 141.5q0 79 29 139.5t83.5 94.5t130.5 34q72 0 125.5 -31t82 -89t28.5 -138v-34zM190.5 414.5q-40.5 -38.5 -47.5 -112.5h300
q-9 73 -47.5 112t-101.5 39t-103.5 -38.5zM133 683h320v-71h-320v71z" />
    <glyph glyph-name="Ebreve" unicode="&#x114;" horiz-adv-x="663" 
d="M598 81v-81h-513v712h504v-81h-411v-224h379v-81h-379v-245h420zM186 916h61q1 -38 27 -57.5t72 -19.5t72 19.5t27 57.5h61q-3 -65 -42 -101t-119 -36q-152 0 -159 137z" />
    <glyph glyph-name="ebreve" unicode="&#x115;" horiz-adv-x="579" 
d="M529 236h-387q2 -85 43.5 -129t112.5 -44q55 0 90 26.5t53 76.5l84 -10q-24 -80 -84.5 -124t-145.5 -44q-76 0 -131 34.5t-84.5 96t-29.5 141.5q0 79 29 139.5t83.5 94.5t130.5 34q72 0 125.5 -31t82 -89t28.5 -138v-34zM190.5 414.5q-40.5 -38.5 -47.5 -112.5h300
q-9 73 -47.5 112t-101.5 39t-103.5 -38.5zM133 720h61q1 -38 27 -57.5t72 -19.5t72 19.5t27 57.5h61q-3 -65 -42 -101t-119 -36q-152 0 -159 137z" />
    <glyph glyph-name="Edotaccent" unicode="&#x116;" horiz-adv-x="663" 
d="M598 81v-81h-513v712h504v-81h-411v-224h379v-81h-379v-245h420zM300 899h92v-99h-92v99z" />
    <glyph glyph-name="edotaccent" unicode="&#x117;" horiz-adv-x="579" 
d="M529 236h-387q2 -85 43.5 -129t112.5 -44q55 0 90 26.5t53 76.5l84 -10q-24 -80 -84.5 -124t-145.5 -44q-76 0 -131 34.5t-84.5 96t-29.5 141.5q0 79 29 139.5t83.5 94.5t130.5 34q72 0 125.5 -31t82 -89t28.5 -138v-34zM190.5 414.5q-40.5 -38.5 -47.5 -112.5h300
q-9 73 -47.5 112t-101.5 39t-103.5 -38.5zM247 712h92v-99h-92v99z" />
    <glyph glyph-name="Eogonek" unicode="&#x118;" horiz-adv-x="663" 
d="M501.5 -70.5q-8.5 -11.5 -8.5 -25.5q0 -19 13.5 -29.5t46.5 -10.5h32v-65h-55q-62 0 -91.5 23.5t-29.5 64.5q0 29 17 53t58 46l26 14h-425v712h504v-81h-411v-224h379v-81h-379v-245h420v-81l-66 -44q-22 -15 -30.5 -26.5z" />
    <glyph glyph-name="eogonek" unicode="&#x119;" horiz-adv-x="579" 
d="M529 236h-387q2 -85 43.5 -129t112.5 -44q55 0 90 26.5t53 76.5l84 -10q-15 -49 -44 -85.5t-70 -56.5l-66 -44q-22 -15 -30.5 -26.5t-8.5 -25.5q0 -19 13.5 -29.5t46.5 -10.5h32v-65h-55q-62 0 -91.5 23.5t-29.5 64.5q0 25 13 46.5t43 40.5q-71 4 -122.5 39.5t-78.5 95.5
t-27 137q0 79 29 139.5t83.5 94.5t130.5 34q72 0 125.5 -31t82 -89t28.5 -138v-34zM190.5 414.5q-40.5 -38.5 -47.5 -112.5h300q-9 73 -47.5 112t-101.5 39t-103.5 -38.5z" />
    <glyph glyph-name="Ecaron" unicode="&#x11a;" horiz-adv-x="663" 
d="M598 81v-81h-513v712h504v-81h-411v-224h379v-81h-379v-245h420zM180 945h96l70 -100l70 100h96l-118 -155h-96z" />
    <glyph glyph-name="ecaron" unicode="&#x11b;" horiz-adv-x="579" 
d="M529 236h-387q2 -85 43.5 -129t112.5 -44q55 0 90 26.5t53 76.5l84 -10q-24 -80 -84.5 -124t-145.5 -44q-76 0 -131 34.5t-84.5 96t-29.5 141.5q0 79 29 139.5t83.5 94.5t130.5 34q72 0 125.5 -31t82 -89t28.5 -138v-34zM190.5 414.5q-40.5 -38.5 -47.5 -112.5h300
q-9 73 -47.5 112t-101.5 39t-103.5 -38.5zM127 736h96l70 -100l70 100h96l-118 -155h-96z" />
    <glyph glyph-name="Gcircumflex" unicode="&#x11c;" horiz-adv-x="807" 
d="M722 381v-381h-68l-21 96q-37 -54 -96 -83t-136 -29q-98 0 -174.5 45t-119.5 130t-43 199q0 111 41 194.5t118.5 129.5t183.5 46q81 0 145 -27t105 -77t52 -118l-90 -6q-15 73 -71 109t-136 36q-81 0 -137.5 -35t-86 -100t-29.5 -155q0 -86 29 -151t84 -101t131 -36
q91 0 149.5 51.5t77.5 142.5v39h-216v81h308zM359 932h96l118 -155h-96l-70 100l-70 -100h-96z" />
    <glyph glyph-name="gcircumflex" unicode="&#x11d;" horiz-adv-x="606" 
d="M526 516v-499q0 -120 -63.5 -176.5t-178.5 -56.5q-93 0 -150.5 37.5t-67.5 113.5h90q10 -42 42 -60t89 -18q54 0 86.5 15.5t48 48.5t15.5 87v67q-25 -39 -67.5 -62.5t-94.5 -23.5q-69 0 -120 35.5t-78 98.5t-27 143q0 77 28.5 136.5t79 92t115.5 32.5q56 0 99.5 -24.5
t67.5 -66.5v80h86zM361 91.5q34 23.5 53.5 68t19.5 104.5q0 59 -19 100.5t-52 62.5t-77 21q-68 0 -106 -47t-38 -135q0 -60 17 -104.5t49 -69t76 -24.5q43 0 77 23.5zM225 736h96l118 -155h-96l-70 100l-70 -100h-96z" />
    <glyph glyph-name="Gbreve" unicode="&#x11e;" horiz-adv-x="807" 
d="M722 381v-381h-68l-21 96q-37 -54 -96 -83t-136 -29q-98 0 -174.5 45t-119.5 130t-43 199q0 111 41 194.5t118.5 129.5t183.5 46q81 0 145 -27t105 -77t52 -118l-90 -6q-15 73 -71 109t-136 36q-81 0 -137.5 -35t-86 -100t-29.5 -155q0 -86 29 -151t84 -101t131 -36
q91 0 149.5 51.5t77.5 142.5v39h-216v81h308zM247 916h61q1 -38 27 -57.5t72 -19.5t72 19.5t27 57.5h61q-3 -65 -42 -101t-119 -36q-152 0 -159 137z" />
    <glyph glyph-name="gbreve" unicode="&#x11f;" horiz-adv-x="606" 
d="M526 516v-499q0 -120 -63.5 -176.5t-178.5 -56.5q-93 0 -150.5 37.5t-67.5 113.5h90q10 -42 42 -60t89 -18q54 0 86.5 15.5t48 48.5t15.5 87v67q-25 -39 -67.5 -62.5t-94.5 -23.5q-69 0 -120 35.5t-78 98.5t-27 143q0 77 28.5 136.5t79 92t115.5 32.5q56 0 99.5 -24.5
t67.5 -66.5v80h86zM361 91.5q34 23.5 53.5 68t19.5 104.5q0 59 -19 100.5t-52 62.5t-77 21q-68 0 -106 -47t-38 -135q0 -60 17 -104.5t49 -69t76 -24.5q43 0 77 23.5zM113 720h61q1 -38 27 -57.5t72 -19.5t72 19.5t27 57.5h61q-3 -65 -42 -101t-119 -36q-152 0 -159 137z
" />
    <glyph glyph-name="Gdotaccent" unicode="&#x120;" horiz-adv-x="807" 
d="M722 381v-381h-68l-21 96q-37 -54 -96 -83t-136 -29q-98 0 -174.5 45t-119.5 130t-43 199q0 111 41 194.5t118.5 129.5t183.5 46q81 0 145 -27t105 -77t52 -118l-90 -6q-15 73 -71 109t-136 36q-81 0 -137.5 -35t-86 -100t-29.5 -155q0 -86 29 -151t84 -101t131 -36
q91 0 149.5 51.5t77.5 142.5v39h-216v81h308zM361 899h92v-99h-92v99z" />
    <glyph glyph-name="gdotaccent" unicode="&#x121;" horiz-adv-x="606" 
d="M526 516v-499q0 -120 -63.5 -176.5t-178.5 -56.5q-93 0 -150.5 37.5t-67.5 113.5h90q10 -42 42 -60t89 -18q54 0 86.5 15.5t48 48.5t15.5 87v67q-25 -39 -67.5 -62.5t-94.5 -23.5q-69 0 -120 35.5t-78 98.5t-27 143q0 77 28.5 136.5t79 92t115.5 32.5q56 0 99.5 -24.5
t67.5 -66.5v80h86zM361 91.5q34 23.5 53.5 68t19.5 104.5q0 59 -19 100.5t-52 62.5t-77 21q-68 0 -106 -47t-38 -135q0 -60 17 -104.5t49 -69t76 -24.5q43 0 77 23.5zM227 712h92v-99h-92v99z" />
    <glyph glyph-name="Gcommaaccent" unicode="&#x122;" horiz-adv-x="807" 
d="M722 381v-381h-68l-21 96q-37 -54 -96 -83t-136 -29q-98 0 -174.5 45t-119.5 130t-43 199q0 111 41 194.5t118.5 129.5t183.5 46q81 0 145 -27t105 -77t52 -118l-90 -6q-15 73 -71 109t-136 36q-81 0 -137.5 -35t-86 -100t-29.5 -155q0 -86 29 -151t84 -101t131 -36
q91 0 149.5 51.5t77.5 142.5v39h-216v81h308zM457 -66v-96q0 -83 -77 -83h-34v39h34q38 0 38 36v32l-72 -5v77h111z" />
    <glyph glyph-name="gcommaaccent" unicode="&#x123;" horiz-adv-x="606" 
d="M526 516v-499q0 -120 -63.5 -176.5t-178.5 -56.5q-93 0 -150.5 37.5t-67.5 113.5h90q10 -42 42 -60t89 -18q54 0 86.5 15.5t48 48.5t15.5 87v67q-25 -39 -67.5 -62.5t-94.5 -23.5q-69 0 -120 35.5t-78 98.5t-27 143q0 77 28.5 136.5t79 92t115.5 32.5q56 0 99.5 -24.5
t67.5 -66.5v80h86zM361 91.5q34 23.5 53.5 68t19.5 104.5q0 59 -19 100.5t-52 62.5t-77 21q-68 0 -106 -47t-38 -135q0 -60 17 -104.5t49 -69t76 -24.5q43 0 77 23.5zM267 717v-32l71 5v-77h-110v96q0 83 76 83h34v-39h-34q-37 0 -37 -36z" />
    <glyph glyph-name="Hcircumflex" unicode="&#x124;" horiz-adv-x="733" 
d="M648 712v-712h-93v338h-377v-338h-93v712h93v-293h377v293h93zM319 932h96l118 -155h-96l-70 100l-70 -100h-96z" />
    <glyph glyph-name="hcircumflex" unicode="&#x125;" horiz-adv-x="594" 
d="M432.5 509q39.5 -20 60.5 -58.5t21 -92.5v-358h-92v340q0 109 -103 109q-39 0 -72 -15.5t-54 -52t-21 -94.5v-287h-92v712h92v-261q27 38 70 58t97 20t93.5 -20zM78 932h96l118 -155h-96l-70 100l-70 -100h-96z" />
    <glyph glyph-name="Hbar" unicode="&#x126;" horiz-adv-x="733" 
d="M648 712v-712h-93v305h-377v-305h-93v712h93v-123h377v123h93zM555 386v122h-377v-122h377z" />
    <glyph glyph-name="hbar" unicode="&#x127;" horiz-adv-x="634" 
d="M472.5 509q39.5 -20 60.5 -58.5t21 -92.5v-358h-92v340q0 109 -103 109q-39 0 -72 -15.5t-54 -52t-21 -94.5v-287h-92v597l-110 -4v71l110 -4v52h92v-52l154 4v-71l-154 4v-146q27 38 70 58t97 20t93.5 -20z" />
    <glyph glyph-name="Itilde" unicode="&#x128;" horiz-adv-x="263" 
d="M85 712h93v-712h-93v712zM-29 907.5q31 37.5 83 37.5q24 0 42.5 -7t30.5 -17t27 -26q17 -17 28.5 -25t26.5 -8q23 0 33 19.5t12 63.5h70q0 -78 -31 -115.5t-83 -37.5q-24 0 -41.5 7t-29.5 16.5t-27 25.5q-17 18 -28.5 26t-28.5 8q-23 0 -33 -19.5t-12 -63.5h-70
q0 78 31 115.5z" />
    <glyph glyph-name="itilde" unicode="&#x129;" horiz-adv-x="252" 
d="M80 516h92v-516h-92v516zM-35 711.5q31 37.5 83 37.5q24 0 42.5 -7t30.5 -17t27 -26q17 -17 28.5 -25t26.5 -8q23 0 33 19.5t12 63.5h70q0 -78 -31 -115.5t-83 -37.5q-24 0 -41.5 7t-29.5 16.5t-27 25.5q-17 18 -28.5 26t-28.5 8q-23 0 -33 -19.5t-12 -63.5h-70
q0 78 31 115.5z" />
    <glyph glyph-name="Imacron" unicode="&#x12a;" horiz-adv-x="263" 
d="M85 712h93v-712h-93v712zM-28 879h320v-71h-320v71z" />
    <glyph glyph-name="imacron" unicode="&#x12b;" horiz-adv-x="252" 
d="M80 516h92v-516h-92v516zM-34 683h320v-71h-320v71z" />
    <glyph glyph-name="Ibreve" unicode="&#x12c;" horiz-adv-x="263" 
d="M85 712h93v-712h-93v712zM-28 916h61q1 -38 27 -57.5t72 -19.5t72 19.5t27 57.5h61q-3 -65 -42 -101t-119 -36q-152 0 -159 137z" />
    <glyph glyph-name="ibreve" unicode="&#x12d;" horiz-adv-x="252" 
d="M80 516h92v-516h-92v516zM-34 720h61q1 -38 27 -57.5t72 -19.5t72 19.5t27 57.5h61q-3 -65 -42 -101t-119 -36q-152 0 -159 137z" />
    <glyph glyph-name="Iogonek" unicode="&#x12e;" horiz-adv-x="263" 
d="M124 -52q-16 -16 -22 -25.5t-6 -22.5q0 -36 50 -36h32v-65h-45q-62 0 -91.5 23t-29.5 62q0 20 7.5 35.5t23 31t44.5 38.5l14 11h-16v712h93v-712z" />
    <glyph glyph-name="iogonek" unicode="&#x12f;" horiz-adv-x="252" 
d="M172 712v-99h-92v99h92zM80 516h92v-516l-54 -52q-16 -16 -22 -25.5t-6 -22.5q0 -36 50 -36h32v-65h-45q-62 0 -91.5 23t-29.5 62q0 20 7.5 35.5t23 31t44.5 38.5l14 11h-15v516z" />
    <glyph glyph-name="Idotaccent" unicode="&#x130;" horiz-adv-x="263" 
d="M86 899h92v-99h-92v99zM85 712h93v-712h-93v712z" />
    <glyph glyph-name="dotlessi" unicode="&#x131;" horiz-adv-x="252" 
d="M80 516h92v-516h-92v516z" />
    <glyph glyph-name="IJ" unicode="&#x132;" horiz-adv-x="805" 
d="M85 712h93v-712h-93v712zM404 12q-47 24 -71.5 69.5t-24.5 108.5v53h93v-48q0 -124 117 -124q109 0 109 124v517h93v-520q0 -100 -52 -152t-151 -52q-66 0 -113 24z" />
    <glyph glyph-name="ij" unicode="&#x133;" horiz-adv-x="504" 
d="M80 712h92v-99h-92v99zM80 516h92v-516h-92v516zM332 712h92v-99h-92v99zM244 -127h23q25 0 39 6t20 20t6 39v578h92v-565q0 -81 -37 -118t-118 -37h-25v77z" />
    <glyph glyph-name="Jcircumflex" unicode="&#x134;" horiz-adv-x="547" 
d="M146 12q-47 24 -71.5 69.5t-24.5 108.5v53h93v-48q0 -124 117 -124q109 0 109 124v517h93v-520q0 -100 -52 -152t-151 -52q-66 0 -113 24zM368 932h96l118 -155h-96l-70 100l-70 -100h-96z" />
    <glyph glyph-name="jcircumflex" unicode="&#x135;" horiz-adv-x="252" 
d="M-8 -127h23q25 0 39 6t20 20t6 39v578h92v-565q0 -81 -37 -118t-118 -37h-25v77zM80 736h96l118 -155h-96l-70 100l-70 -100h-96z" />
    <glyph glyph-name="Kcommaaccent" unicode="&#x136;" horiz-adv-x="714" 
d="M298 366l-120 -117v-249h-93v712h93v-349l362 349h124l-301 -287l321 -425h-116zM408 -66v-96q0 -83 -77 -83h-34v39h34q38 0 38 36v32l-72 -5v77h111z" />
    <glyph glyph-name="kcommaaccent" unicode="&#x137;" horiz-adv-x="563" 
d="M247 269l-75 -68v-201h-92v712h92v-416l228 220h116l-206 -190l221 -326h-108zM329 -66v-96q0 -83 -77 -83h-34v39h34q38 0 38 36v32l-72 -5v77h111z" />
    <glyph glyph-name="kgreenlandic" unicode="&#x138;" horiz-adv-x="563" 
d="M246 251l-74 -70v-181h-92v516h92v-236l228 236h116l-207 -207l222 -309h-108z" />
    <glyph glyph-name="Lacute" unicode="&#x139;" horiz-adv-x="594" 
d="M549 81v-81h-464v712h93v-631h371zM179 932h126l-133 -155h-81z" />
    <glyph glyph-name="lacute" unicode="&#x13a;" horiz-adv-x="252" 
d="M80 712h92v-712h-92v712zM150 932h126l-133 -155h-81z" />
    <glyph glyph-name="Lcommaaccent" unicode="&#x13b;" horiz-adv-x="594" 
d="M549 81v-81h-464v712h93v-631h371zM379 -66v-96q0 -83 -77 -83h-34v39h34q38 0 38 36v32l-72 -5v77h111z" />
    <glyph glyph-name="lcommaaccent" unicode="&#x13c;" horiz-adv-x="252" 
d="M80 712h92v-712h-92v712zM182 -66v-96q0 -83 -77 -83h-34v39h34q38 0 38 36v32l-72 -5v77h111z" />
    <glyph glyph-name="Lcaron" unicode="&#x13d;" horiz-adv-x="594" 
d="M549 81v-81h-464v712h93v-631h371zM364 712h110l-89 -198h-69z" />
    <glyph glyph-name="lcaron" unicode="&#x13e;" horiz-adv-x="415" 
d="M80 712h92v-712h-92v712zM305 712h110l-89 -198h-69z" />
    <glyph glyph-name="Ldot" unicode="&#x13f;" horiz-adv-x="594" 
d="M549 81v-81h-464v712h93v-631h371zM312 420h103v-101h-103v101z" />
    <glyph glyph-name="ldot" unicode="&#x140;" horiz-adv-x="371" 
d="M80 712h92v-712h-92v712zM243 405h103v-101h-103v101z" />
    <glyph glyph-name="Lslash" unicode="&#x141;" horiz-adv-x="704" 
d="M659 81v-81h-464v273l-145 -76v85l145 69v361h93v-315l259 135v-85l-259 -127v-239h371z" />
    <glyph glyph-name="lslash" unicode="&#x142;" horiz-adv-x="380" 
d="M330 406l-94 -44v-362h-92v312l-94 -54v91l94 44v319h92v-269l94 54v-91z" />
    <glyph glyph-name="Nacute" unicode="&#x143;" horiz-adv-x="736" 
d="M651 712v-712h-106l-372 578v-578h-88v712h103l375 -581v581h88zM392 932h126l-133 -155h-81z" />
    <glyph glyph-name="nacute" unicode="&#x144;" horiz-adv-x="594" 
d="M432.5 509q39.5 -20 60.5 -58.5t21 -92.5v-358h-92v340q0 109 -103 109q-39 0 -72 -15.5t-54 -52t-21 -94.5v-287h-92v516h86v-73q26 41 71 63.5t102 22.5q54 0 93.5 -20zM327 736h126l-133 -155h-81z" />
    <glyph glyph-name="Ncommaaccent" unicode="&#x145;" horiz-adv-x="736" 
d="M651 712v-712h-106l-372 578v-578h-88v712h103l375 -581v581h88zM430 -66v-96q0 -83 -77 -83h-34v39h34q38 0 38 36v32l-72 -5v77h111z" />
    <glyph glyph-name="ncommaaccent" unicode="&#x146;" horiz-adv-x="594" 
d="M432.5 509q39.5 -20 60.5 -58.5t21 -92.5v-358h-92v340q0 109 -103 109q-39 0 -72 -15.5t-54 -52t-21 -94.5v-287h-92v516h86v-73q26 41 71 63.5t102 22.5q54 0 93.5 -20zM345 -66v-96q0 -83 -77 -83h-34v39h34q38 0 38 36v32l-72 -5v77h111z" />
    <glyph glyph-name="Ncaron" unicode="&#x147;" horiz-adv-x="736" 
d="M651 712v-712h-106l-372 578v-578h-88v712h103l375 -581v581h88zM202 945h96l70 -100l70 100h96l-118 -155h-96z" />
    <glyph glyph-name="ncaron" unicode="&#x148;" horiz-adv-x="594" 
d="M432.5 509q39.5 -20 60.5 -58.5t21 -92.5v-358h-92v340q0 109 -103 109q-39 0 -72 -15.5t-54 -52t-21 -94.5v-287h-92v516h86v-73q26 41 71 63.5t102 22.5q54 0 93.5 -20zM137 736h96l70 -100l70 100h96l-118 -155h-96z" />
    <glyph glyph-name="napostrophe" unicode="&#x149;" horiz-adv-x="789" 
d="M627.5 509q39.5 -20 60.5 -58.5t21 -92.5v-358h-92v340q0 109 -103 109q-39 0 -72 -15.5t-54 -52t-21 -94.5v-287h-92v516h86v-73q26 41 71 63.5t102 22.5q54 0 93.5 -20zM41 519h10q47 0 47 47v51l-58 -5v100h110v-135q0 -108 -99 -108h-10v50z" />
    <glyph glyph-name="Eng" unicode="&#x14a;" horiz-adv-x="736" 
d="M651 712v-761q0 -55 -15.5 -89t-48.5 -50t-87 -16h-35v77h33q25 0 39 6t20 20t6 39v63l-390 581v-582h-88v712h103l375 -560v560h88z" />
    <glyph glyph-name="eng" unicode="&#x14b;" horiz-adv-x="594" 
d="M432.5 509q39.5 -20 60.5 -58.5t21 -92.5v-407q0 -81 -37 -118t-118 -37h-25v77h23q25 0 39 6t20 20t6 39v402q0 109 -103 109q-39 0 -72 -15.5t-54 -52t-21 -94.5v-287h-92v516h86v-73q26 41 71 63.5t102 22.5q54 0 93.5 -20z" />
    <glyph glyph-name="Omacron" unicode="&#x14c;" horiz-adv-x="801" 
d="M225.5 30.5q-76.5 47.5 -119 132.5t-42.5 193q0 107 42.5 191t119 131t174.5 47q99 0 175.5 -47t119 -131t42.5 -191q0 -109 -42.5 -193.5t-119 -132t-175.5 -47.5q-98 0 -174.5 47.5zM526.5 101.5q54.5 35.5 85 101t30.5 153.5q0 86 -30.5 151t-85.5 100t-125 35
q-71 0 -126 -35t-85.5 -100t-30.5 -151q0 -87 30.5 -153t85.5 -101.5t126 -35.5t125.5 35.5zM240 879h320v-71h-320v71z" />
    <glyph glyph-name="omacron" unicode="&#x14d;" horiz-adv-x="597" 
d="M168.5 21q-56.5 34 -87.5 95.5t-31 141.5q0 82 31.5 143.5t88.5 94.5t131 33q72 0 127.5 -32.5t87 -93t31.5 -141.5q0 -80 -32 -142.5t-88.5 -97.5t-128.5 -35q-73 0 -129.5 34zM382.5 89q35.5 25 54 69.5t18.5 103.5q0 58 -18.5 101t-54 66t-84.5 23q-48 0 -83.5 -24
t-54 -68t-18.5 -102t19 -102t54 -68t83 -24q49 0 84.5 25zM141 683h320v-71h-320v71z" />
    <glyph glyph-name="Obreve" unicode="&#x14e;" horiz-adv-x="801" 
d="M225.5 30.5q-76.5 47.5 -119 132.5t-42.5 193q0 107 42.5 191t119 131t174.5 47q99 0 175.5 -47t119 -131t42.5 -191q0 -109 -42.5 -193.5t-119 -132t-175.5 -47.5q-98 0 -174.5 47.5zM526.5 101.5q54.5 35.5 85 101t30.5 153.5q0 86 -30.5 151t-85.5 100t-125 35
q-71 0 -126 -35t-85.5 -100t-30.5 -151q0 -87 30.5 -153t85.5 -101.5t126 -35.5t125.5 35.5zM240 916h61q1 -38 27 -57.5t72 -19.5t72 19.5t27 57.5h61q-3 -65 -42 -101t-119 -36q-152 0 -159 137z" />
    <glyph glyph-name="obreve" unicode="&#x14f;" horiz-adv-x="597" 
d="M168.5 21q-56.5 34 -87.5 95.5t-31 141.5q0 82 31.5 143.5t88.5 94.5t131 33q72 0 127.5 -32.5t87 -93t31.5 -141.5q0 -80 -32 -142.5t-88.5 -97.5t-128.5 -35q-73 0 -129.5 34zM382.5 89q35.5 25 54 69.5t18.5 103.5q0 58 -18.5 101t-54 66t-84.5 23q-48 0 -83.5 -24
t-54 -68t-18.5 -102t19 -102t54 -68t83 -24q49 0 84.5 25zM141 720h61q1 -38 27 -57.5t72 -19.5t72 19.5t27 57.5h61q-3 -65 -42 -101t-119 -36q-152 0 -159 137z" />
    <glyph glyph-name="Ohungarumlaut" unicode="&#x150;" horiz-adv-x="801" 
d="M225.5 30.5q-76.5 47.5 -119 132.5t-42.5 193q0 107 42.5 191t119 131t174.5 47q99 0 175.5 -47t119 -131t42.5 -191q0 -109 -42.5 -193.5t-119 -132t-175.5 -47.5q-98 0 -174.5 47.5zM526.5 101.5q54.5 35.5 85 101t30.5 153.5q0 86 -30.5 151t-85.5 100t-125 35
q-71 0 -126 -35t-85.5 -100t-30.5 -151q0 -87 30.5 -153t85.5 -101.5t126 -35.5t125.5 35.5zM337 938h108l-120 -161h-79zM524 938h108l-120 -161h-79z" />
    <glyph glyph-name="ohungarumlaut" unicode="&#x151;" horiz-adv-x="597" 
d="M168.5 21q-56.5 34 -87.5 95.5t-31 141.5q0 82 31.5 143.5t88.5 94.5t131 33q72 0 127.5 -32.5t87 -93t31.5 -141.5q0 -80 -32 -142.5t-88.5 -97.5t-128.5 -35q-73 0 -129.5 34zM382.5 89q35.5 25 54 69.5t18.5 103.5q0 58 -18.5 101t-54 66t-84.5 23q-48 0 -83.5 -24
t-54 -68t-18.5 -102t19 -102t54 -68t83 -24q49 0 84.5 25zM238 742h108l-120 -161h-79zM425 742h108l-120 -161h-79z" />
    <glyph glyph-name="OE" unicode="&#x152;" horiz-adv-x="1220" 
d="M1155 81v-81h-513v109q-39 -61 -100.5 -93.5t-141.5 -32.5q-99 0 -175.5 47.5t-118.5 132.5t-42 193q0 107 42.5 191t119 131t175.5 47q80 0 141 -30.5t100 -89.5v107h504v-81h-411v-224h379v-81h-379v-245h420zM526.5 99.5q54.5 33.5 85 99t30.5 157.5q0 90 -31 154.5
t-85.5 98t-124.5 33.5q-72 0 -127 -35t-85 -100t-30 -151q0 -87 30 -153t85.5 -101.5t127.5 -35.5q70 0 124.5 33.5z" />
    <glyph glyph-name="oe" unicode="&#x153;" horiz-adv-x="984" 
d="M934 236h-387q2 -85 43.5 -129t112.5 -44q55 0 90 26.5t53 76.5l84 -10q-24 -80 -84.5 -124t-145.5 -44q-67 0 -118.5 27t-82.5 77q-33 -50 -85 -77.5t-116 -27.5q-73 0 -129.5 34t-87.5 95.5t-31 141.5q0 82 31.5 143.5t88.5 94.5t131 33q64 0 115.5 -26t83.5 -74
q31 47 81.5 73t116.5 26q72 0 125.5 -31t82 -89t28.5 -138v-34zM595.5 414.5q-40.5 -38.5 -47.5 -112.5h300q-9 73 -47.5 112t-101.5 39t-103.5 -38.5zM382.5 89q35.5 25 54 69.5t18.5 103.5q0 58 -18.5 101t-54 66t-84.5 23q-48 0 -83.5 -24t-54 -68t-18.5 -102t19 -102
t54 -68t83 -24q49 0 84.5 25z" />
    <glyph glyph-name="Racute" unicode="&#x154;" horiz-adv-x="716" 
d="M641 0h-94l-21 190q-5 42 -19 67.5t-40.5 37.5t-68.5 12h-220v-307h-93v712h330q67 0 116.5 -23t75.5 -65.5t26 -99.5q0 -68 -34.5 -115t-92.5 -63q47 -9 75.5 -39.5t33.5 -79.5zM497 421.5q41 33.5 41 93.5q0 56 -36 86t-103 30h-221v-243h205q73 0 114 33.5zM377 932
h126l-133 -155h-81z" />
    <glyph glyph-name="racute" unicode="&#x155;" horiz-adv-x="368" 
d="M353 529v-90q-11 1 -33 1q-35 0 -68.5 -18t-55.5 -54t-24 -86v-282h-92v516h86v-104q26 56 67.5 87t100.5 31q13 0 19 -1zM246 736h126l-133 -155h-81z" />
    <glyph glyph-name="Rcommaaccent" unicode="&#x156;" horiz-adv-x="716" 
d="M641 0h-94l-21 190q-5 42 -19 67.5t-40.5 37.5t-68.5 12h-220v-307h-93v712h330q67 0 116.5 -23t75.5 -65.5t26 -99.5q0 -68 -34.5 -115t-92.5 -63q47 -9 75.5 -39.5t33.5 -79.5zM497 421.5q41 33.5 41 93.5q0 56 -36 86t-103 30h-221v-243h205q73 0 114 33.5zM419 -66
v-96q0 -83 -77 -83h-34v39h34q38 0 38 36v32l-72 -5v77h111z" />
    <glyph glyph-name="rcommaaccent" unicode="&#x157;" horiz-adv-x="368" 
d="M353 529v-90q-11 1 -33 1q-35 0 -68.5 -18t-55.5 -54t-24 -86v-282h-92v516h86v-104q26 56 67.5 87t100.5 31q13 0 19 -1zM182 -66v-96q0 -83 -77 -83h-34v39h34q38 0 38 36v32l-72 -5v77h111z" />
    <glyph glyph-name="Rcaron" unicode="&#x158;" horiz-adv-x="716" 
d="M641 0h-94l-21 190q-5 42 -19 67.5t-40.5 37.5t-68.5 12h-220v-307h-93v712h330q67 0 116.5 -23t75.5 -65.5t26 -99.5q0 -68 -34.5 -115t-92.5 -63q47 -9 75.5 -39.5t33.5 -79.5zM497 421.5q41 33.5 41 93.5q0 56 -36 86t-103 30h-221v-243h205q73 0 114 33.5zM187 945
h96l70 -100l70 100h96l-118 -155h-96z" />
    <glyph glyph-name="rcaron" unicode="&#x159;" horiz-adv-x="368" 
d="M353 529v-90q-11 1 -33 1q-35 0 -68.5 -18t-55.5 -54t-24 -86v-282h-92v516h86v-104q26 56 67.5 87t100.5 31q13 0 19 -1zM56 736h96l70 -100l70 100h96l-118 -155h-96z" />
    <glyph glyph-name="Sacute" unicode="&#x15a;" horiz-adv-x="668" 
d="M134 46.5q-74 61.5 -83 184.5h89q7 -88 59 -129t146 -41q90 0 136 34.5t46 96.5q0 34 -15 58t-47.5 40.5t-88.5 28.5l-100 21q-96 20 -148 63t-52 123q0 60 29.5 106t86.5 71t137 25q79 0 136.5 -25t91 -73t38.5 -117h-89q-6 68 -52 103.5t-128 35.5q-77 0 -119.5 -31
t-42.5 -87q0 -43 29 -68.5t95 -39.5l125 -27q101 -21 152.5 -70.5t51.5 -131.5q0 -60 -28.5 -107.5t-90.5 -76t-156 -28.5q-134 0 -208 61.5zM353 932h126l-133 -155h-81z" />
    <glyph glyph-name="sacute" unicode="&#x15b;" horiz-adv-x="505" 
d="M40 163h88q7 -53 39 -77.5t92 -24.5q61 0 92 21.5t31 59.5q0 30 -20 48.5t-61 26.5l-104 22q-74 16 -108.5 50.5t-34.5 89.5q0 45 21.5 78.5t65 52t105.5 18.5q90 0 145 -40.5t65 -121.5h-91q-8 45 -37.5 67t-84.5 22q-50 0 -77 -17t-27 -51q0 -26 18 -43t62 -26l100 -22
q79 -18 115 -53.5t36 -92.5q0 -50 -25.5 -87t-74 -56.5t-115.5 -19.5q-197 0 -215 176zM270 736h126l-133 -155h-81z" />
    <glyph glyph-name="Scircumflex" unicode="&#x15c;" horiz-adv-x="668" 
d="M134 46.5q-74 61.5 -83 184.5h89q7 -88 59 -129t146 -41q90 0 136 34.5t46 96.5q0 34 -15 58t-47.5 40.5t-88.5 28.5l-100 21q-96 20 -148 63t-52 123q0 60 29.5 106t86.5 71t137 25q79 0 136.5 -25t91 -73t38.5 -117h-89q-6 68 -52 103.5t-128 35.5q-77 0 -119.5 -31
t-42.5 -87q0 -43 29 -68.5t95 -39.5l125 -27q101 -21 152.5 -70.5t51.5 -131.5q0 -60 -28.5 -107.5t-90.5 -76t-156 -28.5q-134 0 -208 61.5zM281 932h96l118 -155h-96l-70 100l-70 -100h-96z" />
    <glyph glyph-name="scircumflex" unicode="&#x15d;" horiz-adv-x="505" 
d="M40 163h88q7 -53 39 -77.5t92 -24.5q61 0 92 21.5t31 59.5q0 30 -20 48.5t-61 26.5l-104 22q-74 16 -108.5 50.5t-34.5 89.5q0 45 21.5 78.5t65 52t105.5 18.5q90 0 145 -40.5t65 -121.5h-91q-8 45 -37.5 67t-84.5 22q-50 0 -77 -17t-27 -51q0 -26 18 -43t62 -26l100 -22
q79 -18 115 -53.5t36 -92.5q0 -50 -25.5 -87t-74 -56.5t-115.5 -19.5q-197 0 -215 176zM198 736h96l118 -155h-96l-70 100l-70 -100h-96z" />
    <glyph glyph-name="Scedilla" unicode="&#x15e;" horiz-adv-x="668" 
d="M591 94q-26 -46 -82 -75t-142 -33l-35 -55h21q47 0 73 -22.5t26 -64.5q0 -45 -36 -71t-100 -26h-32v54h25q39 0 55.5 10.5t16.5 29.5q0 16 -10 23.5t-32 7.5h-42l-27 47l42 67q-120 6 -186.5 67.5t-74.5 177.5h89q7 -88 59 -129t146 -41q90 0 136 34.5t46 96.5
q0 34 -15 58t-47.5 40.5t-88.5 28.5l-100 21q-96 20 -148 63t-52 123q0 60 29.5 106t86.5 71t137 25q79 0 136.5 -25t91 -73t38.5 -117h-89q-6 68 -52 103.5t-128 35.5q-77 0 -119.5 -31t-42.5 -87q0 -43 29 -68.5t95 -39.5l125 -27q101 -21 152.5 -70.5t51.5 -131.5
q0 -57 -26 -103z" />
    <glyph glyph-name="scedilla" unicode="&#x15f;" horiz-adv-x="505" 
d="M420.5 36.5q-49.5 -42.5 -138.5 -48.5l-36 -56h21q47 0 73 -22.5t26 -64.5q0 -45 -36 -71t-100 -26h-32v54h25q39 0 55.5 10.5t16.5 29.5q0 16 -10 23.5t-32 7.5h-42l-27 47l43 68q-84 6 -131.5 50t-55.5 125h88q7 -53 39 -77.5t92 -24.5q61 0 92 21.5t31 59.5
q0 30 -20 48.5t-61 26.5l-104 22q-74 16 -108.5 50.5t-34.5 89.5q0 45 21.5 78.5t65 52t105.5 18.5q90 0 145 -40.5t65 -121.5h-91q-8 45 -37.5 67t-84.5 22q-50 0 -77 -17t-27 -51q0 -26 18 -43t62 -26l100 -22q79 -18 115 -53.5t36 -92.5q0 -71 -49.5 -113.5z" />
    <glyph glyph-name="Scaron" unicode="&#x160;" horiz-adv-x="668" 
d="M134 46.5q-74 61.5 -83 184.5h89q7 -88 59 -129t146 -41q90 0 136 34.5t46 96.5q0 34 -15 58t-47.5 40.5t-88.5 28.5l-100 21q-96 20 -148 63t-52 123q0 60 29.5 106t86.5 71t137 25q79 0 136.5 -25t91 -73t38.5 -117h-89q-6 68 -52 103.5t-128 35.5q-77 0 -119.5 -31
t-42.5 -87q0 -43 29 -68.5t95 -39.5l125 -27q101 -21 152.5 -70.5t51.5 -131.5q0 -60 -28.5 -107.5t-90.5 -76t-156 -28.5q-134 0 -208 61.5zM163 945h96l70 -100l70 100h96l-118 -155h-96z" />
    <glyph glyph-name="scaron" unicode="&#x161;" horiz-adv-x="505" 
d="M40 163h88q7 -53 39 -77.5t92 -24.5q61 0 92 21.5t31 59.5q0 30 -20 48.5t-61 26.5l-104 22q-74 16 -108.5 50.5t-34.5 89.5q0 45 21.5 78.5t65 52t105.5 18.5q90 0 145 -40.5t65 -121.5h-91q-8 45 -37.5 67t-84.5 22q-50 0 -77 -17t-27 -51q0 -26 18 -43t62 -26l100 -22
q79 -18 115 -53.5t36 -92.5q0 -50 -25.5 -87t-74 -56.5t-115.5 -19.5q-197 0 -215 176zM80 736h96l70 -100l70 100h96l-118 -155h-96z" />
    <glyph glyph-name="uni0162" unicode="&#x162;" horiz-adv-x="639" 
d="M604 631h-238v-631h-93v631h-238v81h569v-81zM262 -192h25q39 0 55.5 10.5t16.5 29.5q0 16 -10 23.5t-32 7.5h-42l-27 47l47 74h55l-40 -62h21q47 0 73 -22.5t26 -64.5q0 -45 -36 -71t-100 -26h-32v54z" />
    <glyph glyph-name="uni0163" unicode="&#x163;" horiz-adv-x="357" 
d="M209 127q0 -28 11 -39t39 -11h67v-77h-94h-8l-34 -53h21q47 0 73 -22.5t26 -64.5q0 -45 -36 -71t-100 -26h-32v54h25q39 0 55.5 10.5t16.5 29.5q0 16 -10 23.5t-32 7.5h-42l-27 47l47 74q-30 10 -44 36.5t-14 69.5v334l-77 -4v71l77 -3v161h92v-162l118 4v-71l-118 4
v-322z" />
    <glyph glyph-name="Tcaron" unicode="&#x164;" horiz-adv-x="639" 
d="M604 631h-238v-631h-93v631h-238v81h569v-81zM154 945h96l70 -100l70 100h96l-118 -155h-96z" />
    <glyph glyph-name="tcaron" unicode="&#x165;" horiz-adv-x="357" 
d="M314 771h110l-89 -198h-69zM209 127q0 -28 11 -39t39 -11h67v-77h-94q-60 0 -87.5 27.5t-27.5 87.5v334l-77 -4v71l77 -3v161h92v-162l118 4v-71l-118 4v-322z" />
    <glyph glyph-name="Tbar" unicode="&#x166;" horiz-adv-x="639" 
d="M366 631v-231l219 4v-81l-219 4v-327h-93v327l-218 -4v81l218 -4v231h-238v81h569v-81h-238z" />
    <glyph glyph-name="tbar" unicode="&#x167;" horiz-adv-x="347" 
d="M196 449v-145l121 4v-71l-120 4l2 -44v-70q0 -28 11 -39t39 -11h67v-77h-94q-60 0 -87.5 27.5t-27.5 87.5v82l2 44l-79 -4v71l80 -3v144l-80 -4v71l79 -3l-2 30v131h92v-131l-2 -31l120 4v-71z" />
    <glyph glyph-name="Utilde" unicode="&#x168;" horiz-adv-x="720" 
d="M212 12q-62 28 -94.5 82t-32.5 131v487h93v-490q0 -74 45.5 -114.5t136.5 -40.5t136.5 40.5t45.5 114.5v490h93v-487q0 -77 -32.5 -131t-94.5 -82t-148 -28t-148 28zM199 907.5q31 37.5 83 37.5q24 0 42.5 -7t30.5 -17t27 -26q17 -17 28.5 -25t26.5 -8q23 0 33 19.5
t12 63.5h70q0 -78 -31 -115.5t-83 -37.5q-24 0 -41.5 7t-29.5 16.5t-27 25.5q-17 18 -28.5 26t-28.5 8q-23 0 -33 -19.5t-12 -63.5h-70q0 78 31 115.5z" />
    <glyph glyph-name="utilde" unicode="&#x169;" horiz-adv-x="594" 
d="M514 516v-516h-86v73q-26 -41 -71 -63.5t-102 -22.5q-54 0 -93.5 20t-60.5 58.5t-21 92.5v358h92v-340q0 -109 103 -109q39 0 72 15.5t54 52t21 94.5v287h92zM136 711.5q31 37.5 83 37.5q24 0 42.5 -7t30.5 -17t27 -26q17 -17 28.5 -25t26.5 -8q23 0 33 19.5t12 63.5h70
q0 -78 -31 -115.5t-83 -37.5q-24 0 -41.5 7t-29.5 16.5t-27 25.5q-17 18 -28.5 26t-28.5 8q-23 0 -33 -19.5t-12 -63.5h-70q0 78 31 115.5z" />
    <glyph glyph-name="Umacron" unicode="&#x16a;" horiz-adv-x="720" 
d="M212 12q-62 28 -94.5 82t-32.5 131v487h93v-490q0 -74 45.5 -114.5t136.5 -40.5t136.5 40.5t45.5 114.5v490h93v-487q0 -77 -32.5 -131t-94.5 -82t-148 -28t-148 28zM200 879h320v-71h-320v71z" />
    <glyph glyph-name="umacron" unicode="&#x16b;" horiz-adv-x="594" 
d="M514 516v-516h-86v73q-26 -41 -71 -63.5t-102 -22.5q-54 0 -93.5 20t-60.5 58.5t-21 92.5v358h92v-340q0 -109 103 -109q39 0 72 15.5t54 52t21 94.5v287h92zM137 683h320v-71h-320v71z" />
    <glyph glyph-name="Ubreve" unicode="&#x16c;" horiz-adv-x="720" 
d="M212 12q-62 28 -94.5 82t-32.5 131v487h93v-490q0 -74 45.5 -114.5t136.5 -40.5t136.5 40.5t45.5 114.5v490h93v-487q0 -77 -32.5 -131t-94.5 -82t-148 -28t-148 28zM200 916h61q1 -38 27 -57.5t72 -19.5t72 19.5t27 57.5h61q-3 -65 -42 -101t-119 -36q-152 0 -159 137z
" />
    <glyph glyph-name="ubreve" unicode="&#x16d;" horiz-adv-x="594" 
d="M514 516v-516h-86v73q-26 -41 -71 -63.5t-102 -22.5q-54 0 -93.5 20t-60.5 58.5t-21 92.5v358h92v-340q0 -109 103 -109q39 0 72 15.5t54 52t21 94.5v287h92zM137 720h61q1 -38 27 -57.5t72 -19.5t72 19.5t27 57.5h61q-3 -65 -42 -101t-119 -36q-152 0 -159 137z" />
    <glyph glyph-name="Uring" unicode="&#x16e;" horiz-adv-x="720" 
d="M212 12q-62 28 -94.5 82t-32.5 131v487h93v-490q0 -74 45.5 -114.5t136.5 -40.5t136.5 40.5t45.5 114.5v490h93v-487q0 -77 -32.5 -131t-94.5 -82t-148 -28t-148 28zM289.5 799.5q-31.5 17.5 -49.5 49t-18 70.5t18 70.5t49.5 49.5t70.5 18t70.5 -18t49.5 -49.5t18 -70.5
t-18 -70.5t-49.5 -49t-70.5 -17.5t-70.5 17.5zM413.5 864.5q20.5 20.5 20.5 54.5q0 35 -20.5 55.5t-53.5 20.5t-53.5 -20.5t-20.5 -55.5q0 -34 20.5 -54.5t53.5 -20.5t53.5 20.5z" />
    <glyph glyph-name="uring" unicode="&#x16f;" horiz-adv-x="594" 
d="M514 516v-516h-86v73q-26 -41 -71 -63.5t-102 -22.5q-54 0 -93.5 20t-60.5 58.5t-21 92.5v358h92v-340q0 -109 103 -109q39 0 72 15.5t54 52t21 94.5v287h92zM226.5 603.5q-31.5 17.5 -49.5 49t-18 70.5t18 70.5t49.5 49.5t70.5 18t70.5 -18t49.5 -49.5t18 -70.5
t-18 -70.5t-49.5 -49t-70.5 -17.5t-70.5 17.5zM350.5 668.5q20.5 20.5 20.5 54.5q0 35 -20.5 55.5t-53.5 20.5t-53.5 -20.5t-20.5 -55.5q0 -34 20.5 -54.5t53.5 -20.5t53.5 20.5z" />
    <glyph glyph-name="Uhungarumlaut" unicode="&#x170;" horiz-adv-x="720" 
d="M212 12q-62 28 -94.5 82t-32.5 131v487h93v-490q0 -74 45.5 -114.5t136.5 -40.5t136.5 40.5t45.5 114.5v490h93v-487q0 -77 -32.5 -131t-94.5 -82t-148 -28t-148 28zM297 938h108l-120 -161h-79zM484 938h108l-120 -161h-79z" />
    <glyph glyph-name="uhungarumlaut" unicode="&#x171;" horiz-adv-x="594" 
d="M514 516v-516h-86v73q-26 -41 -71 -63.5t-102 -22.5q-54 0 -93.5 20t-60.5 58.5t-21 92.5v358h92v-340q0 -109 103 -109q39 0 72 15.5t54 52t21 94.5v287h92zM234 742h108l-120 -161h-79zM421 742h108l-120 -161h-79z" />
    <glyph glyph-name="Uogonek" unicode="&#x172;" horiz-adv-x="720" 
d="M635 712v-487q0 -96 -50 -156t-144 -78l-57 -38q-22 -15 -30.5 -26.5t-8.5 -25.5q0 -19 13.5 -29.5t46.5 -10.5h32v-65h-55q-62 0 -91.5 23.5t-29.5 64.5q0 29 17 53t58 46l3 1q-80 4 -137 32.5t-87 81.5t-30 127v487h93v-490q0 -74 45.5 -114.5t136.5 -40.5t136.5 40.5
t45.5 114.5v490h93z" />
    <glyph glyph-name="uogonek" unicode="&#x173;" horiz-adv-x="594" 
d="M417.5 -70.5q-8.5 -11.5 -8.5 -25.5q0 -19 13.5 -29.5t46.5 -10.5h32v-65h-55q-62 0 -91.5 23.5t-29.5 64.5q0 29 17 53t58 46l45 24l-14 79q-25 -44 -70.5 -68t-103.5 -24q-83 0 -132 47q-24 24 -34.5 55.5t-10.5 79.5v337h92v-330q0 -55 25 -81q26 -28 78 -28
q39 0 72 15.5t54 52t21 94.5v277h92v-516l-66 -44q-22 -15 -30.5 -26.5z" />
    <glyph glyph-name="Wcircumflex" unicode="&#x174;" horiz-adv-x="955" 
d="M925 712l-198 -712h-89l-165 616l-164 -616h-89l-190 712h95l106 -425l35 -160l39 160l116 425h105l115 -425l38 -161l38 161l113 425h95zM430 932h96l118 -155h-96l-70 100l-70 -100h-96z" />
    <glyph glyph-name="wcircumflex" unicode="&#x175;" horiz-adv-x="772" 
d="M747 516l-168 -516h-92l-73 308l-26 130l-28 -130l-78 -308h-94l-163 516h100l81 -298l31 -123l27 123l74 298h100l74 -298l25 -123l30 123l85 298h95zM338 736h96l118 -155h-96l-70 100l-70 -100h-96z" />
    <glyph glyph-name="Ycircumflex" unicode="&#x176;" horiz-adv-x="684" 
d="M663 712l-270 -420v-292h-93v292l-279 420h112l183 -292l31 -53l31 53l179 292h106zM294 932h96l118 -155h-96l-70 100l-70 -100h-96z" />
    <glyph glyph-name="ycircumflex" unicode="&#x177;" horiz-adv-x="539" 
d="M514 516l-240 -617q-16 -40 -34.5 -62t-44 -31.5t-63.5 -9.5h-57v77h48q24 0 39 6t25.5 20.5t21.5 42.5l24 63l-208 511h100l134 -356l11 -62l149 418h95zM222 736h96l118 -155h-96l-70 100l-70 -100h-96z" />
    <glyph glyph-name="Ydieresis" unicode="&#x178;" horiz-adv-x="684" 
d="M663 712l-270 -420v-292h-93v292l-279 420h112l183 -292l31 -53l31 53l179 292h106zM189 899h92v-99h-92v99zM403 899h92v-99h-92v99z" />
    <glyph glyph-name="Zacute" unicode="&#x179;" horiz-adv-x="675" 
d="M615 83v-83h-556v90l422 539h-395v83h514v-74l-433 -555h448zM362 932h126l-133 -155h-81z" />
    <glyph glyph-name="zacute" unicode="&#x17a;" horiz-adv-x="531" 
d="M481 74v-74h-431v65l299 377h-286v74h401v-56l-306 -386h323zM290 736h126l-133 -155h-81z" />
    <glyph glyph-name="Zdotaccent" unicode="&#x17b;" horiz-adv-x="675" 
d="M615 83v-83h-556v90l422 539h-395v83h514v-74l-433 -555h448zM292 899h92v-99h-92v99z" />
    <glyph glyph-name="zdotaccent" unicode="&#x17c;" horiz-adv-x="531" 
d="M481 74v-74h-431v65l299 377h-286v74h401v-56l-306 -386h323zM220 712h92v-99h-92v99z" />
    <glyph glyph-name="Zcaron" unicode="&#x17d;" horiz-adv-x="675" 
d="M615 83v-83h-556v90l422 539h-395v83h514v-74l-433 -555h448zM172 945h96l70 -100l70 100h96l-118 -155h-96z" />
    <glyph glyph-name="zcaron" unicode="&#x17e;" horiz-adv-x="531" 
d="M481 74v-74h-431v65l299 377h-286v74h401v-56l-306 -386h323zM100 736h96l70 -100l70 100h96l-118 -155h-96z" />
    <glyph glyph-name="Schwa" unicode="&#x18f;" horiz-adv-x="802" 
d="M572.5 680q78.5 -45 122 -128.5t43.5 -196.5q0 -110 -41.5 -194.5t-118.5 -131.5t-179 -47q-104 0 -180 47.5t-115.5 128t-39.5 177.5q0 22 1 40h577q-4 86 -35.5 146t-87 90.5t-128.5 30.5q-74 0 -124.5 -30.5t-75.5 -87.5h-99q33 96 112 148.5t188 52.5
q102 0 180.5 -45zM565 126q62 60 75 168h-479q6 -66 35 -117.5t81 -81t124 -29.5q102 0 164 60z" />
    <glyph glyph-name="florin" unicode="&#x192;" 
d="M457 630q-15 -7 -24 -23t-15 -44l-28 -147l109 4l-14 -71l-108 4l-70 -362q-14 -73 -52.5 -106.5t-110.5 -33.5h-62l15 75h42q35 0 52.5 16t25.5 57l69 353l-105 -3l14 71l104 -3l30 155q14 73 52.5 106.5t110.5 33.5h66l-15 -75h-47q-24 0 -39 -7z" />
    <glyph glyph-name="uni01F4" unicode="&#x1f4;" horiz-adv-x="807" 
d="M722 381v-381h-68l-21 96q-37 -54 -96 -83t-136 -29q-98 0 -174.5 45t-119.5 130t-43 199q0 111 41 194.5t118.5 129.5t183.5 46q81 0 145 -27t105 -77t52 -118l-90 -6q-15 73 -71 109t-136 36q-81 0 -137.5 -35t-86 -100t-29.5 -155q0 -86 29 -151t84 -101t131 -36
q91 0 149.5 51.5t77.5 142.5v39h-216v81h308zM431 932h126l-133 -155h-81z" />
    <glyph glyph-name="uni01F5" unicode="&#x1f5;" horiz-adv-x="606" 
d="M526 516v-499q0 -120 -63.5 -176.5t-178.5 -56.5q-93 0 -150.5 37.5t-67.5 113.5h90q10 -42 42 -60t89 -18q54 0 86.5 15.5t48 48.5t15.5 87v67q-25 -39 -67.5 -62.5t-94.5 -23.5q-69 0 -120 35.5t-78 98.5t-27 143q0 77 28.5 136.5t79 92t115.5 32.5q56 0 99.5 -24.5
t67.5 -66.5v80h86zM361 91.5q34 23.5 53.5 68t19.5 104.5q0 59 -19 100.5t-52 62.5t-77 21q-68 0 -106 -47t-38 -135q0 -60 17 -104.5t49 -69t76 -24.5q43 0 77 23.5zM297 736h126l-133 -155h-81z" />
    <glyph glyph-name="Aringacute" unicode="&#x1fa;" horiz-adv-x="716" 
d="M372 958h-81l87 151h126zM508 209h-302l-77 -209h-99l258 666q-33 17 -52.5 49t-19.5 73q0 39 18 70.5t49.5 49.5t70.5 18t70.5 -18t49.5 -49.5t18 -70.5t-17.5 -70t-47.5 -48l259 -670h-103zM300.5 843.5q-20.5 -20.5 -20.5 -55.5q0 -34 20.5 -54.5t53.5 -20.5
t53.5 20.5t20.5 54.5q0 35 -20.5 55.5t-53.5 20.5t-53.5 -20.5zM479 290l-97 269l-23 74l-24 -74l-99 -269h243z" />
    <glyph glyph-name="aringacute" unicode="&#x1fb;" horiz-adv-x="570" 
d="M550 68v-68h-49q-83 0 -89 76q-26 -40 -75 -64.5t-112 -24.5q-52 0 -91.5 18t-60.5 51.5t-21 80.5q0 66 42.5 107.5t133.5 53.5l132 17q19 2 28 11.5t9 27.5v22q0 41 -28 60.5t-88 19.5q-57 0 -85 -20.5t-32 -71.5h-91q7 85 61 126.5t154 41.5q98 0 150 -41t52 -124v-254
q0 -25 10 -35t35 -10h15zM318.5 75q35.5 17 57 45.5t21.5 60.5v72l-154 -23q-52 -8 -76 -30.5t-24 -58.5q0 -39 26.5 -61t72.5 -22q41 0 76.5 17zM216.5 601.5q-31.5 17.5 -49.5 49t-18 70.5t18 70.5t49.5 49.5t70.5 18t70.5 -18t49.5 -49.5t18 -70.5t-18 -70.5t-49.5 -49
t-70.5 -17.5t-70.5 17.5zM340.5 666.5q20.5 20.5 20.5 54.5q0 35 -20.5 55.5t-53.5 20.5t-53.5 -20.5t-20.5 -55.5q0 -34 20.5 -54.5t53.5 -20.5t53.5 20.5zM311 1063h126l-133 -155h-81z" />
    <glyph glyph-name="AEacute" unicode="&#x1fc;" horiz-adv-x="1137" 
d="M1072 81v-81h-513v188h-319l-113 -188h-97l429 712h604v-81h-411v-224h379v-81h-379v-245h420zM559 264v372h-50l-223 -372h273zM652 932h126l-133 -155h-81z" />
    <glyph glyph-name="aeacute" unicode="&#x1fd;" horiz-adv-x="919" 
d="M869 236h-387q2 -85 43.5 -129t112.5 -44q55 0 90 26.5t53 76.5l84 -10q-24 -80 -84.5 -124t-145.5 -44q-68 0 -118 28t-79 80q-32 -55 -83.5 -82t-118.5 -27q-55 0 -96.5 19t-64.5 54.5t-23 83.5q0 44 19.5 79.5t63.5 57t113 21.5h148v59q0 44 -28.5 69.5t-90.5 25.5
q-53 0 -81 -21t-33 -71h-90q7 84 61.5 125.5t149.5 41.5q131 0 173 -80q30 37 74 57t102 20q72 0 125.5 -31t82 -89t28.5 -138v-34zM530.5 414.5q-40.5 -38.5 -47.5 -112.5h300q-9 73 -47.5 112t-101.5 39t-103.5 -38.5zM320 76.5q35 17.5 55.5 50t20.5 73.5v35l-154 -6
q-52 -2 -76 -25t-24 -60q0 -39 28 -62t74 -23q41 0 76 17.5zM484 736h126l-133 -155h-81z" />
    <glyph glyph-name="Oslashacute" unicode="&#x1fe;" horiz-adv-x="801" 
d="M664 597q35 -48 54 -109.5t19 -131.5q0 -109 -42.5 -193.5t-119 -132t-175.5 -47.5q-60 0 -112 18t-94 52l-59 -68l-50 43l62 72q-40 49 -61.5 114.5t-21.5 141.5q0 107 42.5 191t119 131t174.5 47q64 0 120 -20.5t99 -58.5l68 79l50 -43zM171.5 254q12.5 -47 36.5 -84
l353 409q-32 31 -72.5 47t-87.5 16q-71 0 -126 -35t-85.5 -100t-30.5 -151q0 -55 12.5 -102zM602 525l-351 -405q30 -26 68.5 -40t81.5 -14q71 0 125.5 35.5t85 101t30.5 153.5q0 100 -40 169zM424 932h126l-133 -155h-81z" />
    <glyph glyph-name="oslashacute" unicode="&#x1ff;" horiz-adv-x="597" 
d="M533.5 359.5q13.5 -44.5 13.5 -97.5q0 -80 -32 -142.5t-88.5 -97.5t-128.5 -35q-87 0 -152 49l-43 -49l-50 39l49 56q-25 35 -38.5 79.5t-13.5 96.5q0 82 31.5 143.5t88.5 94.5t131 33q87 0 149 -47l40 47l50 -39l-46 -53q26 -33 39.5 -77.5zM163 152l232 268
q-38 32 -97 32q-48 0 -83.5 -24t-54 -68t-18.5 -102q0 -62 21 -106zM382.5 89q35.5 25 54 69.5t18.5 103.5q0 62 -21 106l-234 -269q41 -35 98 -35q49 0 84.5 25zM325 749h126l-133 -155h-81z" />
    <glyph glyph-name="Scommaaccent" unicode="&#x218;" horiz-adv-x="668" 
d="M134 46.5q-74 61.5 -83 184.5h89q7 -88 59 -129t146 -41q90 0 136 34.5t46 96.5q0 34 -15 58t-47.5 40.5t-88.5 28.5l-100 21q-96 20 -148 63t-52 123q0 60 29.5 106t86.5 71t137 25q79 0 136.5 -25t91 -73t38.5 -117h-89q-6 68 -52 103.5t-128 35.5q-77 0 -119.5 -31
t-42.5 -87q0 -43 29 -68.5t95 -39.5l125 -27q101 -21 152.5 -70.5t51.5 -131.5q0 -60 -28.5 -107.5t-90.5 -76t-156 -28.5q-134 0 -208 61.5zM398 -73v-96q0 -83 -77 -83h-34v39h34q38 0 38 36v32l-72 -5v77h111z" />
    <glyph glyph-name="scommaaccent" unicode="&#x219;" horiz-adv-x="505" 
d="M40 163h88q7 -53 39 -77.5t92 -24.5q61 0 92 21.5t31 59.5q0 30 -20 48.5t-61 26.5l-104 22q-74 16 -108.5 50.5t-34.5 89.5q0 45 21.5 78.5t65 52t105.5 18.5q90 0 145 -40.5t65 -121.5h-91q-8 45 -37.5 67t-84.5 22q-50 0 -77 -17t-27 -51q0 -26 18 -43t62 -26l100 -22
q79 -18 115 -53.5t36 -92.5q0 -50 -25.5 -87t-74 -56.5t-115.5 -19.5q-197 0 -215 176zM312 -72v-96q0 -83 -77 -83h-34v39h34q38 0 38 36v32l-72 -5v77h111z" />
    <glyph glyph-name="uni021A" unicode="&#x21a;" horiz-adv-x="639" 
d="M604 631h-238v-631h-93v631h-238v81h569v-81zM376 -66v-96q0 -83 -77 -83h-34v39h34q38 0 38 36v32l-72 -5v77h111z" />
    <glyph glyph-name="uni021B" unicode="&#x21b;" horiz-adv-x="357" 
d="M209 127q0 -28 11 -39t39 -11h67v-77h-94q-60 0 -87.5 27.5t-27.5 87.5v334l-77 -4v71l77 -3v161h92v-162l118 4v-71l-118 4v-322zM220 -57v-96q0 -83 -77 -83h-34v39h34q38 0 38 36v32l-72 -5v77h111z" />
    <glyph glyph-name="dotlessj" unicode="&#x237;" horiz-adv-x="252" 
d="M-8 -127h23q25 0 39 6t20 20t6 39v578h92v-565q0 -81 -37 -118t-118 -37h-25v77z" />
    <glyph glyph-name="schwa" unicode="&#x259;" horiz-adv-x="579" 
d="M415 493.5q55 -34.5 84.5 -96t29.5 -141.5q0 -79 -29 -139.5t-83.5 -94.5t-130.5 -34q-72 0 -125.5 31t-82 89t-28.5 138v34h387q-2 85 -43.5 129t-112.5 44q-55 0 -90 -26.5t-53 -76.5l-84 10q24 80 84.5 124t145.5 44q76 0 131 -34.5zM388.5 101.5
q40.5 38.5 47.5 112.5h-300q9 -73 47.5 -112t101.5 -39t103.5 38.5z" />
    <glyph glyph-name="h.sups" unicode="&#x2b0;" horiz-adv-x="488" 
d="M374 685.5q34 -34.5 34 -97.5v-216h-76v200q0 38 -20.5 58.5t-58.5 20.5q-45 0 -71.5 -27t-26.5 -72v-180h-75v470h75v-189q38 67 123 67q62 0 96 -34.5z" />
    <glyph glyph-name="r.sups" unicode="&#x2b3;" horiz-adv-x="308" 
d="M293 717v-71h-27q-53 0 -82 -28t-29 -86v-160h-75v340h70l3 -64q14 33 43 51t70 18h27z" />
    <glyph glyph-name="circumflex" unicode="&#x2c6;" horiz-adv-x="500" 
d="M202 736h96l118 -155h-96l-70 100l-70 -100h-96z" />
    <glyph glyph-name="caron" unicode="&#x2c7;" horiz-adv-x="500" 
d="M84 736h96l70 -100l70 100h96l-118 -155h-96z" />
    <glyph glyph-name="uni02C9" unicode="&#x2c9;" horiz-adv-x="500" 
d="M90 683h320v-71h-320v71z" />
    <glyph glyph-name="breve" unicode="&#x2d8;" horiz-adv-x="500" 
d="M90 752h61q1 -38 27 -57.5t72 -19.5t72 19.5t27 57.5h61q-3 -65 -42 -101t-119 -36q-152 0 -159 137z" />
    <glyph glyph-name="dotaccent" unicode="&#x2d9;" horiz-adv-x="500" 
d="M204 712h92v-99h-92v99z" />
    <glyph glyph-name="ring" unicode="&#x2da;" horiz-adv-x="500" 
d="M179.5 603.5q-31.5 17.5 -49.5 49t-18 70.5t18 70.5t49.5 49.5t70.5 18t70.5 -18t49.5 -49.5t18 -70.5t-18 -70.5t-49.5 -49t-70.5 -17.5t-70.5 17.5zM303.5 668.5q20.5 20.5 20.5 54.5q0 35 -20.5 55.5t-53.5 20.5t-53.5 -20.5t-20.5 -55.5q0 -34 20.5 -54.5t53.5 -20.5
t53.5 20.5z" />
    <glyph glyph-name="ogonek" unicode="&#x2db;" horiz-adv-x="500" 
d="M185.5 -177.5q-29.5 23.5 -29.5 64.5q0 29 17 53t58 46l53 29l61 -15l-66 -44q-22 -15 -30.5 -26.5t-8.5 -25.5q0 -19 13.5 -29.5t46.5 -10.5h32v-65h-55q-62 0 -91.5 23.5z" />
    <glyph glyph-name="tilde" unicode="&#x2dc;" horiz-adv-x="500" 
d="M89 751.5q31 37.5 83 37.5q24 0 42.5 -7t30.5 -17t27 -26q17 -17 28.5 -25t26.5 -8q23 0 33 19.5t12 63.5h70q0 -78 -31 -115.5t-83 -37.5q-24 0 -41.5 7t-29.5 16.5t-27 25.5q-17 18 -28.5 26t-28.5 8q-23 0 -33 -19.5t-12 -63.5h-70q0 78 31 115.5z" />
    <glyph glyph-name="hungarumlaut" unicode="&#x2dd;" horiz-adv-x="500" 
d="M148 742h108l-120 -161h-79zM335 742h108l-120 -161h-79z" />
    <glyph glyph-name="s.sups" unicode="&#x2e2;" horiz-adv-x="432" 
d="M102.5 388q-42.5 28 -52.5 78l70 7q5 -27 29.5 -41t73.5 -14q44 0 67 11.5t23 34.5q0 17 -14 26.5t-49 13.5l-71 8q-60 7 -89 32.5t-29 68.5q0 51 41 79t110 28q66 0 107 -26t51 -74l-68 -7q-13 49 -93 49q-39 0 -59 -12t-20 -33q0 -16 13 -25.5t41 -13.5l90 -12
q54 -7 81 -29.5t27 -64.5q0 -54 -43.5 -83t-119.5 -29q-74 0 -116.5 28z" />
    <glyph glyph-name="gravecomb" unicode="&#x300;" horiz-adv-x="0" 
d="M-158 736h126l88 -155h-81z" />
    <glyph glyph-name="acutecomb" unicode="&#x301;" horiz-adv-x="0" 
d="M24 736h126l-133 -155h-81z" />
    <glyph glyph-name="circumflexcomb" unicode="&#x302;" horiz-adv-x="0" 
d="M-48 736h96l118 -155h-96l-70 100l-70 -100h-96z" />
    <glyph glyph-name="tildecomb" unicode="&#x303;" horiz-adv-x="0" 
d="M-161 751.5q31 37.5 83 37.5q24 0 42.5 -7t30.5 -17t27 -26q17 -17 28.5 -25t26.5 -8q23 0 33 19.5t12 63.5h70q0 -78 -31 -115.5t-83 -37.5q-24 0 -41.5 7t-29.5 16.5t-27 25.5q-17 18 -28.5 26t-28.5 8q-23 0 -33 -19.5t-12 -63.5h-70q0 78 31 115.5z" />
    <glyph glyph-name="macroncomb" unicode="&#x304;" horiz-adv-x="0" 
d="M-160 683h320v-71h-320v71z" />
    <glyph glyph-name="brevecomb" unicode="&#x306;" horiz-adv-x="0" 
d="M-160 752h61q1 -38 27 -57.5t72 -19.5t72 19.5t27 57.5h61q-3 -65 -42 -101t-119 -36q-152 0 -159 137z" />
    <glyph glyph-name="dotaccentcomb" unicode="&#x307;" horiz-adv-x="0" 
d="M-46 712h92v-99h-92v99z" />
    <glyph glyph-name="dieresiscomb" unicode="&#x308;" horiz-adv-x="0" 
d="M-153 712h92v-99h-92v99zM61 712h92v-99h-92v99z" />
    <glyph glyph-name="ringcomb" unicode="&#x30a;" horiz-adv-x="0" 
d="M-70.5 603.5q-31.5 17.5 -49.5 49t-18 70.5t18 70.5t49.5 49.5t70.5 18t70.5 -18t49.5 -49.5t18 -70.5t-18 -70.5t-49.5 -49t-70.5 -17.5t-70.5 17.5zM53.5 668.5q20.5 20.5 20.5 54.5q0 35 -20.5 55.5t-53.5 20.5t-53.5 -20.5t-20.5 -55.5q0 -34 20.5 -54.5t53.5 -20.5
t53.5 20.5z" />
    <glyph glyph-name="hungarumlautcomb" unicode="&#x30b;" horiz-adv-x="0" 
d="M-63 742h108l-120 -161h-79zM124 742h108l-120 -161h-79z" />
    <glyph glyph-name="caroncomb" unicode="&#x30c;" horiz-adv-x="0" 
d="M-166 736h96l70 -100l70 100h96l-118 -155h-96z" />
    <glyph glyph-name="commaturnedabovecomb" unicode="&#x312;" horiz-adv-x="0" 
d="M-16 717v-32l71 5v-77h-110v96q0 83 76 83h34v-39h-34q-37 0 -37 -36z" />
    <glyph glyph-name="uni0313" unicode="&#x313;" horiz-adv-x="0" 
d="M55 792v-96q0 -83 -76 -83h-34v39h34q37 0 37 36v32l-71 -5v77h110z" />
    <glyph glyph-name="dotbelowcomb" unicode="&#x323;" horiz-adv-x="0" 
d="M-46 -97h92v-99h-92v99z" />
    <glyph glyph-name="uni0324" unicode="&#x324;" horiz-adv-x="0" 
d="M-153 -88h92v-99h-92v99zM61 -88h92v-99h-92v99z" />
    <glyph glyph-name="uni0325" unicode="&#x325;" horiz-adv-x="0" 
d="M-70.5 -327q-31.5 18 -49.5 49.5t-18 70.5t18 70.5t49.5 49t70.5 17.5t70.5 -17.5t49.5 -49t18 -70.5t-18 -70.5t-49.5 -49.5t-70.5 -18t-70.5 18zM53.5 -262.5q20.5 20.5 20.5 55.5q0 34 -20.5 54.5t-53.5 20.5t-53.5 -20.5t-20.5 -54.5q0 -35 20.5 -55.5t53.5 -20.5
t53.5 20.5z" />
    <glyph glyph-name="commaaccent" unicode="&#x326;" horiz-adv-x="0" 
d="M55 -66v-96q0 -83 -77 -83h-34v39h34q38 0 38 36v32l-72 -5v77h111z" />
    <glyph glyph-name="cedillacomb" unicode="&#x327;" horiz-adv-x="0" 
d="M-58 -192h25q39 0 55.5 10.5t16.5 29.5q0 16 -10 23.5t-32 7.5h-42l-27 47l47 74h55l-40 -62h21q47 0 73 -22.5t26 -64.5q0 -45 -36 -71t-100 -26h-32v54z" />
    <glyph glyph-name="ogonekcomb" unicode="&#x328;" horiz-adv-x="0" 
d="M-159.5 -177.5q-29.5 23.5 -29.5 64.5q0 29 17 53t58 46l53 29l61 -15l-66 -44q-22 -15 -30.5 -26.5t-8.5 -25.5q0 -19 13.5 -29.5t46.5 -10.5h32v-65h-55q-62 0 -91.5 23.5z" />
    <glyph glyph-name="uni032E" unicode="&#x32e;" horiz-adv-x="0" 
d="M-160 -67h61q1 -38 27 -57.5t72 -19.5t72 19.5t27 57.5h61q-3 -65 -42 -101t-119 -36q-152 0 -159 137z" />
    <glyph glyph-name="uni0331" unicode="&#x331;" horiz-adv-x="0" 
d="M-160 -96h320v-71h-320v71z" />
    <glyph glyph-name="uni0335" unicode="&#x335;" horiz-adv-x="0" 
d="M-144 408l144 -5l143 5v-71l-143 6l-144 -6v71z" />
    <glyph glyph-name="uni0337" unicode="&#x337;" horiz-adv-x="0" 
d="M-254 28l458 531l50 -43l-458 -531z" />
    <glyph glyph-name="uni0338" unicode="&#x338;" horiz-adv-x="0" 
d="M-326 28l602 697l50 -43l-602 -697z" />
    <glyph glyph-name="uni0394" unicode="&#x394;" horiz-adv-x="716" 
d="M686 0h-656l276 712h105zM554 81l-171 479l-23 71l-24 -71l-177 -479h395z" />
    <glyph glyph-name="uni03A9" unicode="&#x3a9;" horiz-adv-x="820" 
d="M64 80h170v2q-79 51 -120.5 130t-41.5 172q0 105 43 182.5t119.5 118t176.5 40.5t175.5 -40.5t117 -117.5t41.5 -183q0 -93 -40.5 -172t-118.5 -130v-2h170v-80h-292v72q94 52 140 132t46 180q0 85 -29.5 143t-83.5 86.5t-126 28.5t-127 -28.5t-86 -86.5t-31 -143
q0 -99 47.5 -179.5t142.5 -132.5v-72h-293v80z" />
    <glyph glyph-name="uni03BC" unicode="&#x3bc;" horiz-adv-x="594" 
d="M80 516h92v-340q0 -53 25.5 -81t77.5 -28q39 0 72 15.5t54 52t21 94.5v287h92v-516h-88l4 76q-26 -43 -69 -66t-98 -23q-70 0 -110 40l-2 -2l21 -135v-94h-92v720z" />
    <glyph glyph-name="pi" unicode="&#x3c0;" horiz-adv-x="682" 
d="M539 431v-292q0 -35 13.5 -49t48.5 -14h23v-76h-40q-70 0 -102.5 33.5t-32.5 108.5v289h-206v-431h-90v431h-113v85h612v-85h-113z" />
    <glyph glyph-name="d.sups" unicode="&#x1d48;" horiz-adv-x="493" 
d="M413 842v-470h-63l-6 51q-20 -28 -53 -43.5t-75 -15.5q-50 0 -87.5 21.5t-58 62t-20.5 96.5q0 55 21.5 95t59 61t86.5 21q39 0 70.5 -13t50.5 -36v170h75zM313.5 455q28.5 32 28.5 88t-29.5 88t-82.5 32q-51 0 -78.5 -30t-27.5 -89q0 -58 28 -89.5t81 -31.5q52 0 80.5 32
z" />
    <glyph glyph-name="t.sups" unicode="&#x1d57;" horiz-adv-x="301" 
d="M186 648v-173q0 -21 10.5 -32t35.5 -11h39v-60h-62q-49 0 -73 21t-24 73v182l-72 -1v66l72 -2v104h74v-104l85 2v-66z" />
    <glyph glyph-name="Wgrave" unicode="&#x1e80;" horiz-adv-x="955" 
d="M925 712l-198 -712h-89l-165 616l-164 -616h-89l-190 712h95l106 -425l35 -160l39 160l116 425h105l115 -425l38 -161l38 161l113 425h95zM320 932h126l88 -155h-81z" />
    <glyph glyph-name="wgrave" unicode="&#x1e81;" horiz-adv-x="772" 
d="M747 516l-168 -516h-92l-73 308l-26 130l-28 -130l-78 -308h-94l-163 516h100l81 -298l31 -123l27 123l74 298h100l74 -298l25 -123l30 123l85 298h95zM228 736h126l88 -155h-81z" />
    <glyph glyph-name="Wacute" unicode="&#x1e82;" horiz-adv-x="955" 
d="M925 712l-198 -712h-89l-165 616l-164 -616h-89l-190 712h95l106 -425l35 -160l39 160l116 425h105l115 -425l38 -161l38 161l113 425h95zM502 932h126l-133 -155h-81z" />
    <glyph glyph-name="wacute" unicode="&#x1e83;" horiz-adv-x="772" 
d="M747 516l-168 -516h-92l-73 308l-26 130l-28 -130l-78 -308h-94l-163 516h100l81 -298l31 -123l27 123l74 298h100l74 -298l25 -123l30 123l85 298h95zM410 736h126l-133 -155h-81z" />
    <glyph glyph-name="Wdieresis" unicode="&#x1e84;" horiz-adv-x="955" 
d="M925 712l-198 -712h-89l-165 616l-164 -616h-89l-190 712h95l106 -425l35 -160l39 160l116 425h105l115 -425l38 -161l38 161l113 425h95zM325 899h92v-99h-92v99zM539 899h92v-99h-92v99z" />
    <glyph glyph-name="wdieresis" unicode="&#x1e85;" horiz-adv-x="772" 
d="M747 516l-168 -516h-92l-73 308l-26 130l-28 -130l-78 -308h-94l-163 516h100l81 -298l31 -123l27 123l74 298h100l74 -298l25 -123l30 123l85 298h95zM233 712h92v-99h-92v99zM447 712h92v-99h-92v99z" />
    <glyph glyph-name="Germandbls" unicode="&#x1e9e;" horiz-adv-x="696" 
d="M547 386q48 -28 73.5 -74t25.5 -104q0 -65 -30.5 -114.5t-88 -76.5t-136.5 -27q-63 0 -123 15v81q58 -14 119 -14q81 0 123.5 35.5t42.5 99.5q0 63 -43 97.5t-124 34.5q-31 0 -60 -3v77l177 225q-54 5 -124 5q-76 0 -120.5 -23.5t-63 -67t-18.5 -106.5v-446h-92v446
q0 135 73.5 207t219.5 72q130 0 236 -15v-70l-180 -219q65 -7 113 -35z" />
    <glyph glyph-name="Ygrave" unicode="&#x1ef2;" horiz-adv-x="684" 
d="M663 712l-270 -420v-292h-93v292l-279 420h112l183 -292l31 -53l31 53l179 292h106zM184 932h126l88 -155h-81z" />
    <glyph glyph-name="ygrave" unicode="&#x1ef3;" horiz-adv-x="539" 
d="M514 516l-240 -617q-16 -40 -34.5 -62t-44 -31.5t-63.5 -9.5h-57v77h48q24 0 39 6t25.5 20.5t21.5 42.5l24 63l-208 511h100l134 -356l11 -62l149 418h95zM112 736h126l88 -155h-81z" />
    <glyph glyph-name="thinspace" unicode="&#x2009;" horiz-adv-x="252" 
 />
    <glyph glyph-name="uni2011" unicode="&#x2011;" horiz-adv-x="380" 
d="M50 291h280v-83h-280v83z" />
    <glyph glyph-name="endash" unicode="&#x2013;" horiz-adv-x="535" 
d="M50 291h435v-83h-435v83z" />
    <glyph glyph-name="emdash" unicode="&#x2014;" horiz-adv-x="829" 
d="M50 291h729v-83h-729v83z" />
    <glyph glyph-name="quoteleft" unicode="&#x2018;" horiz-adv-x="204" 
d="M52 608q0 108 99 108h10v-50h-10q-47 0 -47 -47v-51l58 5v-100h-110v135z" />
    <glyph glyph-name="quoteright" unicode="&#x2019;" horiz-adv-x="204" 
d="M43 519h10q47 0 47 47v51l-58 -5v100h110v-135q0 -108 -99 -108h-10v50z" />
    <glyph glyph-name="quotesinglbase" unicode="&#x201a;" horiz-adv-x="300" 
d="M96 -93h10q47 0 47 47v51l-58 -5v100h110v-135q0 -108 -99 -108h-10v50z" />
    <glyph glyph-name="quotedblleft" unicode="&#x201c;" horiz-adv-x="381" 
d="M52 609q0 108 99 108h10v-50h-10q-47 0 -47 -47v-51l58 5v-100h-110v135zM229 609q0 108 99 108h10v-50h-10q-47 0 -47 -47v-51l58 5v-100h-110v135z" />
    <glyph glyph-name="quotedblright" unicode="&#x201d;" horiz-adv-x="381" 
d="M43 519h10q47 0 47 47v51l-58 -5v100h110v-135q0 -108 -99 -108h-10v50zM220 519h10q47 0 47 47v51l-58 -5v100h110v-135q0 -108 -99 -108h-10v50z" />
    <glyph glyph-name="quotedblbase" unicode="&#x201e;" horiz-adv-x="474" 
d="M96 -92h10q47 0 47 47v50l-58 -5v101h110v-135q0 -108 -99 -108h-10v50zM270 -93h10q47 0 47 47v51l-58 -5v100h110v-135q0 -108 -99 -108h-10v50z" />
    <glyph glyph-name="dagger" unicode="&#x2020;" horiz-adv-x="628" 
d="M543 516l-184 4v-625h-90v625l-184 -4v82l184 -4v256h90v-256l184 4v-82z" />
    <glyph glyph-name="daggerdbl" unicode="&#x2021;" horiz-adv-x="628" 
d="M359 520v-291l184 4v-82l-184 4v-260h-90v260l-184 -4v82l184 -4v291l-184 -4v82l184 -4v256h90v-256l184 4v-82z" />
    <glyph glyph-name="bullet" unicode="&#x2022;" horiz-adv-x="366" 
d="M85 365h196v-175h-196v175z" />
    <glyph glyph-name="ellipsis" unicode="&#x2026;" horiz-adv-x="839" 
d="M80 101h113v-101h-113v101zM363 101h113v-101h-113v101zM646 101h113v-101h-113v101z" />
    <glyph glyph-name="perthousand" unicode="&#x2030;" horiz-adv-x="1682" 
d="M132 363q-47 58 -47 168t47 168t137 58q91 0 138 -58t47 -168t-47 -168t-138 -58q-90 0 -137 58zM775 727h91l-446 -742h-93zM346 412.5q25 36.5 25 118.5t-25 118.5t-77 36.5t-76.5 -36.5t-24.5 -118.5q0 -83 24.5 -119t76.5 -36t77 36.5zM810 42q-47 58 -47 168t47 168
t137 58q91 0 138 -58t47 -168t-47 -168t-138 -58q-90 0 -137 58zM1275 42q-47 58 -47 168t47 168t137 58q91 0 138 -58t47 -168t-47 -168t-138 -58q-90 0 -137 58zM1024 91.5q25 36.5 25 118.5t-25 118.5t-77 36.5t-76.5 -36.5t-24.5 -118.5q0 -83 24.5 -119t76.5 -36
t77 36.5zM1489 91.5q25 36.5 25 118.5t-25 118.5t-77 36.5t-76.5 -36.5t-24.5 -118.5q0 -83 24.5 -119t76.5 -36t77 36.5z" />
    <glyph glyph-name="guilsinglleft" unicode="&#x2039;" horiz-adv-x="410" 
d="M80 208v98l250 218v-102l-191 -165l191 -165v-102z" />
    <glyph glyph-name="guilsinglright" unicode="&#x203a;" horiz-adv-x="410" 
d="M80 92l191 165l-191 165v102l250 -218v-98l-250 -218v102z" />
    <glyph glyph-name="interrobang" unicode="&#x203d;" horiz-adv-x="609" 
d="M429 702q55 -23 85.5 -67.5t30.5 -107.5q0 -112 -102 -176l-50 -31q-25 -16 -36.5 -31.5t-17 -39.5t-9.5 -73h-59l-17 266v90h93v-90l-5 -76q8 7 28 21q51 34 70 67.5t19 70.5q0 64 -42.5 95t-114.5 31q-82 0 -121 -40t-42 -116h-88q6 108 68.5 169t182.5 61
q72 0 127 -23zM249 101h103v-101h-103v101z" />
    <glyph glyph-name="fraction" unicode="&#x2044;" horiz-adv-x="355" 
d="M356 727h91l-446 -742h-93z" />
    <glyph glyph-name="zero.superior" unicode="&#x2070;" horiz-adv-x="459" 
d="M92 414q-47 58 -47 168t47 168t137 58q91 0 138 -58t47 -168t-47 -168t-138 -58q-90 0 -137 58zM306 463.5q25 36.5 25 118.5t-25 118.5t-77 36.5t-76.5 -36.5t-24.5 -118.5q0 -83 24.5 -119t76.5 -36t77 36.5z" />
    <glyph glyph-name="four.superior" unicode="&#x2074;" horiz-adv-x="460" 
d="M257 470l-207 -2v67l202 264h82v-271l76 2v-62l-76 2v-98h-77v98zM257 528v181h-4l-135 -179z" />
    <glyph glyph-name="five.superior" unicode="&#x2075;" horiz-adv-x="446" 
d="M111 381.5q-44 26.5 -60 77.5l79 17q10 -29 33.5 -42t57.5 -13q45 0 70 21.5t25 59.5q0 39 -25 62t-70 23q-51 0 -79 -31l-80 17l43 226h259v-66h-204l-18 -108l2 -2q38 26 96 26q51 0 86 -19t52.5 -51.5t17.5 -72.5q0 -42 -19.5 -76.5t-59.5 -54.5t-97 -20
q-65 0 -109 26.5z" />
    <glyph glyph-name="six.superior" unicode="&#x2076;" horiz-adv-x="448" 
d="M94.5 412.5q-44.5 56.5 -44.5 158.5q0 113 46.5 175t136.5 62q57 0 97 -24t56 -65l-76 -21q-10 20 -29.5 32.5t-48.5 12.5q-100 0 -107 -142q19 22 49.5 34t68.5 12q46 0 81 -16.5t54.5 -48.5t19.5 -77t-20 -79t-58.5 -52t-90.5 -18q-90 0 -134.5 56.5zM296.5 442
q23.5 22 23.5 60t-23.5 60t-66.5 22t-69 -21.5t-26 -56.5q0 -42 27 -64t68 -22q43 0 66.5 22z" />
    <glyph glyph-name="seven.superior" unicode="&#x2077;" horiz-adv-x="381" 
d="M148.5 580q41.5 89 112.5 153h-236v66h331v-63q-81 -64 -124 -149.5t-55 -214.5h-81q11 119 52.5 208z" />
    <glyph glyph-name="eight.superior" unicode="&#x2078;" horiz-adv-x="456" 
d="M132.5 378.5q-40.5 15.5 -62.5 45t-22 70.5q0 39 24 68t65 40v2q-32 12 -49.5 35.5t-17.5 56.5q0 35 19 60t55 38.5t84 13.5t84 -13.5t55 -38.5t19 -60q0 -33 -17.5 -56.5t-49.5 -35.5v-2q42 -11 65.5 -39.5t23.5 -68.5q0 -41 -22 -70.5t-62.5 -45t-95.5 -15.5
t-95.5 15.5zM288 644q21 15 21 45q0 29 -21 43.5t-60 14.5t-60 -14.5t-21 -43.5q0 -30 21 -45t60 -15t60 15zM301.5 442.5q25.5 18.5 25.5 55.5q0 36 -25.5 54t-73.5 18t-73.5 -18t-25.5 -54q0 -37 25.5 -55.5t73.5 -18.5t73.5 18.5z" />
    <glyph glyph-name="nine.superior" unicode="&#x2079;" horiz-adv-x="448" 
d="M118 380q-40 24 -56 65l76 21q10 -20 29.5 -32.5t48.5 -12.5q100 0 107 142q-19 -22 -49.5 -34t-68.5 -12q-46 0 -81 16.5t-54.5 48.5t-19.5 77t20 79t58.5 52t90.5 18q90 0 134.5 -56.5t44.5 -158.5q0 -113 -46.5 -175t-136.5 -62q-57 0 -97 24zM287 601.5
q26 21.5 26 56.5q0 42 -27 64t-68 22q-43 0 -66.5 -22t-23.5 -60t23.5 -60t66.5 -22t69 21.5z" />
    <glyph glyph-name="plus.sups" unicode="&#x207a;" horiz-adv-x="527" 
d="M471 522h-172v-150h-69v150h-172v63h172v149h69v-149h172v-63z" />
    <glyph glyph-name="minus.sups" unicode="&#x207b;" horiz-adv-x="517" 
d="M58 583h403v-64h-403v64z" />
    <glyph glyph-name="parenleft.sups" unicode="&#x207d;" horiz-adv-x="305" 
d="M92.5 383.5q-28.5 78.5 -28.5 164.5q0 88 28.5 169t83.5 148h73q-54 -68 -82 -149t-28 -168q0 -85 28 -163.5t82 -147.5h-73q-55 68 -83.5 146.5z" />
    <glyph glyph-name="parenright.sups" unicode="&#x207e;" horiz-adv-x="305" 
d="M138 384q28 79 28 164q0 87 -28.5 168.5t-81.5 148.5h73q55 -67 83.5 -148t28.5 -169q0 -86 -28.5 -164.5t-83.5 -146.5h-73q54 68 82 147z" />
    <glyph glyph-name="n.superior" unicode="&#x207f;" horiz-adv-x="488" 
d="M374 685.5q34 -34.5 34 -97.5v-216h-76v200q0 38 -20.5 58.5t-58.5 20.5q-45 0 -71.5 -27t-26.5 -72v-180h-75v340h73l2 -60q37 68 123 68q62 0 96 -34.5z" />
    <glyph glyph-name="zero.inferior" unicode="&#x2080;" horiz-adv-x="459" 
d="M92 -132q-47 58 -47 168t47 168t137 58q91 0 138 -58t47 -168t-47 -168t-138 -58q-90 0 -137 58zM306 -82.5q25 36.5 25 118.5t-25 118.5t-77 36.5t-76.5 -36.5t-24.5 -118.5q0 -83 24.5 -119t76.5 -36t77 36.5z" />
    <glyph glyph-name="one.inferior" unicode="&#x2081;" horiz-adv-x="300" 
d="M143 123h-103v59h35q34 0 54 14.5t24 38.5l3 18h64v-427h-77v297z" />
    <glyph glyph-name="two.inferior" unicode="&#x2082;" horiz-adv-x="431" 
d="M76 -59q26 45 79 71l85 41q30 15 45.5 32.5t15.5 43.5q0 30 -20.5 47.5t-61.5 17.5q-46 0 -63 -20.5t-19 -61.5h-80q2 69 42.5 109.5t119.5 40.5q48 0 84.5 -15.5t57 -45.5t20.5 -72q0 -45 -25.5 -77t-80.5 -58l-52 -25q-39 -19 -57 -34t-22 -40h236v-69h-330
q0 70 26 115z" />
    <glyph glyph-name="three.inferior" unicode="&#x2083;" horiz-adv-x="445" 
d="M96.5 -153q-46.5 37 -46.5 105h80q2 -39 24 -58t70 -19q91 0 91 67q0 32 -23 48.5t-67 16.5h-39v69h39q37 0 56 15t19 44q0 30 -21.5 46t-61.5 16q-41 0 -62.5 -16.5t-23.5 -50.5h-80q0 41 20 71t57.5 45.5t87.5 15.5q51 0 88 -15t56.5 -42t19.5 -63q0 -35 -18 -60
t-50 -34v-2q38 -11 60.5 -38.5t22.5 -67.5q0 -38 -21 -67.5t-59.5 -46t-91.5 -16.5q-80 0 -126.5 37z" />
    <glyph glyph-name="four.inferior" unicode="&#x2084;" horiz-adv-x="460" 
d="M257 -76l-207 -2v67l202 264h82v-271l76 2v-62l-76 2v-98h-77v98zM257 -18v181h-4l-135 -179z" />
    <glyph glyph-name="five.inferior" unicode="&#x2085;" horiz-adv-x="446" 
d="M111 -164.5q-44 26.5 -60 77.5l79 17q10 -29 34 -42t57 -13q45 0 70 21.5t25 59.5q0 39 -25 62t-70 23q-51 0 -79 -31l-80 17l43 226h259v-66h-204l-18 -108l2 -2q38 26 96 26q51 0 86 -19t52.5 -51.5t17.5 -72.5q0 -42 -19.5 -76.5t-59.5 -54.5t-97 -20q-65 0 -109 26.5
z" />
    <glyph glyph-name="six.inferior" unicode="&#x2086;" horiz-adv-x="448" 
d="M94.5 -133.5q-44.5 56.5 -44.5 158.5q0 113 46.5 175t136.5 62q57 0 97 -24t56 -65l-76 -21q-10 20 -29.5 32.5t-48.5 12.5q-100 0 -107 -142q19 22 49.5 34t68.5 12q46 0 81 -16.5t54.5 -48.5t19.5 -77t-20 -79t-58.5 -52t-90.5 -18q-90 0 -134.5 56.5zM296.5 -104
q23.5 22 23.5 60t-23.5 60t-66.5 22t-69 -21.5t-26 -56.5q0 -42 27 -64t68 -22q43 0 66.5 22z" />
    <glyph glyph-name="seven.inferior" unicode="&#x2087;" horiz-adv-x="381" 
d="M148.5 34q41.5 89 112.5 153h-236v66h331v-63q-81 -64 -124 -149.5t-55 -214.5h-81q11 119 52.5 208z" />
    <glyph glyph-name="eight.inferior" unicode="&#x2088;" horiz-adv-x="456" 
d="M132.5 -167.5q-40.5 15.5 -62.5 45t-22 70.5q0 39 24 68t65 40v2q-32 12 -49.5 35.5t-17.5 56.5q0 35 19 60t55 38.5t84 13.5t84 -13.5t55 -38.5t19 -60q0 -33 -17.5 -56.5t-49.5 -35.5v-2q42 -11 65.5 -39.5t23.5 -68.5q0 -41 -22 -70.5t-62.5 -45t-95.5 -15.5
t-95.5 15.5zM288 98q21 15 21 45q0 29 -21 43.5t-60 14.5t-60 -14.5t-21 -43.5q0 -30 21 -45t60 -15t60 15zM301.5 -103.5q25.5 18.5 25.5 55.5q0 36 -25.5 54t-73.5 18t-73.5 -18t-25.5 -54q0 -37 25.5 -55.5t73.5 -18.5t73.5 18.5z" />
    <glyph glyph-name="nine.inferior" unicode="&#x2089;" horiz-adv-x="448" 
d="M118 -166q-40 24 -56 65l76 21q10 -20 29.5 -32.5t48.5 -12.5q100 0 107 142q-19 -22 -49.5 -34t-68.5 -12q-46 0 -81 16.5t-54.5 48.5t-19.5 77t20 79t58.5 52t90.5 18q90 0 134.5 -56.5t44.5 -158.5q0 -113 -46.5 -175t-136.5 -62q-57 0 -97 24zM287 55.5
q26 21.5 26 56.5q0 42 -27 64t-68 22q-43 0 -66.5 -22t-23.5 -60t23.5 -60t66.5 -22t69 21.5z" />
    <glyph glyph-name="plus.subs" unicode="&#x208a;" horiz-adv-x="527" 
d="M471 0h-172v-150h-69v150h-172v63h172v149h69v-149h172v-63z" />
    <glyph glyph-name="minus.subs" unicode="&#x208b;" horiz-adv-x="517" 
d="M58 61h403v-64h-403v64z" />
    <glyph glyph-name="equal.subs" unicode="&#x208c;" horiz-adv-x="517" 
d="M58 141h403v-63h-403v63zM58 -17h403v-64h-403v64z" />
    <glyph glyph-name="uni208D" unicode="&#x208d;" horiz-adv-x="305" 
d="M92.5 -162.5q-28.5 78.5 -28.5 164.5q0 88 28.5 169t83.5 148h73q-54 -68 -82 -149t-28 -168q0 -85 28 -163.5t82 -147.5h-73q-55 68 -83.5 146.5z" />
    <glyph glyph-name="uni208E" unicode="&#x208e;" horiz-adv-x="305" 
d="M138 -162q28 79 28 164q0 87 -28.5 168.5t-81.5 148.5h73q55 -67 83.5 -148t28.5 -169q0 -86 -28.5 -164.5t-83.5 -146.5h-73q54 68 82 147z" />
    <glyph glyph-name="n.subs" unicode="&#x2099;" horiz-adv-x="488" 
d="M374 139.5q34 -34.5 34 -97.5v-216h-76v200q0 38 -20.5 58.5t-58.5 20.5q-45 0 -71.5 -27t-26.5 -72v-180h-75v340h73l2 -60q37 68 123 68q62 0 96 -34.5z" />
    <glyph glyph-name="Euro" unicode="&#x20ac;" 
d="M343.5 601.5q-55.5 -40.5 -81.5 -111.5h356v-81h-374q-3 -24 -3 -51q0 -16 2 -48h375v-81h-359q24 -75 78.5 -119t140.5 -44q34 0 70.5 7.5t69.5 20.5v-87q-30 -11 -67.5 -17.5t-74.5 -6.5q-83 0 -147 30.5t-106 85.5t-61 130h-140v81h126q-2 32 -2 48q0 17 2 51h-126v81
h141q20 72 62.5 124.5t106 81.5t143.5 29q38 0 75 -6.5t68 -18.5v-87q-32 14 -67 21.5t-70 7.5q-82 0 -137.5 -40.5z" />
    <glyph glyph-name="uni20B8" unicode="&#x20b8;" horiz-adv-x="639" 
d="M604 712v-81h-569v81h569zM35 532h569v-81h-238v-451h-93v451h-238v81z" />
    <glyph glyph-name="uni20B9" unicode="&#x20b9;" 
d="M600 632h-245q41 -33 51 -87h194v-80h-196q-11 -47 -42.5 -80.5t-76.5 -45.5q44 -9 70.5 -38t42.5 -84l62 -217h-97l-55 198q-11 38 -26.5 59.5t-41 30.5t-66.5 9h-134v81h152q54 0 82.5 20.5t36.5 66.5h-271v80h272q-7 46 -35.5 66.5t-84.5 20.5h-152v80h560v-80z" />
    <glyph glyph-name="uni20BA" unicode="&#x20ba;" 
d="M608 246q-10 -80 -50.5 -135.5t-105 -83t-146.5 -27.5h-134v228l-139 -73v88l139 73v101l-139 -73v88l139 73v207h92v-159l209 109v-88l-209 -109v-101l209 109v-88l-209 -109v-192h42q91 0 146.5 40t70.5 122h85z" />
    <glyph glyph-name="uni20BC" unicode="&#x20bc;" 
d="M536 460.5q54 -62.5 54 -186.5v-274h-92v281q0 58 -13 93.5t-42 53t-77 21.5v-338h-92v338q-48 -5 -76 -22.5t-41.5 -52.5t-13.5 -93v-281h-92v274q0 83 22.5 138t71.5 83.5t129 29.5v187h92v-187q116 -2 170 -64.5z" />
    <glyph glyph-name="uni20BF" unicode="&#x20bf;" 
d="M559.5 70.5q-46.5 -52.5 -132.5 -66.5v-148h-79v144h-90v-144h-79v144h-116v712h116v135h79v-135h90v135h79v-141q70 -14 108 -57t38 -111q0 -55 -26.5 -95t-76.5 -60q69 -21 102.5 -64.5t33.5 -111.5q0 -84 -46.5 -136.5zM156 631v-221h188q65 0 99.5 30t34.5 85
q0 53 -32 79.5t-93 26.5h-197zM474 113q37 32 37 94q0 61 -37.5 93t-109.5 32h-208v-251h208q73 0 110 32z" />
    <glyph glyph-name="uni2105" unicode="&#x2105;" horiz-adv-x="1167" 
d="M768 727h91l-446 -742h-93zM169.5 386.5q-40.5 22.5 -62.5 63.5t-22 95q0 53 21.5 93.5t62.5 62.5t96 22q47 0 82.5 -15t57.5 -41t30 -60l-73 -6q-9 27 -32 42.5t-61 15.5q-51 0 -78.5 -29t-27.5 -86q0 -58 27.5 -87t78.5 -29q36 0 60 15t33 45l73 -6q-12 -54 -56 -86
t-113 -32q-56 0 -96.5 22.5zM808 7q-41 23 -64 64t-23 93q0 53 22.5 94t64 64t94.5 23t94 -23t63.5 -64t22.5 -94q0 -52 -22.5 -93t-63.5 -64t-94 -23t-94 23zM977 77q27 29 27 87q0 59 -26.5 88t-75.5 29t-76.5 -29t-27.5 -88q0 -58 27.5 -87t76.5 -29q48 0 75 29z" />
    <glyph glyph-name="uni2113" unicode="&#x2113;" horiz-adv-x="507" 
d="M456 53q-30 -35 -67.5 -52t-83.5 -17q-67 0 -104.5 35.5t-37.5 101.5v85l-90 -43l-33 75l123 47v300q0 68 35 104t105 36q75 0 111 -45t36 -143q0 -74 -20.5 -127.5t-63.5 -93t-111 -69.5v-121q0 -31 15.5 -46.5t43.5 -15.5q25 0 47.5 12.5t40.5 35.5zM268 628
q-13 -17 -13 -49v-250q40 24 64 51.5t35.5 64t11.5 86.5q0 63 -16 88.5t-44 25.5q-25 0 -38 -17z" />
    <glyph glyph-name="uni2116" unicode="&#x2116;" horiz-adv-x="1197" 
d="M1061 702q41 -23 63.5 -64t22.5 -94q0 -52 -22.5 -93t-63.5 -64t-94 -23t-94 23t-64 64t-23 93q0 53 22.5 94t64 64t94.5 23t94 -23zM563 712h88v-712h-106l-372 578v-578h-88v712h103l375 -581v581zM1042 457q27 29 27 87q0 59 -26.5 88t-75.5 29t-76.5 -29t-27.5 -88
q0 -58 27.5 -87t76.5 -29q48 0 75 29z" />
    <glyph glyph-name="uni2117" unicode="&#x2117;" horiz-adv-x="880" 
d="M633.5 681q85.5 -48 134 -133t48.5 -192t-48.5 -192t-134 -133t-193.5 -48t-193.5 48t-134 133t-48.5 192t48.5 192t134 133t193.5 48t193.5 -48zM599 85q70 40 109 111t39 160t-39.5 159.5t-109.5 110.5t-158 40t-158 -40t-109.5 -110.5t-39.5 -159.5t39.5 -160
t109.5 -111t158 -40q89 0 159 40zM542 531q28 -16 43.5 -43.5t15.5 -62.5q0 -36 -16.5 -64t-45.5 -43.5t-67 -15.5h-83v-132h-70v377h158q37 0 65 -16zM514 377.5q17 16.5 17 47.5q0 30 -16.5 46.5t-49.5 16.5h-76v-127h74q34 0 51 16.5z" />
    <glyph glyph-name="trademark" unicode="&#x2122;" horiz-adv-x="989" 
d="M166 654h-116v58h301v-58h-116v-324h-69v324zM461 712h132l85 -346h12l81 346h138v-382h-70v346h-14l-81 -346h-120l-84 346h-14v-346h-65v382z" />
    <glyph glyph-name="Omega" unicode="&#x2126;" horiz-adv-x="820" 
d="M64 80h170v2q-79 51 -120.5 130t-41.5 172q0 105 43 182.5t119.5 118t176.5 40.5t175.5 -40.5t117 -117.5t41.5 -183q0 -93 -40.5 -172t-118.5 -130v-2h170v-80h-292v72q94 52 140 132t46 180q0 85 -29.5 143t-83.5 86.5t-126 28.5t-127 -28.5t-86 -86.5t-31 -143
q0 -99 47.5 -179.5t142.5 -132.5v-72h-293v80z" />
    <glyph glyph-name="estimated" unicode="&#x212e;" horiz-adv-x="906" 
d="M667.5 672.5q91.5 -51.5 140 -138.5t48.5 -190h-643q-6 0 -10 -4t-4 -9v-175q0 -17 3.5 -27t12.5 -19q47 -46 106.5 -71t131.5 -25q75 0 141.5 31.5t109.5 83.5h73q-26 -36 -70 -68.5t-109 -53t-145 -20.5q-120 0 -211.5 47t-141.5 130.5t-50 189.5q0 104 49 188.5
t140.5 133t213.5 48.5q123 0 214.5 -51.5zM321.5 670.5q-59.5 -25.5 -106.5 -72.5q-9 -9 -12.5 -18t-3.5 -25v-175q0 -6 4 -9.5t10 -3.5h478q6 0 10 3.5t4 9.5v175q0 16 -3.5 25t-12.5 18q-52 51 -112 74.5t-124 23.5q-72 0 -131.5 -25.5z" />
    <glyph glyph-name="uni2153" unicode="&#x2153;" horiz-adv-x="1091" 
d="M188 618h-103v59h35q34 0 54 14.5t24 38.5l3 18h64v-427h-77v297zM658 727h91l-446 -742h-93zM707.5 21q-46.5 37 -46.5 105h80q2 -39 24 -58t70 -19q91 0 91 67q0 32 -23 48.5t-67 16.5h-39v69h39q37 0 56 15t19 44q0 30 -21.5 46t-61.5 16q-41 0 -62.5 -16.5
t-23.5 -50.5h-80q0 41 20 71t57.5 45.5t87.5 15.5q51 0 88 -15t56.5 -42t19.5 -63q0 -35 -18 -60t-50 -34v-2q38 -11 60.5 -38.5t22.5 -67.5q0 -38 -21 -67.5t-59.5 -46t-91.5 -16.5q-80 0 -126.5 37z" />
    <glyph glyph-name="uni2154" unicode="&#x2154;" horiz-adv-x="1233" 
d="M111 436q26 45 79 71l85 41q30 15 45.5 32.5t15.5 43.5q0 30 -20.5 47.5t-61.5 17.5q-46 0 -63 -20.5t-19 -61.5h-80q2 69 42.5 109.5t119.5 40.5q48 0 84.5 -15.5t57 -45.5t20.5 -72q0 -45 -25.5 -77t-80.5 -58l-52 -25q-39 -19 -57 -34t-22 -40h236v-69h-330
q0 70 26 115zM800 727h91l-446 -742h-93zM849.5 21q-46.5 37 -46.5 105h80q2 -39 24 -58t70 -19q91 0 91 67q0 32 -23 48.5t-67 16.5h-39v69h39q37 0 56 15t19 44q0 30 -21.5 46t-61.5 16q-41 0 -62.5 -16.5t-23.5 -50.5h-80q0 41 20 71t57.5 45.5t87.5 15.5q51 0 88 -15
t56.5 -42t19.5 -63q0 -35 -18 -60t-50 -34v-2q38 -11 60.5 -38.5t22.5 -67.5q0 -38 -21 -67.5t-59.5 -46t-91.5 -16.5q-80 0 -126.5 37z" />
    <glyph glyph-name="uni2155" unicode="&#x2155;" horiz-adv-x="1106" 
d="M188 618h-103v59h35q34 0 54 14.5t24 38.5l3 18h64v-427h-77v297zM658 727h91l-446 -742h-93zM736 9.5q-44 26.5 -60 77.5l79 17q10 -29 34 -42t57 -13q45 0 70 21.5t25 59.5q0 39 -25 62t-70 23q-51 0 -79 -31l-80 17l43 226h259v-66h-204l-18 -108l2 -2q38 26 96 26
q51 0 86 -19t52.5 -51.5t17.5 -72.5q0 -42 -19.5 -76.5t-59.5 -54.5t-97 -20q-65 0 -109 26.5z" />
    <glyph glyph-name="uni2156" unicode="&#x2156;" horiz-adv-x="1229" 
d="M111 436q26 45 79 71l85 41q30 15 45.5 32.5t15.5 43.5q0 30 -20.5 47.5t-61.5 17.5q-46 0 -63 -20.5t-19 -61.5h-80q2 69 42.5 109.5t119.5 40.5q48 0 84.5 -15.5t57 -45.5t20.5 -72q0 -45 -25.5 -77t-80.5 -58l-52 -25q-39 -19 -57 -34t-22 -40h236v-69h-330
q0 70 26 115zM781 727h91l-446 -742h-93zM859 9.5q-44 26.5 -60 77.5l79 17q10 -29 34 -42t57 -13q45 0 70 21.5t25 59.5q0 39 -25 62t-70 23q-51 0 -79 -31l-80 17l43 226h259v-66h-204l-18 -108l2 -2q38 26 96 26q51 0 86 -19t52.5 -51.5t17.5 -72.5q0 -42 -19.5 -76.5
t-59.5 -54.5t-97 -20q-65 0 -109 26.5z" />
    <glyph glyph-name="uni2157" unicode="&#x2157;" horiz-adv-x="1211" 
d="M131.5 342q-46.5 37 -46.5 105h80q2 -39 24 -58t70 -19q91 0 91 67q0 32 -23 48.5t-67 16.5h-39v69h39q37 0 56 15t19 44q0 30 -21.5 46t-61.5 16q-41 0 -62.5 -16.5t-23.5 -50.5h-80q0 41 20 71t57.5 45.5t87.5 15.5q51 0 88 -15t56.5 -42t19.5 -63q0 -35 -18 -60
t-50 -34v-2q38 -11 60.5 -38.5t22.5 -67.5q0 -38 -21 -67.5t-59.5 -46t-91.5 -16.5q-80 0 -126.5 37zM763 727h91l-446 -742h-93zM841 9.5q-44 26.5 -60 77.5l79 17q10 -29 34 -42t57 -13q45 0 70 21.5t25 59.5q0 39 -25 62t-70 23q-51 0 -79 -31l-80 17l43 226h259v-66
h-204l-18 -108l2 -2q38 26 96 26q51 0 86 -19t52.5 -51.5t17.5 -72.5q0 -42 -19.5 -76.5t-59.5 -54.5t-97 -20q-65 0 -109 26.5z" />
    <glyph glyph-name="uni2158" unicode="&#x2158;" horiz-adv-x="1249" 
d="M292 419l-207 -2v67l202 264h82v-271l76 2v-62l-76 2v-98h-77v98zM292 477v181h-4l-135 -179zM801 727h91l-446 -742h-93zM879 9.5q-44 26.5 -60 77.5l79 17q10 -29 34 -42t57 -13q45 0 70 21.5t25 59.5q0 39 -25 62t-70 23q-51 0 -79 -31l-80 17l43 226h259v-66h-204
l-18 -108l2 -2q38 26 96 26q51 0 86 -19t52.5 -51.5t17.5 -72.5q0 -42 -19.5 -76.5t-59.5 -54.5t-97 -20q-65 0 -109 26.5z" />
    <glyph glyph-name="uni2159" unicode="&#x2159;" horiz-adv-x="1067" 
d="M188 618h-103v59h35q34 0 54 14.5t24 38.5l3 18h64v-427h-77v297zM658 727h91l-446 -742h-93zM678.5 40.5q-44.5 56.5 -44.5 158.5q0 113 46.5 175t136.5 62q57 0 97 -24t56 -65l-76 -21q-10 20 -29.5 32.5t-48.5 12.5q-100 0 -107 -142q19 22 49.5 34t68.5 12
q46 0 81 -16.5t54.5 -48.5t19.5 -77t-20 -79t-58.5 -52t-90.5 -18q-90 0 -134.5 56.5zM880.5 70q23.5 22 23.5 60t-23.5 60t-66.5 22t-69 -21.5t-26 -56.5q0 -42 27 -64t68 -22q43 0 66.5 22z" />
    <glyph glyph-name="uni215A" unicode="&#x215a;" horiz-adv-x="1166" 
d="M145 330.5q-44 26.5 -60 77.5l79 17q10 -29 34 -42t57 -13q45 0 70 21.5t25 59.5q0 39 -25 62t-70 23q-51 0 -79 -31l-80 17l43 226h259v-66h-204l-18 -108l2 -2q38 26 96 26q51 0 86 -19t52.5 -51.5t17.5 -72.5q0 -42 -19.5 -76.5t-59.5 -54.5t-97 -20q-65 0 -109 26.5z
M757 727h91l-446 -742h-93zM777.5 40.5q-44.5 56.5 -44.5 158.5q0 113 46.5 175t136.5 62q57 0 97 -24t56 -65l-76 -21q-10 20 -29.5 32.5t-48.5 12.5q-100 0 -107 -142q19 22 49.5 34t68.5 12q46 0 81 -16.5t54.5 -48.5t19.5 -77t-20 -79t-58.5 -52t-90.5 -18
q-90 0 -134.5 56.5zM979.5 70q23.5 22 23.5 60t-23.5 60t-66.5 22t-69 -21.5t-26 -56.5q0 -42 27 -64t68 -22q43 0 66.5 22z" />
    <glyph glyph-name="oneeighth" unicode="&#x215b;" horiz-adv-x="1090" 
d="M188 618h-103v59h35q34 0 54 14.5t24 38.5l3 18h64v-427h-77v297zM658 727h91l-446 -742h-93zM729.5 6.5q-40.5 15.5 -62.5 45t-22 70.5q0 39 24 68t65 40v2q-32 12 -49.5 35.5t-17.5 56.5q0 35 19 60t55 38.5t84 13.5t84 -13.5t55 -38.5t19 -60q0 -33 -17.5 -56.5
t-49.5 -35.5v-2q42 -11 65.5 -39.5t23.5 -68.5q0 -41 -22 -70.5t-62.5 -45t-95.5 -15.5t-95.5 15.5zM885 272q21 15 21 45q0 29 -21 43.5t-60 14.5t-60 -14.5t-21 -43.5q0 -30 21 -45t60 -15t60 15zM898.5 70.5q25.5 18.5 25.5 55.5q0 36 -25.5 54t-73.5 18t-73.5 -18
t-25.5 -54q0 -37 25.5 -55.5t73.5 -18.5t73.5 18.5z" />
    <glyph glyph-name="threeeighths" unicode="&#x215c;" horiz-adv-x="1195" 
d="M131.5 342q-46.5 37 -46.5 105h80q2 -39 24 -58t70 -19q91 0 91 67q0 32 -23 48.5t-67 16.5h-39v69h39q37 0 56 15t19 44q0 30 -21.5 46t-61.5 16q-41 0 -62.5 -16.5t-23.5 -50.5h-80q0 41 20 71t57.5 45.5t87.5 15.5q51 0 88 -15t56.5 -42t19.5 -63q0 -35 -18 -60
t-50 -34v-2q38 -11 60.5 -38.5t22.5 -67.5q0 -38 -21 -67.5t-59.5 -46t-91.5 -16.5q-80 0 -126.5 37zM763 727h91l-446 -742h-93zM834.5 6.5q-40.5 15.5 -62.5 45t-22 70.5q0 39 24 68t65 40v2q-32 12 -49.5 35.5t-17.5 56.5q0 35 19 60t55 38.5t84 13.5t84 -13.5t55 -38.5
t19 -60q0 -33 -17.5 -56.5t-49.5 -35.5v-2q42 -11 65.5 -39.5t23.5 -68.5q0 -41 -22 -70.5t-62.5 -45t-95.5 -15.5t-95.5 15.5zM990 272q21 15 21 45q0 29 -21 43.5t-60 14.5t-60 -14.5t-21 -43.5q0 -30 21 -45t60 -15t60 15zM1003.5 70.5q25.5 18.5 25.5 55.5
q0 36 -25.5 54t-73.5 18t-73.5 -18t-25.5 -54q0 -37 25.5 -55.5t73.5 -18.5t73.5 18.5z" />
    <glyph glyph-name="fiveeighths" unicode="&#x215d;" horiz-adv-x="1189" 
d="M145 330.5q-44 26.5 -60 77.5l79 17q10 -29 34 -42t57 -13q45 0 70 21.5t25 59.5q0 39 -25 62t-70 23q-51 0 -79 -31l-80 17l43 226h259v-66h-204l-18 -108l2 -2q38 26 96 26q51 0 86 -19t52.5 -51.5t17.5 -72.5q0 -42 -19.5 -76.5t-59.5 -54.5t-97 -20q-65 0 -109 26.5z
M757 727h91l-446 -742h-93zM828.5 6.5q-40.5 15.5 -62.5 45t-22 70.5q0 39 24 68t65 40v2q-32 12 -49.5 35.5t-17.5 56.5q0 35 19 60t55 38.5t84 13.5t84 -13.5t55 -38.5t19 -60q0 -33 -17.5 -56.5t-49.5 -35.5v-2q42 -11 65.5 -39.5t23.5 -68.5q0 -41 -22 -70.5t-62.5 -45
t-95.5 -15.5t-95.5 15.5zM984 272q21 15 21 45q0 29 -21 43.5t-60 14.5t-60 -14.5t-21 -43.5q0 -30 21 -45t60 -15t60 15zM997.5 70.5q25.5 18.5 25.5 55.5q0 36 -25.5 54t-73.5 18t-73.5 -18t-25.5 -54q0 -37 25.5 -55.5t73.5 -18.5t73.5 18.5z" />
    <glyph glyph-name="seveneighths" unicode="&#x215e;" horiz-adv-x="1092" 
d="M208.5 529q41.5 89 112.5 153h-236v66h331v-63q-81 -64 -124 -149.5t-55 -214.5h-81q11 119 52.5 208zM660 727h91l-446 -742h-93zM731.5 6.5q-40.5 15.5 -62.5 45t-22 70.5q0 39 24 68t65 40v2q-32 12 -49.5 35.5t-17.5 56.5q0 35 19 60t55 38.5t84 13.5t84 -13.5
t55 -38.5t19 -60q0 -33 -17.5 -56.5t-49.5 -35.5v-2q42 -11 65.5 -39.5t23.5 -68.5q0 -41 -22 -70.5t-62.5 -45t-95.5 -15.5t-95.5 15.5zM887 272q21 15 21 45q0 29 -21 43.5t-60 14.5t-60 -14.5t-21 -43.5q0 -30 21 -45t60 -15t60 15zM900.5 70.5q25.5 18.5 25.5 55.5
q0 36 -25.5 54t-73.5 18t-73.5 -18t-25.5 -54q0 -37 25.5 -55.5t73.5 -18.5t73.5 18.5z" />
    <glyph glyph-name="arrowleft" unicode="&#x2190;" horiz-adv-x="856" 
d="M792 310h-589l113 -145l124 -165h-107l-269 356l269 356h107l-124 -165l-113 -145h589v-92z" />
    <glyph glyph-name="arrowup" unicode="&#x2191;" horiz-adv-x="812" 
d="M762 459v-107l-165 124l-145 114v-590h-92v591l-145 -115l-165 -124v107l356 269z" />
    <glyph glyph-name="arrowright" unicode="&#x2192;" horiz-adv-x="856" 
d="M792 356l-269 -356h-107l124 165l113 145h-589v92h589l-113 145l-124 165h107z" />
    <glyph glyph-name="arrowdown" unicode="&#x2193;" horiz-adv-x="812" 
d="M762 360v-107l-356 -269l-356 269v107l165 -124l145 -113v589h92v-589l145 113z" />
    <glyph glyph-name="arrowboth" unicode="&#x2194;" horiz-adv-x="1177" 
d="M1113 356l-269 -356h-107l124 165l113 145h-771l113 -145l124 -165h-107l-269 356l269 356h107l-124 -165l-113 -145h771l-113 145l-124 165h107z" />
    <glyph glyph-name="arrowupdn" unicode="&#x2195;" horiz-adv-x="812" 
d="M452 759v-772l145 113l165 124v-107l-356 -269l-356 269v107l165 -124l145 -113v772l-145 -113l-165 -124v107l356 269l356 -269v-107l-165 124z" />
    <glyph glyph-name="uni2196" unicode="&#x2196;" horiz-adv-x="726" 
d="M640 0l-512 515l5 -188v-293h-93v634h634v-92h-283l-196 5l511 -515z" />
    <glyph glyph-name="uni2197" unicode="&#x2197;" horiz-adv-x="726" 
d="M686 668v-634h-93v293l5 188l-512 -515l-66 66l511 515l-196 -5h-283v92h634z" />
    <glyph glyph-name="uni2198" unicode="&#x2198;" horiz-adv-x="726" 
d="M686 634v-634h-634v92h283l196 -5l-511 515l66 66l512 -515l-5 188v293h93z" />
    <glyph glyph-name="uni2199" unicode="&#x2199;" horiz-adv-x="726" 
d="M391 92h283v-92h-634v634h93v-293l-5 -188l512 515l66 -66l-511 -515z" />
    <glyph glyph-name="partialdiff" unicode="&#x2202;" horiz-adv-x="588" 
d="M467 624q57 -97 57 -265q0 -184 -61 -277.5t-181 -93.5q-67 0 -116.5 28.5t-75.5 80t-26 118.5q0 70 27 121.5t76 79t113 27.5q87 0 151 -54q-4 92 -24.5 147.5t-55 80t-85.5 24.5q-32 0 -64.5 -8.5t-59.5 -21.5l-31 74q34 16 75 26t86 10q138 0 195 -97zM389 118.5
q35 52.5 42 166.5q-25 38 -62.5 59.5t-81.5 21.5q-60 0 -95.5 -38.5t-35.5 -111.5q0 -71 34.5 -110.5t95.5 -39.5q68 0 103 52.5z" />
    <glyph glyph-name="Delta" unicode="&#x2206;" horiz-adv-x="716" 
d="M686 0h-656l276 712h105zM554 81l-171 479l-23 71l-24 -71l-177 -479h395z" />
    <glyph glyph-name="product" unicode="&#x220f;" horiz-adv-x="733" 
d="M648 -204h-93v831h-377v-831h-93v916h563v-916z" />
    <glyph glyph-name="summation" unicode="&#x2211;" horiz-adv-x="679" 
d="M615 -116v-88h-551v78l298 385l-285 375v78h526v-88h-408l276 -365l-289 -375h433z" />
    <glyph glyph-name="minus" unicode="&#x2212;" 
d="M56 350h529v-80h-529v80z" />
    <glyph glyph-name="uni2215" unicode="&#x2215;" horiz-adv-x="355" 
d="M356 727h91l-446 -742h-93z" />
    <glyph glyph-name="uni2219" unicode="&#x2219;" horiz-adv-x="356" 
d="M80 365h196v-175h-196v175z" />
    <glyph glyph-name="radical" unicode="&#x221a;" 
d="M181 104l-99 -38l-27 75l179 66l120 -336l181 876h89l-196 -951h-133z" />
    <glyph glyph-name="infinity" unicode="&#x221e;" horiz-adv-x="780" 
d="M122 202q-35 21 -53.5 57.5t-18.5 82.5q0 48 19.5 85t54 57.5t77.5 20.5q50 0 95 -29.5t94 -83.5q35 38 62.5 62t58 38t64.5 14q45 0 80 -21t55 -58t20 -83q0 -47 -19.5 -84.5t-54.5 -59t-81 -21.5q-49 0 -94.5 29t-90.5 80q-37 -36 -64 -58t-57.5 -35.5t-64.5 -13.5
q-47 0 -82 21zM634 277.5q21 23.5 21 63.5q0 42 -21.5 66t-59.5 24q-33 0 -65 -23.5t-71 -67.5q73 -86 140 -86q35 0 56 23.5zM270 277q35 21 71 63q-81 90 -140 90q-34 0 -55 -25t-21 -64q0 -38 21.5 -61.5t57.5 -23.5q31 0 66 21z" />
    <glyph glyph-name="integral" unicode="&#x222b;" 
d="M186 -127h23q25 0 39 6t20 20t6 39v654q0 81 37 118t118 37h25v-77h-23q-25 0 -39 -6t-20 -20t-6 -39v-654q0 -81 -37 -118t-118 -37h-25v77z" />
    <glyph glyph-name="approxequal" unicode="&#x2248;" 
d="M80.5 452.5q18.5 39.5 50 58.5t72.5 19q28 0 53 -8t44.5 -19t46.5 -29q31 -20 51 -30t40 -10q28 0 44 23t16 73h80q0 -58 -18 -97.5t-50 -59t-73 -19.5q-39 0 -70.5 14.5t-70.5 41.5q-32 21 -52.5 31t-41.5 10q-60 0 -60 -97h-80q0 59 18.5 98.5zM80.5 202.5
q18.5 39.5 50 58.5t72.5 19q28 0 53 -8t44.5 -19t46.5 -29q31 -20 51 -30t40 -10q28 0 44 23t16 73h80q0 -58 -18 -97.5t-50 -59t-73 -19.5q-39 0 -70.5 14.5t-70.5 41.5q-32 21 -52.5 31t-41.5 10q-60 0 -60 -97h-80q0 59 18.5 98.5z" />
    <glyph glyph-name="notequal" unicode="&#x2260;" 
d="M396 379l-62 -139h251v-80h-287l-86 -194l-59 22l77 172h-174v80h209l62 139h-271v80h307l86 193l59 -22l-76 -171h153v-80h-189z" />
    <glyph glyph-name="lessequal" unicode="&#x2264;" 
d="M585 490l-442 -127l442 -126v-90l-529 167v98l529 168v-90zM56 80h529v-80h-529v80z" />
    <glyph glyph-name="greaterequal" unicode="&#x2265;" 
d="M585 412v-98l-529 -167v90l442 126l-442 127v90zM56 80h529v-80h-529v80z" />
    <glyph glyph-name="uni2460" unicode="&#x2460;" horiz-adv-x="1136" 
d="M310 -45.5q-115 63.5 -180.5 175.5t-65.5 252t65.5 252t180.5 175.5t258 63.5q144 0 259 -63.5t180 -175.5t65 -252t-65 -252t-180 -175.5t-259 -63.5q-143 0 -258 63.5zM780.5 24q94.5 53 148 147t53.5 211t-53.5 211t-148 147t-212.5 53t-212.5 -53t-148 -147
t-53.5 -211t53.5 -211t148 -147t212.5 -53t212.5 53zM551 464h-103v59h35q34 0 54 14.5t24 38.5l3 18h64v-427h-77v297z" />
    <glyph glyph-name="uni2461" unicode="&#x2461;" horiz-adv-x="1136" 
d="M310 -45.5q-115 63.5 -180.5 175.5t-65.5 252t65.5 252t180.5 175.5t258 63.5q144 0 259 -63.5t180 -175.5t65 -252t-65 -252t-180 -175.5t-259 -63.5q-143 0 -258 63.5zM780.5 24q94.5 53 148 147t53.5 211t-53.5 211t-148 147t-212.5 53t-212.5 -53t-148 -147
t-53.5 -211t53.5 -211t148 -147t212.5 -53t212.5 53zM433 295q26 45 79 71l85 41q30 15 45.5 32.5t15.5 43.5q0 30 -20.5 47.5t-61.5 17.5q-46 0 -63 -20.5t-19 -61.5h-80q2 69 42.5 109.5t119.5 40.5q48 0 84.5 -15.5t57 -45.5t20.5 -72q0 -45 -25.5 -77t-80.5 -58l-52 -25
q-39 -19 -57 -34t-22 -40h236v-69h-330q0 70 26 115z" />
    <glyph glyph-name="uni2462" unicode="&#x2462;" horiz-adv-x="1136" 
d="M310 -45.5q-115 63.5 -180.5 175.5t-65.5 252t65.5 252t180.5 175.5t258 63.5q144 0 259 -63.5t180 -175.5t65 -252t-65 -252t-180 -175.5t-259 -63.5q-143 0 -258 63.5zM780.5 24q94.5 53 148 147t53.5 211t-53.5 211t-148 147t-212.5 53t-212.5 -53t-148 -147
t-53.5 -211t53.5 -211t148 -147t212.5 -53t212.5 53zM448.5 196q-46.5 37 -46.5 105h80q2 -39 24 -58t70 -19q91 0 91 67q0 32 -23 48.5t-67 16.5h-39v69h39q37 0 56 15t19 44q0 30 -21.5 46t-61.5 16q-41 0 -62.5 -16.5t-23.5 -50.5h-80q0 41 20 71t57.5 45.5t87.5 15.5
q51 0 88 -15t56.5 -42t19.5 -63q0 -35 -18 -60t-50 -34v-2q38 -11 60.5 -38.5t22.5 -67.5q0 -38 -21 -67.5t-59.5 -46t-91.5 -16.5q-80 0 -126.5 37z" />
    <glyph glyph-name="uni2463" unicode="&#x2463;" horiz-adv-x="1136" 
d="M310 -45.5q-115 63.5 -180.5 175.5t-65.5 252t65.5 252t180.5 175.5t258 63.5q144 0 259 -63.5t180 -175.5t65 -252t-65 -252t-180 -175.5t-259 -63.5q-143 0 -258 63.5zM780.5 24q94.5 53 148 147t53.5 211t-53.5 211t-148 147t-212.5 53t-212.5 -53t-148 -147
t-53.5 -211t53.5 -211t148 -147t212.5 -53t212.5 53zM590 278l-207 -2v67l202 264h82v-271l76 2v-62l-76 2v-98h-77v98zM590 517h-4l-135 -179l139 -2v181z" />
    <glyph glyph-name="uni2464" unicode="&#x2464;" horiz-adv-x="1136" 
d="M310 -45.5q-115 63.5 -180.5 175.5t-65.5 252t65.5 252t180.5 175.5t258 63.5q144 0 259 -63.5t180 -175.5t65 -252t-65 -252t-180 -175.5t-259 -63.5q-143 0 -258 63.5zM780.5 24q94.5 53 148 147t53.5 211t-53.5 211t-148 147t-212.5 53t-212.5 -53t-148 -147
t-53.5 -211t53.5 -211t148 -147t212.5 -53t212.5 53zM463 185.5q-44 26.5 -60 77.5l79 17q10 -29 33.5 -42t57.5 -13q45 0 70 21.5t25 59.5q0 39 -25 62t-70 23q-51 0 -79 -31l-80 17l43 226h259v-66h-204l-18 -108l2 -2q38 26 96 26q51 0 86 -19t52.5 -51.5t17.5 -72.5
q0 -42 -19.5 -76.5t-59.5 -54.5t-97 -20q-65 0 -109 26.5z" />
    <glyph glyph-name="uni2465" unicode="&#x2465;" horiz-adv-x="1136" 
d="M310 -45.5q-115 63.5 -180.5 175.5t-65.5 252t65.5 252t180.5 175.5t258 63.5q144 0 259 -63.5t180 -175.5t65 -252t-65 -252t-180 -175.5t-259 -63.5q-143 0 -258 63.5zM780.5 24q94.5 53 148 147t53.5 211t-53.5 211t-148 147t-212.5 53t-212.5 -53t-148 -147
t-53.5 -211t53.5 -211t148 -147t212.5 -53t212.5 53zM442.5 223.5q-44.5 56.5 -44.5 158.5q0 113 46.5 175t136.5 62q57 0 97 -24t56 -65l-76 -21q-10 20 -29.5 32.5t-48.5 12.5q-100 0 -107 -142q19 22 49.5 34t68.5 12q46 0 81 -16.5t54.5 -48.5t19.5 -77t-20 -79
t-58.5 -52t-90.5 -18q-90 0 -134.5 56.5zM644.5 253q23.5 22 23.5 60t-23.5 60t-66.5 22t-69 -21.5t-26 -56.5q0 -42 27 -64t68 -22q43 0 66.5 22z" />
    <glyph glyph-name="uni2466" unicode="&#x2466;" horiz-adv-x="1136" 
d="M310 -45.5q-115 63.5 -180.5 175.5t-65.5 252t65.5 252t180.5 175.5t258 63.5q144 0 259 -63.5t180 -175.5t65 -252t-65 -252t-180 -175.5t-259 -63.5q-143 0 -258 63.5zM780.5 24q94.5 53 148 147t53.5 211t-53.5 211t-148 147t-212.5 53t-212.5 -53t-148 -147
t-53.5 -211t53.5 -211t148 -147t212.5 -53t212.5 53zM542.5 370q41.5 89 112.5 153h-236v66h331v-63q-81 -64 -124 -149.5t-55 -214.5h-81q11 119 52.5 208z" />
    <glyph glyph-name="uni2467" unicode="&#x2467;" horiz-adv-x="1136" 
d="M310 -45.5q-115 63.5 -180.5 175.5t-65.5 252t65.5 252t180.5 175.5t258 63.5q144 0 259 -63.5t180 -175.5t65 -252t-65 -252t-180 -175.5t-259 -63.5q-143 0 -258 63.5zM780.5 24q94.5 53 148 147t53.5 211t-53.5 211t-148 147t-212.5 53t-212.5 -53t-148 -147
t-53.5 -211t53.5 -211t148 -147t212.5 -53t212.5 53zM472.5 181.5q-40.5 15.5 -62.5 45t-22 70.5q0 39 24 68t65 40v2q-32 12 -49.5 35.5t-17.5 56.5q0 35 19 60t55 38.5t84 13.5t84 -13.5t55 -38.5t19 -60q0 -33 -17.5 -56.5t-49.5 -35.5v-2q42 -11 65.5 -39.5t23.5 -68.5
q0 -41 -22 -70.5t-62.5 -45t-95.5 -15.5t-95.5 15.5zM628 447q21 15 21 45q0 29 -21 43.5t-60 14.5t-60 -14.5t-21 -43.5q0 -30 21 -45t60 -15t60 15zM641.5 245.5q25.5 18.5 25.5 55.5q0 36 -25.5 54t-73.5 18t-73.5 -18t-25.5 -54q0 -37 25.5 -55.5t73.5 -18.5t73.5 18.5z
" />
    <glyph glyph-name="uni2468" unicode="&#x2468;" horiz-adv-x="1136" 
d="M310 -45.5q-115 63.5 -180.5 175.5t-65.5 252t65.5 252t180.5 175.5t258 63.5q144 0 259 -63.5t180 -175.5t65 -252t-65 -252t-180 -175.5t-259 -63.5q-143 0 -258 63.5zM780.5 24q94.5 53 148 147t53.5 211t-53.5 211t-148 147t-212.5 53t-212.5 -53t-148 -147
t-53.5 -211t53.5 -211t148 -147t212.5 -53t212.5 53zM469 179q-40 24 -56 65l76 21q10 -20 29.5 -32.5t48.5 -12.5q100 0 107 142q-19 -22 -49.5 -34t-68.5 -12q-46 0 -81 16.5t-54.5 48.5t-19.5 77t20 79t58.5 52t90.5 18q90 0 134.5 -56.5t44.5 -158.5q0 -113 -46.5 -175
t-136.5 -62q-57 0 -97 24zM638 400.5q26 21.5 26 56.5q0 42 -27 64t-68 22q-43 0 -66.5 -22t-23.5 -60t23.5 -60t66.5 -22t69 21.5z" />
    <glyph glyph-name="uni24EA" unicode="&#x24ea;" horiz-adv-x="1136" 
d="M310 -45.5q-115 63.5 -180.5 175.5t-65.5 252t65.5 252t180.5 175.5t258 63.5q144 0 259 -63.5t180 -175.5t65 -252t-65 -252t-180 -175.5t-259 -63.5q-143 0 -258 63.5zM780.5 24q94.5 53 148 147t53.5 211t-53.5 211t-148 147t-212.5 53t-212.5 -53t-148 -147
t-53.5 -211t53.5 -211t148 -147t212.5 -53t212.5 53zM431 217q-47 58 -47 168t47 168t137 58q91 0 138 -58t47 -168t-47 -168t-138 -58q-90 0 -137 58zM645 266.5q25 36.5 25 118.5t-25 118.5t-77 36.5t-76.5 -36.5t-24.5 -118.5q0 -83 24.5 -119t76.5 -36t77 36.5z" />
    <glyph glyph-name="uni24FF" unicode="&#x24ff;" horiz-adv-x="1136" 
d="M310 -45.5q-115 63.5 -180.5 175.5t-65.5 252t65.5 252t180.5 175.5t258 63.5q144 0 259 -63.5t180 -175.5t65 -252t-65 -252t-180 -175.5t-259 -63.5q-143 0 -258 63.5zM706 217q47 58 47 168t-47 168t-138 58q-90 0 -137 -58t-47 -168t47 -168t137 -58q91 0 138 58z
M491.5 266q-24.5 36 -24.5 119q0 82 24.5 118.5t76.5 36.5t77 -36.5t25 -118.5t-25 -118.5t-77 -36.5t-76.5 36z" />
    <glyph glyph-name="filledbox" unicode="&#x25a0;" horiz-adv-x="1078" 
d="M85 800h908v-888h-908v888z" />
    <glyph glyph-name="uni25A1" unicode="&#x25a1;" horiz-adv-x="1078" 
d="M85 800h908v-888h-908v888zM903 -8v728h-728v-728h728z" />
    <glyph glyph-name="lozenge" unicode="&#x25ca;" horiz-adv-x="551" 
d="M508 356l-174 -356h-117l-174 356l174 356h117zM418 356l-143 308l-143 -308l143 -308z" />
    <glyph glyph-name="circle" unicode="&#x25cb;" horiz-adv-x="1136" 
d="M310 -45.5q-115 63.5 -180.5 175.5t-65.5 252t65.5 252t180.5 175.5t258 63.5q144 0 259 -63.5t180 -175.5t65 -252t-65 -252t-180 -175.5t-259 -63.5q-143 0 -258 63.5zM780.5 24q94.5 53 148 147t53.5 211t-53.5 211t-148 147t-212.5 53t-212.5 -53t-148 -147
t-53.5 -211t53.5 -211t148 -147t212.5 -53t212.5 53z" />
    <glyph glyph-name="uni25CF" unicode="&#x25cf;" horiz-adv-x="1136" 
d="M310 -45.5q-115 63.5 -180.5 175.5t-65.5 252t65.5 252t180.5 175.5t258 63.5q144 0 259 -63.5t180 -175.5t65 -252t-65 -252t-180 -175.5t-259 -63.5q-143 0 -258 63.5z" />
    <glyph glyph-name="uni2776" unicode="&#x2776;" horiz-adv-x="1136" 
d="M310 -45.5q-115 63.5 -180.5 175.5t-65.5 252t65.5 252t180.5 175.5t258 63.5q144 0 259 -63.5t180 -175.5t65 -252t-65 -252t-180 -175.5t-259 -63.5q-143 0 -258 63.5zM618 177v427h-64l-3 -18q-4 -24 -24 -38.5t-54 -14.5h-35v-59h103v-297h77z" />
    <glyph glyph-name="uni2777" unicode="&#x2777;" horiz-adv-x="1136" 
d="M827 809.5q115 -63.5 180 -175.5t65 -252t-65 -252t-180 -175.5t-259 -63.5q-143 0 -258 63.5t-180.5 175.5t-65.5 252t65.5 252t180.5 175.5t258 63.5q144 0 259 -63.5zM501 249q4 25 22 40t57 34l52 25q55 26 80.5 58t25.5 77q0 42 -20.5 72t-57 45.5t-84.5 15.5
q-79 0 -119.5 -40.5t-42.5 -109.5h80q2 41 19 61.5t63 20.5q41 0 61.5 -17.5t20.5 -47.5q0 -26 -15.5 -43.5t-45.5 -32.5l-85 -41q-53 -26 -79 -71t-26 -115h330v69h-236z" />
    <glyph glyph-name="uni2778" unicode="&#x2778;" horiz-adv-x="1136" 
d="M310 -45.5q-115 63.5 -180.5 175.5t-65.5 252t65.5 252t180.5 175.5t258 63.5q144 0 259 -63.5t180 -175.5t65 -252t-65 -252t-180 -175.5t-259 -63.5q-143 0 -258 63.5zM660.5 175.5q38.5 16.5 59.5 46t21 67.5q0 40 -22.5 67.5t-60.5 38.5v2q32 9 50 34t18 60
q0 36 -19.5 63t-56.5 42t-88 15q-50 0 -87.5 -15.5t-57.5 -45.5t-20 -71h80q2 34 23.5 50.5t62.5 16.5q40 0 61.5 -16t21.5 -46q0 -29 -19 -44t-56 -15h-39v-69h39q44 0 67 -16.5t23 -48.5q0 -67 -91 -67q-48 0 -70 19t-24 58h-80q0 -68 46.5 -105t126.5 -37q53 0 91.5 16.5
z" />
    <glyph glyph-name="uni2779" unicode="&#x2779;" horiz-adv-x="1136" 
d="M310 -45.5q-115 63.5 -180.5 175.5t-65.5 252t65.5 252t180.5 175.5t258 63.5q144 0 259 -63.5t180 -175.5t65 -252t-65 -252t-180 -175.5t-259 -63.5q-143 0 -258 63.5zM662 182v98l76 -2v62l-76 -2v271h-82l-202 -264v-67l207 2v-98h77zM446 340l135 179h4v-181z" />
    <glyph glyph-name="uni277A" unicode="&#x277a;" horiz-adv-x="1136" 
d="M827 809.5q115 -63.5 180 -175.5t65 -252t-65 -252t-180 -175.5t-259 -63.5q-143 0 -258 63.5t-180.5 175.5t-65.5 252t65.5 252t180.5 175.5t258 63.5q144 0 259 -63.5zM669 177q40 20 59.5 54.5t19.5 76.5q0 40 -17.5 72.5t-52.5 51.5t-86 19q-58 0 -96 -26l-2 2
l18 108h204v66h-259l-43 -226l80 -17q28 31 79 31q45 0 70 -23t25 -62q0 -38 -25 -59.5t-70 -21.5q-34 0 -57.5 13t-33.5 42l-79 -17q16 -51 60 -77.5t109 -26.5q57 0 97 20z" />
    <glyph glyph-name="uni277B" unicode="&#x277b;" horiz-adv-x="1136" 
d="M310 -45.5q-115 63.5 -180.5 175.5t-65.5 252t65.5 252t180.5 175.5t258 63.5q144 0 259 -63.5t180 -175.5t65 -252t-65 -252t-180 -175.5t-259 -63.5q-143 0 -258 63.5zM662.5 185q38.5 18 58.5 52t20 79t-19.5 77t-54.5 48.5t-81 16.5q-38 0 -68.5 -12t-49.5 -34
q7 142 107 142q29 0 48.5 -12.5t29.5 -32.5l76 21q-16 41 -56 65t-97 24q-90 0 -136.5 -62t-46.5 -175q0 -102 44.5 -158.5t134.5 -56.5q52 0 90.5 18zM505 253q-27 22 -27 64q0 35 26 56.5t69 21.5t66.5 -22t23.5 -60t-23.5 -60t-66.5 -22q-41 0 -68 22z" />
    <glyph glyph-name="uni277C" unicode="&#x277c;" horiz-adv-x="1136" 
d="M310 -45.5q-115 63.5 -180.5 175.5t-65.5 252t65.5 252t180.5 175.5t258 63.5q144 0 259 -63.5t180 -175.5t65 -252t-65 -252t-180 -175.5t-259 -63.5q-143 0 -258 63.5zM576 162q12 129 55 214.5t124 149.5v63h-331v-66h236q-71 -64 -112.5 -153t-52.5 -208h81z" />
    <glyph glyph-name="uni277D" unicode="&#x277d;" horiz-adv-x="1136" 
d="M310 -45.5q-115 63.5 -180.5 175.5t-65.5 252t65.5 252t180.5 175.5t258 63.5q144 0 259 -63.5t180 -175.5t65 -252t-65 -252t-180 -175.5t-259 -63.5q-143 0 -258 63.5zM663.5 181.5q40.5 15.5 62.5 45t22 70.5q0 40 -23.5 68.5t-65.5 39.5v2q32 12 49.5 35.5t17.5 56.5
q0 35 -19 60t-55 38.5t-84 13.5t-84 -13.5t-55 -38.5t-19 -60q0 -33 17.5 -56.5t49.5 -35.5v-2q-41 -11 -65 -40t-24 -68q0 -41 22 -70.5t62.5 -45t95.5 -15.5t95.5 15.5zM508 447q-21 15 -21 45q0 29 21 43.5t60 14.5t60 -14.5t21 -43.5q0 -30 -21 -45t-60 -15t-60 15z
M494.5 245.5q-25.5 18.5 -25.5 55.5q0 36 25.5 54t73.5 18t73.5 -18t25.5 -54q0 -37 -25.5 -55.5t-73.5 -18.5t-73.5 18.5z" />
    <glyph glyph-name="uni277E" unicode="&#x277e;" horiz-adv-x="1136" 
d="M310 -45.5q-115 63.5 -180.5 175.5t-65.5 252t65.5 252t180.5 175.5t258 63.5q144 0 259 -63.5t180 -175.5t65 -252t-65 -252t-180 -175.5t-259 -63.5q-143 0 -258 63.5zM704.5 216q46.5 62 46.5 175q0 102 -44.5 158.5t-134.5 56.5q-52 0 -90.5 -18t-58.5 -52t-20 -79
t19.5 -77t54.5 -48.5t81 -16.5q38 0 68.5 12t49.5 34q-7 -142 -107 -142q-29 0 -48.5 12.5t-29.5 32.5l-76 -21q16 -41 56 -65t97 -24q90 0 136.5 62zM504.5 400q-23.5 22 -23.5 60t23.5 60t66.5 22q41 0 68 -22t27 -64q0 -35 -26 -56.5t-69 -21.5t-66.5 22z" />
    <glyph glyph-name="uni2E18" unicode="&#x2e18;" horiz-adv-x="609" 
d="M360 415h-103v101h103v-101zM558 21q-6 -108 -68.5 -169t-182.5 -61q-72 0 -127 23t-85.5 67.5t-30.5 107.5q0 112 102 176l50 31q25 16 36.5 31.5t17 39.5t9.5 73h59l17 -266v-90h-93v90l5 76q-8 -7 -28 -21q-51 -34 -70 -67.5t-19 -70.5q0 -64 42.5 -95t114.5 -31
q82 0 121 40t42 116h88z" />
    <glyph glyph-name="uniF8FF" unicode="&#xf8ff;" horiz-adv-x="985" 
d="M418 674q-14 14 -42 14q-33 0 -55.5 -20t-22.5 -66v-153h-49v380h49v-139q14 20 37 30.5t51 10.5q45 0 70 -25q13 -13 18.5 -29.5t5.5 -42.5v-185h-49v181q0 31 -13 44zM874 449h-49v380h49v-380zM585.5 461.5q-29.5 18.5 -45 51t-15.5 75.5q0 42 15.5 74.5t44.5 50.5
t69 18q59 0 92.5 -37t33.5 -101v-18h-206q2 -46 23.5 -69t59.5 -23q57 0 76 54l45 -5q-13 -43 -45 -66t-78 -23q-40 0 -69.5 18.5zM599.5 670q-21.5 -21 -24.5 -60h159q-5 39 -25 60t-54 21t-55.5 -21zM699.5 155.5q-29.5 18.5 -45 51t-15.5 75.5q0 42 15.5 74.5t44.5 50.5
t69 18q59 0 92.5 -37t33.5 -101v-18h-206q2 -46 23.5 -69t59.5 -23q57 0 76 54l45 -5q-13 -43 -45 -66t-78 -23q-40 0 -69.5 18.5zM587 418h49l-101 -275h-48l-106 275h53l55 -159l8 -24q10 -30 15 -48q5 21 12 42.5t10 29.5zM713.5 364q-21.5 -21 -24.5 -60h159
q-5 39 -25 60t-54 21t-55.5 -21zM285 214h49v-53h-49v53zM238 109v-38l-63 3v-172q0 -16 6 -21.5t21 -5.5h36v-41h-50q-32 0 -47 14.5t-15 46.5v178l-41 -2v38l41 -1v85h49v-85zM851 -166l-8 35q-14 -19 -39 -30.5t-57 -11.5q-42 0 -66.5 21t-24.5 59q0 35 22.5 57t70.5 28
l70 9q11 2 15.5 6.5t4.5 14.5v12q0 22 -15 32.5t-47 10.5q-31 0 -45.5 -11t-16.5 -38h-49q7 89 115 89q52 0 79.5 -21.5t27.5 -65.5v-126q0 -14 3 -30t9 -40h-49zM448 48.5q-20 -26.5 -20 -76.5q0 -49 21 -76.5t60 -27.5q59 0 70 62h46q-8 -49 -38 -76t-81 -27q-59 0 -93 37
t-34 105q0 69 35 108t95 39q48 0 78.5 -25t37.5 -72h-46q-6 28 -23.5 42t-46.5 14q-41 0 -61 -26.5zM285 109h49v-275h-49v275zM797 -126q19 9 30.5 24t11.5 32v38l-82 -12q-53 -8 -53 -47q0 -21 14 -32.5t38 -11.5q22 0 41 9z" />
    <glyph glyph-name="uniFEFF" unicode="&#xfeff;" horiz-adv-x="0" 
 />
    <glyph glyph-name="Adieresis.ss01" horiz-adv-x="716" 
d="M508 209h-302l-77 -209h-99l276 712h105l275 -712h-103zM479 290l-97 270l-23 74l-24 -74l-99 -270h243zM216 807q-17 17 -17 43t17 42.5t43 16.5t43 -16.5t17 -42.5t-17 -43t-43 -17t-43 17zM414 807q-17 17 -17 43t17 42.5t43 16.5t43 -16.5t17 -42.5t-17 -43t-43 -17
t-43 17z" />
    <glyph glyph-name="Cdotaccent.ss01" horiz-adv-x="732" 
d="M215 31q-73 48 -112 132.5t-39 192.5t39.5 192t112 130.5t169.5 46.5q74 0 137 -28t104 -79.5t52 -120.5h-95q-16 70 -67.5 107.5t-126.5 37.5q-71 0 -123 -34.5t-79.5 -99t-27.5 -152.5q0 -89 27.5 -154t79 -100.5t123.5 -35.5q85 0 139 49t67 144h92
q-12 -85 -51.5 -147.5t-103 -95.5t-146.5 -33q-98 0 -171 48zM341 807q-17 17 -17 43t17 42.5t44 16.5q26 0 43 -16.5t17 -42.5t-17 -43t-43 -17q-27 0 -44 17z" />
    <glyph glyph-name="Edieresis.ss01" horiz-adv-x="663" 
d="M598 81v-81h-513v712h504v-81h-411v-224h379v-81h-379v-245h420zM204 807q-17 17 -17 43t17 42.5t43 16.5t43 -16.5t17 -42.5t-17 -43t-43 -17t-43 17zM402 807q-17 17 -17 43t17 42.5t43 16.5t43 -16.5t17 -42.5t-17 -43t-43 -17t-43 17z" />
    <glyph glyph-name="Edotaccent.ss01" horiz-adv-x="663" 
d="M598 81v-81h-513v712h504v-81h-411v-224h379v-81h-379v-245h420zM302 807q-17 17 -17 43t17 42.5t44 16.5q26 0 43 -16.5t17 -42.5t-17 -43t-43 -17q-27 0 -44 17z" />
    <glyph glyph-name="uni0122.ss01" horiz-adv-x="807" 
d="M722 381v-381h-68l-21 96q-37 -54 -96 -83t-136 -29q-98 0 -174.5 45t-119.5 130t-43 199q0 111 41 194.5t118.5 129.5t183.5 46q81 0 145 -27t105 -77t52 -118l-90 -6q-15 73 -71 109t-136 36q-81 0 -137.5 -35t-86 -100t-29.5 -155q0 -86 29 -151t84 -101t131 -36
q91 0 149.5 51.5t77.5 142.5v39h-216v81h308zM444.5 -73.5q17.5 -17.5 17.5 -55.5v-29q0 -87 -103 -87h-11v39h25q23 0 36 10.5t13 29.5v16q-9 -4 -25 -4q-29 0 -44 13t-15 36t15.5 36t42.5 13q31 0 48.5 -17.5z" />
    <glyph glyph-name="Gdotaccent.ss01" horiz-adv-x="807" 
d="M722 381v-381h-68l-21 96q-37 -54 -96 -83t-136 -29q-98 0 -174.5 45t-119.5 130t-43 199q0 111 41 194.5t118.5 129.5t183.5 46q81 0 145 -27t105 -77t52 -118l-90 -6q-15 73 -71 109t-136 36q-81 0 -137.5 -35t-86 -100t-29.5 -155q0 -86 29 -151t84 -101t131 -36
q91 0 149.5 51.5t77.5 142.5v39h-216v81h308zM363 807q-17 17 -17 43t17 42.5t44 16.5q26 0 43 -16.5t17 -42.5t-17 -43t-43 -17q-27 0 -44 17z" />
    <glyph glyph-name="Idieresis.ss01" horiz-adv-x="263" 
d="M-10 807q-17 17 -17 43t17 42.5t43 16.5t43 -16.5t17 -42.5t-17 -43t-43 -17t-43 17zM188 807q-17 17 -17 43t17 42.5t43 16.5t43 -16.5t17 -42.5t-17 -43t-43 -17t-43 17zM85 712h93v-712h-93v712z" />
    <glyph glyph-name="Idotaccent.ss01" horiz-adv-x="263" 
d="M88 807q-17 17 -17 43t17 42.5t44 16.5q26 0 43 -16.5t17 -42.5t-17 -43t-43 -17q-27 0 -44 17zM85 712h93v-712h-93v712z" />
    <glyph glyph-name="uni0136.ss01" horiz-adv-x="714" 
d="M298 366l-120 -117v-249h-93v712h93v-349l362 349h124l-301 -287l321 -425h-116zM396.5 -73.5q17.5 -17.5 17.5 -55.5v-29q0 -87 -103 -87h-11v39h25q23 0 36 10.5t13 29.5v16q-9 -4 -25 -4q-29 0 -44 13t-15 36t15.5 36t42.5 13q31 0 48.5 -17.5z" />
    <glyph glyph-name="uni013B.ss01" horiz-adv-x="594" 
d="M549 81v-81h-464v712h93v-631h371zM367.5 -73.5q17.5 -17.5 17.5 -55.5v-29q0 -87 -103 -87h-11v39h25q23 0 36 10.5t13 29.5v16q-9 -4 -25 -4q-29 0 -44 13t-15 36t15.5 36t42.5 13q31 0 48.5 -17.5z" />
    <glyph glyph-name="Ldot.ss01" horiz-adv-x="594" 
d="M549 81v-81h-464v712h93v-631h371zM328 326q-18 17 -18 44t18 44t46 17t46 -17t18 -44t-18 -44t-46 -17t-46 17z" />
    <glyph glyph-name="uni0145.ss01" horiz-adv-x="736" 
d="M651 712v-712h-106l-372 578v-578h-88v712h103l375 -581v581h88zM418.5 -73.5q17.5 -17.5 17.5 -55.5v-29q0 -87 -103 -87h-11v39h25q23 0 36 10.5t13 29.5v16q-9 -4 -25 -4q-29 0 -44 13t-15 36t15.5 36t42.5 13q31 0 48.5 -17.5z" />
    <glyph glyph-name="Odieresis.ss01" horiz-adv-x="801" 
d="M225.5 30.5q-76.5 47.5 -119 132.5t-42.5 193q0 107 42.5 191t119 131t174.5 47q99 0 175.5 -47t119 -131t42.5 -191q0 -109 -42.5 -193.5t-119 -132t-175.5 -47.5q-98 0 -174.5 47.5zM526.5 101.5q54.5 35.5 85 101t30.5 153.5q0 86 -30.5 151t-85.5 100t-125 35
q-71 0 -126 -35t-85.5 -100t-30.5 -151q0 -87 30.5 -153t85.5 -101.5t126 -35.5t125.5 35.5zM258 807q-17 17 -17 43t17 42.5t43 16.5t43 -16.5t17 -42.5t-17 -43t-43 -17t-43 17zM456 807q-17 17 -17 43t17 42.5t43 16.5t43 -16.5t17 -42.5t-17 -43t-43 -17t-43 17z" />
    <glyph glyph-name="uni0156.ss01" horiz-adv-x="716" 
d="M641 0h-94l-21 190q-5 42 -19 67.5t-40.5 37.5t-68.5 12h-220v-307h-93v712h330q67 0 116.5 -23t75.5 -65.5t26 -99.5q0 -68 -34.5 -115t-92.5 -63q47 -9 75.5 -39.5t33.5 -79.5zM497 421.5q41 33.5 41 93.5q0 56 -36 86t-103 30h-221v-243h205q73 0 114 33.5z
M407.5 -73.5q17.5 -17.5 17.5 -55.5v-29q0 -87 -103 -87h-11v39h25q23 0 36 10.5t13 29.5v16q-9 -4 -25 -4q-29 0 -44 13t-15 36t15.5 36t42.5 13q31 0 48.5 -17.5z" />
    <glyph glyph-name="uni0218.ss01" horiz-adv-x="668" 
d="M134 46.5q-74 61.5 -83 184.5h89q7 -88 59 -129t146 -41q90 0 136 34.5t46 96.5q0 34 -15 58t-47.5 40.5t-88.5 28.5l-100 21q-96 20 -148 63t-52 123q0 60 29.5 106t86.5 71t137 25q79 0 136.5 -25t91 -73t38.5 -117h-89q-6 68 -52 103.5t-128 35.5q-77 0 -119.5 -31
t-42.5 -87q0 -43 29 -68.5t95 -39.5l125 -27q101 -21 152.5 -70.5t51.5 -131.5q0 -60 -28.5 -107.5t-90.5 -76t-156 -28.5q-134 0 -208 61.5zM386.5 -80.5q17.5 -17.5 17.5 -55.5v-29q0 -87 -103 -87h-11v39h25q23 0 36 10.5t13 29.5v16q-9 -4 -25 -4q-29 0 -44 13t-15 36
t15.5 36t42.5 13q31 0 48.5 -17.5z" />
    <glyph glyph-name="uni021A.ss01" horiz-adv-x="639" 
d="M604 631h-238v-631h-93v631h-238v81h569v-81zM364.5 -73.5q17.5 -17.5 17.5 -55.5v-29q0 -87 -103 -87h-11v39h25q23 0 36 10.5t13 29.5v16q-9 -4 -25 -4q-29 0 -44 13t-15 36t15.5 36t42.5 13q31 0 48.5 -17.5z" />
    <glyph glyph-name="Udieresis.ss01" horiz-adv-x="720" 
d="M212 12q-62 28 -94.5 82t-32.5 131v487h93v-490q0 -74 45.5 -114.5t136.5 -40.5t136.5 40.5t45.5 114.5v490h93v-487q0 -77 -32.5 -131t-94.5 -82t-148 -28t-148 28zM218 807q-17 17 -17 43t17 42.5t43 16.5t43 -16.5t17 -42.5t-17 -43t-43 -17t-43 17zM416 807
q-17 17 -17 43t17 42.5t43 16.5t43 -16.5t17 -42.5t-17 -43t-43 -17t-43 17z" />
    <glyph glyph-name="Wdieresis.ss01" horiz-adv-x="955" 
d="M925 712l-198 -712h-89l-165 616l-164 -616h-89l-190 712h95l106 -425l35 -160l39 160l116 425h105l115 -425l38 -161l38 161l113 425h95zM336 807q-17 17 -17 43t17 42.5t43 16.5t43 -16.5t17 -42.5t-17 -43t-43 -17t-43 17zM534 807q-17 17 -17 43t17 42.5t43 16.5
t43 -16.5t17 -42.5t-17 -43t-43 -17t-43 17z" />
    <glyph glyph-name="Ydieresis.ss01" horiz-adv-x="684" 
d="M663 712l-270 -420v-292h-93v292l-279 420h112l183 -292l31 -53l31 53l179 292h106zM200 807q-17 17 -17 43t17 42.5t43 16.5t43 -16.5t17 -42.5t-17 -43t-43 -17t-43 17zM398 807q-17 17 -17 43t17 42.5t43 16.5t43 -16.5t17 -42.5t-17 -43t-43 -17t-43 17z" />
    <glyph glyph-name="Zdotaccent.ss01" horiz-adv-x="675" 
d="M615 83v-83h-556v90l422 539h-395v83h514v-74l-433 -555h448zM294 807q-17 17 -17 43t17 42.5t44 16.5q26 0 43 -16.5t17 -42.5t-17 -43t-43 -17q-27 0 -44 17z" />
    <glyph glyph-name="G.ss03" horiz-adv-x="807" 
d="M743 384v-36q0 -113 -41 -195t-116 -125.5t-176 -43.5q-104 0 -182.5 47t-121 131.5t-42.5 195.5t42.5 194.5t121 129.5t182.5 46q82 0 148.5 -28t110 -79.5t59.5 -121.5h-94q-13 46 -45.5 79t-79 50t-101.5 17q-73 0 -129 -32t-88 -96.5t-32 -158.5q0 -89 30.5 -155
t87.5 -101t133 -35q104 0 168 57.5t73 172.5h-243v87h335z" />
    <glyph glyph-name="uni01F4.ss03" horiz-adv-x="807" 
d="M743 384v-36q0 -113 -41 -195t-116 -125.5t-176 -43.5q-104 0 -182.5 47t-121 131.5t-42.5 195.5t42.5 194.5t121 129.5t182.5 46q82 0 148.5 -28t110 -79.5t59.5 -121.5h-94q-13 46 -45.5 79t-79 50t-101.5 17q-73 0 -129 -32t-88 -96.5t-32 -158.5q0 -89 30.5 -155
t87.5 -101t133 -35q104 0 168 57.5t73 172.5h-243v87h335zM434 932h126l-133 -155h-81z" />
    <glyph glyph-name="Gbreve.ss03" horiz-adv-x="807" 
d="M743 384v-36q0 -113 -41 -195t-116 -125.5t-176 -43.5q-104 0 -182.5 47t-121 131.5t-42.5 195.5t42.5 194.5t121 129.5t182.5 46q82 0 148.5 -28t110 -79.5t59.5 -121.5h-94q-13 46 -45.5 79t-79 50t-101.5 17q-73 0 -129 -32t-88 -96.5t-32 -158.5q0 -89 30.5 -155
t87.5 -101t133 -35q104 0 168 57.5t73 172.5h-243v87h335zM250 916h61q1 -38 27 -57.5t72 -19.5t72 19.5t27 57.5h61q-3 -65 -42 -101t-119 -36q-152 0 -159 137z" />
    <glyph glyph-name="Gcircumflex.ss03" horiz-adv-x="807" 
d="M743 384v-36q0 -113 -41 -195t-116 -125.5t-176 -43.5q-104 0 -182.5 47t-121 131.5t-42.5 195.5t42.5 194.5t121 129.5t182.5 46q82 0 148.5 -28t110 -79.5t59.5 -121.5h-94q-13 46 -45.5 79t-79 50t-101.5 17q-73 0 -129 -32t-88 -96.5t-32 -158.5q0 -89 30.5 -155
t87.5 -101t133 -35q104 0 168 57.5t73 172.5h-243v87h335zM362 932h96l118 -155h-96l-70 100l-70 -100h-96z" />
    <glyph glyph-name="uni0122.ss03" horiz-adv-x="807" 
d="M743 384v-36q0 -113 -41 -195t-116 -125.5t-176 -43.5q-104 0 -182.5 47t-121 131.5t-42.5 195.5t42.5 194.5t121 129.5t182.5 46q82 0 148.5 -28t110 -79.5t59.5 -121.5h-94q-13 46 -45.5 79t-79 50t-101.5 17q-73 0 -129 -32t-88 -96.5t-32 -158.5q0 -89 30.5 -155
t87.5 -101t133 -35q104 0 168 57.5t73 172.5h-243v87h335zM459 -66v-96q0 -83 -77 -83h-34v39h34q38 0 38 36v32l-72 -5v77h111z" />
    <glyph glyph-name="Gdotaccent.ss03" horiz-adv-x="807" 
d="M743 384v-36q0 -113 -41 -195t-116 -125.5t-176 -43.5q-104 0 -182.5 47t-121 131.5t-42.5 195.5t42.5 194.5t121 129.5t182.5 46q82 0 148.5 -28t110 -79.5t59.5 -121.5h-94q-13 46 -45.5 79t-79 50t-101.5 17q-73 0 -129 -32t-88 -96.5t-32 -158.5q0 -89 30.5 -155
t87.5 -101t133 -35q104 0 168 57.5t73 172.5h-243v87h335zM364 899h92v-99h-92v99z" />
    <glyph glyph-name="uni0122.ss01.ss03" horiz-adv-x="807" 
d="M743 384v-36q0 -113 -41 -195t-116 -125.5t-176 -43.5q-104 0 -182.5 47t-121 131.5t-42.5 195.5t42.5 194.5t121 129.5t182.5 46q82 0 148.5 -28t110 -79.5t59.5 -121.5h-94q-13 46 -45.5 79t-79 50t-101.5 17q-73 0 -129 -32t-88 -96.5t-32 -158.5q0 -89 30.5 -155
t87.5 -101t133 -35q104 0 168 57.5t73 172.5h-243v87h335zM448.5 -73.5q17.5 -17.5 17.5 -55.5v-29q0 -87 -103 -87h-11v39h25q23 0 36 10.5t13 29.5v16q-9 -4 -25 -4q-29 0 -44 13t-15 36t15.5 36t42.5 13q31 0 48.5 -17.5z" />
    <glyph glyph-name="Gdotaccent.ss01.ss03" horiz-adv-x="807" 
d="M743 384v-36q0 -113 -41 -195t-116 -125.5t-176 -43.5q-104 0 -182.5 47t-121 131.5t-42.5 195.5t42.5 194.5t121 129.5t182.5 46q82 0 148.5 -28t110 -79.5t59.5 -121.5h-94q-13 46 -45.5 79t-79 50t-101.5 17q-73 0 -129 -32t-88 -96.5t-32 -158.5q0 -89 30.5 -155
t87.5 -101t133 -35q104 0 168 57.5t73 172.5h-243v87h335zM366 807q-17 17 -17 43t17 42.5t44 16.5q26 0 43 -16.5t17 -42.5t-17 -43t-43 -17q-27 0 -44 17z" />
    <glyph glyph-name="R.ss04" horiz-adv-x="674" 
d="M342 288h-164v-288h-93v712h296q76 0 129 -28t80 -76t27 -108q0 -52 -20 -95t-59.5 -72.5t-96.5 -39.5l198 -293h-104zM178 369h201q70 0 106.5 35.5t36.5 95.5t-36.5 95.5t-106.5 35.5h-201v-262z" />
    <glyph glyph-name="Racute.ss04" horiz-adv-x="674" 
d="M342 288h-164v-288h-93v712h296q76 0 129 -28t80 -76t27 -108q0 -52 -20 -95t-59.5 -72.5t-96.5 -39.5l198 -293h-104zM178 369h201q70 0 106.5 35.5t36.5 95.5t-36.5 95.5t-106.5 35.5h-201v-262zM354 932h126l-133 -155h-81z" />
    <glyph glyph-name="Rcaron.ss04" horiz-adv-x="674" 
d="M342 288h-164v-288h-93v712h296q76 0 129 -28t80 -76t27 -108q0 -52 -20 -95t-59.5 -72.5t-96.5 -39.5l198 -293h-104zM178 369h201q70 0 106.5 35.5t36.5 95.5t-36.5 95.5t-106.5 35.5h-201v-262zM164 945h96l70 -100l70 100h96l-118 -155h-96z" />
    <glyph glyph-name="uni0156.ss04" horiz-adv-x="674" 
d="M342 288h-164v-288h-93v712h296q76 0 129 -28t80 -76t27 -108q0 -52 -20 -95t-59.5 -72.5t-96.5 -39.5l198 -293h-104zM178 369h201q70 0 106.5 35.5t36.5 95.5t-36.5 95.5t-106.5 35.5h-201v-262zM386 -66v-96q0 -83 -77 -83h-34v39h34q38 0 38 36v32l-72 -5v77h111z
" />
    <glyph glyph-name="uni0156.ss01.ss04" horiz-adv-x="674" 
d="M342 288h-164v-288h-93v712h296q76 0 129 -28t80 -76t27 -108q0 -52 -20 -95t-59.5 -72.5t-96.5 -39.5l198 -293h-104zM178 369h201q70 0 106.5 35.5t36.5 95.5t-36.5 95.5t-106.5 35.5h-201v-262zM374.5 -73.5q17.5 -17.5 17.5 -55.5v-29q0 -87 -103 -87h-11v39h25
q23 0 36 10.5t13 29.5v16q-9 -4 -25 -4q-29 0 -44 13t-15 36t15.5 36t42.5 13q31 0 48.5 -17.5z" />
    <glyph glyph-name="i.loclTRK" horiz-adv-x="252" 
d="M80 712h92v-99h-92v99zM80 516h92v-516h-92v516z" />
    <glyph glyph-name="adieresis.ss01" horiz-adv-x="570" 
d="M550 68v-68h-49q-83 0 -89 76q-26 -40 -75 -64.5t-112 -24.5q-52 0 -91.5 18t-60.5 51.5t-21 80.5q0 66 42.5 107.5t133.5 53.5l132 17q19 2 28 11.5t9 27.5v22q0 41 -28 60.5t-88 19.5q-57 0 -85 -20.5t-32 -71.5h-91q7 85 61 126.5t154 41.5q98 0 150 -41t52 -124v-254
q0 -25 10 -35t35 -10h15zM318.5 75q35.5 17 57 45.5t21.5 60.5v72l-154 -23q-52 -8 -76 -30.5t-24 -58.5q0 -39 26.5 -61t72.5 -22q41 0 76.5 17zM146 619q-17 17 -17 43t17 42.5t43 16.5t43 -16.5t17 -42.5t-17 -43t-43 -17t-43 17zM344 619q-17 17 -17 43t17 42.5t43 16.5
t43 -16.5t17 -42.5t-17 -43t-43 -17t-43 17z" />
    <glyph glyph-name="cdotaccent.ss01" horiz-adv-x="557" 
d="M163 17.5q-54 30.5 -83.5 91t-29.5 145.5q0 86 30 148t85 94.5t129 32.5q90 0 147.5 -47t70.5 -135h-87q-21 105 -130 105q-77 0 -115 -50.5t-38 -143.5q0 -92 39.5 -143t112.5 -51q56 0 88.5 30t43.5 86h86q-14 -92 -70.5 -142.5t-152.5 -50.5q-72 0 -126 30.5zM250 619
q-17 17 -17 43t17 42.5t44 16.5q26 0 43 -16.5t17 -42.5t-17 -43t-43 -17q-27 0 -44 17z" />
    <glyph glyph-name="edieresis.ss01" horiz-adv-x="579" 
d="M529 236h-387q2 -85 43.5 -129t112.5 -44q55 0 90 26.5t53 76.5l84 -10q-24 -80 -84.5 -124t-145.5 -44q-76 0 -131 34.5t-84.5 96t-29.5 141.5q0 79 29 139.5t83.5 94.5t130.5 34q72 0 125.5 -31t82 -89t28.5 -138v-34zM190.5 414.5q-40.5 -38.5 -47.5 -112.5h300
q-9 73 -47.5 112t-101.5 39t-103.5 -38.5zM151 619q-17 17 -17 43t17 42.5t43 16.5t43 -16.5t17 -42.5t-17 -43t-43 -17t-43 17zM349 619q-17 17 -17 43t17 42.5t43 16.5t43 -16.5t17 -42.5t-17 -43t-43 -17t-43 17z" />
    <glyph glyph-name="edotaccent.ss01" horiz-adv-x="579" 
d="M529 236h-387q2 -85 43.5 -129t112.5 -44q55 0 90 26.5t53 76.5l84 -10q-24 -80 -84.5 -124t-145.5 -44q-76 0 -131 34.5t-84.5 96t-29.5 141.5q0 79 29 139.5t83.5 94.5t130.5 34q72 0 125.5 -31t82 -89t28.5 -138v-34zM190.5 414.5q-40.5 -38.5 -47.5 -112.5h300
q-9 73 -47.5 112t-101.5 39t-103.5 -38.5zM249 619q-17 17 -17 43t17 42.5t44 16.5q26 0 43 -16.5t17 -42.5t-17 -43t-43 -17q-27 0 -44 17z" />
    <glyph glyph-name="uni0123.ss01" horiz-adv-x="606" 
d="M526 516v-499q0 -120 -63.5 -176.5t-178.5 -56.5q-93 0 -150.5 37.5t-67.5 113.5h90q10 -42 42 -60t89 -18q54 0 86.5 15.5t48 48.5t15.5 87v67q-25 -39 -67.5 -62.5t-94.5 -23.5q-69 0 -120 35.5t-78 98.5t-27 143q0 77 28.5 136.5t79 92t115.5 32.5q56 0 99.5 -24.5
t67.5 -66.5v80h86zM361 91.5q34 23.5 53.5 68t19.5 104.5q0 59 -19 100.5t-52 62.5t-77 21q-68 0 -106 -47t-38 -135q0 -60 17 -104.5t49 -69t76 -24.5q43 0 77 23.5zM315 688q15 -13 15 -36t-15.5 -36t-42.5 -13q-30 0 -47.5 17.5t-17.5 55.5v29q0 87 102 87h11v-39h-25
q-22 0 -35 -10.5t-13 -29.5v-16q9 4 24 4q29 0 44 -13z" />
    <glyph glyph-name="gdotaccent.ss01" horiz-adv-x="606" 
d="M526 516v-499q0 -120 -63.5 -176.5t-178.5 -56.5q-93 0 -150.5 37.5t-67.5 113.5h90q10 -42 42 -60t89 -18q54 0 86.5 15.5t48 48.5t15.5 87v67q-25 -39 -67.5 -62.5t-94.5 -23.5q-69 0 -120 35.5t-78 98.5t-27 143q0 77 28.5 136.5t79 92t115.5 32.5q56 0 99.5 -24.5
t67.5 -66.5v80h86zM361 91.5q34 23.5 53.5 68t19.5 104.5q0 59 -19 100.5t-52 62.5t-77 21q-68 0 -106 -47t-38 -135q0 -60 17 -104.5t49 -69t76 -24.5q43 0 77 23.5zM229 619q-17 17 -17 43t17 42.5t44 16.5q26 0 43 -16.5t17 -42.5t-17 -43t-43 -17q-27 0 -44 17z" />
    <glyph glyph-name="i.ss01" horiz-adv-x="252" 
d="M83 621q-17 17 -17 43t17 42.5t44 16.5q26 0 43 -16.5t17 -42.5t-17 -43t-43 -17q-27 0 -44 17zM81 516h92v-516h-92v516z" />
    <glyph glyph-name="idieresis.ss01" horiz-adv-x="252" 
d="M-16 619q-17 17 -17 43t17 42.5t43 16.5t43 -16.5t17 -42.5t-17 -43t-43 -17t-43 17zM182 619q-17 17 -17 43t17 42.5t43 16.5t43 -16.5t17 -42.5t-17 -43t-43 -17t-43 17zM80 516h92v-516h-92v516z" />
    <glyph glyph-name="i.loclTRK.ss01" horiz-adv-x="252" 
d="M83 621q-17 17 -17 43t17 42.5t44 16.5q26 0 43 -16.5t17 -42.5t-17 -43t-43 -17q-27 0 -44 17zM81 516h92v-516h-92v516z" />
    <glyph glyph-name="ij.ss01" horiz-adv-x="504" 
d="M83 621q-17 17 -17 43t17 42.5t44 16.5q26 0 43 -16.5t17 -42.5t-17 -43t-43 -17q-27 0 -44 17zM81 516h92v-516h-92v516zM335 620q-17 17 -17 43t17 42.5t44 16.5q26 0 43 -16.5t17 -42.5t-17 -43t-43 -17q-27 0 -44 17zM245 -127h23q25 0 39 6t20 20t6 39v578h92v-565
q0 -81 -37 -118t-118 -37h-25v77z" />
    <glyph glyph-name="iogonek.ss01" horiz-adv-x="252" 
d="M82 619q-17 17 -17 43t17 42.5t44 16.5q26 0 43 -16.5t17 -42.5t-17 -43t-43 -17q-27 0 -44 17zM80 516h92v-516l-54 -52q-16 -16 -22 -25.5t-6 -22.5q0 -36 50 -36h32v-65h-45q-62 0 -91.5 23t-29.5 62q0 20 7.5 35.5t23 31t44.5 38.5l14 11h-15v516z" />
    <glyph glyph-name="j.ss01" horiz-adv-x="252" 
d="M83 620q-17 17 -17 43t17 42.5t44 16.5q26 0 43 -16.5t17 -42.5t-17 -43t-43 -17q-27 0 -44 17zM-7 -127h23q25 0 39 6t20 20t6 39v578h92v-565q0 -81 -37 -118t-118 -37h-25v77z" />
    <glyph glyph-name="uni0137.ss01" horiz-adv-x="563" 
d="M247 269l-75 -68v-201h-92v712h92v-416l228 220h116l-206 -190l221 -326h-108zM317.5 -73.5q17.5 -17.5 17.5 -55.5v-29q0 -87 -103 -87h-11v39h25q23 0 36 10.5t13 29.5v16q-9 -4 -25 -4q-29 0 -44 13t-15 36t15.5 36t42.5 13q31 0 48.5 -17.5z" />
    <glyph glyph-name="uni013C.ss01" horiz-adv-x="252" 
d="M80 712h92v-712h-92v712zM170.5 -73.5q17.5 -17.5 17.5 -55.5v-29q0 -87 -103 -87h-11v39h25q23 0 36 10.5t13 29.5v16q-9 -4 -25 -4q-29 0 -44 13t-15 36t15.5 36t42.5 13q31 0 48.5 -17.5z" />
    <glyph glyph-name="ldot.ss01" horiz-adv-x="394" 
d="M80 712h92v-712h-92v712zM259 311q-18 17 -18 44t18 44t46 17t46 -17t18 -44t-18 -44t-46 -17t-46 17z" />
    <glyph glyph-name="napostrophe.ss01" horiz-adv-x="874" 
d="M212 699.5q18 -19.5 18 -57.5v-65q0 -108 -99 -108h-10v50h10q47 0 47 47v31h-14q-31 0 -50 17t-19 44t19 44t50 17q30 0 48 -19.5zM712.5 509q39.5 -20 60.5 -58.5t21 -92.5v-358h-92v340q0 109 -103 109q-39 0 -72 -15.5t-54 -52t-21 -94.5v-287h-92v516h86v-73
q26 41 71 63.5t102 22.5q54 0 93.5 -20z" />
    <glyph glyph-name="uni0146.ss01" horiz-adv-x="594" 
d="M432.5 509q39.5 -20 60.5 -58.5t21 -92.5v-358h-92v340q0 109 -103 109q-39 0 -72 -15.5t-54 -52t-21 -94.5v-287h-92v516h86v-73q26 41 71 63.5t102 22.5q54 0 93.5 -20zM333.5 -73.5q17.5 -17.5 17.5 -55.5v-29q0 -87 -103 -87h-11v39h25q23 0 36 10.5t13 29.5v16
q-9 -4 -25 -4q-29 0 -44 13t-15 36t15.5 36t42.5 13q31 0 48.5 -17.5z" />
    <glyph glyph-name="odieresis.ss01" horiz-adv-x="597" 
d="M168.5 21q-56.5 34 -87.5 95.5t-31 141.5q0 82 31.5 143.5t88.5 94.5t131 33q72 0 127.5 -32.5t87 -93t31.5 -141.5q0 -80 -32 -142.5t-88.5 -97.5t-128.5 -35q-73 0 -129.5 34zM382.5 89q35.5 25 54 69.5t18.5 103.5q0 58 -18.5 101t-54 66t-84.5 23q-48 0 -83.5 -24
t-54 -68t-18.5 -102t19 -102t54 -68t83 -24q49 0 84.5 25zM159 619q-17 17 -17 43t17 42.5t43 16.5t43 -16.5t17 -42.5t-17 -43t-43 -17t-43 17zM357 619q-17 17 -17 43t17 42.5t43 16.5t43 -16.5t17 -42.5t-17 -43t-43 -17t-43 17z" />
    <glyph glyph-name="uni0157.ss01" horiz-adv-x="368" 
d="M353 529v-90q-11 1 -33 1q-35 0 -68.5 -18t-55.5 -54t-24 -86v-282h-92v516h86v-104q26 56 67.5 87t100.5 31q13 0 19 -1zM170.5 -73.5q17.5 -17.5 17.5 -55.5v-29q0 -87 -103 -87h-11v39h25q23 0 36 10.5t13 29.5v16q-9 -4 -25 -4q-29 0 -44 13t-15 36t15.5 36t42.5 13
q31 0 48.5 -17.5z" />
    <glyph glyph-name="uni0219.ss01" horiz-adv-x="505" 
d="M40 163h88q7 -53 39 -77.5t92 -24.5q61 0 92 21.5t31 59.5q0 30 -20 48.5t-61 26.5l-104 22q-74 16 -108.5 50.5t-34.5 89.5q0 45 21.5 78.5t65 52t105.5 18.5q90 0 145 -40.5t65 -121.5h-91q-8 45 -37.5 67t-84.5 22q-50 0 -77 -17t-27 -51q0 -26 18 -43t62 -26l100 -22
q79 -18 115 -53.5t36 -92.5q0 -50 -25.5 -87t-74 -56.5t-115.5 -19.5q-197 0 -215 176zM299.5 -73.5q17.5 -17.5 17.5 -55.5v-29q0 -87 -103 -87h-11v39h25q23 0 36 10.5t13 29.5v16q-9 -4 -25 -4q-29 0 -44 13t-15 36t15.5 36t42.5 13q31 0 48.5 -17.5z" />
    <glyph glyph-name="uni021B.ss01" horiz-adv-x="357" 
d="M209 127q0 -28 11 -39t39 -11h67v-77h-94q-60 0 -87.5 27.5t-27.5 87.5v334l-77 -4v71l77 -3v161h92v-162l118 4v-71l-118 4v-322zM208.5 -64.5q17.5 -17.5 17.5 -55.5v-29q0 -87 -103 -87h-11v39h25q23 0 36 10.5t13 29.5v16q-9 -4 -25 -4q-29 0 -44 13t-15 36t15.5 36
t42.5 13q31 0 48.5 -17.5z" />
    <glyph glyph-name="udieresis.ss01" horiz-adv-x="594" 
d="M514 516v-516h-86v73q-26 -41 -71 -63.5t-102 -22.5q-54 0 -93.5 20t-60.5 58.5t-21 92.5v358h92v-340q0 -109 103 -109q39 0 72 15.5t54 52t21 94.5v287h92zM155 619q-17 17 -17 43t17 42.5t43 16.5t43 -16.5t17 -42.5t-17 -43t-43 -17t-43 17zM353 619q-17 17 -17 43
t17 42.5t43 16.5t43 -16.5t17 -42.5t-17 -43t-43 -17t-43 17z" />
    <glyph glyph-name="wdieresis.ss01" horiz-adv-x="772" 
d="M747 516l-168 -516h-92l-73 308l-26 130l-28 -130l-78 -308h-94l-163 516h100l81 -298l31 -123l27 123l74 298h100l74 -298l25 -123l30 123l85 298h95zM244 619q-17 17 -17 43t17 42.5t43 16.5t43 -16.5t17 -42.5t-17 -43t-43 -17t-43 17zM442 619q-17 17 -17 43t17 42.5
t43 16.5t43 -16.5t17 -42.5t-17 -43t-43 -17t-43 17z" />
    <glyph glyph-name="ydieresis.ss01" horiz-adv-x="539" 
d="M514 516l-240 -617q-16 -40 -34.5 -62t-44 -31.5t-63.5 -9.5h-57v77h48q24 0 39 6t25.5 20.5t21.5 42.5l24 63l-208 511h100l134 -356l11 -62l149 418h95zM128 619q-17 17 -17 43t17 42.5t43 16.5t43 -16.5t17 -42.5t-17 -43t-43 -17t-43 17zM326 619q-17 17 -17 43
t17 42.5t43 16.5t43 -16.5t17 -42.5t-17 -43t-43 -17t-43 17z" />
    <glyph glyph-name="zdotaccent.ss01" horiz-adv-x="531" 
d="M481 74v-74h-431v65l299 377h-286v74h401v-56l-306 -386h323zM222 619q-17 17 -17 43t17 42.5t44 16.5q26 0 43 -16.5t17 -42.5t-17 -43t-43 -17q-27 0 -44 17z" />
    <glyph glyph-name="a.ss02" horiz-adv-x="602" 
d="M522 516v-516h-76l-2 80q-25 -44 -66 -68t-96 -24q-70 0 -122.5 33.5t-81 94t-28.5 139.5q0 82 29 144t82 95.5t122 33.5q111 0 159 -80l4 68h76zM369 84q34 24 51.5 68.5t17.5 105.5t-18 105.5t-52 68.5t-80 24q-73 0 -111.5 -52.5t-38.5 -145.5q0 -94 38 -146t112 -52
q47 0 81 24z" />
    <glyph glyph-name="aacute.ss02" horiz-adv-x="602" 
d="M522 516v-516h-76l-2 80q-25 -44 -66 -68t-96 -24q-70 0 -122.5 33.5t-81 94t-28.5 139.5q0 82 29 144t82 95.5t122 33.5q111 0 159 -80l4 68h76zM369 84q34 24 51.5 68.5t17.5 105.5t-18 105.5t-52 68.5t-80 24q-73 0 -111.5 -52.5t-38.5 -145.5q0 -94 38 -146t112 -52
q47 0 81 24zM322 736h126l-133 -155h-81z" />
    <glyph glyph-name="abreve.ss02" horiz-adv-x="602" 
d="M522 516v-516h-76l-2 80q-25 -44 -66 -68t-96 -24q-70 0 -122.5 33.5t-81 94t-28.5 139.5q0 82 29 144t82 95.5t122 33.5q111 0 159 -80l4 68h76zM369 84q34 24 51.5 68.5t17.5 105.5t-18 105.5t-52 68.5t-80 24q-73 0 -111.5 -52.5t-38.5 -145.5q0 -94 38 -146t112 -52
q47 0 81 24zM138 720h61q1 -38 27 -57.5t72 -19.5t72 19.5t27 57.5h61q-3 -65 -42 -101t-119 -36q-152 0 -159 137z" />
    <glyph glyph-name="acircumflex.ss02" horiz-adv-x="602" 
d="M522 516v-516h-76l-2 80q-25 -44 -66 -68t-96 -24q-70 0 -122.5 33.5t-81 94t-28.5 139.5q0 82 29 144t82 95.5t122 33.5q111 0 159 -80l4 68h76zM369 84q34 24 51.5 68.5t17.5 105.5t-18 105.5t-52 68.5t-80 24q-73 0 -111.5 -52.5t-38.5 -145.5q0 -94 38 -146t112 -52
q47 0 81 24zM250 736h96l118 -155h-96l-70 100l-70 -100h-96z" />
    <glyph glyph-name="adieresis.ss02" horiz-adv-x="602" 
d="M522 516v-516h-76l-2 80q-25 -44 -66 -68t-96 -24q-70 0 -122.5 33.5t-81 94t-28.5 139.5q0 82 29 144t82 95.5t122 33.5q111 0 159 -80l4 68h76zM369 84q34 24 51.5 68.5t17.5 105.5t-18 105.5t-52 68.5t-80 24q-73 0 -111.5 -52.5t-38.5 -145.5q0 -94 38 -146t112 -52
q47 0 81 24zM145 712h92v-99h-92v99zM359 712h92v-99h-92v99z" />
    <glyph glyph-name="agrave.ss02" horiz-adv-x="602" 
d="M522 516v-516h-76l-2 80q-25 -44 -66 -68t-96 -24q-70 0 -122.5 33.5t-81 94t-28.5 139.5q0 82 29 144t82 95.5t122 33.5q111 0 159 -80l4 68h76zM369 84q34 24 51.5 68.5t17.5 105.5t-18 105.5t-52 68.5t-80 24q-73 0 -111.5 -52.5t-38.5 -145.5q0 -94 38 -146t112 -52
q47 0 81 24zM140 736h126l88 -155h-81z" />
    <glyph glyph-name="amacron.ss02" horiz-adv-x="602" 
d="M522 516v-516h-76l-2 80q-25 -44 -66 -68t-96 -24q-70 0 -122.5 33.5t-81 94t-28.5 139.5q0 82 29 144t82 95.5t122 33.5q111 0 159 -80l4 68h76zM369 84q34 24 51.5 68.5t17.5 105.5t-18 105.5t-52 68.5t-80 24q-73 0 -111.5 -52.5t-38.5 -145.5q0 -94 38 -146t112 -52
q47 0 81 24zM138 683h320v-71h-320v71z" />
    <glyph glyph-name="aogonek.ss02" horiz-adv-x="602" 
d="M468 -52q-16 -16 -22 -25.5t-6 -22.5q0 -36 50 -36h32v-65h-45q-62 0 -91.5 23t-29.5 62q0 20 7.5 35.5t23 31t44.5 38.5l27 22l-11 83q-26 -44 -67.5 -69t-97.5 -25q-70 0 -122.5 33t-81 92t-28.5 134q0 81 29 141.5t82 94t122 33.5q111 0 159 -80l4 68h76v-516z
M368.5 95.5q33.5 23.5 51.5 66.5t18 101t-18 101.5t-52 67.5t-80 24q-73 0 -111.5 -52t-38.5 -142q0 -89 38 -139.5t112 -50.5q47 0 80.5 23.5z" />
    <glyph glyph-name="aring.ss02" horiz-adv-x="602" 
d="M522 516v-516h-76l-2 80q-25 -44 -66 -68t-96 -24q-70 0 -122.5 33.5t-81 94t-28.5 139.5q0 82 29 144t82 95.5t122 33.5q111 0 159 -80l4 68h76zM369 84q34 24 51.5 68.5t17.5 105.5t-18 105.5t-52 68.5t-80 24q-73 0 -111.5 -52.5t-38.5 -145.5q0 -94 38 -146t112 -52
q47 0 81 24zM227.5 603.5q-31.5 17.5 -49.5 49t-18 70.5t18 70.5t49.5 49.5t70.5 18t70.5 -18t49.5 -49.5t18 -70.5t-18 -70.5t-49.5 -49t-70.5 -17.5t-70.5 17.5zM351.5 668.5q20.5 20.5 20.5 54.5q0 35 -20.5 55.5t-53.5 20.5t-53.5 -20.5t-20.5 -55.5q0 -34 20.5 -54.5
t53.5 -20.5t53.5 20.5z" />
    <glyph glyph-name="aringacute.ss02" horiz-adv-x="602" 
d="M522 516v-516h-76l-2 80q-25 -44 -66 -68t-96 -24q-70 0 -122.5 33.5t-81 94t-28.5 139.5q0 82 29 144t82 95.5t122 33.5q111 0 159 -80l4 68h76zM369 84q34 24 51.5 68.5t17.5 105.5t-18 105.5t-52 68.5t-80 24q-73 0 -111.5 -52.5t-38.5 -145.5q0 -94 38 -146t112 -52
q47 0 81 24zM227.5 600.5q-31.5 17.5 -49.5 49t-18 70.5t18 70.5t49.5 49.5t70.5 18t70.5 -18t49.5 -49.5t18 -70.5t-18 -70.5t-49.5 -49t-70.5 -17.5t-70.5 17.5zM351.5 665.5q20.5 20.5 20.5 54.5q0 35 -20.5 55.5t-53.5 20.5t-53.5 -20.5t-20.5 -55.5q0 -34 20.5 -54.5
t53.5 -20.5t53.5 20.5zM322 1063h126l-133 -155h-81z" />
    <glyph glyph-name="atilde.ss02" horiz-adv-x="602" 
d="M522 516v-516h-76l-2 80q-25 -44 -66 -68t-96 -24q-70 0 -122.5 33.5t-81 94t-28.5 139.5q0 82 29 144t82 95.5t122 33.5q111 0 159 -80l4 68h76zM369 84q34 24 51.5 68.5t17.5 105.5t-18 105.5t-52 68.5t-80 24q-73 0 -111.5 -52.5t-38.5 -145.5q0 -94 38 -146t112 -52
q47 0 81 24zM137 711.5q31 37.5 83 37.5q24 0 42.5 -7t30.5 -17t27 -26q17 -17 28.5 -25t26.5 -8q23 0 33 19.5t12 63.5h70q0 -78 -31 -115.5t-83 -37.5q-24 0 -41.5 7t-29.5 16.5t-27 25.5q-17 18 -28.5 26t-28.5 8q-23 0 -33 -19.5t-12 -63.5h-70q0 78 31 115.5z" />
    <glyph glyph-name="adieresis.ss01.ss02" horiz-adv-x="602" 
d="M522 516v-516h-76l-2 80q-25 -44 -66 -68t-96 -24q-70 0 -122.5 33.5t-81 94t-28.5 139.5q0 82 29 144t82 95.5t122 33.5q111 0 159 -80l4 68h76zM369 84q34 24 51.5 68.5t17.5 105.5t-18 105.5t-52 68.5t-80 24q-73 0 -111.5 -52.5t-38.5 -145.5q0 -94 38 -146t112 -52
q47 0 81 24zM156 619q-17 17 -17 43t17 42.5t43 16.5t43 -16.5t17 -42.5t-17 -43t-43 -17t-43 17zM354 619q-17 17 -17 43t17 42.5t43 16.5t43 -16.5t17 -42.5t-17 -43t-43 -17t-43 17z" />
    <glyph glyph-name="uni021B.ss01.ss05" horiz-adv-x="367" 
d="M327 445l-97 4v-449h-92v449l-98 -4v71l98 -3v161h92v-161l97 3v-71zM228.5 -73.5q17.5 -17.5 17.5 -55.5v-29q0 -87 -103 -87h-11v39h25q23 0 36 10.5t13 29.5v16q-9 -4 -25 -4q-29 0 -44 13t-15 36t15.5 36t42.5 13q31 0 48.5 -17.5z" />
    <glyph glyph-name="udieresis.ss01.ss05" horiz-adv-x="594" 
d="M514 516v-516h-86v73q-26 -41 -71 -63.5t-102 -22.5q-54 0 -93.5 20t-60.5 58.5t-21 92.5v358h92v-340q0 -109 103 -109q39 0 72 15.5t54 52t21 94.5v287h92zM155 619q-17 17 -17 43t17 42.5t43 16.5t43 -16.5t17 -42.5t-17 -43t-43 -17t-43 17zM353 619q-17 17 -17 43
t17 42.5t43 16.5t43 -16.5t17 -42.5t-17 -43t-43 -17t-43 17z" />
    <glyph glyph-name="t.ss05" horiz-adv-x="367" 
d="M327 445l-97 4v-449h-92v449l-98 -4v71l98 -3v161h92v-161l97 3v-71z" />
    <glyph glyph-name="tbar.ss05" horiz-adv-x="367" 
d="M230 449v-161l97 3v-71l-97 4v-224h-92v224l-98 -4v71l98 -3v161l-98 -4v71l98 -3v161h92v-161l97 3v-71z" />
    <glyph glyph-name="tcaron.ss05" horiz-adv-x="367" 
d="M346 771h110l-89 -198h-69zM327 445l-97 4v-449h-92v449l-98 -4v71l98 -3v161h92v-161l97 3v-71z" />
    <glyph glyph-name="uni0163.ss05" horiz-adv-x="367" 
d="M327 445l-97 4v-449h-92v449l-98 -4v71l98 -3v161h92v-161l97 3v-71zM126 -192h25q39 0 55.5 10.5t16.5 29.5q0 16 -10 23.5t-32 7.5h-42l-27 47l47 74h55l-40 -62h21q47 0 73 -22.5t26 -64.5q0 -45 -36 -71t-100 -26h-32v54z" />
    <glyph glyph-name="uni021B.ss05" horiz-adv-x="367" 
d="M327 445l-97 4v-449h-92v449l-98 -4v71l98 -3v161h92v-161l97 3v-71zM240 -66v-96q0 -83 -77 -83h-34v39h34q38 0 38 36v32l-72 -5v77h111z" />
    <glyph glyph-name="udieresis.ss01.ss06" horiz-adv-x="594" 
d="M180.5 9.5q-48.5 22.5 -74.5 66.5t-26 105v335h92v-328q0 -62 31 -93t94 -31t94 31t31 93v328h92v-335q0 -61 -26 -105t-74.5 -66.5t-116.5 -22.5t-116.5 22.5zM155 619q-17 17 -17 43t17 42.5t43 16.5t43 -16.5t17 -42.5t-17 -43t-43 -17t-43 17zM353 619q-17 17 -17 43
t17 42.5t43 16.5t43 -16.5t17 -42.5t-17 -43t-43 -17t-43 17z" />
    <glyph glyph-name="u.ss06" horiz-adv-x="594" 
d="M180.5 9.5q-48.5 22.5 -74.5 66.5t-26 105v335h92v-328q0 -62 31 -93t94 -31t94 31t31 93v328h92v-335q0 -61 -26 -105t-74.5 -66.5t-116.5 -22.5t-116.5 22.5z" />
    <glyph glyph-name="uacute.ss06" horiz-adv-x="594" 
d="M180.5 9.5q-48.5 22.5 -74.5 66.5t-26 105v335h92v-328q0 -62 31 -93t94 -31t94 31t31 93v328h92v-335q0 -61 -26 -105t-74.5 -66.5t-116.5 -22.5t-116.5 22.5zM321 736h126l-133 -155h-81z" />
    <glyph glyph-name="ubreve.ss06" horiz-adv-x="594" 
d="M180.5 9.5q-48.5 22.5 -74.5 66.5t-26 105v335h92v-328q0 -62 31 -93t94 -31t94 31t31 93v328h92v-335q0 -61 -26 -105t-74.5 -66.5t-116.5 -22.5t-116.5 22.5zM137 720h61q1 -38 27 -57.5t72 -19.5t72 19.5t27 57.5h61q-3 -65 -42 -101t-119 -36q-152 0 -159 137z" />
    <glyph glyph-name="ucircumflex.ss06" horiz-adv-x="594" 
d="M180.5 9.5q-48.5 22.5 -74.5 66.5t-26 105v335h92v-328q0 -62 31 -93t94 -31t94 31t31 93v328h92v-335q0 -61 -26 -105t-74.5 -66.5t-116.5 -22.5t-116.5 22.5zM249 736h96l118 -155h-96l-70 100l-70 -100h-96z" />
    <glyph glyph-name="udieresis.ss06" horiz-adv-x="594" 
d="M180.5 9.5q-48.5 22.5 -74.5 66.5t-26 105v335h92v-328q0 -62 31 -93t94 -31t94 31t31 93v328h92v-335q0 -61 -26 -105t-74.5 -66.5t-116.5 -22.5t-116.5 22.5zM144 712h92v-99h-92v99zM358 712h92v-99h-92v99z" />
    <glyph glyph-name="ugrave.ss06" horiz-adv-x="594" 
d="M180.5 9.5q-48.5 22.5 -74.5 66.5t-26 105v335h92v-328q0 -62 31 -93t94 -31t94 31t31 93v328h92v-335q0 -61 -26 -105t-74.5 -66.5t-116.5 -22.5t-116.5 22.5zM139 736h126l88 -155h-81z" />
    <glyph glyph-name="uhungarumlaut.ss06" horiz-adv-x="594" 
d="M180.5 9.5q-48.5 22.5 -74.5 66.5t-26 105v335h92v-328q0 -62 31 -93t94 -31t94 31t31 93v328h92v-335q0 -61 -26 -105t-74.5 -66.5t-116.5 -22.5t-116.5 22.5zM234 742h108l-120 -161h-79zM421 742h108l-120 -161h-79z" />
    <glyph glyph-name="umacron.ss06" horiz-adv-x="594" 
d="M180.5 9.5q-48.5 22.5 -74.5 66.5t-26 105v335h92v-328q0 -62 31 -93t94 -31t94 31t31 93v328h92v-335q0 -61 -26 -105t-74.5 -66.5t-116.5 -22.5t-116.5 22.5zM137 683h320v-71h-320v71z" />
    <glyph glyph-name="uogonek.ss06" horiz-adv-x="594" 
d="M514 516v-335q0 -69 -33 -115.5t-94 -65.5l-62 -42q-22 -15 -30.5 -26.5t-8.5 -25.5q0 -19 13.5 -29.5t46.5 -10.5h32v-65h-55q-62 0 -91.5 23.5t-29.5 64.5q0 29 17 53t57 46q-93 5 -144.5 55t-51.5 138v335h92v-328q0 -62 31 -93t94 -31t94 31t31 93v328h92z" />
    <glyph glyph-name="uring.ss06" horiz-adv-x="594" 
d="M180.5 9.5q-48.5 22.5 -74.5 66.5t-26 105v335h92v-328q0 -62 31 -93t94 -31t94 31t31 93v328h92v-335q0 -61 -26 -105t-74.5 -66.5t-116.5 -22.5t-116.5 22.5zM226.5 603.5q-31.5 17.5 -49.5 49t-18 70.5t18 70.5t49.5 49.5t70.5 18t70.5 -18t49.5 -49.5t18 -70.5
t-18 -70.5t-49.5 -49t-70.5 -17.5t-70.5 17.5zM350.5 668.5q20.5 20.5 20.5 54.5q0 35 -20.5 55.5t-53.5 20.5t-53.5 -20.5t-20.5 -55.5q0 -34 20.5 -54.5t53.5 -20.5t53.5 20.5z" />
    <glyph glyph-name="utilde.ss06" horiz-adv-x="594" 
d="M180.5 9.5q-48.5 22.5 -74.5 66.5t-26 105v335h92v-328q0 -62 31 -93t94 -31t94 31t31 93v328h92v-335q0 -61 -26 -105t-74.5 -66.5t-116.5 -22.5t-116.5 22.5zM136 711.5q31 37.5 83 37.5q24 0 42.5 -7t30.5 -17t27 -26q17 -17 28.5 -25t26.5 -8q23 0 33 19.5t12 63.5
h70q0 -78 -31 -115.5t-83 -37.5q-24 0 -41.5 7t-29.5 16.5t-27 25.5q-17 18 -28.5 26t-28.5 8q-23 0 -33 -19.5t-12 -63.5h-70q0 78 31 115.5z" />
    <glyph glyph-name="ydieresis.ss01.ss07" horiz-adv-x="539" 
d="M514 516l-280 -720h-88l86 212l-207 508h100l134 -356q9 -26 15 -48l145 404h95zM128 619q-17 17 -17 43t17 42.5t43 16.5t43 -16.5t17 -42.5t-17 -43t-43 -17t-43 17zM326 619q-17 17 -17 43t17 42.5t43 16.5t43 -16.5t17 -42.5t-17 -43t-43 -17t-43 17z" />
    <glyph glyph-name="y.ss07" horiz-adv-x="539" 
d="M514 516l-280 -720h-88l86 212l-207 508h100l134 -356q9 -26 15 -48l145 404h95z" />
    <glyph glyph-name="yacute.ss07" horiz-adv-x="539" 
d="M514 516l-280 -720h-88l86 212l-207 508h100l134 -356q9 -26 15 -48l145 404h95zM294 736h126l-133 -155h-81z" />
    <glyph glyph-name="ycircumflex.ss07" horiz-adv-x="539" 
d="M514 516l-280 -720h-88l86 212l-207 508h100l134 -356q9 -26 15 -48l145 404h95zM222 736h96l118 -155h-96l-70 100l-70 -100h-96z" />
    <glyph glyph-name="ydieresis.ss07" horiz-adv-x="539" 
d="M514 516l-280 -720h-88l86 212l-207 508h100l134 -356q9 -26 15 -48l145 404h95zM117 712h92v-99h-92v99zM331 712h92v-99h-92v99z" />
    <glyph glyph-name="ygrave.ss07" horiz-adv-x="539" 
d="M514 516l-280 -720h-88l86 212l-207 508h100l134 -356q9 -26 15 -48l145 404h95zM112 736h126l88 -155h-81z" />
    <glyph glyph-name="l.ss08" horiz-adv-x="294" 
d="M107.5 27.5q-27.5 27.5 -27.5 87.5v597h92v-585q0 -28 11 -39t39 -11h47v-77h-74q-60 0 -87.5 27.5z" />
    <glyph glyph-name="lacute.ss08" horiz-adv-x="294" 
d="M107.5 27.5q-27.5 27.5 -27.5 87.5v597h92v-585q0 -28 11 -39t39 -11h47v-77h-74q-60 0 -87.5 27.5zM150 932h126l-133 -155h-81z" />
    <glyph glyph-name="lcaron.ss08" horiz-adv-x="415" 
d="M107.5 27.5q-27.5 27.5 -27.5 87.5v597h92v-585q0 -28 11 -39t39 -11h47v-77h-74q-60 0 -87.5 27.5zM305 712h110l-89 -198h-69z" />
    <glyph glyph-name="uni013C.ss08" horiz-adv-x="294" 
d="M107.5 27.5q-27.5 27.5 -27.5 87.5v597h92v-585q0 -28 11 -39t39 -11h47v-77h-74q-60 0 -87.5 27.5zM182 -66v-96q0 -83 -77 -83h-34v39h34q38 0 38 36v32l-72 -5v77h111z" />
    <glyph glyph-name="ldot.ss08" horiz-adv-x="371" 
d="M107.5 27.5q-27.5 27.5 -27.5 87.5v597h92v-585q0 -28 11 -39t39 -11h47v-77h-74q-60 0 -87.5 27.5zM243 405h103v-101h-103v101z" />
    <glyph glyph-name="lslash.ss08" horiz-adv-x="383" 
d="M333 77v-77h-74q-60 0 -87.5 27.5t-27.5 87.5v197l-94 -54v91l94 44v319h92v-269l94 54v-91l-94 -44v-235q0 -28 11 -39t39 -11h47z" />
    <glyph glyph-name="uni013C.ss01.ss08" horiz-adv-x="294" 
d="M107.5 27.5q-27.5 27.5 -27.5 87.5v597h92v-585q0 -28 11 -39t39 -11h47v-77h-74q-60 0 -87.5 27.5zM170.5 -73.5q17.5 -17.5 17.5 -55.5v-29q0 -87 -103 -87h-11v39h25q23 0 36 10.5t13 29.5v16q-9 -4 -25 -4q-29 0 -44 13t-15 36t15.5 36t42.5 13q31 0 48.5 -17.5z" />
    <glyph glyph-name="ldot.ss01.ss08" horiz-adv-x="394" 
d="M107.5 27.5q-27.5 27.5 -27.5 87.5v597h92v-585q0 -28 11 -39t39 -11h47v-77h-74q-60 0 -87.5 27.5zM259 311q-18 17 -18 44t18 44t46 17t46 -17t18 -44t-18 -44t-46 -17t-46 17z" />
    <glyph glyph-name="fi.ss01" horiz-adv-x="610" 
d="M241 629q-14 -6 -20 -20t-6 -39v-58l118 4v-71l-118 4v-449h-92v449l-83 -4v71l83 -3v44q0 81 37 118t118 37h55v-77h-53q-25 0 -39 -6zM441 621q-17 17 -17 43t17 42.5t44 16.5q26 0 43 -16.5t17 -42.5t-17 -43t-43 -17q-27 0 -44 17zM439 516h92v-516h-92v516z" />
    <glyph glyph-name="fl.ss08" horiz-adv-x="652" 
d="M241 629q-14 -6 -20 -20t-6 -39v-58l118 4v-71l-118 4v-449h-92v449l-83 -4v71l83 -3v44q0 81 37 118t118 37h55v-77h-53q-25 0 -39 -6zM465.5 27.5q-27.5 27.5 -27.5 87.5v597h92v-585q0 -28 11 -39t39 -11h47v-77h-74q-60 0 -87.5 27.5z" />
    <glyph glyph-name="ordfeminine.ss02" horiz-adv-x="493" 
d="M413 713v-341h-63l-6 51q-20 -28 -53 -43.5t-75 -15.5q-50 0 -87.5 21.5t-58 62t-20.5 96.5q0 55 21.5 95t59 61t86.5 21q43 0 76 -15t51 -42l6 49h63zM313.5 455q28.5 32 28.5 88t-29.5 88t-82.5 32q-51 0 -78.5 -30t-27.5 -89q0 -58 28 -89.5t81 -31.5q52 0 80.5 32z
" />
    <glyph glyph-name="t.sups.ss05" horiz-adv-x="321" 
d="M281 647l-83 1v-276h-75v276l-83 -1v66l83 -2v104h75v-104l83 2v-66z" />
    <glyph glyph-name="zero.ss09" horiz-adv-x="1078" 
d="M85 800h908v-888h-908v888zM677 202q47 58 47 168t-47 168t-138 58q-90 0 -137 -58t-47 -168t47 -168t137 -58q91 0 138 58zM462.5 251q-24.5 36 -24.5 119q0 82 24.5 118.5t76.5 36.5t77 -36.5t25 -118.5t-25 -118.5t-77 -36.5t-76.5 36z" />
    <glyph glyph-name="one.ss09" horiz-adv-x="1078" 
d="M85 800h908v-888h-908v888zM598 160v427h-64l-3 -18q-4 -24 -24 -38.5t-54 -14.5h-35v-59h103v-297h77z" />
    <glyph glyph-name="two.ss09" horiz-adv-x="1078" 
d="M993 800v-888h-908v888h908zM468 229q4 25 22 40t57 34l52 25q55 26 80.5 58t25.5 77q0 42 -20.5 72t-57 45.5t-84.5 15.5q-79 0 -119.5 -40.5t-42.5 -109.5h80q2 41 19 61.5t63 20.5q41 0 61.5 -17.5t20.5 -47.5q0 -26 -15.5 -43.5t-45.5 -32.5l-85 -41q-53 -26 -79 -71
t-26 -115h330v69h-236z" />
    <glyph glyph-name="three.ss09" horiz-adv-x="1078" 
d="M85 800h908v-888h-908v888zM631.5 160.5q38.5 16.5 59.5 46t21 67.5q0 40 -22.5 67.5t-60.5 38.5v2q32 9 50 34t18 60q0 36 -19.5 63t-56.5 42t-88 15q-50 0 -87.5 -15.5t-57.5 -45.5t-20 -71h80q2 34 23.5 50.5t62.5 16.5q40 0 61.5 -16t21.5 -46q0 -29 -19 -44t-56 -15
h-39v-69h39q44 0 67 -16.5t23 -48.5q0 -67 -91 -67q-48 0 -70 19t-24 58h-80q0 -68 46.5 -105t126.5 -37q53 0 91.5 16.5z" />
    <glyph glyph-name="four.ss09" horiz-adv-x="1078" 
d="M85 800h908v-888h-908v888zM643 160v98l76 -2v62l-76 -2v271h-82l-202 -264v-67l207 2v-98h77zM562 497h4v-181l-139 2z" />
    <glyph glyph-name="five.ss09" horiz-adv-x="1078" 
d="M993 800v-888h-908v888h908zM639 163q40 20 59.5 54.5t19.5 76.5q0 40 -17.5 72.5t-52.5 51.5t-86 19q-58 0 -96 -26l-2 2l18 108h204v66h-259l-43 -226l80 -17q28 31 79 31q45 0 70 -23t25 -62q0 -38 -25 -59.5t-70 -21.5q-34 0 -57.5 13t-33.5 42l-79 -17
q16 -51 60 -77.5t109 -26.5q57 0 97 20z" />
    <glyph glyph-name="six.ss09" horiz-adv-x="1078" 
d="M85 800h908v-888h-908v888zM642.5 167q38.5 18 58.5 52t20 79t-19.5 77t-54.5 48.5t-81 16.5q-38 0 -68.5 -12t-49.5 -34q7 142 107 142q29 0 48.5 -12.5t29.5 -32.5l76 21q-16 41 -56 65t-97 24q-90 0 -136.5 -62t-46.5 -175q0 -102 44.5 -158.5t134.5 -56.5
q52 0 90.5 18zM485 235q-27 22 -27 64q0 35 26 56.5t69 21.5t66.5 -22t23.5 -60t-23.5 -60t-66.5 -22q-41 0 -68 22z" />
    <glyph glyph-name="seven.ss09" horiz-adv-x="1078" 
d="M85 800h908v-888h-908v888zM534 157q12 129 55 214.5t124 149.5v63h-331v-66h236q-71 -64 -112.5 -153t-52.5 -208h81z" />
    <glyph glyph-name="eight.ss09" horiz-adv-x="1078" 
d="M85 800h908v-888h-908v888zM634.5 166.5q40.5 15.5 62.5 45t22 70.5q0 40 -23.5 68.5t-65.5 39.5v2q32 12 49.5 35.5t17.5 56.5q0 35 -19 60t-55 38.5t-84 13.5t-84 -13.5t-55 -38.5t-19 -60q0 -33 17.5 -56.5t49.5 -35.5v-2q-41 -11 -65 -40t-24 -68q0 -41 22 -70.5
t62.5 -45t95.5 -15.5t95.5 15.5zM479 432q-21 15 -21 45q0 29 21 43.5t60 14.5t60 -14.5t21 -43.5q0 -30 -21 -45t-60 -15t-60 15zM465.5 230.5q-25.5 18.5 -25.5 55.5q0 36 25.5 54t73.5 18t73.5 -18t25.5 -54q0 -37 -25.5 -55.5t-73.5 -18.5t-73.5 18.5z" />
    <glyph glyph-name="nine.ss09" horiz-adv-x="1078" 
d="M85 800h908v-888h-908v888zM670.5 206q46.5 62 46.5 175q0 102 -44.5 158.5t-134.5 56.5q-52 0 -90.5 -18t-58.5 -52t-20 -79t19.5 -77t54.5 -48.5t81 -16.5q38 0 68.5 12t49.5 34q-7 -142 -107 -142q-29 0 -48.5 12.5t-29.5 32.5l-76 -21q16 -41 56 -65t97 -24
q90 0 136.5 62zM470.5 390q-23.5 22 -23.5 60t23.5 60t66.5 22q41 0 68 -22t27 -64q0 -35 -26 -56.5t-69 -21.5t-66.5 22z" />
    <glyph glyph-name="zero.ss10" horiz-adv-x="1078" 
d="M85 800h908v-888h-908v888zM903 -8v728h-728v-728h728zM402 202q-47 58 -47 168t47 168t137 58q91 0 138 -58t47 -168t-47 -168t-138 -58q-90 0 -137 58zM616 251.5q25 36.5 25 118.5t-25 118.5t-77 36.5t-76.5 -36.5t-24.5 -118.5q0 -83 24.5 -119t76.5 -36t77 36.5z
" />
    <glyph glyph-name="one.ss10" horiz-adv-x="1078" 
d="M85 800h908v-888h-908v888zM903 -8v728h-728v-728h728zM516 447h-103v59h35q34 0 54 14.5t24 38.5l3 18h64v-427h-77v297z" />
    <glyph glyph-name="two.ss10" horiz-adv-x="1078" 
d="M85 800h908v-888h-908v888zM903 -8v728h-728v-728h728zM400 275q26 45 79 71l85 41q30 15 45.5 32.5t15.5 43.5q0 30 -20.5 47.5t-61.5 17.5q-46 0 -63 -20.5t-19 -61.5h-80q2 69 42.5 109.5t119.5 40.5q48 0 84.5 -15.5t57 -45.5t20.5 -72q0 -45 -25.5 -77t-80.5 -58
l-52 -25q-39 -19 -57 -34t-22 -40h236v-69h-330q0 70 26 115z" />
    <glyph glyph-name="three.ss10" horiz-adv-x="1078" 
d="M85 800h908v-888h-908v888zM903 -8v728h-728v-728h728zM416.5 180q-46.5 37 -46.5 105h80q2 -39 24 -58t70 -19q91 0 91 67q0 32 -23 48.5t-67 16.5h-39v69h39q37 0 56 15t19 44q0 30 -21.5 46t-61.5 16q-41 0 -62.5 -16.5t-23.5 -50.5h-80q0 41 20 71t57.5 45.5
t87.5 15.5q51 0 88 -15t56.5 -42t19.5 -63q0 -35 -18 -60t-50 -34v-2q38 -11 60.5 -38.5t22.5 -67.5q0 -38 -21 -67.5t-59.5 -46t-91.5 -16.5q-80 0 -126.5 37z" />
    <glyph glyph-name="four.ss10" horiz-adv-x="1078" 
d="M85 800h908v-888h-908v888zM903 -8v728h-728v-728h728zM569 258l-207 -2v67l202 264h82v-271l76 2v-62l-76 2v-98h-77v98zM569 316v181h-4l-135 -179z" />
    <glyph glyph-name="five.ss10" horiz-adv-x="1078" 
d="M85 800h908v-888h-908v888zM903 -8v728h-728v-728h728zM431 168.5q-44 26.5 -60 77.5l79 17q10 -29 34 -42t57 -13q45 0 70 21.5t25 59.5q0 39 -25 62t-70 23q-51 0 -79 -31l-80 17l43 226h259v-66h-204l-18 -108l2 -2q38 26 96 26q51 0 86 -19t52.5 -51.5t17.5 -72.5
q0 -42 -19.5 -76.5t-59.5 -54.5t-97 -20q-65 0 -109 26.5z" />
    <glyph glyph-name="six.ss10" horiz-adv-x="1078" 
d="M85 800h908v-888h-908v888zM903 -8v728h-728v-728h728zM414.5 198.5q-44.5 56.5 -44.5 158.5q0 113 46.5 175t136.5 62q57 0 97 -24t56 -65l-76 -21q-10 20 -29.5 32.5t-48.5 12.5q-100 0 -107 -142q19 22 49.5 34t68.5 12q46 0 81 -16.5t54.5 -48.5t19.5 -77t-20 -79
t-58.5 -52t-90.5 -18q-90 0 -134.5 56.5zM616.5 228q23.5 22 23.5 60t-23.5 60t-66.5 22t-69 -21.5t-26 -56.5q0 -42 27 -64t68 -22q43 0 66.5 22z" />
    <glyph glyph-name="seven.ss10" horiz-adv-x="1078" 
d="M85 800h908v-888h-908v888zM903 -8v728h-728v-728h728zM507.5 358q41.5 89 112.5 153h-236v66h331v-63q-81 -64 -124 -149.5t-55 -214.5h-81q11 119 52.5 208z" />
    <glyph glyph-name="eight.ss10" horiz-adv-x="1078" 
d="M85 800h908v-888h-908v888zM903 -8v728h-728v-728h728zM443.5 160.5q-40.5 15.5 -62.5 45t-22 70.5q0 39 24 68t65 40v2q-32 12 -49.5 35.5t-17.5 56.5q0 35 19 60t55 38.5t84 13.5t84 -13.5t55 -38.5t19 -60q0 -33 -17.5 -56.5t-49.5 -35.5v-2q42 -11 65.5 -39.5
t23.5 -68.5q0 -41 -22 -70.5t-62.5 -45t-95.5 -15.5t-95.5 15.5zM599 426q21 15 21 45q0 29 -21 43.5t-60 14.5t-60 -14.5t-21 -43.5q0 -30 21 -45t60 -15t60 15zM612.5 224.5q25.5 18.5 25.5 55.5q0 36 -25.5 54t-73.5 18t-73.5 -18t-25.5 -54q0 -37 25.5 -55.5t73.5 -18.5
t73.5 18.5z" />
    <glyph glyph-name="nine.ss10" horiz-adv-x="1078" 
d="M85 800h908v-888h-908v888zM903 -8v728h-728v-728h728zM438 165q-40 24 -56 65l76 21q10 -20 29.5 -32.5t48.5 -12.5q100 0 107 142q-19 -22 -49.5 -34t-68.5 -12q-46 0 -81 16.5t-54.5 48.5t-19.5 77t20 79t58.5 52t90.5 18q90 0 134.5 -56.5t44.5 -158.5
q0 -113 -46.5 -175t-136.5 -62q-57 0 -97 24zM607 386.5q26 21.5 26 56.5q0 42 -27 64t-68 22q-43 0 -66.5 -22t-23.5 -60t23.5 -60t66.5 -22t69 21.5z" />
    <glyph glyph-name="zero.zero" 
d="M505 634.5q61 -89.5 61 -278.5q0 -186 -62 -277t-185 -91t-184 90.5t-61 277.5q0 188 61.5 278t185.5 90q123 0 184 -89.5zM233.5 613.5q-33.5 -29.5 -49 -92.5t-15.5 -165q0 -130 26 -196l199 463q-30 20 -74 20q-53 0 -86.5 -29.5zM407 98.5q33 29.5 48.5 92.5
t15.5 165q0 140 -31 209l-201 -470q32 -26 82 -26q53 0 86 29.5z" />
    <glyph glyph-name="zero.dnom" horiz-adv-x="459" 
d="M92 42q-47 58 -47 168t47 168t137 58q91 0 138 -58t47 -168t-47 -168t-138 -58q-90 0 -137 58zM306 91.5q25 36.5 25 118.5t-25 118.5t-77 36.5t-76.5 -36.5t-24.5 -118.5q0 -83 24.5 -119t76.5 -36t77 36.5z" />
    <glyph glyph-name="one.dnom" horiz-adv-x="300" 
d="M143 297h-103v59h35q34 0 54 14.5t24 38.5l3 18h64v-427h-77v297z" />
    <glyph glyph-name="two.dnom" horiz-adv-x="431" 
d="M76 115q26 45 79 71l85 41q30 15 45.5 32.5t15.5 43.5q0 30 -20.5 47.5t-61.5 17.5q-46 0 -63 -20.5t-19 -61.5h-80q2 69 42.5 109.5t119.5 40.5q48 0 84.5 -15.5t57 -45.5t20.5 -72q0 -45 -25.5 -77t-80.5 -58l-52 -25q-39 -19 -57 -34t-22 -40h236v-69h-330
q0 70 26 115z" />
    <glyph glyph-name="three.dnom" horiz-adv-x="445" 
d="M96.5 21q-46.5 37 -46.5 105h80q2 -39 24 -58t70 -19q91 0 91 67q0 32 -23 48.5t-67 16.5h-39v69h39q37 0 56 15t19 44q0 30 -21.5 46t-61.5 16q-41 0 -62.5 -16.5t-23.5 -50.5h-80q0 41 20 71t57.5 45.5t87.5 15.5q51 0 88 -15t56.5 -42t19.5 -63q0 -35 -18 -60t-50 -34
v-2q38 -11 60.5 -38.5t22.5 -67.5q0 -38 -21 -67.5t-59.5 -46t-91.5 -16.5q-80 0 -126.5 37z" />
    <glyph glyph-name="four.dnom" horiz-adv-x="460" 
d="M257 98l-207 -2v67l202 264h82v-271l76 2v-62l-76 2v-98h-77v98zM257 156v181h-4l-135 -179z" />
    <glyph glyph-name="five.dnom" horiz-adv-x="446" 
d="M111 9.5q-44 26.5 -60 77.5l79 17q10 -29 34 -42t57 -13q45 0 70 21.5t25 59.5q0 39 -25 62t-70 23q-51 0 -79 -31l-80 17l43 226h259v-66h-204l-18 -108l2 -2q38 26 96 26q51 0 86 -19t52.5 -51.5t17.5 -72.5q0 -42 -19.5 -76.5t-59.5 -54.5t-97 -20q-65 0 -109 26.5z
" />
    <glyph glyph-name="six.dnom" horiz-adv-x="448" 
d="M94.5 40.5q-44.5 56.5 -44.5 158.5q0 113 46.5 175t136.5 62q57 0 97 -24t56 -65l-76 -21q-10 20 -29.5 32.5t-48.5 12.5q-100 0 -107 -142q19 22 49.5 34t68.5 12q46 0 81 -16.5t54.5 -48.5t19.5 -77t-20 -79t-58.5 -52t-90.5 -18q-90 0 -134.5 56.5zM296.5 70
q23.5 22 23.5 60t-23.5 60t-66.5 22t-69 -21.5t-26 -56.5q0 -42 27 -64t68 -22q43 0 66.5 22z" />
    <glyph glyph-name="seven.dnom" horiz-adv-x="381" 
d="M148.5 208q41.5 89 112.5 153h-236v66h331v-63q-81 -64 -124 -149.5t-55 -214.5h-81q11 119 52.5 208z" />
    <glyph glyph-name="eight.dnom" horiz-adv-x="456" 
d="M132.5 6.5q-40.5 15.5 -62.5 45t-22 70.5q0 39 24 68t65 40v2q-32 12 -49.5 35.5t-17.5 56.5q0 35 19 60t55 38.5t84 13.5t84 -13.5t55 -38.5t19 -60q0 -33 -17.5 -56.5t-49.5 -35.5v-2q42 -11 65.5 -39.5t23.5 -68.5q0 -41 -22 -70.5t-62.5 -45t-95.5 -15.5t-95.5 15.5z
M288 272q21 15 21 45q0 29 -21 43.5t-60 14.5t-60 -14.5t-21 -43.5q0 -30 21 -45t60 -15t60 15zM301.5 70.5q25.5 18.5 25.5 55.5q0 36 -25.5 54t-73.5 18t-73.5 -18t-25.5 -54q0 -37 25.5 -55.5t73.5 -18.5t73.5 18.5z" />
    <glyph glyph-name="nine.dnom" horiz-adv-x="448" 
d="M118 8q-40 24 -56 65l76 21q10 -20 29.5 -32.5t48.5 -12.5q100 0 107 142q-19 -22 -49.5 -34t-68.5 -12q-46 0 -81 16.5t-54.5 48.5t-19.5 77t20 79t58.5 52t90.5 18q90 0 134.5 -56.5t44.5 -158.5q0 -113 -46.5 -175t-136.5 -62q-57 0 -97 24zM287 229.5
q26 21.5 26 56.5q0 42 -27 64t-68 22q-43 0 -66.5 -22t-23.5 -60t23.5 -60t66.5 -22t69 21.5z" />
    <glyph glyph-name="zero.numr" horiz-adv-x="459" 
d="M92 363q-47 58 -47 168t47 168t137 58q91 0 138 -58t47 -168t-47 -168t-138 -58q-90 0 -137 58zM306 412.5q25 36.5 25 118.5t-25 118.5t-77 36.5t-76.5 -36.5t-24.5 -118.5q0 -83 24.5 -119t76.5 -36t77 36.5z" />
    <glyph glyph-name="one.numr" horiz-adv-x="300" 
d="M143 618h-103v59h35q34 0 54 14.5t24 38.5l3 18h64v-427h-77v297z" />
    <glyph glyph-name="two.numr" horiz-adv-x="431" 
d="M76 436q26 45 79 71l85 41q30 15 45.5 32.5t15.5 43.5q0 30 -20.5 47.5t-61.5 17.5q-46 0 -63 -20.5t-19 -61.5h-80q2 69 42.5 109.5t119.5 40.5q48 0 84.5 -15.5t57 -45.5t20.5 -72q0 -45 -25.5 -77t-80.5 -58l-52 -25q-39 -19 -57 -34t-22 -40h236v-69h-330
q0 70 26 115z" />
    <glyph glyph-name="three.numr" horiz-adv-x="445" 
d="M96.5 342q-46.5 37 -46.5 105h80q2 -39 24 -58t70 -19q91 0 91 67q0 32 -23 48.5t-67 16.5h-39v69h39q37 0 56 15t19 44q0 30 -21.5 46t-61.5 16q-41 0 -62.5 -16.5t-23.5 -50.5h-80q0 41 20 71t57.5 45.5t87.5 15.5q51 0 88 -15t56.5 -42t19.5 -63q0 -35 -18 -60
t-50 -34v-2q38 -11 60.5 -38.5t22.5 -67.5q0 -38 -21 -67.5t-59.5 -46t-91.5 -16.5q-80 0 -126.5 37z" />
    <glyph glyph-name="four.numr" horiz-adv-x="460" 
d="M257 419l-207 -2v67l202 264h82v-271l76 2v-62l-76 2v-98h-77v98zM257 477v181h-4l-135 -179z" />
    <glyph glyph-name="five.numr" horiz-adv-x="446" 
d="M111 330.5q-44 26.5 -60 77.5l79 17q10 -29 34 -42t57 -13q45 0 70 21.5t25 59.5q0 39 -25 62t-70 23q-51 0 -79 -31l-80 17l43 226h259v-66h-204l-18 -108l2 -2q38 26 96 26q51 0 86 -19t52.5 -51.5t17.5 -72.5q0 -42 -19.5 -76.5t-59.5 -54.5t-97 -20q-65 0 -109 26.5z
" />
    <glyph glyph-name="six.numr" horiz-adv-x="448" 
d="M94.5 361.5q-44.5 56.5 -44.5 158.5q0 113 46.5 175t136.5 62q57 0 97 -24t56 -65l-76 -21q-10 20 -29.5 32.5t-48.5 12.5q-100 0 -107 -142q19 22 49.5 34t68.5 12q46 0 81 -16.5t54.5 -48.5t19.5 -77t-20 -79t-58.5 -52t-90.5 -18q-90 0 -134.5 56.5zM296.5 391
q23.5 22 23.5 60t-23.5 60t-66.5 22t-69 -21.5t-26 -56.5q0 -42 27 -64t68 -22q43 0 66.5 22z" />
    </font>
</defs>
</svg>
