<svg xmlns="http://www.w3.org/2000/svg" xmlns:xlink="http://www.w3.org/1999/xlink" width="400" height="400" viewBox="0 0 400 400">
  <defs>
    <clipPath id="clip-design">
      <rect width="400" height="400"/>
    </clipPath>
  </defs>
  <g id="design" clip-path="url(#clip-design)">
    <g id="_003-design-tool" data-name="003-design-tool" transform="translate(51.255 51.275)">
      <g id="Group_420" data-name="Group 420">
        <path id="Path_412" data-name="Path 412" d="M287.29,71.808a34.937,34.937,0,0,0,0-49.3L274.965,10.179a34.939,34.939,0,0,0-49.3,0l-76.94,76.939L61.693.087.063,61.717l87.031,87.03L20.543,215.3,0,297.47l82.172-20.543,66.551-66.551,87.03,87.031,61.628-61.629-87.029-87.031Zm-49.3-49.3a17.51,17.51,0,0,1,24.652,0l12.326,12.326a17.508,17.508,0,0,1,0,24.652L268.8,65.645,231.826,28.668ZM219.5,40.993l36.977,36.977L244.15,90.3,207.173,53.32ZM24.715,61.717,61.692,24.739,78.377,41.424,66.051,53.75,78.377,66.076,90.7,53.75l16.684,16.684L95.061,82.76l12.326,12.326L119.713,82.76,136.4,99.444,99.42,136.422Zm170.132,3.929,12.326,12.326L53.064,232.08,40.738,219.754ZM23.957,273.513,33.135,236.8l27.533,27.533Zm53.759-16.782L65.39,244.405,219.5,90.3l12.326,12.326Zm136.995-78.974-12.326,12.326,12.326,12.326,12.326-12.326,16.684,16.684L231.4,219.094l12.326,12.326,12.326-12.326,16.684,16.684-36.977,36.978-74.7-74.7,36.977-36.977Z" fill="#fff"/>
      </g>
    </g>
  </g>
</svg>
