<svg xmlns="http://www.w3.org/2000/svg" xmlns:xlink="http://www.w3.org/1999/xlink" width="400" height="400" viewBox="0 0 400 400">
  <defs>
    <clipPath id="clip-ideation">
      <rect width="400" height="400"/>
    </clipPath>
  </defs>
  <g id="ideation" clip-path="url(#clip-ideation)">
    <path id="_002-idea" data-name="002-idea" d="M38.95,135.4H0v19.252H38.955a104.881,104.881,0,0,0,24.1,58.1L35.483,240.321,49.1,253.935l27.562-27.562c11.521,10.636,18.47,26.323,19.47,43.793H77.007v19.252H96.259v39.145h96.259V289.418h19.252V270.166H192.635c.958-15.467,7.849-30.627,19.751-43.527l27.293,27.3,13.614-13.614-27.574-27.572a104.2,104.2,0,0,0,24.12-58.094h38.937V135.4H249.834a105.278,105.278,0,0,0-24.067-58.139l27.527-27.527L239.679,36.127,212.138,63.669a105.368,105.368,0,0,0-58.124-24.04V0H134.762V39.6a111.078,111.078,0,0,0-13.1,1.923,103.5,103.5,0,0,0-45.181,22L49.1,36.127,35.483,49.739,62.892,77.145a104.818,104.818,0,0,0-22.781,49.2C39.591,129.37,39.213,132.391,38.95,135.4ZM173.266,309.312H115.511V289.418h57.755ZM59.084,129.606c5.9-34.34,32.633-62.167,66.519-69.244,55.311-11.549,105.418,29.905,105.418,84.668a85.631,85.631,0,0,1-27.266,62.982c-18.645,17.525-29.339,39.469-30.394,62.155H154.014V241.289h19.252V133.133L144.388,75.378l-28.878,57.755V241.289h19.252v28.878H115.408c-1.09-23.8-11-45.344-27.569-59.62C64.571,190.5,53.822,160.243,59.084,129.606Zm94.93,25.05v67.381H134.762V154.656ZM135.9,135.4l8.488-16.981,8.49,16.981Zm0,0" transform="translate(55.612 35.718)" fill="#fff"/>
  </g>
</svg>
