<svg xmlns="http://www.w3.org/2000/svg" xmlns:xlink="http://www.w3.org/1999/xlink" width="400" height="400" viewBox="0 0 400 400">
  <defs>
    <clipPath id="clip-ifim">
      <rect width="400" height="400"/>
    </clipPath>
  </defs>
  <g id="ifim" clip-path="url(#clip-ifim)">
    <g id="ifim-2" data-name="ifim" transform="translate(88.36 47.938)">
      <g id="Layer_1" data-name="Layer 1">
        <path id="Path_283" data-name="Path 283" d="M6.12,83.458v-.816a1.662,1.662,0,0,1,1-.4c2.177.312,3.8,1.772,5.668,2.749,5.948,4.109,11.787,8.329,17.424,12.9a82.042,82.042,0,0,1,19.059,22.338c4.675,7.906,8.426,16.245,9.289,25.591a11.534,11.534,0,0,1-.552,1.793c-.11.292-.6.564-.16,1.007.211-.393.532-.332.873-.191,1,1.007.873,2.276.7,3.535-.692,2.226-.492,4.512-.471,6.748.471,0,.421-.463.562-.745A270.118,270.118,0,0,1,83.34,109.623,284.91,284.91,0,0,1,114.547,68.11a7.167,7.167,0,0,1,2.909-2.306,17.8,17.8,0,0,0,7.212-7.261c2.2-4.028,6.089-6.335,9.359-9.155,18.818-16.2,39.713-28.995,63.367-36.85,5.557-1.843,11.1-3.867,16.983-4.582a5,5,0,0,1,4.885-.312,3.022,3.022,0,0,1,1.936,2.941q0,1.511,0,3.021V152.989c0,2.014-.471,3.968-.1,5.962-.05,2.014-1.384,2.931-3.009,3.626a11.911,11.911,0,0,0-3.732-.212H13.533a10.3,10.3,0,0,0-3.722.242,5.272,5.272,0,0,1-3.691-4.441,4.761,4.761,0,0,0,.261-2.216q0-34.957,0-69.923a4.7,4.7,0,0,0-.261-2.568Z" transform="translate(0 -1.097)" fill="#fff"/>
        <path id="Path_284" data-name="Path 284" d="M11.91,85.06c-1.42-1.48-3.46-1.9-5.12-3-.65-1.31-.32-2.71-.33-4.06V9a12.78,12.78,0,0,0-.25-4C6.33,2.81,8,2,9.53,1c1.12,0,2.24.11,3.36.11H214.73c1,0,2,0,3-.07,2.9.94,3.44,3.26,3.47,5.89-.53,1-1.45.94-2.37.89a3.65,3.65,0,0,1-1-.27c-1.38-.51-2.76-.81-4.08.2a3.31,3.31,0,0,1-.82.51,6.1,6.1,0,0,1-1.48,0c-.94.4-2.25-1.51-2.93.49C199.84,11.4,190.88,13,182.3,16a203.16,203.16,0,0,0-70.42,42.15C107.3,62.34,103,66.83,98.46,71c-2.06-.24-1.92,1.67-2.65,2.74-5.08,7.22-11.15,13.67-16.17,21S69.77,109.37,65.37,117c-2.25,3.93-3.31,4.07-6.05.49-1.89-2.47-4.9-3.89-6.21-6.86.23-2-1.71-1.78-2.7-2.53C43.36,103,36.69,97.3,28.9,93.26,23.31,90.37,18,87,11.91,85.06Z" fill="#fff"/>
        <path id="Path_285" data-name="Path 285" d="M150,242.79c1,2.53,3.44,2.16,5.43,2.35,2.38.21,2.65,1.44,2.57,3.46-.11,2.55-1.92,1.48-3,1.5-5.74.1-11.49.07-17.24,0-1.1,0-2.68.57-2.51-1.63.12-1.44-.39-3.12,2-3.16.86,0,1.72-.37,2.58-.41,2.59-.12,3.84-1.46,3.84-4V183.55c0-4.26-3.42-3-5.62-3.8-1-.36-2.74.83-2.89-1.29-.14-1.87-.5-3.57,2.63-3.41,5.86.31,11.75.14,17.62.06,1.76,0,2.11.43,2.68,2.31,2.53,8.28,5.59,16.41,8.49,24.58,3.72,10.48,7.47,21,11.46,32.16,6.35-17.38,12.45-34,18.49-50.68.8-2.19,2-4.32,1.68-6.8-.21-1.51.75-1.55,1.83-1.55,6.5,0,13,.05,19.49,0,1.55,0,2,.56,1.81,2-.17,1.07.66,2.72-1.54,2.61a9.466,9.466,0,0,0-1.49.13c-5.14.71-5.14.72-5.14,6.08v52.49c0,6.55-.71,6.3,6,7.11,1.08.13,2.17-.09,2.21,1.69,0,2.05-.14,3.11-2.72,3-6.74-.21-13.49-.06-20.24-.08-1.25,0-2.75.55-2.73-1.82,0-2,.48-2.69,2.57-3,1.75-.24,4.2.78,5.21-1.8.52-4.47.2-8.94.22-13.41q.07-21.66,0-43.32c0-1.1,1-2.75-1-3.35Q191,215.55,179.43,247.65c-.64,1.81-1.34,2.52-3.32,2.59-2.13.07-2.69-1-3.28-2.64q-11-31.33-22.15-62.64c-1.19-.05-1,.85-1,1.53,0,18.54-.06,37.07,0,55.6A2.11,2.11,0,0,0,150,242.79Z" fill="#fff"/>
        <path id="Path_286" data-name="Path 286" d="M66.16,175.15c7.62,0,15.24.07,22.86-.05,2.12,0,3.09.26,2.93,2.77-.27,4.1-.11,8.24,0,12.36,0,1.4,0,2.66-1.88,2.22-1.53-.37-4,1.44-4.43-1.77-.2-1.61-.5-3.2-.72-4.8-.75-5.51-.75-5.51-6.42-5.51-5.5,0-11,.09-16.49-.05-2.17-.06-3,.31-3,2.78.19,8,.16,16,0,24,0,2.23.71,2.68,2.73,2.61,4.11-.14,8.24-.13,12.36,0,2.61.07,4-.84,4-3.59,0-1.36.67-2.72.59-4.06-.19-2.81,1.76-1.95,3.21-2.15,2-.29,2.15.81,2.14,2.4q-.11,10.13,0,20.24c0,1.53-.26,2.44-2,2.13-1.35-.24-3,.86-3.38-2-1.16-8.8.06-7.72-9-7.76-2.88,0-5.75.08-8.62,0-1.65-.07-2.09.49-2.07,2.11q.12,12.36,0,24.73c0,2.19.92,3.2,3.07,3.32,1.5.09,3,.5,4.47.48,2.37,0,1.56,1.65,1.73,2.86.22,1.59-.63,1.81-2,1.8-7.74,0-15.48-.06-23.23,0-1.55,0-2-.57-1.78-2,.17-1.06-.72-2.71,1.48-2.68.49,0,1-.16,1.48-.17,3.84-.07,5.25-1.72,5.2-5.82-.25-17.48-.11-35-.11-52.46,0-6.45,0-6.48-6.36-7.31-1.38-.18-2.64,0-2.54-2.13.08-1.81.34-2.59,2.43-2.56C50.67,175.23,58.41,175.15,66.16,175.15Z" fill="#fff"/>
        <path id="Path_287" data-name="Path 287" d="M118.55,212.65v25.49c0,6.09-1.37,6.39,6.23,7.36.87.11,2.3-.4,2.39,1.09.1,1.68.88,3.73-2.42,3.63-7.49-.22-15-.07-22.49-.07-1.26,0-2.51.22-2.37-1.81.12-1.55-.12-3,2.2-2.87a20.447,20.447,0,0,0,3.71-.46,3.075,3.075,0,0,0,3-3.48q-.06-28.87,0-57.73c0-2.17-.95-3.22-3-3.52a17.52,17.52,0,0,0-3.7-.51c-2.3.16-2.14-1.2-2.24-2.8-.12-2,1.07-1.83,2.35-1.83h22.5c1.47,0,2.57-.09,2.56,2.06s-.67,2.4-2.51,2.62c-6.26.75-6.25.85-6.25,7Z" fill="#fff"/>
        <path id="Path_288" data-name="Path 288" d="M19.36,250.15c-3.74,0-7.49-.07-11.23,0-1.57,0-2.27-.32-2.14-2,.1-1.42-.16-2.78,2-2.66,1,.05,2-.37,3-.38,2.69,0,3.6-1.29,3.59-4-.09-19-.16-38,0-56.93,0-4.72-3.33-3.68-5.82-4.39-1.14-.31-2.83.5-2.78-1.9,0-1.92.21-2.86,2.55-2.81,7.36.16,14.73.08,22.09,0,1.48,0,2.59-.1,2.54,2.05,0,1.86-.51,2.42-2.44,2.64-6.46.71-6.45.83-6.45,7.19v50.93c0,6.21-1.18,6.74,6.47,7.51,1.56.16,2.43.32,2.42,2.3s-.65,2.51-2.55,2.44C26.86,250.05,23.11,250.15,19.36,250.15Z" fill="#fff"/>
        <path id="Path_295" data-name="Path 295" d="M202.65,183.46c-.09-.82.4-1.32,1.37-2.17v58.34c0,1.3.56,2.74-.53,3.91q-.11-28.09-.23-56.18C203.23,186.06,203.82,184.61,202.65,183.46Z" fill="#a0a0a0"/>
        <path id="Path_296" data-name="Path 296" d="M150,242.79c-.21-.4-.61-.81-.61-1.21,0-19.48,0-39,.5-58.66l.83,2c-1.1,1.17-.58,2.62-.59,3.93Q150,215.85,150,242.79Z" fill="silver"/>
        <path id="Path_403" data-name="Path 403" d="M97.59,71A188.156,188.156,0,0,1,118.3,51.35C141.23,32.14,167,18.39,196.06,11c4.21-1.08,8.46-2,12.68-2.94.86-.87,1.83-.49,2.78-.26l1.48.07c1.23-.08,1.36.46.79,1.4-3.24-.94-6.09.88-8.91,1.71A185,185,0,0,0,129.6,54.06c-1.71,1.6-3.67,2.93-5.12,4.8a28.69,28.69,0,0,1-6.7,6.72A226.538,226.538,0,0,0,90.4,99.43,273,273,0,0,0,60,157.79c-2.6-.67-.73-3-1.64-4.34a3.5,3.5,0,0,1,.13-2.26c.1-1.35.24-2.7-.58-3.9a1.76,1.76,0,0,1-.18-2.1,74.38,74.38,0,0,0-17.5-36.61A122.881,122.881,0,0,0,27,95.47c-4.61-4-10-7-15.07-10.41,1.45-1.08,2.53.18,3.69.65,13.08,5.22,24.57,13,35.33,22a4.1,4.1,0,0,1,2.32,2.23c2.83,3.52,6.59,6.14,9.27,10.38a279,279,0,0,1,32.85-47A3.93,3.93,0,0,1,97.59,71Z"/>
      </g>
    </g>
    <text id="BUSINESS_SCHOOL" data-name="BUSINESS SCHOOL" transform="translate(91 328)" fill="#fff" font-size="25" font-family="PlayfairDisplay-Regular, Playfair Display"><tspan x="0" y="0">BUSINESS SCHOOL</tspan></text>
  </g>
</svg>
