<svg xmlns="http://www.w3.org/2000/svg" xmlns:xlink="http://www.w3.org/1999/xlink" viewBox="0 0 1400 1700">
  <defs>
    <style>
      .cls-1 {
        clip-path: url(#clip-laundryIcons);
      }

      .cls-12, .cls-2, .cls-3, .cls-5, .cls-7 {
        fill: none;
      }

      .cls-2, .cls-3 {
        stroke: #55aff3;
      }

      .cls-2, .cls-3, .cls-5, .cls-6 {
        stroke-width: 23px;
      }

      .cls-3, .cls-7 {
        stroke-linecap: round;
      }

      .cls-4 {
        fill: #55aff3;
      }

      .cls-5, .cls-6 {
        stroke: #87c6f6;
      }

      .cls-6 {
        fill: #fff;
      }

      .cls-7 {
        stroke: #555;
        stroke-width: 18px;
      }

      .cls-10, .cls-8 {
        fill: #555;
      }

      .cls-9 {
        opacity: 0.9;
      }

      .cls-10 {
        opacity: 0.4;
      }

      .cls-11 {
        stroke: none;
      }
    </style>
    <clipPath id="clip-laundryIcons">
      <rect width="1400" height="1700"/>
    </clipPath>
  </defs>
  <g id="laundryIcons" class="cls-1">
    <g id="washing_machine_icon" data-name="washing machine icon" transform="translate(618.768 459)">
      <g id="Symbol_4_1" data-name="Symbol 4 – 1" transform="translate(-117 -283)">
        <g id="Rectangle_26" data-name="Rectangle 26" class="cls-2" transform="translate(77 182)">
          <rect class="cls-11" width="458.958" height="552.184" rx="68"/>
          <rect class="cls-12" x="11.5" y="11.5" width="435.958" height="529.184" rx="56.5"/>
        </g>
        <path id="Path_8" data-name="Path 8" class="cls-2" d="M951,200.085h455.818" transform="translate(-874 111.607)"/>
        <path id="Path_9" data-name="Path 9" class="cls-3" d="M961.319,191.785H1042" transform="translate(-810.321 60.388)"/>
        <circle id="Ellipse_10" data-name="Ellipse 10" class="cls-4" cx="21.514" cy="21.514" r="21.514" transform="translate(342.335 232.199)"/>
        <circle id="Ellipse_11" data-name="Ellipse 11" class="cls-4" cx="21.514" cy="21.514" r="21.514" transform="translate(414.047 232.199)"/>
        <g id="Ellipse_12" data-name="Ellipse 12" class="cls-2" transform="translate(151.883 361.452)">
          <circle class="cls-11" cx="154.01" cy="154.01" r="154.01"/>
          <circle class="cls-12" cx="154.01" cy="154.01" r="142.51"/>
        </g>
      </g>
    </g>
    <path id="Path_78" data-name="Path 78" class="cls-5" d="M15604.041,12261.2v212.436h254.873V12261.2h73.358v-91.835l-133.158-50.41s-69.547,100.36-143.875,0l-126.5,50.41v91.835Z" transform="translate(-15389 -11059)"/>
    <path id="Path_79" data-name="Path 79" class="cls-6" d="M15884.608,12336.314s-184.426,225.289,0,225.289C16069.272,12561.6,15884.608,12336.314,15884.608,12336.314Z" transform="translate(-15389 -11059)"/>
    <path id="Path_80" data-name="Path 80" class="cls-7" d="M16618.26,12561.6v108.681h-283.21v-61.6s-6.407-47.083,57.062-47.083Z" transform="translate(-15389 -11059)"/>
    <path id="Path_81" data-name="Path 81" class="cls-7" d="M16551.77,12561.6v-86h-142.678s-36.873-17.1,0-38.386h180.113s27.332,1.26,28.213,27.1l.826,97.278Z" transform="translate(-15389 -11059)"/>
    <path id="Path_82" data-name="Path 82" class="cls-7" d="M16426.238,12561.6l14.617-33.516h60.736l17.826,33.516" transform="translate(-15389 -11059)"/>
    <path id="Path_83" data-name="Path 83" class="cls-7" d="M16618.26,12597.646h-88.17" transform="translate(-15389 -11059)"/>
    <path id="Path_84" data-name="Path 84" class="cls-7" d="M16618.26,12632.035h-283.468" transform="translate(-15389 -11059)"/>
    <circle id="Ellipse_14" data-name="Ellipse 14" class="cls-8" cx="10.5" cy="10.5" r="10.5" transform="translate(1186 1446)"/>
    <g id="hanger" transform="translate(128 97)">
      <path id="Path_85" data-name="Path 85" class="cls-8" d="M444.984,37.052c-15.4,0-28.406-12.725-28.406-27.789a9.263,9.263,0,1,0-18.526,0,27.821,27.821,0,0,1-27.789,27.789,9.263,9.263,0,0,0,0,18.526,27.821,27.821,0,0,1,27.789,27.789,9.263,9.263,0,1,0,18.526,0c0-15.064,13.009-27.789,28.406-27.789a9.263,9.263,0,1,0,0-18.526Zm-37.575,18.68a46.736,46.736,0,0,0-9.386-9.417,46.674,46.674,0,0,0,9.386-9.417,48.182,48.182,0,0,0,9.545,9.417A48.179,48.179,0,0,0,407.409,55.732Zm0,0" transform="translate(-138.071)"/>
      <path id="Path_86" data-name="Path 86" class="cls-8" d="M298.384,239.9,167.351,174.683V159.141c0-4.106,2.26-7.837,5.374-8.875a46.319,46.319,0,1,0-60.952-43.951,9.263,9.263,0,0,0,18.526,0,27.789,27.789,0,1,1,36.574,26.375c-10.795,3.592-18.048,14.223-18.048,26.453v15.54L17.778,239.909a32.162,32.162,0,0,0,14.384,60.928H283.4c17.766,0,32.78-14.365,32.78-32.162A32,32,0,0,0,298.384,239.9ZM283.4,282.312H259.981v-9.263a27.821,27.821,0,0,0-27.789-27.789,9.263,9.263,0,0,0,0,18.526,9.275,9.275,0,0,1,9.263,9.263v9.263H74.1v-9.263a9.275,9.275,0,0,1,9.263-9.263,9.263,9.263,0,1,0,0-18.526,27.821,27.821,0,0,0-27.789,27.789v9.263H32.162a13.636,13.636,0,0,1-6.113-25.825l132.039-65.721,132.024,65.714a13.56,13.56,0,0,1,7.538,12.2C297.651,276.066,291.123,282.312,283.4,282.312Zm0,0" transform="translate(0 -22.948)"/>
      <path id="Path_87" data-name="Path 87" class="cls-8" d="M37.052,203.367a9.263,9.263,0,0,0,18.526,0,27.821,27.821,0,0,1,27.789-27.789,9.263,9.263,0,1,0,0-18.526,27.821,27.821,0,0,1-27.789-27.789,9.263,9.263,0,0,0-18.526,0A27.821,27.821,0,0,1,9.263,157.052a9.263,9.263,0,1,0,0,18.526A27.821,27.821,0,0,1,37.052,203.367Zm9.263-46.344a46.649,46.649,0,0,0,9.292,9.292,46.714,46.714,0,0,0-9.292,9.292,46.65,46.65,0,0,0-9.292-9.292A46.713,46.713,0,0,0,46.315,157.023Zm0,0" transform="translate(0 -45.896)"/>
    </g>
    <g id="bucket" class="cls-9" transform="translate(873 1011.905)">
      <path id="Path_88" data-name="Path 88" class="cls-8" d="M37.225,231.177l1.1,9.94a19.763,19.763,0,0,0,19.662,17.6h81.9a19.766,19.766,0,0,0,19.663-17.6l11.238-101.977h7.282a6.6,6.6,0,0,0,6.595-6.595V106.162a6.6,6.6,0,0,0-6.595-6.595h-6.595V92.973A32.972,32.972,0,0,0,111.609,73.9a26.539,26.539,0,0,0-14.886.793A39.562,39.562,0,0,0,26.395,99.567H19.8a6.594,6.594,0,0,0-6.595,6.595V132.54a6.594,6.594,0,0,0,6.595,6.595h7.28l.97,8.8c-11.561,11.175-21.6,25.588-25.925,40.725C-2.085,203.4,0,215.92,8,223.916,15.656,231.576,26.546,233.044,37.225,231.177ZM92.341,112.757h79.135v13.189H92.341Zm22.514-22.516a6.594,6.594,0,1,0,9.327-9.325c-.252-.251-.512-.493-.771-.733a19.783,19.783,0,0,1,34.876,12.791v6.595H92.341a13.189,13.189,0,0,1,22.514-9.327ZM65.962,73.189a26.477,26.477,0,0,1,19.784,8.937,26.174,26.174,0,0,0-6.595,17.441V132.54c0,3.747-3.083,7.034-6.595,7.034s-6.595-3.287-6.595-7.034V106.162a6.6,6.6,0,0,0-6.595-6.595H39.584A26.407,26.407,0,0,1,65.962,73.189ZM26.395,112.757H52.773v13.189H26.395Zm27.477,26.378a19.621,19.621,0,0,0,37.368,0h66.279L146.44,239.661a6.588,6.588,0,0,1-6.553,5.866h-81.9a6.586,6.586,0,0,1-6.553-5.86L50.08,227.433c21.243-8.537,41.422-27.872,51.783-48.292h10.261a6.595,6.595,0,0,0,0-13.189H85.746a6.595,6.595,0,1,0,0,13.189h.981c-8.7,13.969-22.957,27.464-38.156,34.579L40.35,139.135ZM14.808,192.286c2.561-8.965,7.845-18.36,15.147-27.079l5.822,52.822c-8.047,1.556-14.651.364-18.453-3.438C12.929,210.2,12.012,202.067,14.808,192.286Zm0,0" transform="translate(0 -33.622)"/>
      <path id="Path_89" data-name="Path 89" class="cls-8" d="M409.823,0a19.784,19.784,0,1,0,19.784,19.784A19.805,19.805,0,0,0,409.823,0Zm0,26.378a6.595,6.595,0,1,1,6.595-6.595A6.6,6.6,0,0,1,409.823,26.378Zm0,0" transform="translate(-218.563)"/>
    </g>
    <path id="soak" class="cls-10" d="M173.579,100.728h-6.136a27.925,27.925,0,0,0-10.59-16.711V55.753h16.726a5.575,5.575,0,0,0,5.575-5.575V5.575A5.575,5.575,0,0,0,173.579,0H16.726a5.575,5.575,0,0,0-5.575,5.575v44.6a5.575,5.575,0,0,0,5.575,5.575H33.452V69.189a33.508,33.508,0,0,0-22.3,31.538v.958a16.723,16.723,0,0,0,.862,31.813l8.6,43.36a16.771,16.771,0,0,0,16.4,13.446H153.287a16.773,16.773,0,0,0,16.4-13.453l8.6-43.351a16.725,16.725,0,0,0-4.713-32.773Zm5.575,16.726a5.582,5.582,0,0,1-5.575,5.575H66.9V111.878H173.579A5.582,5.582,0,0,1,179.154,117.454ZM66.9,100.728A11.145,11.145,0,0,1,78.055,89.577a12.024,12.024,0,0,1,8.256,3.265A5.575,5.575,0,1,0,94.2,84.958c-.211-.212-.431-.417-.652-.619a16.73,16.73,0,0,1,28.547,5.272,5.576,5.576,0,0,0,8.366,2.785,17.754,17.754,0,0,1,9.67-2.82,16.755,16.755,0,0,1,15.768,11.151ZM110.92,11.151A16.755,16.755,0,0,1,95.152,22.3,17.35,17.35,0,0,1,79.074,11.151ZM44.6,39.027a5.575,5.575,0,0,0-11.151,0V44.6H22.3V11.151H67.475a28.325,28.325,0,0,0,27.678,22.3,27.925,27.925,0,0,0,27.316-22.3H168V44.6H156.853V39.027a5.575,5.575,0,1,0-11.151,0V78.987a27.886,27.886,0,0,0-5.575-.56,29.773,29.773,0,0,0-10.24,1.853A27.883,27.883,0,0,0,83.518,79.09a23.249,23.249,0,0,0-5.464-.664A22.318,22.318,0,0,0,70.609,79.7,33.573,33.573,0,0,0,44.6,67.276Zm0,39.4A22.388,22.388,0,0,1,61.33,85.982a22.13,22.13,0,0,0-5.577,14.746V128.6a5.575,5.575,0,1,1-11.151,0V106.3a5.575,5.575,0,0,0-5.575-5.575H22.3A22.326,22.326,0,0,1,44.6,78.426ZM16.726,111.878H33.452v11.151H16.726a5.575,5.575,0,1,1,0-11.151Zm142.027,62.794a5.589,5.589,0,0,1-5.466,4.482H37.018a5.587,5.587,0,0,1-5.465-4.473l-8.036-40.5H34.407a16.728,16.728,0,0,0,31.541,0H166.788Zm0,0" transform="translate(151 600)"/>
  </g>
</svg>
