<svg xmlns="http://www.w3.org/2000/svg" xmlns:xlink="http://www.w3.org/1999/xlink" viewBox="0 0 360 360">
  <defs>
    <style>
      .cls-1 {
        clip-path: url(#clip-laundryUser3);
      }

      .cls-2 {
        fill: #55aff3;
      }

      .cls-3 {
        fill: #fff;
      }
    </style>
    <clipPath id="clip-laundryUser3">
      <rect width="360" height="360"/>
    </clipPath>
  </defs>
  <g id="laundryUser3" class="cls-1">
    <rect class="cls-3" width="360" height="360"/>
    <path id="_003-laundry" data-name="003-laundry" class="cls-2" d="M349.453,84.375H245.77L211.641,67.31V61.474a31.642,31.642,0,1,0-42.187-29.833,10.547,10.547,0,0,0,21.094,0,10.547,10.547,0,1,1,10.547,10.547,10.546,10.546,0,0,0-10.547,10.547V67.31L156.418,84.375H52.734A10.546,10.546,0,0,0,42.188,94.922V180a10.546,10.546,0,0,0,10.547,10.547H84.375v21.8H31.641A31.62,31.62,0,0,0,8.083,265.078a31.565,31.565,0,0,0,0,42.188A31.62,31.62,0,0,0,31.641,360H307.266a10.546,10.546,0,0,0,10.547-10.547V190.547h31.641A10.546,10.546,0,0,0,360,180V94.922A10.546,10.546,0,0,0,349.453,84.375ZM201.094,85.619l31.023,15.513c-2.925,14.683-15.944,26.134-31.023,26.134s-28.1-11.451-31.023-26.134ZM31.641,233.438H201.094a10.547,10.547,0,0,1,0,21.094H31.641a10.547,10.547,0,0,1,0-21.094Zm0,63.281a10.547,10.547,0,0,1,0-21.094H201.094a10.547,10.547,0,0,1,0,21.094ZM21.094,328.359a10.56,10.56,0,0,1,10.547-10.547H201.094a10.547,10.547,0,0,1,0,21.094H31.641A10.56,10.56,0,0,1,21.094,328.359ZM338.906,169.453H317.813V158.906a10.547,10.547,0,0,0-21.094,0v180h-65.8a31.572,31.572,0,0,0-6.27-31.641,31.565,31.565,0,0,0,0-42.187,31.62,31.62,0,0,0-23.557-52.734H105.469V158.906a10.547,10.547,0,0,0-21.094,0v10.547H63.281V105.469H149.4c4.76,23.827,25.779,42.891,51.691,42.891s46.928-19.05,51.691-42.891h86.122Zm0,0"/>
  </g>
</svg>
