<svg xmlns="http://www.w3.org/2000/svg" xmlns:xlink="http://www.w3.org/1999/xlink" viewBox="0 0 360 360">
  <defs>
    <style>
      .cls-1 {
        clip-path: url(#clip-laundryUser2);
      }

      .cls-2 {
        fill: #55aff3;
      }

      .cls-3 {
        fill: #fff;
      }
    </style>
    <clipPath id="clip-laundryUser2">
      <rect width="360" height="360"/>
    </clipPath>
  </defs>
  <g id="laundryUser2" class="cls-1">
    <rect class="cls-3" width="360" height="360"/>
    <g id="_002-family" data-name="002-family" transform="translate(0 -0.012)">
      <g id="Group_2" data-name="Group 2" transform="translate(116.43 0.012)">
        <g id="Group_1" data-name="Group 1">
          <path id="Path_74" data-name="Path 74" class="cls-2" d="M255.325.013c-10.187,0-19.15,4.144-26.164,12.04C222.145,4.156,213.184.012,203,.012c-20.98,0-37.414,17.108-37.414,38.949,0,22.62,17.575,37.352,41.9,57.741,4.715,3.952,9.59,8.04,14.773,12.53a10.547,10.547,0,0,0,13.816,0c4.718-4.09,9.169-7.846,13.474-11.479,24.7-20.846,43.2-36.4,43.2-58.792C292.739,17.121,276.305.013,255.325.013Zm-19.389,81.62c-2.215,1.87-4.468,3.771-6.782,5.738-2.782-2.357-5.478-4.617-8.124-6.835-22.576-18.924-34.355-29.367-34.355-41.576,0-10.012,7.169-17.855,16.32-17.855,11.325,0,15.7,13.958,16.008,14.974a10.5,10.5,0,0,0,20.313,0c.3-1.016,4.682-14.974,16.008-14.974,9.151,0,16.32,7.843,16.32,17.856C271.645,51.221,258.133,62.9,235.936,81.632Z" transform="translate(-165.582 -0.012)"/>
        </g>
      </g>
      <g id="Group_4" data-name="Group 4" transform="translate(0 35.818)">
        <g id="Group_3" data-name="Group 3">
          <path id="Path_75" data-name="Path 75" class="cls-2" d="M356.816,121.708a52.734,52.734,0,1,0-96.145,6.664c-39.483,2.69-70.757,31.243-78.912,65.4l-.33,1.387a27.924,27.924,0,0,0-2.84,0,87.366,87.366,0,0,0-79.243-66.791,52.755,52.755,0,1,0-66.29,24.185A87.854,87.854,0,0,0,14.987,253.449L70.349,369.133a10.547,10.547,0,0,0,9.513,5.994h200.29a10.545,10.545,0,0,0,9.513-5.994l55.352-115.661a87.863,87.863,0,0,0-18.058-100.915A52.608,52.608,0,0,0,356.816,121.708ZM180.009,216.221a21.094,21.094,0,1,1-21.094,21.094A21.118,21.118,0,0,1,180.009,216.221ZM23.022,114.493A31.641,31.641,0,1,1,63.576,133.4,31.623,31.623,0,0,1,23.022,114.493ZM86.508,354.034,34,244.321c-16.931-35.163.328-77.826,36.787-91.1,36.63-13.332,77.35,7.955,86.967,45.523l.57,2.393a42.285,42.285,0,0,0-19.881,28.979l-24.559-18.135a31.639,31.639,0,0,0-37.96,50.627l57.433,43.242,12.045,48.18h-58.9ZM207.1,297.115l-14.229,56.918H167.149l-14.23-56.918a10.547,10.547,0,0,0-3.888-5.868L88.6,245.745a10.545,10.545,0,0,1,12.66-16.867l.067.051,44.191,32.631a42.127,42.127,0,0,0,68.987,0l44.246-32.672A10.545,10.545,0,1,1,271.4,245.76l-60.415,45.487A10.551,10.551,0,0,0,207.1,297.115ZM326,244.344l-52.493,109.69h-58.9l12.045-48.18,57.413-43.227a31.638,31.638,0,0,0-37.905-50.667l-24.594,18.16a42.281,42.281,0,0,0-19.881-28.978l.57-2.393c9.629-37.616,50.384-58.837,86.968-45.523C325.727,166.51,342.927,209.192,326,244.344ZM337,114.493a31.641,31.641,0,1,1-18.911-40.554A31.625,31.625,0,0,1,337,114.493Z" transform="translate(0 -50.934)"/>
        </g>
      </g>
    </g>
  </g>
</svg>
