<svg xmlns="http://www.w3.org/2000/svg" xmlns:xlink="http://www.w3.org/1999/xlink" viewBox="0 0 360 360">
  <defs>
    <style>
      .cls-1 {
        clip-path: url(#clip-laundryUser1);
      }

      .cls-2 {
        fill: #55aff3;
      }

      .cls-3 {
        fill: #fff;
      }
    </style>
    <clipPath id="clip-laundryUser1">
      <rect width="360" height="360"/>
    </clipPath>
  </defs>
  <g id="laundryUser1" class="cls-1">
    <rect class="cls-3" width="360" height="360"/>
    <g id="_001-mortarboard" data-name="001-mortarboard" transform="translate(0 0.002)">
      <path id="Path_72" data-name="Path 72" class="cls-2" d="M338.9,234.548V89.727l14.238-5.317a10.546,10.546,0,0,0,.036-19.745L183.726.681a10.52,10.52,0,0,0-7.451,0L6.822,64.665A10.545,10.545,0,0,0,6.858,84.41l57.126,21.335v76.89a10.546,10.546,0,0,0,6.63,9.792A293.2,293.2,0,0,0,180,213.493a293.2,293.2,0,0,0,109.385-21.066,10.545,10.545,0,0,0,6.63-9.792v-76.89l21.8-8.141V234.548a31.608,31.608,0,0,0-13.01,50.919,31.516,31.516,0,0,0-8.083,21.094v42.89A10.546,10.546,0,0,0,307.264,360h42.187A10.546,10.546,0,0,0,360,349.451v-42.89a31.516,31.516,0,0,0-8.083-21.094A31.608,31.608,0,0,0,338.9,234.548ZM180,21.821,319.451,74.476c-6.174,2.307-133.3,49.782-139.452,52.078-4.644-1.733-129.443-48.34-139.452-52.078ZM274.921,175.4a272.134,272.134,0,0,1-189.843,0V113.623l91.233,34.071a10.565,10.565,0,0,0,7.38,0l91.23-34.071Zm53.437,78.428a10.547,10.547,0,1,1-10.547,10.547A10.56,10.56,0,0,1,328.358,253.827ZM338.9,338.9H317.811V306.561a10.547,10.547,0,1,1,21.094,0Zm0,0" transform="translate(0)"/>
      <path id="Path_73" data-name="Path 73" class="cls-2" d="M262.094,101.547A10.547,10.547,0,1,1,251.547,91,10.546,10.546,0,0,1,262.094,101.547Zm0,0" transform="translate(-71.548 -27.016)"/>
      <path id="Path_77" data-name="Path 77" class="cls-3" d="M12729.73,18718.662l-64.467-16.854v55.563l32.341,8.906h127.255l27.789-8.906-49.68-43.664-42.443,13.83Z" transform="translate(-12580 -18581.002)"/>
    </g>
  </g>
</svg>
