<svg xmlns="http://www.w3.org/2000/svg" xmlns:xlink="http://www.w3.org/1999/xlink" viewBox="0 0 230 149">
  <defs>
    <style>
      .cls-1 {
        clip-path: url(#clip-meals);
      }

      .cls-2 {
        fill: #e5e5e5;
      }

      .cls-3 {
        fill: #ba4170;
      }

      .cls-4 {
        fill: #6b962a;
      }

      .cls-5 {
        fill: #de4c3c;
      }

      .cls-6 {
        fill: #fdb62f;
      }

      .cls-7 {
        fill: #fd0;
      }

      .cls-8 {
        fill: #dedede;
      }

      .cls-9 {
        fill: #fff;
      }
    </style>
    <clipPath id="clip-meals">
      <rect width="230" height="149"/>
    </clipPath>
  </defs>
  <g id="meals" class="cls-1">
    <rect class="cls-9" width="230" height="149"/>
    <g id="_001-salad" data-name="001-salad" transform="translate(48.61 8.111)">
      <path id="Path_90" data-name="Path 90" class="cls-2" d="M92.944,377.228H52.96A44.426,44.426,0,0,1,8.533,332.8H137.37A44.425,44.425,0,0,1,92.944,377.228Z" transform="translate(-6.312 -246.169)"/>
      <path id="Path_91" data-name="Path 91" class="cls-3" d="M242.885,30.719h-1.844l5.838-5.838a9.7,9.7,0,0,0,.911-12.93,9.427,9.427,0,0,0-13.268-1.3c-.238.2-.466.4-.684.62l-6.124,6.124V15.547a6.918,6.918,0,0,0-6.306-7.042,6.665,6.665,0,0,0-7.013,6.3c-.007.122-.009.244-.009.367V26.276A6.664,6.664,0,0,0,207.73,19.6c-.122,0-.244,0-.367.009a6.919,6.919,0,0,0-6.306,7.042V37.383A6.664,6.664,0,0,0,194.4,30.71c-.122,0-.244,0-.367.009a6.918,6.918,0,0,0-6.306,7.042V70.7h37.762a6.664,6.664,0,0,0,6.664-6.664h0a6.663,6.663,0,0,0-6.664-6.664h10.729a6.918,6.918,0,0,0,7.042-6.306,6.665,6.665,0,0,0-6.3-7.013c-.122,0-.244-.009-.367-.009h6.664a6.664,6.664,0,0,0,6.673-6.655c0-.122,0-.244-.009-.367A6.917,6.917,0,0,0,242.885,30.719Z" transform="translate(-138.86 -6.284)"/>
      <g id="Group_6" data-name="Group 6" transform="translate(8.885 5.691)">
        <path id="Path_92" data-name="Path 92" class="cls-4" d="M195.839,56.842,192.7,53.7l-9.536,9.536V57.493h-4.442V67.68l-8.886,8.886V68.6h-4.442V81.008l-8.885,8.885V79.706h-4.443v14.63L130.5,115.9l3.141,3.141L155.2,97.477h14.63V93.034H159.647l8.885-8.885h12.408V79.706h-7.966l8.885-8.885h10.187V66.378H186.3Z" transform="translate(-105.415 -45.414)"/>
        <path id="Path_93" data-name="Path 93" class="cls-4" d="M51.273,53.936A11.12,11.12,0,0,1,40.167,42.829V41.718l-1.946-1.459A10.218,10.218,0,1,1,50.483,23.91l.791.593.788-.593a10.217,10.217,0,0,1,14.305,2.041c.113.151.224.307.329.464h0a10.218,10.218,0,0,1-2.372,13.843L62.38,41.718v1.111A11.119,11.119,0,0,1,51.273,53.936Zm-6.9-27.629A5.78,5.78,0,0,0,40.88,36.7l2.832,2.126a2.22,2.22,0,0,1,.888,1.777v2.221a6.664,6.664,0,0,0,13.328,0V40.608a2.22,2.22,0,0,1,.888-1.777L61.649,36.7a5.775,5.775,0,0,0-6.931-9.241L52.6,29.057a2.219,2.219,0,0,1-2.666,0l-2.124-1.593A5.707,5.707,0,0,0,44.372,26.307Z" transform="translate(-34.134 -21.864)"/>
      </g>
      <g id="Group_7" data-name="Group 7" transform="translate(0 2.221)">
        <path id="Path_94" data-name="Path 94" class="cls-5" d="M460.8,68.972V64.529a4.443,4.443,0,1,0,0-8.885V51.2a8.885,8.885,0,0,1,0,17.771Z" transform="translate(-340.848 -40.094)"/>
        <rect id="Rectangle_30" data-name="Rectangle 30" class="cls-5" width="4.443" height="4.443" transform="translate(48.869)"/>
        <rect id="Rectangle_31" data-name="Rectangle 31" class="cls-5" width="4.443" height="4.443" transform="translate(62.197 71.083)"/>
        <rect id="Rectangle_32" data-name="Rectangle 32" class="cls-5" width="4.443" height="4.443" transform="translate(4.443 31.099)"/>
        <rect id="Rectangle_33" data-name="Rectangle 33" class="cls-5" width="4.443" height="4.443" transform="translate(0 22.213)"/>
      </g>
      <path id="Path_95" data-name="Path 95" class="cls-6" d="M316.437,281.953h-4.443a4.443,4.443,0,0,0-8.885,0h-4.443a8.885,8.885,0,0,1,17.771,0Z" transform="translate(-220.92 -201.985)"/>
      <path id="Path_96" data-name="Path 96" class="cls-7" d="M32.968,185.865H30.747a6.664,6.664,0,1,0-13.328,0H15.2a6.664,6.664,0,1,0,0,13.328h17.77a6.664,6.664,0,1,0,0-13.328Z" transform="translate(-6.312 -132.553)"/>
      <rect id="Rectangle_34" data-name="Rectangle 34" class="cls-3" width="8.885" height="8.885" transform="translate(13.328 66.64)"/>
      <path id="Path_97" data-name="Path 97" class="cls-2" d="M414.395,196.268A13.328,13.328,0,1,0,427.723,209.6,13.327,13.327,0,0,0,414.395,196.268Zm0,19.992a6.664,6.664,0,1,1,6.664-6.664A6.663,6.663,0,0,1,414.395,216.26Z" transform="translate(-296.664 -145.177)"/>
      <path id="Path_98" data-name="Path 98" class="cls-8" d="M206.016,332.8c-17.548,23.186-43.34,36.283-63.159,43.394a44.425,44.425,0,0,0,9.461,1.033H192.3A44.426,44.426,0,0,0,236.728,332.8Z" transform="translate(-105.67 -246.169)"/>
      <path id="Path_99" data-name="Path 99" d="M131.059,324.268H2.222A2.222,2.222,0,0,0,0,326.489a46.7,46.7,0,0,0,46.648,46.648H86.633a46.7,46.7,0,0,0,46.648-46.648A2.222,2.222,0,0,0,131.059,324.268ZM86.633,368.694H46.649A42.258,42.258,0,0,1,4.5,328.71H128.78A42.259,42.259,0,0,1,86.633,368.694Z" transform="translate(-0.001 -239.857)"/>
      <path id="Path_100" data-name="Path 100" d="M209.8,30.623a8.906,8.906,0,0,0-6.22-7.923l2.53-2.532a11.955,11.955,0,0,0,1.053-15.914,11.65,11.65,0,0,0-16.4-1.606c-.293.24-.573.5-.84.762L187.12,6.22a8.845,8.845,0,0,0-17.286,2.666v3.405a8.9,8.9,0,0,0-13.328,8.079V23.4a8.9,8.9,0,0,0-13.328,8.079V63.5L130.5,76.176l3.141,3.141L146.319,66.64h36.843a8.885,8.885,0,0,0,7.693-13.328h3.037a9.084,9.084,0,0,0,9.25-8.41,8.827,8.827,0,0,0-1.206-4.974,8.945,8.945,0,0,0,5.44-2.715A8.813,8.813,0,0,0,209.8,30.623Zm-5.649,3.532a4.4,4.4,0,0,1-3.223,1.386h-6.664a2.221,2.221,0,1,0,0,4.442,4.443,4.443,0,0,1,4.449,4.436c0,.082,0,.164-.007.247a4.707,4.707,0,0,1-4.82,4.2H183.162a2.221,2.221,0,0,0,0,4.442,4.443,4.443,0,1,1,0,8.885h-32.4l4.443-4.443h14.63V53.311H159.647l8.885-8.885H180.94V39.983h-7.966L181.86,31.1h10.187V26.655H186.3l9.537-9.536L192.7,13.979l-9.536,9.536V17.771h-4.443V27.958l-8.885,8.885V28.877h-4.443V41.285l-8.885,8.885V39.984h-4.443v14.63l-4.443,4.443V31.476a4.7,4.7,0,0,1,4.2-4.82A4.442,4.442,0,0,1,156.5,30.85c0,.082.007.167.007.249a2.221,2.221,0,1,0,4.442,0V20.37a4.7,4.7,0,0,1,4.2-4.82,4.442,4.442,0,0,1,4.678,4.194c0,.082.007.167.007.249a2.221,2.221,0,1,0,4.442,0V8.885a4.441,4.441,0,0,1,4.436-4.449c.082,0,.167,0,.249.007a4.7,4.7,0,0,1,4.2,4.82v1.844a2.221,2.221,0,0,0,3.792,1.57l6.124-6.126a7.211,7.211,0,0,1,10.2.018c.162.164.318.336.464.513a7.484,7.484,0,0,1-.769,9.945l-5.838,5.838a2.221,2.221,0,0,0,1.577,3.792h1.844a4.707,4.707,0,0,1,4.82,4.2A4.4,4.4,0,0,1,204.156,34.155Z" transform="translate(-96.53 0)"/>
      <path id="Path_101" data-name="Path 101" d="M51.274,53.941A11.12,11.12,0,0,0,62.381,42.834V41.723l1.944-1.459A10.218,10.218,0,1,0,52.063,23.915l-.788.593-.791-.593A10.218,10.218,0,0,0,38.222,40.264l1.946,1.459v1.111A11.119,11.119,0,0,0,51.274,53.941ZM39.548,28.886a5.767,5.767,0,0,1,8.27-1.419l2.124,1.593a2.219,2.219,0,0,0,2.666,0l2.121-1.593a5.775,5.775,0,0,1,6.931,9.241l-2.832,2.126a2.22,2.22,0,0,0-.888,1.777v2.221a6.664,6.664,0,0,1-13.328,0V40.612a2.22,2.22,0,0,0-.888-1.777l-2.832-2.126A5.775,5.775,0,0,1,39.548,28.886Z" transform="translate(-25.249 -16.178)"/>
      <rect id="Rectangle_35" data-name="Rectangle 35" width="4.443" height="4.443" transform="translate(48.869 2.221)"/>
      <rect id="Rectangle_36" data-name="Rectangle 36" width="4.443" height="4.443" transform="translate(62.197 73.304)"/>
      <path id="Path_102" data-name="Path 102" d="M460.8,64.529v4.443a8.885,8.885,0,0,0,0-17.771v4.443a4.443,4.443,0,1,1,0,8.885Z" transform="translate(-340.848 -37.873)"/>
      <rect id="Rectangle_37" data-name="Rectangle 37" width="4.443" height="4.443" transform="translate(4.443 33.32)"/>
      <rect id="Rectangle_38" data-name="Rectangle 38" width="4.443" height="4.443" transform="translate(0 24.435)"/>
      <path id="Path_103" data-name="Path 103" d="M307.552,273.068a8.886,8.886,0,0,0-8.885,8.885h4.443a4.443,4.443,0,0,1,8.886,0h4.443A8.886,8.886,0,0,0,307.552,273.068Z" transform="translate(-220.92 -201.985)"/>
      <path id="Path_104" data-name="Path 104" d="M8.886,195.071h2.221v6.664a2.222,2.222,0,0,0,2.221,2.221h8.885a2.222,2.222,0,0,0,2.221-2.221v-6.664h2.221a8.885,8.885,0,0,0,0-17.77h-.28a8.885,8.885,0,0,0-17.211,0h-.28a8.885,8.885,0,1,0,0,17.77Zm11.106,4.443H15.549v-4.443h4.442ZM8.886,181.743h2.221a2.222,2.222,0,0,0,2.221-2.221,4.443,4.443,0,0,1,8.885,0,2.222,2.222,0,0,0,2.221,2.221h2.221a4.443,4.443,0,0,1,0,8.886H8.886a4.443,4.443,0,0,1,0-8.886Z" transform="translate(0 -126.21)"/>
      <path id="Path_105" data-name="Path 105" d="M433.331,221.868a6.664,6.664,0,1,0,6.664,6.664A6.663,6.663,0,0,0,433.331,221.868Zm0,8.885a2.221,2.221,0,1,1,2.221-2.221A2.222,2.222,0,0,1,433.331,230.753Z" transform="translate(-315.6 -164.113)"/>
      <path id="Path_106" data-name="Path 106" d="M408.083,187.734a15.549,15.549,0,1,0,15.549,15.549A15.549,15.549,0,0,0,408.083,187.734Zm0,26.656a11.107,11.107,0,1,1,11.107-11.107A11.108,11.108,0,0,1,408.083,214.39Z" transform="translate(-290.353 -138.865)"/>
    </g>
  </g>
</svg>
