<svg xmlns="http://www.w3.org/2000/svg" xmlns:xlink="http://www.w3.org/1999/xlink" width="400" height="400" viewBox="0 0 400 400">
  <defs>
    <clipPath id="clip-research">
      <rect width="400" height="400"/>
    </clipPath>
  </defs>
  <g id="research" clip-path="url(#clip-research)">
    <g id="_001-meeting" data-name="001-meeting" transform="translate(29.855 29.855)">
      <path id="Path_409" data-name="Path 409" d="M39.878,80.42A39.921,39.921,0,0,0,79.755,40.542C79.755,18.68,62.086,0,39.878,0S0,18.685,0,40.542A39.921,39.921,0,0,0,39.878,80.42Zm0-60.481c10.808,0,19.939,9.435,19.939,20.6a19.939,19.939,0,0,1-39.878,0C19.939,29.373,29.07,19.939,39.878,19.939Zm0,0" fill="#fff"/>
      <path id="Path_410" data-name="Path 410" d="M431.878,0C409.662,0,392,18.685,392,40.542a39.878,39.878,0,1,0,79.755,0C471.755,18.68,454.086,0,431.878,0Zm0,60.481a19.961,19.961,0,0,1-19.939-19.939c0-11.169,9.131-20.6,19.939-20.6s19.939,9.435,19.939,20.6A19.961,19.961,0,0,1,431.878,60.481Zm0,0" transform="translate(-131.466)" fill="#fff"/>
      <path id="Path_411" data-name="Path 411" d="M340.289,156.412a35.412,35.412,0,0,0-63.742-21.247l-19.285,25.713H180.779v39.878H159.51V160.878H83.026L63.742,135.165A35.412,35.412,0,0,0,0,156.412V300.449H59.816v80.42h59.816V240.633H59.816V220.694H160.175V360.93h-20.6v19.939h61.146V360.93h-20.6V220.694H280.473v19.939H220.656V380.869h59.816v-80.42h59.816ZM139.572,200.755H39.878v59.816H99.694V360.93H79.755V280.51H19.939v-124.1a15.473,15.473,0,0,1,27.852-9.284l25.266,33.688h66.515ZM320.35,280.51H260.534v80.42H240.6V260.572h59.816V200.755H200.717V180.816h66.515L292.5,147.128a15.473,15.473,0,0,1,27.852,9.284Zm0,0" transform="translate(0 -40.58)" fill="#fff"/>
    </g>
  </g>
</svg>
