<svg xmlns="http://www.w3.org/2000/svg" xmlns:xlink="http://www.w3.org/1999/xlink" viewBox="0 0 230 149">
  <defs>
    <style>
      .cls-1 {
        clip-path: url(#clip-restro);
      }

      .cls-2 {
        fill: #efefef;
      }

      .cls-3 {
        fill: #dedede;
      }

      .cls-4 {
        fill: #fd0;
      }

      .cls-5 {
        fill: #231f20;
      }

      .cls-6 {
        fill: #fff;
      }
    </style>
    <clipPath id="clip-restro">
      <rect width="230" height="149"/>
    </clipPath>
  </defs>
  <g id="restro" class="cls-1">
    <rect class="cls-6" width="230" height="149"/>
    <g id="_006-plate" data-name="006-plate" transform="translate(35.015 74.357) rotate(-45)">
      <g id="Group_11" data-name="Group 11" transform="translate(2.227 2.227)">
        <path id="Path_170" data-name="Path 170" class="cls-2" d="M167.041,182.2l-9.1,9.1a6.424,6.424,0,0,0-1.864,5.014h0a6.423,6.423,0,0,1-1.864,5.014L124.93,230.608a4.454,4.454,0,0,0,0,6.3h0a4.454,4.454,0,0,0,6.3,0l25.932-25.932,6.929-6.929L204.4,163.732l-9.63,2.535A61.286,61.286,0,0,0,167.041,182.2Z" transform="translate(-98.427 -129.637)"/>
        <circle id="Ellipse_24" data-name="Ellipse 24" class="cls-3" cx="54.564" cy="54.564" r="54.564"/>
        <path id="Path_171" data-name="Path 171" class="cls-4" d="M89,23,73.547,38.451a12.085,12.085,0,0,0-3.517,9.293l.061.985a12.086,12.086,0,0,1-3.517,9.293L25.547,99.049a4.454,4.454,0,0,0,0,6.3h0a4.454,4.454,0,0,0,6.3,0L72.874,64.32A12.085,12.085,0,0,1,82.167,60.8l.985.061a12.086,12.086,0,0,0,9.293-3.517l17.774-17.774Z" transform="translate(-21.091 -20.125)"/>
      </g>
      <g id="Group_12" data-name="Group 12" transform="translate(0 0)">
        <path id="Path_172" data-name="Path 172" class="cls-5" d="M433.691,252.983a2.223,2.223,0,0,0-2.309,2.142q-.018.477-.047.951a2.227,2.227,0,0,0,2.085,2.36c.047,0,.093,0,.139,0a2.227,2.227,0,0,0,2.221-2.09q.033-.528.053-1.059A2.227,2.227,0,0,0,433.691,252.983Z" transform="translate(-335.645 -196.86)"/>
        <path id="Path_173" data-name="Path 173" class="cls-5" d="M110.179,37.349a2.223,2.223,0,0,0-1.246-3.129A56.815,56.815,0,1,0,4.861,79.837,6.678,6.678,0,0,0,9.832,90.979a6.723,6.723,0,0,0,1.479-.166,57.35,57.35,0,0,0,14.235,13.414A6.681,6.681,0,0,0,36.6,111.072l.855-.855a56.857,56.857,0,0,0,72.72-72.868ZM56.791,4.454a52.28,52.28,0,0,1,9.894.947L58.9,13.188c-.871.077-1.679.175-2.107.175A43.431,43.431,0,0,0,15.244,69.44L8.276,76.408A52.325,52.325,0,0,1,56.791,4.454ZM48.943,29.984l.061.985a9.862,9.862,0,0,1-2.868,7.58L18.873,65.811A38.981,38.981,0,0,1,54.179,17.906l-1.072,1.072A14.32,14.32,0,0,0,48.943,29.984ZM8.257,85.876a2.227,2.227,0,0,1,0-3.149L49.285,41.7a14.319,14.319,0,0,0,4.164-11.005l-.061-.985a9.862,9.862,0,0,1,2.869-7.58L71.708,6.677a2.219,2.219,0,0,0,.179-.2l.424.331q2.089.65,4.1,1.468l-15.82,15.82a2.227,2.227,0,0,0,3.15,3.15L80.33,10.654a2.228,2.228,0,0,0,.332-.428q2.089,1.075,4.065,2.33L83.48,13.8h0L66.892,30.391a2.227,2.227,0,0,0,3.15,3.15l18.4-18.4A52.657,52.657,0,0,1,104.38,35.026L98.007,36.7a63.576,63.576,0,0,0-28.74,16.509l-9.1,9.1a8.644,8.644,0,0,0-2.51,6.752,4.193,4.193,0,0,1-1.217,3.275l-18.53,18.53A39.26,39.26,0,0,1,24.7,78.879L55.585,48a9.873,9.873,0,0,1,7.58-2.869l.985.061a14.315,14.315,0,0,0,11.005-4.164L92.929,23.251a2.227,2.227,0,0,0-3.15-3.15L72.006,37.875a9.867,9.867,0,0,1-7.58,2.869l-.985-.061a14.314,14.314,0,0,0-11.005,4.164L11.407,85.876A2.23,2.23,0,0,1,8.257,85.876Zm6.886,2.563,6.365-6.364A43.759,43.759,0,0,0,34.649,94.13l-6.463,6.463A52.763,52.763,0,0,1,15.143,88.439ZM30.3,107.923a2.23,2.23,0,0,1,0-3.149L59.591,75.487a8.644,8.644,0,0,0,2.51-6.752,4.192,4.192,0,0,1,1.218-3.275l9.1-9.1A59.115,59.115,0,0,1,99.141,41.011l1.663-.438L33.454,107.923A2.229,2.229,0,0,1,30.3,107.923Zm26.486,1.2a52.124,52.124,0,0,1-15.8-2.44l7.3-7.3A43.47,43.47,0,0,0,96.156,75.126a2.227,2.227,0,1,0-4.035-1.887A38.961,38.961,0,0,1,52.185,95.491l54.5-54.5a52.339,52.339,0,0,1-49.9,68.138Z" transform="translate(0 0)"/>
      </g>
    </g>
  </g>
</svg>
