<svg xmlns="http://www.w3.org/2000/svg" xmlns:xlink="http://www.w3.org/1999/xlink" width="400" height="400" viewBox="0 0 400 400">
  <defs>
    <clipPath id="clip-sam">
      <rect width="400" height="400"/>
    </clipPath>
  </defs>
  <g id="sam" clip-path="url(#clip-sam)">
    <path id="Union_1" data-name="Union 1" d="M101.566,280.309C87.9,273.852,83.742,262.617,85.224,248.34a113.482,113.482,0,0,0,0-12.544c-.079-10.784.45-21.609-.476-32.327-1.046-12.306-11.181-20.815-23.236-20.947-11.38-.132-21.727,8.35-23.461,19.24q-.146.8-.236,1.592V204.6l-.108-.026a23.821,23.821,0,0,0,17.136,24.345c1.76.542,3.533.979,5.968,1.654-9.262,9.263-18.1,17.864-26.65,26.69-2.461,2.541-4.274,2.024-6.775.331a62.338,62.338,0,0,1-25-33.081c-.728-2.157-.45-4.83-2.713-6.391v-22.5q.129-.084.245-.174l-.11-.027V0H18.256S37.814-.038,37.814,25.263v124a64.745,64.745,0,0,1,33.224-3.816,60.7,60.7,0,0,1,51.884,60.141c.079,24.9-.119,49.82-.185,74.724Z" transform="translate(138.249 59.906)" fill="#fff"/>
  </g>
</svg>
