<svg xmlns="http://www.w3.org/2000/svg" xmlns:xlink="http://www.w3.org/1999/xlink" width="400" height="400" viewBox="0 0 400 400">
  <defs>
    <linearGradient id="linear-gradient" x1="0.071" y1="0.157" x2="0.953" y2="1.056" gradientUnits="objectBoundingBox">
      <stop offset="0" stop-color="#d6d6d6"/>
      <stop offset="1" stop-color="#fff"/>
    </linearGradient>
    <linearGradient id="linear-gradient-2" x1="1" y1="-0.098" x2="0" y2="1" xlink:href="#linear-gradient"/>
    <linearGradient id="linear-gradient-5" x1="0" y1="0" x2="0" y2="1" xlink:href="#linear-gradient"/>
    <clipPath id="clip-tc">
      <rect width="400" height="400"/>
    </clipPath>
  </defs>
  <g id="tc" clip-path="url(#clip-tc)">
    <g id="logo" transform="translate(-52.414 -31.278)">
      <g id="Group_418" data-name="Group 418" transform="translate(139.135 98)">
        <g id="_001-mobileme-logo-of-black-cloud" data-name="001-mobileme-logo-of-black-cloud" transform="translate(0 0.059)">
          <path id="MobileMe" d="M229.024,179.226a45.133,45.133,0,0,1-44.96,45.3H44.952a45.325,45.325,0,0,1-7.064-90.034,28.894,28.894,0,0,1-.422-4.9,28.593,28.593,0,0,1,28.49-28.7,28.183,28.183,0,0,1,18.411,6.811c8.845-20.082,20.185-38.409,52-38.409,38.581,0,56.866,29.98,56.866,61.615,0,1.323-.055,2.634-.144,3.931A45.232,45.232,0,0,1,229.024,179.226Z" transform="translate(0 -69.296)" opacity="0.807" fill="url(#linear-gradient)"/>
        </g>
        <circle id="Ellipse_50" data-name="Ellipse 50" cx="7.987" cy="7.987" r="7.987" transform="translate(212.987 41.592)" fill="url(#linear-gradient-2)"/>
        <circle id="Ellipse_51" data-name="Ellipse 51" cx="3.727" cy="3.727" r="3.727" transform="translate(205.533 28.813)" fill="url(#linear-gradient-2)"/>
        <circle id="Ellipse_52" data-name="Ellipse 52" cx="3.727" cy="3.727" r="3.727" transform="translate(70.286 16.034)" fill="url(#linear-gradient-2)"/>
        <g id="Group_419" data-name="Group 419" transform="translate(0 0)">
          <circle id="Ellipse_55" data-name="Ellipse 55" cx="44.69" cy="44.69" r="44.69" transform="translate(0 66.142)" opacity="0.353" fill="url(#linear-gradient-5)"/>
          <circle id="Ellipse_57" data-name="Ellipse 57" cx="57.204" cy="57.204" r="57.204" transform="translate(80.443)" opacity="0.8" fill="url(#linear-gradient-5)"/>
          <circle id="Ellipse_58" data-name="Ellipse 58" cx="44.69" cy="44.69" r="44.69" transform="translate(141.222 66.142)" opacity="0.671" fill="url(#linear-gradient-5)"/>
          <circle id="Ellipse_56" data-name="Ellipse 56" cx="32.177" cy="32.177" r="32.177" transform="translate(37.54 30.389)" opacity="0.404" fill="url(#linear-gradient-5)"/>
        </g>
      </g>
      <text id="Talentclouds" transform="translate(252 311.673)" fill="#fff" font-size="53" font-family="Montserrat-Medium, Montserrat" font-weight="500"><tspan x="-169.388" y="0">Talent</tspan><tspan y="0" fill="#efefef" font-family="Montserrat-Light, Montserrat" font-weight="300">clouds</tspan></text>
    </g>
  </g>
</svg>
