<svg xmlns="http://www.w3.org/2000/svg" xmlns:xlink="http://www.w3.org/1999/xlink" width="400" height="400" viewBox="0 0 400 400">
  <defs>
    <clipPath id="clip-tikii">
      <rect width="400" height="400"/>
    </clipPath>
  </defs>
  <g id="tikii" clip-path="url(#clip-tikii)">
    <g id="Rectangle_48" data-name="Rectangle 48" transform="translate(60 60)" fill="none" stroke="#fff" stroke-width="10">
      <rect width="281" height="281" stroke="none"/>
      <rect x="5" y="5" width="271" height="271" fill="none"/>
    </g>
    <g id="Just_Tikii_and_Infinity_without_gradient" data-name="Just Tikii and Infinity without gradient" transform="translate(96.549 157.989)">
      <g id="Layer_1" data-name="Layer 1" transform="translate(0 -0.419)">
        <path id="Path_6" data-name="Path 6" d="M6.465,22.39H21.93V38.951h9.435V50.627H21.93V64.8c0,4.165,1.046,6.159,3.494,6.159a7.343,7.343,0,0,0,3.849-1.392l3.839,12.406a25.74,25.74,0,0,1-11.4,2.773c-12.317,0-15.288-9.11-15.288-17V50.627H0V38.951H6.465Z" transform="translate(0 0.685)" fill="#fff"/>
        <path id="Path_7" data-name="Path 7" d="M64.808,20.42a9.169,9.169,0,1,1-9.169-9.11,9.169,9.169,0,0,1,9.169,9.11ZM47.684,83.3H63.15V38.807H47.684Z" transform="translate(-0.606 0.829)" fill="#fff"/>
        <path id="Path_8" data-name="Path 8" d="M113.165,60.022l23.411,23.243H116.659L98.8,65.48V83.246H83.28V8.68H98.8V54.3l15.594-15.525h20.095Z" transform="translate(-1.085 0.864)" fill="#fff"/>
        <path id="Path_9" data-name="Path 9" d="M149.31,83.663H164.8V39.17H149.31Z" transform="translate(-1.946 0.466)" fill="#fff"/>
        <path id="Path_10" data-name="Path 10" d="M184.89,83.663h15.466V39.17H184.89Z" transform="translate(-2.409 0.466)" fill="#fff"/>
        <text id="_" data-name="∞" transform="translate(135.451 41.43)" fill="#fff" font-size="93" font-family="AvenirNextCondensed-DemiBold, Avenir Next Condensed" font-weight="300"><tspan x="0" y="0">∞</tspan></text>
      </g>
    </g>
  </g>
</svg>
