<svg xmlns="http://www.w3.org/2000/svg" xmlns:xlink="http://www.w3.org/1999/xlink" viewBox="0 0 230 149">
  <defs>
    <style>
      .cls-1 {
        clip-path: url(#clip-truck);
      }

      .cls-2 {
        fill: #fbb034;
      }

      .cls-3 {
        fill: #e5e5e5;
      }

      .cls-4 {
        fill: #fff;
      }

      .cls-5 {
        fill: #dedede;
      }
    </style>
    <clipPath id="clip-truck">
      <rect width="230" height="149"/>
    </clipPath>
  </defs>
  <g id="truck" class="cls-1">
    <rect class="cls-4" width="230" height="149"/>
    <g id="_005-truck" data-name="005-truck" transform="translate(36.494 13)">
      <path id="Path_156" data-name="Path 156" class="cls-2" d="M297.31,10h-75.2A6.112,6.112,0,0,0,216,16.114v91.7h81.31a6.112,6.112,0,0,0,6.113-6.114V16.114A6.112,6.112,0,0,0,297.31,10Zm0,0" transform="translate(-149.974 -6.943)"/>
      <path id="Path_157" data-name="Path 157" class="cls-3" d="M389.568,305.284A15.284,15.284,0,1,1,374.284,290,15.286,15.286,0,0,1,389.568,305.284Zm0,0" transform="translate(-249.262 -201.354)"/>
      <path id="Path_158" data-name="Path 158" class="cls-4" d="M389,68.341V92.795h6.114v18.341a6.113,6.113,0,1,0,12.227,0V50A18.34,18.34,0,0,0,389,68.341Zm0,0" transform="translate(-270.092 -34.716)"/>
      <path id="Path_159" data-name="Path 159" class="cls-4" d="M301.227,190v18.341a6.114,6.114,0,0,1-12.227,0V190Zm0,0" transform="translate(-200.66 -131.922)"/>
      <path id="Path_160" data-name="Path 160" class="cls-5" d="M44.976,70a6.114,6.114,0,0,0-5.8,4.182l-11.28,32.5h0c-.973,1.174-1,.872-12.448,8.6A12.22,12.22,0,0,0,10,125.453v17.909a6.112,6.112,0,0,0,6.114,6.114H72.969V70Zm0,0" transform="translate(-6.943 -48.603)"/>
      <path id="Path_161" data-name="Path 161" class="cls-4" d="M101.387,120v21.4H68.539a6.152,6.152,0,0,0,1.11-1.99L76.116,120Zm0,0" transform="translate(-47.588 -83.319)"/>
      <path id="Path_162" data-name="Path 162" class="cls-3" d="M103.568,305.284A15.284,15.284,0,1,1,88.284,290,15.286,15.286,0,0,1,103.568,305.284Zm0,0" transform="translate(-50.686 -201.354)"/>
      <path id="Path_163" data-name="Path 163" d="M395.114,320a6.114,6.114,0,1,0,6.113,6.114A6.112,6.112,0,0,0,395.114,320Zm0,0" transform="translate(-270.092 -222.184)"/>
      <path id="Path_164" data-name="Path 164" d="M109.114,320a6.114,6.114,0,1,0,6.114,6.114A6.112,6.112,0,0,0,109.114,320Zm0,0" transform="translate(-71.515 -222.184)"/>
      <path id="Path_165" data-name="Path 165" d="M63.057,220a3.057,3.057,0,1,0,3.057,3.057A3.058,3.058,0,0,0,63.057,220Zm0,0" transform="translate(-41.659 -152.751)"/>
      <path id="Path_166" data-name="Path 166" d="M123.231,220H103.057a3.057,3.057,0,1,0,0,6.114h20.175a3.057,3.057,0,1,0,0-6.114Zm0,0" transform="translate(-69.432 -152.751)"/>
      <path id="Path_167" data-name="Path 167" d="M147.336,0h-75.2a9.18,9.18,0,0,0-9.17,9.17v9.17H38.033a9.159,9.159,0,0,0-8.7,6.271c-1.59,4.773-7.533,22.6-10.17,30.51a3.067,3.067,0,0,1-1.2,1.577L6.807,64.132A15.246,15.246,0,0,0,0,76.85V94.759a9.18,9.18,0,0,0,9.17,9.17H19.258a18.341,18.341,0,1,0,36.681,0h50.742a18.341,18.341,0,0,0,36.681,0h3.974a9.18,9.18,0,0,0,9.17-9.17V9.17A9.18,9.18,0,0,0,147.336,0ZM30.732,39.738h20.01V55.022h-25.1ZM37.6,116.157A12.227,12.227,0,1,1,49.825,103.93,12.241,12.241,0,0,1,37.6,116.157ZM54.889,97.816a18.34,18.34,0,0,0-34.583,0H9.17a3.06,3.06,0,0,1-3.057-3.057V91.7H16.2a3.057,3.057,0,1,0,0-6.114H6.114V76.85A9.146,9.146,0,0,1,10.2,69.22L21.34,61.792a9.063,9.063,0,0,0,.862-.657H53.8a3.057,3.057,0,0,0,3.057-3.057v-21.4A3.057,3.057,0,0,0,53.8,33.624H32.771l2.359-7.079a3.054,3.054,0,0,1,2.9-2.091H62.969V97.816Zm70.132,18.341a12.227,12.227,0,1,1,12.227-12.227A12.241,12.241,0,0,1,125.021,116.157Zm25.371-21.4a3.06,3.06,0,0,1-3.057,3.057h-5.023a18.34,18.34,0,0,0-34.583,0H69.083V9.17a3.06,3.06,0,0,1,3.057-3.057h75.2a3.06,3.06,0,0,1,3.057,3.057Zm0,0"/>
      <path id="Path_168" data-name="Path 168" d="M400.4,40A21.388,21.388,0,0,0,379,61.4V85.851a3.057,3.057,0,0,0,3.057,3.057h3.057v15.284a9.17,9.17,0,1,0,18.341,0V43.057A3.057,3.057,0,0,0,400.4,40ZM385.114,61.4a15.284,15.284,0,0,1,12.227-14.98V82.795H385.114Zm9.17,45.851a3.06,3.06,0,0,1-3.057-3.057V88.908h6.113v15.284A3.058,3.058,0,0,1,394.284,107.249Zm0,0" transform="translate(-263.149 -27.773)"/>
      <path id="Path_169" data-name="Path 169" d="M286.511,40a3.057,3.057,0,0,0-3.057,3.057V55.284a9.185,9.185,0,0,1-6.114,8.645V43.057a3.057,3.057,0,1,0-6.113,0V63.933a9.178,9.178,0,0,1-6.113-8.65V43.057a3.057,3.057,0,0,0-6.114,0V55.284a15.287,15.287,0,0,0,12.227,14.978V82.795H268.17a3.057,3.057,0,0,0-3.057,3.057v18.341a9.17,9.17,0,1,0,18.341,0V85.851a3.057,3.057,0,0,0-3.057-3.057h-3.057V70.259a15.308,15.308,0,0,0,12.227-14.976V43.057A3.057,3.057,0,0,0,286.511,40Zm-9.17,64.192a3.057,3.057,0,1,1-6.113,0V88.908h6.113Zm0,0" transform="translate(-179.83 -27.773)"/>
    </g>
  </g>
</svg>
