<svg xmlns="http://www.w3.org/2000/svg" xmlns:xlink="http://www.w3.org/1999/xlink" viewBox="0 0 230 149">
  <defs>
    <style>
      .cls-1 {
        clip-path: url(#clip-wedding);
      }

      .cls-2 {
        fill: #fbb034;
      }

      .cls-3 {
        fill: #ba4170;
      }

      .cls-4 {
        fill: #fff;
      }

      .cls-5 {
        fill: #fd0;
      }
    </style>
    <clipPath id="clip-wedding">
      <rect width="230" height="149"/>
    </clipPath>
  </defs>
  <g id="wedding" class="cls-1">
    <rect class="cls-4" width="230" height="149"/>
    <g id="_003-ring" data-name="003-ring" transform="translate(50.5)">
      <path id="Path_121" data-name="Path 121" class="cls-2" d="M62.142,262.891a27.39,27.39,0,0,1-11.69,2.626,27.252,27.252,0,1,1,0-54.5A27.184,27.184,0,0,1,69.724,219a26.52,26.52,0,0,1,1.938,2.159,27.345,27.345,0,0,1,.388,33.74q.19.245.384.485a27.327,27.327,0,0,0,8.972,7.242c.181.092.364.181.547.267a39.906,39.906,0,1,0-9.9,9.032" transform="translate(-7.361 -146.083)"/>
      <path id="Path_122" data-name="Path 122" class="cls-3" d="M308.421,83.252l-9.935-12.635-9.935,12.635Zm0,0" transform="translate(-212.215 -52.026)"/>
      <g id="Group_10" data-name="Group 10" transform="translate(63.006 18.591)">
        <path id="Path_123" data-name="Path 123" class="cls-4" d="M246.864,70.617l-8.946,12.635h13.33l9.935-12.635Zm0,0" transform="translate(-237.918 -70.617)"/>
        <path id="Path_124" data-name="Path 124" class="cls-4" d="M340.608,70.617H326.289l9.935,12.635h13.33Zm0,0" transform="translate(-303.024 -70.617)"/>
        <path id="Path_125" data-name="Path 125" class="cls-4" d="M301.632,139.707l6.789-21.1H288.551l6.79,21.1" transform="translate(-275.221 -105.974)"/>
      </g>
      <path id="Path_126" data-name="Path 126" class="cls-3" d="M258.039,139.709l-6.79-21.1h-13.33L254.187,140.2" transform="translate(-174.912 -87.383)"/>
      <path id="Path_127" data-name="Path 127" class="cls-3" d="M342.094,140.192l16.264-21.583h-13.33l-6.789,21.1" transform="translate(-248.821 -87.383)"/>
      <path id="Path_128" data-name="Path 128" class="cls-5" d="M242.718,209.993a40,40,0,0,0-49.865-5.385c.09.058.18.116.27.176a40.32,40.32,0,0,1,9.249,8.37q.194.241.385.483a27.413,27.413,0,0,1,11.691-2.625,27.252,27.252,0,1,1,0,54.5,27.184,27.184,0,0,1-19.272-7.981,26.766,26.766,0,0,1-1.937-2.157,27.35,27.35,0,0,1-.389-33.74q-.188-.245-.384-.485A26.518,26.518,0,0,0,190.53,219a27.155,27.155,0,0,0-7.033-5.086q-.273-.137-.547-.267a39.972,39.972,0,0,0,31.5,64.6h0a39.98,39.98,0,0,0,28.268-68.251Zm0,0" transform="translate(-128.167 -146.083)"/>
      <path id="Path_129" data-name="Path 129" d="M127.215,409.049a2.617,2.617,0,0,1-.513-.05,2.691,2.691,0,0,1-.948-.392,2.811,2.811,0,0,1-.4-.329,2.56,2.56,0,0,1-.326-.4,2.657,2.657,0,0,1-.243-.452,2.829,2.829,0,0,1-.15-.493,2.654,2.654,0,0,1-.052-.515,2.62,2.62,0,0,1,.052-.514,2.714,2.714,0,0,1,.15-.492,2.608,2.608,0,0,1,.243-.456,2.564,2.564,0,0,1,.726-.727,2.691,2.691,0,0,1,.948-.392,2.589,2.589,0,0,1,1.029,0,2.732,2.732,0,0,1,.492.15,2.661,2.661,0,0,1,.454.242,2.5,2.5,0,0,1,.4.327,2.691,2.691,0,0,1,.329.4,2.609,2.609,0,0,1,.243.456,2.715,2.715,0,0,1,.15.492,2.616,2.616,0,0,1,.049.514,2.65,2.65,0,0,1-.049.515,2.829,2.829,0,0,1-.15.493,2.659,2.659,0,0,1-.243.452,2.7,2.7,0,0,1-.329.4,2.755,2.755,0,0,1-.4.329,2.661,2.661,0,0,1-.454.242,2.735,2.735,0,0,1-.492.15A2.641,2.641,0,0,1,127.215,409.049Zm0,0" transform="translate(-91.414 -297.48)"/>
      <path id="Path_130" data-name="Path 130" d="M116.413,106.708h0A42.371,42.371,0,0,0,97.823,95.8L111.64,77.47a2.72,2.72,0,0,0,.524-1.412,3.9,3.9,0,0,0-.488-1.707l-8.937-12.622a2.631,2.631,0,0,0-2.148-1.112H71.953A2.633,2.633,0,0,0,69.8,61.729l-8.937,12.62a3.552,3.552,0,0,0-.476,1.84,2.42,2.42,0,0,0,.513,1.28L74.728,95.814a42.323,42.323,0,0,0-10.042,4.28,42.611,42.611,0,1,0,0,73.493,42.462,42.462,0,0,0,21.593,5.865h.039a42.613,42.613,0,0,0,30.1-72.745ZM93.555,92.718l4.57-14.2h6.131Zm5.674-26.835,5.218,7.369H97.486l-5.8-7.369ZM92.594,78.517,87.532,94.247c-.417-.011-.833-.019-1.252-.019s-.846.007-1.269.02l-5.063-15.73ZM86.271,67.51l4.517,5.743H81.755ZM73.313,65.883h7.538l-5.8,7.369H68.1ZM68.287,78.517h6.13l4.57,14.2ZM43.093,174.186A37.346,37.346,0,1,1,63.263,105.4l.24.155.012.008h0a37.7,37.7,0,0,1,8.64,7.818l0,.005.028.034.144.18.015.02.172.217a.077.077,0,0,1,.008.011,37.364,37.364,0,0,1,1.29,44.228,24.6,24.6,0,0,1-4.945-3.828c-.3-.3-.583-.6-.861-.906a30,30,0,0,0-1.237-34.731l-.006-.007-.025-.032-.015-.021c-.028-.036-.056-.072-.084-.107l-.011-.014c-.029-.038-.058-.074-.086-.111l-.009-.011c-.028-.036-.057-.071-.084-.106l-.028-.034-.034-.042-.043-.055-.007-.008a29.17,29.17,0,0,0-2.116-2.356,29.783,29.783,0,0,0-7.7-5.572l-.009-.005-.1-.048-.066-.032-.09-.045-.088-.043-.084-.041-.1-.046-.078-.037a0,0,0,0,1,0,0h0a30.04,30.04,0,0,0-12.82-2.882,29.885,29.885,0,0,0,0,59.77,30.131,30.131,0,0,0,10.914-2.06c.684.793,1.4,1.564,2.141,2.306a43.031,43.031,0,0,0,3.67,3.272A37.253,37.253,0,0,1,43.093,174.186Zm35.6-60.769a24.841,24.841,0,0,1,7.588-1.2,24.619,24.619,0,0,1,0,49.239,24.794,24.794,0,0,1-7.591-1.2,42.63,42.63,0,0,0,0-46.847Zm-14,35.242a24.943,24.943,0,0,1-.005-23.637A24.943,24.943,0,0,1,64.689,148.659Zm-38.05,1.065a2.633,2.633,0,0,0,4.144-3.248,15.48,15.48,0,0,1-3.321-9.636,15.657,15.657,0,0,1,19.042-15.268,42.588,42.588,0,0,0,4.174,38.691,24.815,24.815,0,0,1-7.588,1.2,24.619,24.619,0,1,1,0-49.239,24.79,24.79,0,0,1,7.591,1.2q-1.052,1.6-1.953,3.285A20.908,20.908,0,0,0,26.64,149.725Zm86.05,13.524a37.1,37.1,0,0,1-26.407,10.938h-.034a37.2,37.2,0,0,1-20.091-5.875l-.095-.061-.206-.134a37.7,37.7,0,0,1-8.644-7.823c-.114-.141-.226-.283-.338-.425-.015-.02-.03-.039-.045-.058A37.362,37.362,0,0,1,55.557,115.6a24.661,24.661,0,0,1,4.944,3.828q.444.444.862.907a30,30,0,0,0,1.2,34.691l.066.085q.191.247.389.491a29.975,29.975,0,0,0,9.84,7.944q.281.14.563.275c.03.015.06.029.089.043a30.063,30.063,0,0,0,12.77,2.858h0a29.885,29.885,0,0,0,0-59.77,30.148,30.148,0,0,0-10.914,2.059c-.685-.793-1.4-1.564-2.143-2.306a43.353,43.353,0,0,0-3.669-3.272,37.182,37.182,0,0,1,13.733-3.824l.071-.005q1.453-.113,2.922-.113t2.894.11l.089.007a37.348,37.348,0,0,1,23.426,63.638Zm0,0" transform="translate(0 -44.659)"/>
      <path id="Path_131" data-name="Path 131" d="M318.922,10a2.632,2.632,0,0,1-2.633-2.633V2.633a2.633,2.633,0,1,1,5.265,0V7.372A2.632,2.632,0,0,1,318.922,10Zm0,0" transform="translate(-232.651)"/>
      <path id="Path_132" data-name="Path 132" d="M228.936,47.277a2.622,2.622,0,0,1-1.861-.771l-3.352-3.351a2.633,2.633,0,0,1,3.724-3.724l3.351,3.351a2.633,2.633,0,0,1-1.861,4.5Zm0,0" transform="translate(-163.886 -28.482)"/>
      <path id="Path_133" data-name="Path 133" d="M399.533,47.277a2.633,2.633,0,0,1-1.861-4.5l3.352-3.351a2.633,2.633,0,0,1,3.723,3.724L401.4,46.506A2.627,2.627,0,0,1,399.533,47.277Zm0,0" transform="translate(-292.04 -28.482)"/>
      <path id="Path_134" data-name="Path 134" d="M437.661,137.265h-4.739a2.633,2.633,0,1,1,0-5.265h4.739a2.633,2.633,0,0,1,0,5.265Zm0,0" transform="translate(-316.638 -97.248)"/>
      <path id="Path_135" data-name="Path 135" d="M191.661,137.265h-4.739a2.633,2.633,0,0,1,0-5.265h4.739a2.633,2.633,0,0,1,0,5.265Zm0,0" transform="translate(-135.402 -97.248)"/>
    </g>
  </g>
</svg>
