<svg xmlns="http://www.w3.org/2000/svg" xmlns:xlink="http://www.w3.org/1999/xlink" width="513" height="513" viewBox="0 0 513 513">
  <defs>
    <clipPath id="clip-path">
      <rect id="Rectangle_490" data-name="Rectangle 490" width="513" height="513" transform="translate(-292 4032)" fill="#fff" stroke="#707070" stroke-width="1"/>
    </clipPath>
  </defs>
  <g id="Mask_Group_8" data-name="Mask Group 8" transform="translate(292 -4032)" clip-path="url(#clip-path)">
    <g id="touch-1" transform="translate(-292 4032)">
      <path id="Path_132" data-name="Path 132" d="M320.625,128.25H288.563a80.156,80.156,0,1,0-160.312,0H96.188a112.219,112.219,0,1,1,224.438,0Z" fill="#fff"/>
      <path id="Path_133" data-name="Path 133" d="M400.781,240.469a47.132,47.132,0,0,0-23.566,6.413,48.094,48.094,0,0,0-40.559-22.444,47.131,47.131,0,0,0-23.566,6.412,48.094,48.094,0,0,0-56.59-19.558V128.25h0a48.094,48.094,0,1,0-96.187,0V306.2l-35.75-24.367h0a46.972,46.972,0,0,0-28.375-9.3A48.094,48.094,0,0,0,62.2,354.772L190.451,471.8A98.753,98.753,0,0,0,256.5,496.969h80.156A112.219,112.219,0,0,0,448.875,384.75V288.563a48.094,48.094,0,0,0-48.094-48.094ZM416.813,384.75a80.156,80.156,0,0,1-80.156,80.156H256.5a66.85,66.85,0,0,1-44.246-16.031L84.805,331.847a16.006,16.006,0,0,1,21-24.047l86.569,59.316V128.25a16.031,16.031,0,0,1,32.063,0h0V304.594H256.5V256.5a16.031,16.031,0,0,1,32.063,0v48.094h32.063V272.531a16.031,16.031,0,0,1,32.063,0v32.063H384.75V288.563a16.031,16.031,0,0,1,32.063,0Z" fill="#fff"/>
      <rect id="_Transparent_Rectangle_" data-name="&lt;Transparent Rectangle&gt;" width="513" height="513" fill="none"/>
    </g>
  </g>
</svg>
