<svg xmlns="http://www.w3.org/2000/svg" xmlns:xlink="http://www.w3.org/1999/xlink" width="513" height="513" viewBox="0 0 513 513">
  <defs>
    <clipPath id="clip-path">
      <rect id="Rectangle_487" data-name="Rectangle 487" width="513" height="513" transform="translate(-292 2302)" fill="#fff" stroke="#707070" stroke-width="1"/>
    </clipPath>
  </defs>
  <g id="Mask_Group_6" data-name="Mask Group 6" transform="translate(292 -2302)" clip-path="url(#clip-path)">
    <g id="mac-command" transform="translate(-292 2302)">
      <path id="Path_127" data-name="Path 127" d="M384.75,208.406a64.125,64.125,0,0,0,64.125-64.125V128.25A64.125,64.125,0,0,0,384.75,64.125H368.719a64.125,64.125,0,0,0-64.125,64.125v48.094H208.406V128.25a64.125,64.125,0,0,0-64.125-64.125H128.25A64.125,64.125,0,0,0,64.125,128.25v16.031a64.125,64.125,0,0,0,64.125,64.125h48.094v96.188H128.25a64.125,64.125,0,0,0-64.125,64.125V384.75a64.125,64.125,0,0,0,64.125,64.125h16.031a64.125,64.125,0,0,0,64.125-64.125V336.656h96.188V384.75a64.125,64.125,0,0,0,64.125,64.125H384.75a64.125,64.125,0,0,0,64.125-64.125V368.719a64.125,64.125,0,0,0-64.125-64.125H336.656V208.406ZM336.656,128.25a32.063,32.063,0,0,1,32.063-32.062H384.75a32.062,32.062,0,0,1,32.063,32.063v16.031a32.063,32.063,0,0,1-32.062,32.063H336.656ZM128.25,176.344a32.063,32.063,0,0,1-32.062-32.062V128.25A32.063,32.063,0,0,1,128.25,96.188h16.031a32.063,32.063,0,0,1,32.063,32.063v48.094ZM176.344,384.75a32.062,32.062,0,0,1-32.062,32.063H128.25A32.062,32.062,0,0,1,96.188,384.75V368.719a32.062,32.062,0,0,1,32.063-32.062h48.094Zm128.25-80.156H208.406V208.406h96.188Zm32.063,32.063H384.75a32.063,32.063,0,0,1,32.063,32.063V384.75a32.063,32.063,0,0,1-32.062,32.063H368.719a32.063,32.063,0,0,1-32.062-32.062Z" fill="#fff"/>
      <rect id="_Transparent_Rectangle_" data-name="&lt;Transparent Rectangle&gt;" width="513" height="513" fill="none"/>
    </g>
  </g>
</svg>
